<?xml version="1.0" encoding="UTF-8" standalone="no"?>
<svg
   version="1.1"
   viewBox="-301.2 -3238.025 8000 2561.8589"
   id="svg146"
   sodipodi:docname="logo_CrownDown.svg"
   width="8000"
   height="2561.8589"
   inkscape:version="1.1 (c68e22c387, 2021-05-23)"
   xmlns:inkscape="http://www.inkscape.org/namespaces/inkscape"
   xmlns:sodipodi="http://sodipodi.sourceforge.net/DTD/sodipodi-0.dtd"
   xmlns="http://www.w3.org/2000/svg"
   xmlns:svg="http://www.w3.org/2000/svg">
  <sodipodi:namedview
     id="namedview148"
     pagecolor="#7c7c7c"
     bordercolor="#ffffff"
     borderopacity="1"
     inkscape:pageshadow="2"
     inkscape:pageopacity="0"
     inkscape:pagecheckerboard="0"
     showgrid="false"
     fit-margin-top="500"
     fit-margin-left="500"
     fit-margin-right="500"
     fit-margin-bottom="500"
     inkscape:zoom="0.08"
     inkscape:cx="3525"
     inkscape:cy="-1056.25"
     inkscape:window-width="1920"
     inkscape:window-height="1013"
     inkscape:window-x="-9"
     inkscape:window-y="-9"
     inkscape:window-maximized="1"
     inkscape:current-layer="g142" />
  <desc
     id="desc2">Created with Snap</desc>
  <defs
     id="defs4" />
  <rect
     x="-234.91803"
     y="-4219.481"
     width="10000"
     height="4815.5107"
     fill="#37393a"
     id="rect6"
     style="fill:#37393a;fill-opacity:0;stroke-width:1.3543" />
  <g
     id="g142"
     transform="matrix(1.3542979,0,0,1.3542979,172.99654,-1277.1177)">
    <path
       id="path1547"
       style="color:#000000;fill:#ffffff;stroke-width:0.533018;-inkscape-stroke:none"
       d="M 3852.5527 793.40039 C 3814.1753 793.40039 3774.9099 799.62012 3734.7559 812.05664 L 3693.7129 824.84961 C 3681.6311 828.75811 3668.8391 830.71289 3655.3359 830.71289 C 3649.6504 857.71895 3646.8086 882.06079 3646.8086 903.73633 C 3646.8086 957.03878 3662.6203 993.10659 3694.2461 1011.9395 C 3704.5511 968.94253 3721.7857 931.63015 3745.9492 900.00391 C 3758.031 884.36921 3771.5344 871.57698 3786.459 861.62695 C 3801.3835 851.6776 3816.3079 846.70312 3831.2324 846.70312 C 3846.5124 846.70312 3858.9486 849.36743 3868.543 854.69727 C 3895.194 869.62231 3908.5195 920.26002 3908.5195 1006.6094 L 3908.5195 1012.4727 C 3827.856 1013.894 3760.8742 1031.1269 3707.5723 1064.1738 C 3680.5659 1081.2305 3658.711 1102.729 3642.0098 1128.6699 C 3625.6639 1154.6101 3617.4922 1184.992 3617.4922 1219.8164 C 3617.4922 1254.6401 3628.8634 1284.845 3651.6055 1310.4297 C 3677.5458 1338.8578 3711.6591 1353.0703 3753.9453 1353.0703 C 3828.2126 1353.0703 3885.4221 1328.9069 3925.5762 1280.5801 L 3942.0996 1342.4102 L 4096.6758 1342.4102 L 4071.625 1322.1562 C 4062.0307 1314.6941 4053.6791 1304.0343 4046.5723 1290.1758 C 4034.8459 1267.0782 4028.9824 1223.7258 4028.9824 1160.1191 L 4030.582 1057.7773 C 4030.582 964.67681 4019.7444 899.11566 3998.0684 861.09375 C 3985.2759 838.70721 3967.3299 821.82772 3944.2324 810.45703 C 3921.4903 799.08567 3890.9301 793.40039 3852.5527 793.40039 z M 3908.5195 1064.707 L 3908.5195 1143.5938 C 3908.5195 1186.2352 3895.194 1223.3699 3868.543 1254.9961 C 3857.1719 1268.8539 3844.3799 1279.8697 3830.166 1288.043 C 3815.9522 1295.8607 3801.2057 1299.7695 3785.9258 1299.7695 C 3770.6458 1299.7695 3757.8539 1293.7282 3747.5488 1281.6465 C 3737.5991 1269.5648 3732.623 1252.5076 3732.623 1230.4766 C 3732.623 1183.5705 3750.2133 1144.8371 3785.3926 1114.2773 C 3817.7291 1085.85 3858.7712 1069.3265 3908.5195 1064.707 z "
       transform="matrix(0.73838998,0,0,0.73838998,-350.14197,-1447.9143)" />
    <path
       id="path1565"
       style="color:#000000;fill:#ffffff;stroke-width:0.533018;-inkscape-stroke:none"
       d="M 2793.1348 1641.4355 C 2716.024 1641.4355 2654.9041 1664.7118 2609.7754 1711.2617 C 2562.1591 1760.2995 2538.3516 1827.8147 2538.3516 1913.8086 C 2538.3516 1999.0914 2555.9398 2066.787 2591.1191 2116.8906 C 2630.9184 2173.0351 2688.8407 2201.1074 2764.8848 2201.1074 C 2830.2689 2201.1074 2878.9506 2185.4719 2910.9316 2154.2012 C 2925.1455 2140.3433 2935.0935 2125.4179 2940.7793 2109.4277 C 2946.4648 2093.4369 2949.3086 2074.9594 2949.3086 2053.9941 C 2949.3086 2032.6734 2942.9113 2017.7494 2930.1191 2009.2207 C 2909.1538 2054.7048 2886.0576 2089.172 2860.8281 2112.625 C 2835.5988 2136.0774 2811.7892 2147.8047 2789.4023 2147.8047 C 2767.0157 2147.8047 2749.0713 2143.5397 2735.5684 2135.0117 C 2698.2565 2110.8483 2675.8705 2063.0559 2668.4082 1991.6309 C 2759.0217 1989.4992 2829.5565 1968.8885 2880.0156 1929.8008 C 2904.5346 1910.9672 2923.0123 1888.5789 2935.4492 1862.6387 C 2948.2419 1836.3436 2954.6387 1807.028 2954.6387 1774.6914 C 2954.6387 1742 2942.7363 1713.2162 2918.9277 1688.3418 C 2888.7226 1657.0711 2846.7919 1641.4355 2793.1348 1641.4355 z M 2768.6152 1694.7383 C 2781.4077 1694.7383 2791.7116 1696.8707 2799.5293 1701.1348 C 2822.2716 1714.283 2833.6426 1739.8668 2833.6426 1777.8887 C 2833.6426 1879.1624 2777.4987 1933.532 2665.209 1940.9941 L 2665.209 1924.4707 C 2665.2091 1843.4519 2675.5149 1783.574 2696.125 1744.8418 C 2705.7193 1727.0741 2716.9127 1714.2825 2729.7051 1706.4648 C 2742.853 1698.6472 2755.8228 1694.7383 2768.6152 1694.7383 z "
       transform="matrix(0.73838998,0,0,0.73838998,-350.14197,-1447.9143)" />
    <path
       id="path1533"
       style="color:#000000;fill:#ffffff;stroke-width:0.533018;-inkscape-stroke:none"
       d="M 1297.2598 793.40039 C 1147.659 793.40039 1072.8594 874.24165 1072.8594 1035.9238 C 1072.8594 1133.9994 1093.4693 1211.6432 1134.6895 1268.8535 C 1174.8435 1324.9987 1229.0333 1353.0703 1297.2598 1353.0703 C 1365.4862 1353.0703 1419.676 1324.9987 1459.8301 1268.8535 C 1501.0502 1211.6432 1521.6602 1133.9994 1521.6602 1035.9238 C 1521.6602 874.24165 1446.8605 793.40039 1297.2598 793.40039 z M 1312.1289 909.54883 C 1328.49 909.46621 1341.3831 914.08013 1348.2793 917.32617 C 1362.2798 929.69669 1373.5059 942.81389 1373.5059 990.78516 C 1373.5059 1038.4016 1369.3018 1098.4117 1367.5254 1153.1348 C 1366.1038 1207.8579 1356.5092 1247.3015 1338.7422 1271.4648 C 1330.5694 1282.8355 1320.9767 1291.5412 1309.9609 1297.582 C 1299.3006 1303.2681 1286.6842 1306.1113 1272.1152 1306.1113 C 1257.9013 1306.1113 1245.6426 1301.8464 1235.3379 1293.3184 C 1225.3881 1284.4348 1216.6811 1270.5757 1209.2188 1251.7422 C 1202.1122 1232.9093 1198.5586 1199.8625 1198.5586 1152.6016 C 1198.5586 1072.6486 1206.2822 998.64222 1237.1973 946.05078 C 1264.3248 917.52501 1291.0933 909.65505 1312.1289 909.54883 z "
       transform="matrix(0.73838998,0,0,0.73838998,-350.14197,-1447.9143)" />
    <path
       id="path1561"
       style="color:#000000;fill:#ffffff;stroke-width:0.533018;-inkscape-stroke:none"
       d="M 2240.9258 1374.9277 L 2259.0488 1399.9785 C 2264.7346 1407.7955 2269.7085 1416.5031 2273.9727 1426.0977 C 2278.5922 1435.3367 2283.0347 1448.1289 2287.2988 1464.4746 C 2291.9186 1480.4648 2295.6495 1543.184 2298.4922 1652.6309 C 2216.763 1655.8284 2147.8265 1687.2765 2091.6816 1746.9746 C 2063.2541 1777.1795 2040.3345 1814.6683 2022.9219 1859.4414 C 2005.5098 1903.8603 1996.8027 1955.9171 1996.8027 2015.6152 C 1996.8027 2074.9579 2013.1503 2120.9766 2045.8418 2153.668 C 2077.4674 2185.2942 2120.642 2201.1074 2175.3652 2201.1074 C 2235.0638 2201.1074 2284.2789 2183.5171 2323.0117 2148.3379 L 2330.4727 2190.4473 L 2468.5254 2190.4473 L 2450.4023 2165.9277 C 2444.7166 2158.1101 2439.565 2149.7585 2434.9453 2140.875 C 2430.6812 2131.636 2426.4165 2119.5559 2422.1523 2104.6309 C 2417.8882 2089.351 2414.8684 2041.7336 2413.0918 1961.7812 C 2412.3812 1940.4605 2411.8477 1917.8964 2411.4922 1894.0879 L 2411.4922 1789.084 C 2411.4922 1742.5334 2412.0257 1695.8039 2413.0918 1648.8984 C 2413.4473 1620.8259 2413.9808 1593.9988 2414.6914 1568.4141 C 2415.4019 1542.8287 2416.4672 1513.1563 2417.8887 1479.3984 C 2419.6652 1445.6405 2425.5282 1410.818 2435.4785 1374.9277 L 2240.9258 1374.9277 z M 2300.0918 1704.332 C 2301.1576 1747.6845 2301.6895 1793.3471 2301.6895 1841.3184 C 2301.6895 1888.9348 2300.8018 1940.105 2299.0254 1994.8281 C 2297.6038 2049.5512 2288.0092 2088.9948 2270.2422 2113.1582 C 2262.0694 2124.5289 2252.4747 2133.2365 2241.459 2139.2773 C 2230.7986 2144.9634 2218.1842 2147.8047 2203.6152 2147.8047 C 2189.4013 2147.8047 2177.1407 2143.5397 2166.8359 2135.0117 C 2156.8862 2126.1282 2148.1811 2112.271 2140.7188 2093.4375 C 2133.6122 2074.6046 2130.0586 2041.5559 2130.0586 1994.2949 C 2130.0586 1914.3419 2145.5165 1848.07 2176.4316 1795.4785 C 2207.3465 1742.5322 2248.5666 1712.1497 2300.0918 1704.332 z "
       transform="matrix(0.73838998,0,0,0.73838998,-350.14197,-1447.9143)" />
    <g
       transform="matrix(0.15216308,0.34379235,0.34379235,-0.15216308,1852.0563,-1845.5043)"
       id="g140">
      <path
         class="cls-1"
         d="m 5857.5763,-149.50614 -639.79,-368.67851 a 73.841531,73.841531 0 0 0 -73.7358,127.95827 l 580.9156,334.752087 -220.9866,469.214303 -7.5649,-207.18769 A 176.47878,176.47878 0 0 0 5221.6131,65.239183 L 4946.2067,247.43321 4965.7019,-82.229483 A 176.47878,176.47878 0 0 0 4705.6424,-249.12949 l -181.7952,98.06915 295.1971,-426.45059 69.0985,39.81795 a 73.841527,73.841527 0 0 0 73.7358,-127.95826 l -127.973,-73.74426 a 73.840496,73.840496 0 0 0 -97.9071,21.98435 L 4229.6457,13.482093 a 73.840496,73.840496 0 0 0 6.6272,89.043267 73.840496,73.840496 0 0 0 90.3496,16.26672 l 451.5452,-240.90496 a 31.013007,31.013007 0 0 1 30.0523,1.12449 29.536197,29.536197 0 0 1 13.6366,26.607737 l -27.823,475.702663 a 73.840496,73.840496 0 0 0 113.8934,65.63096 l 397.6274,-262.60321 a 29.536197,29.536197 0 0 1 29.8587,-1.54362 31.751413,31.751413 0 0 1 15.9988,25.41245 l 18.0296,511.49702 a 73.840496,73.840496 0 0 0 59.3797,70.01456 73.840496,73.840496 0 0 0 80.3632,-38.91505 l 378.4231,-804.612503 a 73.840496,73.840496 0 0 0 -30.0312,-95.708757 z"
         id="path6"
         style="fill:#ffc107;fill-opacity:1;stroke-width:73.8404" />
    </g>
    <path
       style="color:#000000;fill:#ffffff;stroke-width:0.393575;-inkscape-stroke:none"
       d="m 2161.3505,-251.24352 c 7.084,15.74299 10.6261,31.6175 10.6261,47.62299 0,16.00551 -0.787,29.25551 -2.3615,39.751 -1.3115,10.4955 -3.411,20.59701 -6.297,30.3055 -6.5595,22.04 -15.8745,38.964007 -27.944,50.771001 -8.134,-40.669491 -17.055,-67.039001 -26.763,-79.108501 -9.446,-12.0695 -19.0225,-20.2035 -28.7315,-24.4015 -9.4454,-4.1985 -19.5475,-6.2975 -30.3049,-6.2975 -10.7573,0 -19.5473,1.0495 -26.3693,3.1485 -6.822,2.099 -12.7255,5.1165 -17.711,9.0525 -11.2825,8.6585 -16.9236,18.498 -16.9236,29.518 0,11.02001 2.7545,20.59701 8.2646,28.731 5.5105,7.8715 12.726,15.3495 21.647,22.434007 9.1835,6.821997 19.548,13.512494 31.0923,20.072494 l 35.422,20.072005 c 30.436,17.055 51.2959,31.224 62.5785,42.5065 22.3024,22.3025 33.454,45.786 33.454,70.45 0,32.273003 -11.02,59.429994 -33.0605,81.470004 -27.813,28.33749 -69.532,42.5065 -125.1568,42.5065 -50.6406,0 -88.6861,-11.8075 -114.1371,-35.422 -7.347,-6.822 -12.5945,-13.644 -15.7431,-20.466 2.0991,-19.67851 10.8891,-38.176501 26.3695,-55.494004 14.9555,-16.7925 29.518,-26.501 43.687,-29.1245 -1.0501,3.411 -1.5746,8.5275 -1.5746,15.3495 0,6.822 1.968,15.349 5.9042,25.582 3.9354,9.971 9.5765,19.285497 16.9235,27.943994 16.5301,19.94151 35.159,29.91201 55.8879,29.91201 20.728,0 35.946,-4.723 45.6545,-14.169 9.7085,-9.44551 14.5625,-20.20351 14.5625,-32.273004 0,-12.0695 -2.755,-22.1715 -8.2655,-30.3055 -5.51,-8.134 -12.8565,-15.743 -22.04,-22.8275 -8.921,-7.084 -19.154,-13.906 -30.6989,-20.466 l -35.4219,-20.072 c -30.1741,-17.842 -50.9021,-33.0605 -62.1851,-45.655 -22.5645,-25.189 -33.847,-52.607996 -33.847,-82.257496 0,-31.2235 13.119,-56.5435 39.3575,-75.96 24.926,-18.367 56.0186,-27.5505 93.2769,-27.5505 l 69.27,4.723 c 16.7925,0 28.468,-1.968 35.028,-5.9035 6.5594,-4.198 12.07,-8.921 16.5303,-14.169 z"
       id="path1569" />
    <path
       style="color:#000000;fill:#ffffff;stroke-width:0.393575;-inkscape-stroke:none"
       d="M 1037.6908,169.48947 H 921.58604 c 12.0697,-41.4565 18.1044,-112.693994 18.1044,-213.711994 0,-71.105996 -6.2972,-120.040496 -18.8916,-146.803496 -3.1486,-6.82201 -6.6909,-13.1195 -10.6266,-18.892 l -12.9879,-18.1045 h 139.71936 c -11.5447,43.29349 -17.3173,110.07049 -17.3173,200.330496 0,89.9975 6.0347,155.724994 18.1044,197.181494 z"
       id="path1559" />
    <path
       style="color:#000000;fill:#ffffff;stroke-width:0.393575;-inkscape-stroke:none"
       d="m 1028.2451,-333.89402 c -5.2476,8.6585 -11.6761,16.005 -19.2851,22.04 -7.609,5.7725 -16.26796,8.6585 -25.97626,8.6585 -9.7083,0 -18.367,-2.886 -25.976,-8.6585 -7.609,-6.035 -14.0374,-13.3815 -19.285,-22.04 -10.7579,-17.8425 -16.1367,-36.734 -16.1367,-56.675 0,-24.13953 11.0201,-40.27603 33.0603,-48.41003 7.8715,-2.88601 17.4485,-4.3295 28.7311,-4.3295 31.22346,0 50.64016,11.0205 58.24906,33.0605 2.3615,6.29753 3.5425,13.38153 3.5425,21.25303 0,7.6095 -1.4435,16.5305 -4.3296,26.7635 -2.886,10.233 -7.0843,19.6785 -12.5943,28.3375 z"
       id="path1557" />
    <path
       style="color:#000000;fill:#ffffff;stroke-width:0.393575;-inkscape-stroke:none"
       d="m 787.77024,-209.91802 v 18.892 l -5.9038,175.928496 c 0,71.6305 6.2971,120.827494 18.8919,147.590994 4.4604,9.708 12.3319,22.04 23.6145,36.996 h -109.4142 c -6.0346,-17.84199 -9.9705,-40.40699 -11.8073,-67.695 -30.4367,50.3775 -69.6629,75.56651 -117.6794,75.56651 -33.0603,0 -58.3804,-12.332 -75.9598,-36.996 -17.3176,-23.877 -25.9762,-56.675001 -25.9762,-98.394004 v -53.133 -36.209 l -0.7871,-35.815505 c -0.2625,-22.827491 -1.0496,-40.537991 -2.3615,-53.132501 -1.0495,-12.857 -2.3614,-23.48349 -3.9358,-31.87999 -1.3119,-8.65851 -3.0174,-16.26751 -5.1165,-22.827 -2.099,-6.82201 -4.4605,-13.1195 -7.0843,-18.892 l -8.6587,-18.1045 h 113.7435 c 0.2625,4.1985 0.3935,8.134 0.3935,11.8075 v 11.4135 l -6.6906,197.5754959 c 0,38.5700001 2.4927,64.8085001 7.4777,78.7150001 4.9854,13.906503 10.8892,23.876997 17.7111,29.911494 7.0843,6.035 16.3989,9.0525 27.944,9.0525 31.2235,0 56.5435,-17.054994 75.9601,-51.164994 5.2476,-9.708 9.5771,-19.5475 12.9878,-29.518 0.525,-14.6935 0.7872,-31.355 0.7872,-49.984 0,-95.770496 -7.0844,-159.005006 -21.253,-189.703996 l -8.6587,-18.1045 h 112.1691 c -0.262,6.56 -0.3935,12.5945 -0.3935,18.1045 z"
       id="path1555" />
    <path
       style="color:#000000;fill:#ffffff;stroke-width:0.393575;-inkscape-stroke:none"
       d="m 279.66364,-22.969024 -0.3935,-51.165 c 0,-29.649506 -2.8862,-49.328496 -8.6587,-59.036496 -5.7724,-9.9705 -11.8073,-17.186 -18.1045,-21.6465 -6.2972,-4.72301 -14.0374,-9.446 -23.221,-14.16901 h 172.7798 c -16.53,15.2185 -27.0254,34.635 -31.486,58.24951 -4.198,22.564994 -6.2972,57.461996 -6.2972,104.6909959 0,91.8345031 5.5102,152.9699941 16.5302,183.4064941 -3.6733,0.265 -7.3468,0.395 -11.02,0.395 h -10.6267 c -115.449,0 -202.954,-37.12749 -262.515197,-111.381994 -56.9372,-71.106 -85.406,-171.992496 -85.406,-302.660006 0,-64.54649 19.0229,-114.0055 57.0685,-148.378 35.159497,-32.01103 82.257397,-48.01652 141.293897,-48.01652 l 69.2693,0.7875 c 36.4714,0 61.9226,-4.4605 76.3537,-13.3815 6.0348,-3.936 11.1515,-8.9215 15.3495,-14.95601 6.5597,12.5945 9.8394,29.9115 9.8394,51.952 0,22.04003 -0.6559,39.88254 -1.9679,53.52603 -1.3118,13.382 -3.2798,26.501 -5.9036,39.358 -5.5101,27.28801 -14.0376,48.541 -25.5825,63.75901 -9.9706,-52.4765 -22.4338,-88.6855 -37.3896,-108.62701 -16.7926,-22.04 -43.031,-33.06 -78.7153,-33.06 -45.13,0 -77.0097,18.10451 -95.6389,54.3135 -13.3816,26.5005 -20.0724,66.6455 -20.0724,120.434 0,73.73 11.4137,144.442506 34.2411,212.1375059 16.0055,47.4915001 35.9466,81.2080001 59.8235,101.1489971 12.3321,10.495497 25.0577,15.742997 38.177,15.742997 13.3815,0 21.909,-3.8045 25.5824,-11.413497 3.6734,-7.609497 5.6412,-20.597497 5.9036,-38.963997 0.5248,-36.209 0.7872,-63.8905 0.7872,-83.0445 z"
       id="path1553" />
    <path
       style="color:#000000;fill:#ffffff;stroke-width:0.78715;-inkscape-stroke:none"
       d="m 5363.7738,1708.4069 h 290.459 c -9.4458,-23.09 -14.1687,-48.541 -14.1687,-76.354 0,-27.288 2.0991,-51.689 6.2972,-73.205 4.1981,-20.991 9.9707,-45.655 17.3174,-73.992 l 85.0124,-302.267 29.9118,-96.819 c 30.9612,92.884 51.4271,155.593 61.3978,188.129 l 28.3375,96.033 c 30.9612,105.478 46.4419,170.812 46.4419,196 0,25.189 -1.312,43.556 -3.9358,55.101 -2.0991,12.07 -5.2477,22.827 -9.4458,32.273 -5.2477,14.169 -15.4807,32.536 -30.6989,55.101 h 286.5233 c -38.8328,-53.526 -64.8088,-93.671 -77.928,-120.434 l -29.1247,-59.824 c -4.7229,-9.446 -11.2824,-23.09 -19.6788,-40.932 -102.8545,-234.571 -154.2817,-391.739 -154.2817,-471.504 0,-36.20905 6.822,-70.31905 20.4659,-102.32905 h -283.3747 c 12.5944,19.941 19.9412,38.57 22.0403,55.887 2.6238,17.842 3.9358,35.94705 3.9358,54.31405 0,18.891 -4.7229,45.917 -14.1688,81.076 -9.4458,35.16 -21.7778,75.042 -36.9961,119.648 -15.2182,44.605 -32.798,91.572 -52.7392,140.9 -19.4164,49.853 -39.3576,97.344 -59.8236,142.474 -46.1795,101.28 -83.4381,168.188 -111.7755,200.724 z"
       transform="scale(0.5,-0.5)"
       id="path1551" />
    <path
       style="color:#000000;fill:#ffffff;stroke-width:0.78715;-inkscape-stroke:none"
       d="m 4442.8061,1480.1329 -0.787,-206.234 c 0,-170.025 10.2329,-290.19705 30.6989,-360.51505 h -232.2099 c 14.6935,50.902 23.8768,110.98805 27.5502,180.25705 7.8716,167.401 11.8074,297.281 11.8074,389.64 0,92.36 -0.262,154.282 -0.787,185.768 l -1.5743,96.033 c -3.1486,113.875 -8.6586,185.505 -16.5302,214.892 -7.3467,29.912 -14.4311,51.428 -21.2531,64.547 -6.2972,13.644 -13.6439,25.976 -22.0402,36.996 l -25.9761,36.209 h 287.3105 c -14.6936,-53.002 -23.3522,-103.904 -25.976,-152.708 -2.0991,-48.278 -3.9358,-91.047 -5.5101,-128.305 -1.0495,-37.259 -2.0991,-76.092 -3.1486,-116.499 -1.0495,-67.17 -1.5743,-147.197 -1.5743,-240.081 z"
       transform="scale(0.5,-0.5)"
       id="path1545" />
    <path
       style="color:#000000;fill:#ffffff;stroke-width:0.78715;-inkscape-stroke:none"
       d="m 4008.2983,1754.8489 c 14.1687,-31.486 21.253,-63.235 21.253,-95.246 0,-32.01 -1.5743,-58.511 -4.7229,-79.502 -2.6238,-20.991 -6.822,-41.194 -12.5944,-60.611 -13.1192,-44.08 -31.7484,-77.928 -55.8878,-101.542 -16.2678,81.339 -34.1098,134.078 -53.5263,158.217 -18.8917,24.14 -38.0456,40.408 -57.4621,48.804 -18.8917,8.396 -39.0953,12.594 -60.6107,12.594 -21.5155,0 -39.0953,-2.099 -52.7392,-6.297 -13.6439,-4.198 -25.4512,-10.233 -35.4218,-18.104 -22.565,-17.318 -33.8475,-36.997 -33.8475,-59.037 0,-22.04 5.51,-41.194 16.5301,-57.462 11.0201,-15.743 25.4513,-30.699 43.2934,-44.868 18.3668,-13.644 39.0952,-27.025 62.185,-40.144 l 70.8437,-40.145 c 60.873,-34.11 102.5921,-62.447 125.1572,-85.012 44.6052,-44.606 66.9078,-91.572 66.9078,-140.901 0,-64.546 -22.0402,-118.86 -66.1207,-162.94005 -55.6254,-56.675 -139.0635,-85.012 -250.3143,-85.012 -101.2803,0 -177.3715,23.614 -228.2741,70.843 -14.6935,13.644 -25.1888,27.288 -31.486,40.93205 4.1981,39.358 21.7779,76.354 52.7392,110.988 29.9117,33.586 59.0363,53.002 87.3738,58.25 -2.0991,-6.822 -3.1486,-17.055 -3.1486,-30.699 0,-13.644 3.9358,-30.699 11.8073,-51.165 7.8715,-19.941 19.154,-38.57 33.8475,-55.888 33.0603,-39.882 70.3189,-59.82305 111.7756,-59.82305 41.4567,0 71.8932,9.445 91.3096,28.33705 19.4164,18.892 29.1246,40.407 29.1246,64.547 0,24.139 -5.5101,44.342 -16.5302,60.61 -11.0201,16.268 -25.7136,31.486 -44.0805,45.655 -17.8421,14.169 -38.3081,27.813 -61.3978,40.932 l -70.8437,40.145 c -60.3484,35.684 -101.805,66.12 -124.37,91.309 -45.13,50.378 -67.6951,105.216 -67.6951,164.515 0,62.447 26.2384,113.087 78.7152,151.92 49.8529,36.734 112.038,55.101 186.555,55.101 l 138.5388,-9.446 c 33.5851,0 56.9373,3.936 70.0564,11.807 13.1193,8.397 24.1394,17.843 33.0605,28.338 z"
       transform="scale(0.5,-0.5)"
       id="path1543" />
    <path
       style="color:#000000;fill:#ffffff;stroke-width:0.78715;-inkscape-stroke:none"
       d="m 3313.2431,913.38385 h -232.2098 c 24.1394,82.913 36.209,225.38705 36.209,427.42305 0,142.212 -12.5944,240.081 -37.7833,293.608 -6.2972,13.644 -13.3816,26.238 -21.2531,37.783 l -25.976,36.209 h 279.4389 c -23.0897,-86.587 -34.6347,-220.14 -34.6347,-400.66 0,-179.996 12.0697,-311.45005 36.209,-394.36305 z"
       transform="scale(0.5,-0.5)"
       id="path1541" />
    <path
       style="color:#000000;fill:#ffffff;stroke-width:0.78715;-inkscape-stroke:none"
       d="m 3294.3515,1920.1509 c -10.4954,-17.318 -23.3522,-32.011 -38.5705,-44.081 -15.2182,-11.545 -32.5356,-17.317 -51.952,-17.317 -19.4164,0 -36.7338,5.772 -51.952,17.317 -15.2183,12.07 -28.0751,26.763 -38.5704,44.081 -21.5155,35.684 -32.2733,73.467 -32.2733,113.35 0,48.278 22.0403,80.551 66.1208,96.819 15.743,5.773 34.897,8.659 57.4621,8.659 62.4473,0 101.2802,-22.04 116.4985,-66.121 4.7229,-12.594 7.0843,-26.763 7.0843,-42.506 0,-15.218 -2.8862,-33.06 -8.6586,-53.526 -5.7724,-20.466 -14.1688,-39.358 -25.1889,-56.675 z"
       transform="scale(0.5,-0.5)"
       id="path1539" />
    <path
       style="color:#000000;fill:#ffffff;stroke-width:0.78715;-inkscape-stroke:none"
       d="m 2366.2993,1387.2489 3.1486,14.169 z"
       transform="scale(0.5,-0.5)"
       id="path1537" />
    <path
       style="color:#000000;fill:#ffffff;stroke-width:0.78715;-inkscape-stroke:none"
       d="m 1990.0407,913.38385 h -225.9126 c 24.1394,82.913 36.209,225.38705 36.209,427.42305 0,143.786 -12.5944,241.918 -37.7833,294.395 -6.2972,13.119 -13.3816,25.451 -21.2531,36.996 l -25.976,36.209 h 273.1417 c -7.8715,-30.961 -13.1192,-55.625 -15.743,-73.992 l -5.5101,-47.229 c 60.8731,91.309 138.2764,136.964 232.2098,136.964 94.4582,0 155.5937,-51.165 183.4064,-153.495 41.4567,70.844 96.2949,117.811 164.5147,140.901 24.1394,8.396 51.1649,12.594 81.0767,12.594 30.4366,0 57.7245,-6.56 81.8638,-19.679 24.664,-12.594 45.3924,-30.699 62.185,-54.313 33.0605,-47.754 49.5906,-113.088 49.5906,-196.001 v -84.225 c 0,-160.579 2.0992,-261.335 6.2973,-302.267 4.7229,-40.407 8.1338,-67.17 10.2329,-80.28905 3.1486,-23.09 8.3963,-47.754 15.7431,-73.992 h -232.2099 c 23.0897,79.24 34.6347,221.71405 34.6347,427.42305 0,83.438 -4.1981,139.326 -12.5945,167.663 -8.3963,28.863 -19.4164,49.591 -33.0604,62.185 -13.1192,13.12 -31.2237,19.679 -54.3135,19.679 -67.695,0 -121.4837,-39.882 -161.366,-119.647 v -100.755 c 0,-160.579 2.099,-261.335 6.2972,-302.267 4.7229,-40.407 8.1338,-67.17 10.2329,-80.28905 3.1486,-23.09 8.3964,-47.754 15.7431,-73.992 h -232.2098 c 23.6145,80.814 35.4218,223.28805 35.4218,427.42305 0,85.537 -4.1981,141.95 -12.5944,169.238 -8.3964,27.812 -19.154,48.016 -32.2733,60.61 -13.1192,13.12 -31.2237,19.679 -54.3134,19.679 -22.5651,0 -43.0311,-4.46 -61.3979,-13.381 -18.3668,-8.921 -34.8971,-20.729 -49.5906,-35.422 -27.8126,-27.288 -49.5905,-62.448 -65.3336,-105.479 -1.0495,-15.218 -1.5743,-30.961 -1.5743,-47.229 v -48.016 c 0,-202.036 12.0697,-344.51005 36.209,-427.42305 z"
       transform="scale(0.5,-0.5)"
       id="path1535" />
    <path
       style="color:#000000;fill:#ffffff;stroke-width:0.78715;-inkscape-stroke:none;fill-opacity:0"
       d="m 1215.4833,1645.4349 c -47.2292,0 -81.3391,-23.615 -102.3298,-70.844 -20.4659,-47.229 -30.6989,-126.731 -30.6989,-238.507 0,-239.819 44.3429,-359.72805 133.0287,-359.72805 47.2291,0 81.0766,32.01105 101.5425,96.03205 20.9908,64.022 31.4861,151.921 31.4861,263.696 0,111.776 -10.4953,191.278 -31.4861,238.507 -20.4659,47.229 -54.3134,70.844 -101.5425,70.844 z"
       transform="scale(0.5,-0.5)"
       id="path1531" />
    <path
       style="color:#000000;fill:#ffffff;stroke-width:0.78715;-inkscape-stroke:none"
       d="m -35.30107,1763.5079 c -12.59443,30.436 -18.89165,66.383 -18.89165,107.839 0,41.457 1.5743,75.305 4.72291,101.543 3.14861,26.763 7.34675,50.902 12.59443,72.418 12.59443,48.279 28.0750804,72.418 46.4419624,72.418 H 703.0474 c 30.4365,0 50.9025,-45.13 61.3978,-135.39 2.6238,-25.189 3.9358,-51.165 3.9358,-77.928 0,-62.972 -6.822,-109.939 -20.4659,-140.9 -45.1301,140.113 -103.6417,229.848 -175.5349,269.205 -16.26783,9.446 -32.27324,14.169 -48.01628,14.169 -15.74304,0 -28.07509,-4.198 -36.99614,-12.594 -8.92105,-7.872 -16.26781,-20.728 -22.04025,-38.571 -9.44583,-31.486 -14.16874,-69.269 -14.16874,-113.35 v -295.181 l 0.7872,-240.869 v -228.274 c 0,-51.427 6.5596,-89.473 19.6788,-114.137 13.64397,-24.13905 27.28793,-42.50605 40.9319,-55.10105 14.16873,-12.594 30.69893,-24.401 49.59057,-35.421 H 159.91259 c 37.78329,30.961 61.92263,56.412 72.41798,76.353 19.41641,36.20905 29.12462,78.97805 29.12462,128.30605 v 709.224 c 0,82.388 -3.14861,135.39 -9.44582,159.005 -6.29722,24.139 -13.90636,40.144 -22.82741,48.016 -8.92105,8.396 -21.2531,12.594 -36.99614,12.594 -15.74303,0 -31.74846,-4.723 -48.01626,-14.169 -16.26781,-8.921 -32.27323,-20.99 -48.016268,-36.208 -15.21826,-14.694 -29.91177,-32.011 -44.0805,-51.953 -13.64397,-19.416 -26.2384,-39.619 -37.78329,-60.61 -22.5650316,-41.457 -39.095222,-81.602 -49.590572,-120.434 z"
       transform="scale(0.5,-0.5)"
       id="path138" />
    <text
       xml:space="preserve"
       style="font-style:normal;font-weight:normal;font-size:29.5356px;line-height:1.25;font-family:sans-serif;fill:#000000;fill-opacity:1;stroke:none;stroke-width:0.73839"
       x="263.3497"
       y="14.023318"
       id="text24481"><tspan
         sodipodi:role="line"
         id="tspan24479"
         style="stroke-width:0.73839"
         x="263.3497"
         y="14.023318" /></text>
  </g>
</svg>
