<svg version="1.1" xmlns="http://www.w3.org/2000/svg" viewBox="0 0 250 250"><desc>Created with Snap</desc><defs></defs><g transform="matrix(0.0246,0,0,0.0246,41.4752,138.9589)"><rect x="-1683.2344113228253" y="-5641.138636737588" width="10147.969069235025" height="10148.93230898175" style="" fill="#4361ee"></rect><g transform="matrix(24.6589,0,0,24.6589,-1541.0374,-5498.46)">
<g id="gSkui2wpuu14h">
	<g>
		<path fill="#ffffff" d="M82.06866,46.80432c0.44048,0.09728,1.81986-0.49205,3.98136-1.64856
			c2.20975-1.09238,5.2579-2.67703,8.94401-4.68989c7.51703-3.80428,17.93356-8.86331,30.43024-13.1756
			c12.47414-4.32378,26.96772-7.99401,42.01273-9.6109c1.87662-0.19844,3.75923-0.39779,5.64507-0.59735
			c1.88943-0.14902,3.78758-0.23685,5.67796-0.35662c3.77602-0.30159,7.57491-0.23849,11.32912-0.3126
			c1.87773-0.03781,3.75569,0.09517,5.61867,0.13513c1.86383,0.08778,3.71739,0.06724,5.55797,0.24432
			c3.67995,0.31842,7.31462,0.49835,10.86098,1.02225c-24.46938,0.31527-45.84834,5.87472-62.983,13.23676
			c-8.58604,3.71305-16.09875,8.00225-22.67894,12.26207c-3.22648,2.26534-6.32965,4.31355-9.06628,6.60401
			c-1.37437,1.11085-2.71513,2.19456-4.02266,3.25142c-1.23869,1.13261-2.44566,2.23617-3.62017,3.31003
			c-9.26917,8.664-14.87678,16.66336-17.84011,22.57063c-2.84336,6.059-3.17654,9.94636-1.23619,11.60844
			c12.396-15.45393,28.45402-29.09509,47.43205-39.08565c18.9328-10.01645,40.72635-16.36285,63.47681-17.78591
			c22.73022-1.48197,46.37234,1.87225,68.61374,10.25464c11.11929,4.17942,21.8819,9.59661,32.00284,16.15094
			c10.12143,6.55412,19.58212,14.25672,28.18671,22.87717c17.22528,17.23357,30.80743,38.36257,39.42282,61.36801
			c8.65921,22.994,12.38708,47.78455,11.09464,72.0957c-1.24237,24.32739-7.58545,48.12822-18.00375,69.4503
			c-10.38284,21.37689-24.93945,40.10056-41.69687,55.30795c-8.38907,7.61682-17.36337,14.36597-26.70444,20.18491
			c-9.34406,5.82074-19.09393,10.61557-28.94733,14.54181c-9.86093,3.9166-19.85266,6.91727-29.78415,9.08392
			c-9.94624,2.10358-19.82362,3.32999-29.4743,3.85846c-9.65497,0.57462-19.08638,0.22992-28.16501-0.64651
			c-1.13516-0.11664-2.26575-0.23282-3.39136-0.34888c-1.12697-0.11121-2.24884-0.22696-3.3564-0.41266
			c-2.22144-0.33698-4.42419-0.67114-6.60777-1.00272c-2.18347-0.34042-4.3194-0.83633-6.45241-1.24716
			c-1.0649-0.21622-2.12482-0.43161-3.18013-0.64587c-1.05194-0.22882-2.08591-0.51355-3.12253-0.76712
			c-2.06961-0.52557-4.12024-1.04596-6.15103-1.56174c-2.00519-0.61169-3.99089-1.21768-5.95718-1.81741
			c-0.98251-0.30374-1.9601-0.60596-2.93306-0.90634c-0.95847-0.3439-1.91188-0.68619-2.86023-1.02689
			c-1.89658-0.68607-3.77393-1.36462-5.63077-2.03653c-7.32208-2.95859-14.25258-6.03729-20.57684-9.50757
			c-12.72123-6.81235-23.36193-14.39328-32.06516-21.69196c-2.17656-1.82785-4.29309-3.57358-6.18667-5.40707
			c-1.91791-1.80673-3.80501-3.49908-5.5228-5.21066c-3.36911-3.48929-6.50893-6.61322-9.06343-9.67181
			c-1.30597-1.50275-2.53819-2.92072-3.69509-4.25165c-1.09204-1.3862-2.11286-2.68185-3.06096-3.88477
			c-0.945-1.20602-1.81723-2.31924-2.61518-3.33749c-0.77715-1.03403-1.43549-2.00656-2.04808-2.85944
			c-2.41859-3.43576-3.70066-5.25714-3.74636-5.32217c-5.46113-8.26123-10.29185-16.883-14.46608-25.78323
			c-4.16677-8.90799-7.4951-18.15073-10.23626-27.52586c-2.76757-9.37598-4.63573-18.97604-5.88218-28.62491
			c-0.68911-4.82196-0.98716-9.67961-1.33614-14.5295l-0.20802-7.29013c-0.05188-1.21474-0.04251-2.42969-0.00855-3.6449
			l0.07005-3.64503c0.42722-19.44357,3.96095-38.7907,10.20834-57.30516c3.20473-9.23248,7.07828-18.25121,11.59234-26.98227
			c4.59464-8.69124,9.87891-17.03811,15.72216-25.0221c0.69774-0.90845,2.08265-2.71173,3.77679-4.91772
			c0.42325-0.55247,0.86528-1.12967,1.32112-1.72482c0.48035-0.5741,0.97521-1.16545,1.47757-1.76587
			c1.00593-1.20171,2.04324-2.44109,3.06269-3.65897c1.98835-2.48425,4.12689-4.67604,5.64749-6.44722
			c1.54144-1.75171,2.56507-2.98889,2.63037-3.26817l-0.00708,0.00397c-17.48207,17.50659-31.66323,38.43564-41.30956,61.28998
			c-9.67891,22.84109-14.85973,47.53831-15.24643,72.3043c-0.40845,24.76634,3.97346,49.61223,12.90819,72.75127
			c8.90224,23.14932,22.40002,44.53232,39.34857,62.56775c16.89465,18.05338,37.32344,32.93442,59.85665,43.33493
			c22.51597,10.43509,47.04972,16.40039,71.79456,17.58765c24.74609,1.20511,49.72084-2.37305,73.14037-10.55167
			c23.42676-8.14722,45.24942-20.94238,63.81384-37.33554c18.55795-16.34717,34.06335-36.25995,45.19333-58.44409
			c11.15619-22.16071,17.92752-46.4855,19.90485-71.17728c1.99942-24.6918-0.77719-49.75745-8.18207-73.42302
			c-7.37558-23.67151-19.42508-45.90224-35.18915-65.02438c-15.71448-19.13124-35.16812-35.17571-56.96564-47.04198
			c-21.789-11.86739-45.88651-19.42662-70.50345-22.19782c-24.61627-2.79403-49.7552-0.82467-73.64371,5.80912
			c-23.89274,6.60539-46.50471,17.92143-66.11643,33.08085L82.06866,46.80432z" style=""></path>
	</g>
</g>


<desc>Created with Snap</desc><defs></defs></g><g><g transform="matrix(0.5,0,0,-0.5,0,0)"><path d="M36 1080Q12 1138 12 1217Q12 1296 18 1346Q24 1397 34 1438Q58 1530 93 1530L974 1530Q1032 1530 1052 1358Q1057 1310 1057 1259Q1057 1139 1031 1080Q945 1347 808 1422Q777 1440 747 1440Q717 1440 700 1424Q683 1409 672 1375Q654 1315 654 1231L654 856L655 550L655 260Q655 162 680 115Q706 69 732 45Q759 21 795 0L284 0Q356 59 376 97Q413 166 413 260L413 1161Q413 1318 401 1363Q389 1409 372 1424Q355 1440 325 1440Q295 1440 264 1422Q233 1405 203 1376Q174 1348 147 1310Q121 1273 99 1233Q56 1154 36 1080ZM1625 930Q1535 930 1495 840Q1456 750 1456 537Q1456 80 1625 80Q1715 80 1754 202Q1794 324 1794 537Q1794 750 1754 840Q1715 930 1625 930ZM1204 575Q1204 1030 1625 1030Q2046 1030 2046 575Q2046 299 1930 138Q1817 -20 1625 -20Q1433 -20 1320 138Q1204 299 1204 575ZM2609 0L2322 0Q2368 158 2368 543Q2368 817 2320 917Q2308 942 2293 964L2260 1010L2607 1010Q2592 951 2587 916L2580 856Q2696 1030 2875 1030Q3055 1030 3108 835Q3187 970 3317 1014Q3363 1030 3420 1030Q3478 1030 3524 1005Q3571 981 3603 936Q3666 845 3666 687L3666 580Q3666 274 3674 196Q3683 119 3687 94Q3693 50 3707 0L3412 0Q3456 151 3456 543Q3456 702 3440 756Q3424 811 3398 835Q3373 860 3329 860Q3200 860 3124 708L3124 580Q3124 274 3132 196Q3141 119 3145 94Q3151 50 3165 0L2870 0Q2915 154 2915 543Q2915 706 2899 758Q2883 811 2858 835Q2833 860 2789 860Q2746 860 2711 843Q2676 826 2648 798Q2595 746 2565 664Q2563 635 2563 604L2563 543Q2563 158 2609 0ZM3087 602L3091 620L3087 602ZM4266 1279Q4246 1246 4217 1223Q4188 1201 4151 1201Q4114 1201 4085 1223Q4056 1246 4036 1279Q3995 1347 3995 1423Q3995 1515 4079 1546Q4109 1557 4152 1557Q4271 1557 4300 1473Q4309 1449 4309 1419Q4309 1390 4298 1351Q4287 1312 4266 1279ZM4290 0L3995 0Q4041 158 4041 543Q4041 814 3993 916Q3981 942 3966 964L3933 1010L4288 1010Q4244 845 4244 501Q4244 158 4290 0ZM5173 1069Q5200 1009 5200 948Q5200 887 5194 847Q5189 807 5178 770Q5153 686 5107 641Q5076 796 5039 842Q5003 888 4966 904Q4930 920 4889 920Q4848 920 4822 912Q4796 904 4777 889Q4734 856 4734 814Q4734 772 4755 741Q4776 711 4810 684Q4845 658 4889 633L4979 582Q5095 517 5138 474Q5223 389 5223 295Q5223 172 5139 88Q5033 -20 4821 -20Q4628 -20 4531 70Q4503 96 4491 122Q4499 197 4558 263Q4615 327 4669 337Q4665 324 4665 298Q4665 272 4680 233Q4695 195 4723 162Q4786 86 4865 86Q4944 86 4981 122Q5018 158 5018 204Q5018 250 4997 281Q4976 312 4941 339Q4907 366 4863 391L4773 442Q4658 510 4615 558Q4529 654 4529 767Q4529 886 4629 960Q4724 1030 4866 1030L5042 1018Q5106 1018 5131 1033Q5156 1049 5173 1069ZM5725 720L5724 458Q5724 134 5763 0L5468 0Q5496 97 5503 229Q5518 548 5518 724Q5518 900 5517 960Q5516 1021 5515 1082Q5509 1299 5494 1355Q5480 1412 5467 1437Q5455 1463 5439 1484L5406 1530L5771 1530Q5743 1429 5738 1336Q5734 1244 5731 1173Q5729 1102 5727 1025Q5725 897 5725 720ZM6753 534L6750 342Q6750 163 6783 98Q6803 59 6830 38L6877 0L6587 0L6556 116Q6443 -20 6234 -20Q6115 -20 6042 60Q5978 132 5978 230Q5978 328 6024 401Q6071 474 6147 522Q6297 615 6524 619L6524 630Q6524 873 6449 915Q6422 930 6379 930Q6337 930 6295 902Q6253 874 6219 830Q6151 741 6122 620Q6033 673 6033 823Q6033 884 6049 960Q6087 960 6121 971L6198 995Q6311 1030 6419 1030Q6527 1030 6591 998Q6656 966 6692 903Q6753 796 6753 534ZM6194 210Q6194 148 6222 114Q6251 80 6294 80Q6337 80 6377 102Q6417 125 6449 164Q6524 253 6524 373L6524 521Q6384 508 6293 428Q6194 342 6194 210ZM6895 1010L7264 1010Q7246 966 7246 913Q7246 861 7254 820Q7262 780 7276 726L7384 342L7422 219Q7481 396 7500 458L7536 580Q7595 781 7595 829Q7595 877 7590 899Q7586 922 7578 940Q7568 967 7539 1010L7903 1010Q7829 908 7804 857L7767 781Q7758 763 7742 729Q7546 282 7546 130Q7546 61 7572 0L7212 0Q7236 38 7240 71Q7245 105 7245 140Q7245 176 7227 243Q7209 310 7180 395Q7151 480 7113 574Q7076 669 7037 755Q6949 948 6895 1010ZM8720 489L8719 619Q8719 732 8697 769Q8675 807 8651 824Q8627 842 8592 860L9031 860Q8968 802 8951 712Q8935 626 8935 446Q8935 96 8977 -20Q8963 -21 8949 -21L8922 -21Q8482 -21 8255 262Q8038 533 8038 1031Q8038 1277 8183 1408Q8317 1530 8542 1530L8718 1528Q8857 1528 8912 1562Q8935 1577 8951 1600Q8976 1552 8976 1468Q8976 1384 8971 1332Q8966 1281 8956 1232Q8935 1128 8891 1070Q8853 1270 8796 1346Q8732 1430 8596 1430Q8424 1430 8353 1292Q8302 1191 8302 986Q8302 705 8389 447Q8450 266 8541 190Q8588 150 8638 150Q8689 150 8703 179Q8717 208 8718 278Q8720 416 8720 489ZM10011 964L10011 916L9996 469Q9996 196 10044 94Q10061 57 10104 0L9826 0Q9803 68 9796 172Q9680 -20 9497 -20Q9371 -20 9304 74Q9238 165 9238 324L9238 459Q9238 504 9238 551L9236 642Q9235 729 9230 777Q9226 826 9220 858Q9215 891 9207 916Q9199 942 9189 964L9167 1010L9456 1010Q9457 994 9457 980L9457 951Q9457 951 9440 449Q9440 302 9459 249Q9478 196 9504 173Q9531 150 9575 150Q9694 150 9768 280Q9788 317 9801 355Q9803 411 9803 482Q9803 847 9749 964L9727 1010L10012 1010Q10011 985 10011 964ZM10622 1279Q10602 1246 10573 1223Q10544 1201 10507 1201Q10470 1201 10441 1223Q10412 1246 10392 1279Q10351 1347 10351 1423Q10351 1515 10435 1546Q10465 1557 10508 1557Q10627 1557 10656 1473Q10665 1449 10665 1419Q10665 1390 10654 1351Q10643 1312 10622 1279ZM10646 0L10351 0Q10397 158 10397 543Q10397 814 10349 916Q10337 942 10322 964L10289 1010L10644 1010Q10600 845 10600 501Q10600 158 10646 0ZM11492 0L11478 79Q11369 -20 11201 -20Q11047 -20 10958 69Q10866 161 10866 328Q10866 496 10915 621Q10964 747 11044 832Q11202 1000 11432 1009Q11424 1317 11411 1362Q11399 1408 11386 1434Q11374 1461 11358 1483L11324 1530L11689 1530Q11661 1429 11656 1334Q11652 1239 11650 1167Q11648 1095 11647 1016Q11644 884 11644 753Q11644 623 11644 556Q11645 489 11647 429Q11652 204 11664 161Q11676 119 11688 93Q11701 68 11717 46L11751 0L11492 0ZM11433 367Q11438 521 11438 655Q11438 790 11435 912Q11290 890 11203 741Q11116 593 11116 368Q11116 235 11136 182Q11157 129 11185 104Q11214 80 11254 80Q11295 80 11325 96Q11356 113 11379 145Q11429 213 11433 367ZM12617 340Q12653 316 12653 256Q12653 197 12637 152Q12621 107 12581 68Q12491 -20 12307 -20Q12093 -20 11981 138Q11882 279 11882 519Q11882 761 12016 899Q12143 1030 12360 1030Q12511 1030 12596 942Q12663 872 12663 780Q12663 689 12627 615Q12592 542 12523 489Q12381 379 12126 373Q12147 172 12252 104Q12290 80 12353 80Q12416 80 12487 146Q12558 212 12617 340ZM12120 499L12120 468Q12436 489 12436 774Q12436 881 12372 918Q12350 930 12314 930Q12278 930 12241 908Q12205 886 12178 836Q12120 727 12120 499ZM13501 1069Q13528 1009 13528 948Q13528 887 13522 847Q13517 807 13506 770Q13481 686 13435 641Q13404 796 13367 842Q13331 888 13294 904Q13258 920 13217 920Q13176 920 13150 912Q13124 904 13105 889Q13062 856 13062 814Q13062 772 13083 741Q13104 711 13138 684Q13173 658 13217 633L13307 582Q13423 517 13466 474Q13551 389 13551 295Q13551 172 13467 88Q13361 -20 13149 -20Q12956 -20 12859 70Q12831 96 12819 122Q12827 197 12886 263Q12943 327 12997 337Q12993 324 12993 298Q12993 272 13008 233Q13023 195 13051 162Q13114 86 13193 86Q13272 86 13309 122Q13346 158 13346 204Q13346 250 13325 281Q13304 312 13269 339Q13235 366 13191 391L13101 442Q12986 510 12943 558Q12857 654 12857 767Q12857 886 12957 960Q13052 1030 13194 1030L13370 1018Q13434 1018 13459 1033Q13484 1049 13501 1069Z" style="" fill="#ffffff"></path></g></g></g></svg>