<svg version="1.1" xmlns="http://www.w3.org/2000/svg" viewBox="-231.42265625 -1044.48125 6373.3765625 1444.86484375"><desc>Created with Snap</desc><defs></defs><g><rect x="-231.42265625" y="-1044.48125" width="6373.3765625" height="1444.86484375" style="" fill="#7d53de"></rect><g><g transform="matrix(1.024,0,0,-1.024,0,0)"><path d="M218 -87Q166 -87 146 -66Q127 -45 126 -12Q126 17 137 57Q149 98 162 135Q183 198 208 266Q234 334 261 401Q288 468 313 530Q339 592 362 643Q294 642 245 639Q197 637 157 633Q118 629 74 621Q78 660 111 681Q145 703 202 711Q259 720 332 720Q381 720 422 717Q463 714 500 710Q537 707 573 705Q604 690 614 686Q624 682 619 682Q595 664 560 655Q526 647 489 645Q452 643 418 643Q375 538 334 412Q294 287 257 154Q244 104 234 67Q225 31 220 1Q215 -29 215 -60Q215 -65 215 -72Q216 -78 218 -87ZM590 -32Q546 -32 529 -4Q512 25 512 61Q512 93 522 126Q532 159 549 188Q566 217 587 235Q608 253 630 253Q636 253 644 250Q653 248 657 244Q646 232 633 210Q621 188 610 162Q600 137 593 111Q587 86 587 65Q587 42 595 29Q603 16 621 16Q641 16 668 37Q696 59 721 90Q690 117 675 152Q661 188 661 233Q661 258 672 286Q683 314 706 333Q729 352 766 352Q808 352 824 328Q841 305 841 272Q841 235 821 188Q802 142 775 100Q789 92 806 92Q821 92 842 99Q863 106 882 122Q902 139 914 166L930 154Q909 105 872 82Q836 60 802 60Q789 60 776 62Q763 65 752 70Q718 28 675 -2Q633 -32 590 -32ZM744 120Q769 155 785 195Q802 236 802 270Q802 295 794 306Q787 318 774 318Q754 318 734 290Q714 263 714 221Q714 197 721 167Q729 138 744 120ZM1410 -31Q1372 -31 1354 -9Q1336 14 1336 45Q1336 69 1343 92Q1350 116 1357 139Q1365 162 1365 181Q1365 199 1357 206Q1350 213 1340 213Q1316 213 1286 176Q1256 140 1210 72Q1194 48 1181 22Q1168 -4 1157 -23Q1149 -23 1135 -20Q1121 -17 1110 -12Q1100 -7 1100 1Q1100 10 1110 36Q1120 62 1133 97Q1146 132 1155 166Q1165 201 1165 225Q1165 240 1160 248Q1155 257 1143 257Q1122 257 1092 231Q1062 206 1029 165Q996 124 967 73Q939 23 921 -27Q910 -27 895 -23Q880 -19 869 -13Q858 -7 858 -2Q858 1 866 29Q874 57 885 98Q897 139 907 182Q918 225 924 258Q928 267 945 275Q962 283 976 283Q990 283 998 275Q1007 267 1007 253Q1007 242 1002 218Q997 195 989 167Q1010 196 1034 225Q1058 255 1084 279Q1111 303 1137 317Q1164 332 1190 332Q1225 332 1237 307Q1250 282 1250 251Q1250 234 1246 216Q1243 199 1238 182Q1234 166 1228 150Q1248 182 1271 209Q1295 237 1322 253Q1349 270 1380 270Q1417 270 1431 248Q1445 226 1445 199Q1445 173 1436 143Q1428 114 1419 87Q1410 61 1410 42Q1410 31 1415 22Q1421 13 1437 13Q1464 13 1489 38Q1514 63 1535 99Q1556 136 1571 169L1587 151Q1571 109 1545 67Q1520 25 1486 -3Q1452 -31 1410 -31ZM1625 -29Q1583 -29 1562 -4Q1541 22 1541 59Q1541 82 1549 117Q1557 152 1571 190Q1586 229 1605 263Q1624 297 1645 318Q1667 340 1688 340Q1700 340 1708 333Q1716 326 1716 313Q1716 300 1700 273Q1685 247 1664 213Q1643 179 1627 142Q1612 105 1612 71Q1612 38 1624 27Q1636 16 1659 16Q1693 16 1732 50Q1772 84 1815 169L1828 155Q1795 67 1740 19Q1686 -29 1625 -29ZM1744 425Q1726 425 1711 433Q1697 442 1697 461Q1697 485 1722 501Q1748 518 1775 518Q1792 518 1803 510Q1814 502 1814 483Q1814 462 1792 443Q1770 425 1744 425ZM1904 -51Q1855 -51 1825 -31Q1796 -10 1783 21Q1771 52 1771 84Q1771 113 1779 129Q1787 145 1799 153Q1811 161 1821 165Q1832 169 1836 173Q1863 202 1889 237Q1915 272 1934 313L1934 324Q1934 363 1947 379Q1960 395 1977 395Q1988 395 1993 389Q1998 384 1998 377Q1998 372 1995 363Q1993 354 1993 339Q1993 308 2007 269Q2021 231 2035 188Q2049 145 2049 100Q2049 87 2048 76Q2047 66 2044 56Q2077 63 2107 89Q2137 116 2165 169L2176 160Q2157 103 2120 70Q2084 38 2037 31Q2021 -11 1985 -31Q1949 -51 1904 -51ZM1900 -10Q1917 -10 1935 -1Q1953 9 1964 32Q1922 41 1889 64Q1857 88 1839 113Q1823 110 1823 83Q1823 49 1842 19Q1862 -10 1900 -10ZM1971 58Q1973 66 1973 76Q1974 86 1974 94Q1973 140 1962 184Q1951 229 1941 274Q1921 240 1896 204Q1872 169 1851 147Q1866 118 1897 93Q1929 68 1971 58ZM2225 -30Q2179 -30 2160 1Q2142 32 2142 75Q2142 124 2160 190Q2178 256 2207 328Q2237 401 2272 470Q2308 540 2343 596Q2379 653 2409 686Q2440 720 2458 720Q2470 720 2478 707Q2487 694 2492 675Q2497 657 2497 642Q2497 615 2483 571Q2470 528 2445 475Q2421 423 2387 368Q2354 314 2314 264Q2274 215 2228 179Q2224 154 2220 129Q2217 104 2217 83Q2217 46 2228 28Q2240 11 2260 11Q2286 11 2312 35Q2339 59 2363 95Q2387 132 2405 171L2426 159Q2384 72 2333 21Q2282 -30 2225 -30ZM2243 232Q2278 268 2309 312Q2340 357 2366 403Q2393 449 2413 492Q2433 536 2444 570Q2455 605 2456 625Q2456 629 2455 630Q2454 632 2454 632Q2446 632 2427 608Q2409 585 2384 545Q2360 505 2334 453Q2308 401 2284 344Q2260 287 2243 232ZM2435 -47Q2403 -47 2379 -26Q2356 -4 2356 39Q2356 75 2372 116Q2388 157 2416 197Q2444 237 2480 270Q2516 303 2556 323Q2597 343 2637 343Q2679 343 2707 321Q2736 300 2736 265Q2736 238 2719 227Q2702 216 2677 220Q2679 228 2680 237Q2682 247 2682 256Q2682 277 2673 293Q2664 309 2638 309Q2610 309 2581 290Q2552 271 2525 240Q2498 209 2477 172Q2456 135 2444 99Q2432 63 2432 35Q2432 1 2457 1Q2480 1 2507 23Q2535 45 2563 79Q2592 113 2618 148Q2644 184 2663 211Q2667 216 2670 216Q2675 215 2686 211Q2697 208 2706 202Q2715 196 2715 186Q2715 176 2706 160Q2697 145 2686 126Q2675 107 2666 88Q2657 69 2657 51Q2657 38 2664 25Q2672 13 2689 13Q2714 13 2757 49Q2801 86 2846 169L2862 153Q2839 99 2805 58Q2772 17 2735 -7Q2698 -30 2661 -30Q2621 -30 2602 -6Q2583 19 2581 48Q2581 51 2581 54Q2582 58 2582 61Q2541 10 2507 -19Q2473 -47 2435 -47ZM2894 -39Q2859 -39 2845 -7Q2832 26 2832 78Q2832 86 2833 114Q2834 143 2836 201Q2838 230 2843 240Q2848 251 2872 251Q2894 251 2898 242Q2903 234 2903 208Q2903 177 2900 139Q2897 102 2897 68Q2897 38 2900 23Q2904 9 2916 9Q2934 9 2955 29Q2977 49 2999 80Q3021 112 3041 148Q3061 185 3076 218Q3078 286 3091 309Q3105 332 3126 332Q3149 332 3158 317Q3167 302 3167 290Q3167 276 3158 263Q3150 250 3142 228Q3134 206 3134 163Q3134 148 3136 131Q3139 114 3148 102Q3158 91 3178 91Q3198 91 3217 107Q3236 124 3256 165L3268 155Q3245 102 3217 81Q3190 61 3164 61Q3131 61 3110 87Q3089 113 3080 156Q3056 109 3024 64Q2993 20 2959 -10Q2926 -39 2894 -39ZM3460 -87Q3406 -87 3360 -58Q3315 -28 3288 28Q3261 84 3261 163Q3261 240 3285 319Q3309 398 3350 469Q3392 541 3446 597Q3500 654 3559 686Q3619 719 3679 719Q3721 719 3746 702Q3771 686 3782 659Q3793 633 3793 603Q3793 568 3780 533Q3768 499 3747 476Q3726 453 3701 453Q3690 453 3680 459Q3671 466 3663 483Q3677 493 3695 518Q3714 544 3728 575Q3742 606 3742 631Q3742 652 3729 666Q3716 680 3686 680Q3642 680 3594 646Q3547 612 3504 555Q3461 499 3426 429Q3392 359 3371 286Q3351 214 3351 149Q3351 58 3390 7Q3429 -44 3485 -44Q3526 -44 3560 -17Q3595 10 3621 53Q3648 97 3664 148Q3681 199 3685 247Q3656 253 3630 255Q3605 258 3579 258Q3564 258 3548 257Q3533 257 3515 257Q3523 290 3542 304Q3561 319 3591 319Q3620 319 3650 309Q3681 300 3711 289Q3742 278 3770 272L3761 240Q3742 187 3730 150Q3719 113 3713 86Q3707 60 3704 39Q3702 18 3702 -2Q3702 -22 3703 -43Q3705 -64 3706 -91Q3680 -86 3666 -74Q3653 -62 3647 -45Q3642 -28 3642 -11Q3642 -4 3642 3Q3643 10 3645 18Q3610 -28 3564 -58Q3518 -87 3460 -87ZM3883 -30Q3849 -30 3827 1Q3806 32 3806 73Q3806 101 3815 139Q3825 177 3839 213Q3853 250 3868 274Q3884 298 3896 298Q3903 298 3916 291Q3930 284 3940 274Q3929 258 3913 224Q3898 190 3886 151Q3874 113 3874 81Q3874 76 3875 60Q3877 45 3883 32Q3890 19 3906 19Q3923 19 3943 37Q3963 56 3983 86Q4004 116 4023 151Q4042 186 4058 218Q4074 250 4084 272Q4092 271 4105 267Q4119 264 4129 258Q4140 252 4140 241Q4140 238 4130 216Q4121 194 4108 163Q4095 132 4085 100Q4076 68 4076 44Q4076 29 4082 18Q4088 7 4105 7Q4126 7 4155 26Q4185 45 4216 81Q4247 118 4271 168L4285 157Q4263 103 4228 60Q4194 18 4154 -6Q4115 -30 4078 -30Q4050 -30 4035 -18Q4020 -5 4014 15Q4009 35 4009 56Q4009 63 4009 71Q4010 79 4011 86Q3994 57 3973 30Q3953 4 3930 -13Q3908 -30 3883 -30ZM4324 -29Q4282 -29 4261 -4Q4240 22 4240 59Q4240 82 4248 117Q4256 152 4270 190Q4285 229 4304 263Q4323 297 4344 318Q4366 340 4387 340Q4399 340 4407 333Q4415 326 4415 313Q4415 300 4399 273Q4384 247 4363 213Q4342 179 4326 142Q4311 105 4311 71Q4311 38 4323 27Q4335 16 4358 16Q4392 16 4431 50Q4471 84 4514 169L4527 155Q4494 67 4439 19Q4385 -29 4324 -29ZM4443 425Q4425 425 4410 433Q4396 442 4396 461Q4396 485 4421 501Q4447 518 4474 518Q4491 518 4502 510Q4513 502 4513 483Q4513 462 4491 443Q4469 425 4443 425ZM4556 -30Q4537 -30 4518 -21Q4500 -12 4487 8Q4474 28 4474 58Q4474 91 4490 132Q4506 173 4533 214Q4561 255 4597 289Q4633 323 4673 344Q4713 365 4753 365Q4775 365 4787 357Q4800 350 4800 333Q4800 328 4798 323Q4797 318 4792 313Q4787 320 4777 322Q4768 325 4756 325Q4723 325 4693 306Q4663 288 4637 258Q4612 228 4593 193Q4575 159 4565 126Q4555 94 4555 71Q4555 51 4563 39Q4572 27 4588 27Q4615 27 4653 59Q4691 92 4730 152Q4770 213 4802 296Q4824 353 4848 412Q4872 472 4896 527Q4920 583 4943 626Q4966 669 4987 694Q5008 720 5026 720Q5036 720 5043 712Q5051 704 5051 692Q5051 676 5034 638Q5018 600 4992 547Q4966 495 4937 433Q4908 372 4882 308Q4856 244 4839 183Q4823 122 4823 69Q4823 44 4827 33Q4831 23 4844 23Q4866 23 4893 40Q4920 58 4948 91Q4976 125 4999 171L5015 158Q4994 104 4960 62Q4927 21 4888 -3Q4850 -26 4813 -26Q4774 -26 4758 -1Q4743 25 4743 57Q4743 73 4746 93Q4749 114 4754 136Q4723 88 4688 50Q4653 13 4619 -9Q4586 -30 4556 -30ZM5088 -44Q5025 -44 4992 -10Q4959 24 4959 75Q4959 120 4981 169Q5004 219 5042 262Q5080 306 5125 333Q5171 361 5216 361Q5241 361 5263 348Q5286 335 5286 296Q5286 258 5263 224Q5241 191 5204 165Q5168 139 5123 122Q5079 106 5035 102Q5034 96 5033 90Q5032 84 5032 74Q5032 66 5034 52Q5037 39 5044 25Q5052 12 5068 3Q5084 -6 5110 -6Q5152 -6 5194 18Q5237 42 5274 81Q5311 121 5336 169L5353 155Q5326 95 5284 50Q5242 6 5191 -19Q5141 -44 5088 -44ZM5044 133Q5070 138 5103 153Q5136 169 5166 192Q5196 216 5215 244Q5235 272 5235 301Q5235 312 5231 317Q5227 322 5217 322Q5193 322 5167 304Q5142 287 5117 259Q5093 232 5074 198Q5055 165 5044 133ZM5426 -51Q5377 -51 5347 -31Q5318 -10 5305 21Q5293 52 5293 84Q5293 113 5301 129Q5309 145 5321 153Q5333 161 5343 165Q5354 169 5358 173Q5385 202 5411 237Q5437 272 5456 313L5456 324Q5456 363 5469 379Q5482 395 5499 395Q5510 395 5515 389Q5520 384 5520 377Q5520 372 5517 363Q5515 354 5515 339Q5515 308 5529 269Q5543 231 5557 188Q5571 145 5571 100Q5571 87 5570 76Q5569 66 5566 56Q5599 63 5629 89Q5659 116 5687 169L5698 160Q5679 103 5642 70Q5606 38 5559 31Q5543 -11 5507 -31Q5471 -51 5426 -51ZM5422 -10Q5439 -10 5457 -1Q5475 9 5486 32Q5444 41 5411 64Q5379 88 5361 113Q5345 110 5345 83Q5345 49 5364 19Q5384 -10 5422 -10ZM5493 58Q5495 66 5495 76Q5496 86 5496 94Q5495 140 5484 184Q5473 229 5463 274Q5443 240 5418 204Q5394 169 5373 147Q5388 118 5419 93Q5451 68 5493 58Z" style="" fill="#ffffff"></path></g></g></g></svg>