<?xml version="1.0" encoding="UTF-8" standalone="no"?>
<svg
   version="1.1"
   viewBox="-301.2 -3238.025 191.52559 91.89009"
   id="svg146"
   sodipodi:docname="logo.svg"
   width="191.52559"
   height="91.890091"
   inkscape:version="1.1 (c68e22c387, 2021-05-23)"
   xmlns:inkscape="http://www.inkscape.org/namespaces/inkscape"
   xmlns:sodipodi="http://sodipodi.sourceforge.net/DTD/sodipodi-0.dtd"
   xmlns="http://www.w3.org/2000/svg"
   xmlns:svg="http://www.w3.org/2000/svg">
  <sodipodi:namedview
     id="namedview148"
     pagecolor="#7c7c7c"
     bordercolor="#ffffff"
     borderopacity="1"
     inkscape:pageshadow="2"
     inkscape:pageopacity="0"
     inkscape:pagecheckerboard="0"
     showgrid="false"
     fit-margin-top="0"
     fit-margin-left="0"
     fit-margin-right="0"
     fit-margin-bottom="0"
     inkscape:zoom="3.6203867"
     inkscape:cx="71.401212"
     inkscape:cy="40.741504"
     inkscape:window-width="1920"
     inkscape:window-height="1013"
     inkscape:window-x="-9"
     inkscape:window-y="-9"
     inkscape:window-maximized="1"
     inkscape:current-layer="g142"
     lock-margins="true" />
  <desc
     id="desc2">Created with Snap</desc>
  <defs
     id="defs4" />
  <rect
     x="-8948.8594"
     y="-5786.3867"
     width="10000"
     height="4815.5107"
     fill="#37393a"
     id="rect6"
     style="fill:#37393a;fill-opacity:0;stroke-width:1.3543" />
  <g
     id="g142"
     transform="matrix(1.3542979,0,0,1.3542979,-8540.9443,-2844.0244)">
    <g
       transform="matrix(0.00960565,0.02170269,0.02170269,-0.00960565,6151.9215,-381.7979)"
       id="g140" />
    <text
       xml:space="preserve"
       style="font-style:normal;font-weight:normal;font-size:29.5356px;line-height:1.25;font-family:sans-serif;fill:#000000;fill-opacity:1;stroke:none;stroke-width:0.73839"
       x="263.3497"
       y="14.023318"
       id="text24481"><tspan
         sodipodi:role="line"
         id="tspan24479"
         style="stroke-width:0.73839"
         x="263.3497"
         y="14.023318" /></text>
    <g
       id="g1008">
      <g
         id="g995">
        <path
           class="cls-1"
           d="m 6202.969,-253.73704 -9.5188,-6.95992 a 1.1792052,1.1792052 0 0 1 1.392,-1.90378 l 8.6429,6.31945 5.4236,-6.25969 -3.0744,1.22863 a 2.8182395,2.8182395 0 0 1 -3.8397,-3.09954 l 0.8805,-5.1993 -4.688,2.41538 a 2.8182395,2.8182395 0 0 1 -4.118,-2.7189 l 0.2571,-3.28858 -4.3195,7.06699 1.028,0.75169 a 1.1792052,1.1792052 0 0 1 -1.392,1.90378 l -1.904,-1.39215 a 1.1791798,1.1791798 0 0 1 -0.3117,-1.57181 l 7.4004,-12.11817 a 1.1791798,1.1791798 0 0 1 1.3431,-0.47874 1.1791798,1.1791798 0 0 1 0.8215,1.21423 l -0.5994,8.1509 a 0.49525547,0.49525547 0 0 0 0.2106,0.43158 0.47167187,0.47167187 0 0 0 0.4768,0.0272 l 6.7667,-3.48088 a 1.1791798,1.1791798 0 0 1 1.6946,1.23897 l -1.2648,7.50378 a 0.47167187,0.47167187 0 0 0 0.1704,0.446 0.50704728,0.50704728 0 0 0 0.4745,0.0694 l 7.5858,-3.04266 a 1.1791798,1.1791798 0 0 1 1.4063,0.41459 1.1791798,1.1791798 0 0 1 -0.049,1.42506 l -9.3038,10.72649 a 1.1791798,1.1791798 0 0 1 -1.5917,0.18005 z"
           id="path6"
           style="fill:#ffc107;fill-opacity:1;stroke-width:1.17918" />
        <path
           style="fill:none;stroke:#000000;stroke-width:1.26584;stroke-linecap:butt;stroke-linejoin:miter;stroke-miterlimit:4;stroke-dasharray:none;stroke-opacity:1"
           d="m 6084.2229,-255.7042 c 46.7476,5.82417 -7.4391,17.75396 24.7798,16.24947 32.2191,-1.50446 30.1849,7.11975 30.1849,7.11975"
           id="path32017" />
        <g
           id="g53689"
           transform="translate(5.4888264)">
          <text
             xml:space="preserve"
             style="font-size:17.7214px;line-height:1.25;font-family:'Open Sans';-inkscape-font-specification:'Open Sans, @wght=700';font-variant-ligatures:none;font-variation-settings:'wght' 700;stroke-width:0.73839"
             x="6079.2256"
             y="-258.03314"
             id="text1580"><tspan
               sodipodi:role="line"
               style="font-style:normal;font-variant:normal;font-weight:normal;font-stretch:normal;font-size:28.5511px;font-family:'Open Sans';-inkscape-font-specification:'Open Sans, @wght=700,wdth=75.0';font-variant-ligatures:none;font-variant-caps:normal;font-variant-numeric:normal;font-variant-east-asian:normal;font-feature-settings:'ss01';font-variation-settings:'wdth' 75, 'wght' 700;stroke-width:0.73839"
               x="6079.2256"
               y="-258.03314"
               id="tspan3716">Tomislav</tspan><tspan
               sodipodi:role="line"
               style="font-style:normal;font-variant:normal;font-weight:normal;font-stretch:normal;font-size:28.5511px;font-family:'Open Sans';-inkscape-font-specification:'Open Sans, @wght=700,wdth=75.0';font-variant-ligatures:none;font-variant-caps:normal;font-variant-numeric:normal;font-variant-east-asian:normal;font-feature-settings:'ss01';font-variation-settings:'wdth' 75, 'wght' 700;stroke-width:0.73839"
               x="6079.2256"
               y="-232.19788"
               id="tspan28910" /></text>
          <text
             xml:space="preserve"
             style="font-size:17.7214px;line-height:1.25;font-family:'Open Sans';-inkscape-font-specification:'Open Sans, @wght=700';font-variant-ligatures:none;font-variation-settings:'wght' 700;stroke-width:0.73839"
             x="6132.3833"
             y="-234.14087"
             id="text32808"><tspan
               sodipodi:role="line"
               id="tspan32806"
               style="font-style:normal;font-variant:normal;font-weight:normal;font-stretch:normal;font-size:28.5511px;font-family:'Open Sans';-inkscape-font-specification:'Open Sans, @wght=700,wdth=75.0';font-variant-ligatures:none;font-variant-caps:normal;font-variant-numeric:normal;font-variant-east-asian:normal;font-variation-settings:'wdth' 75, 'wght' 700;stroke-width:0.73839"
               x="6132.3833"
               y="-234.14087">Guides</tspan></text>
        </g>
        <text
           xml:space="preserve"
           style="font-size:17.7214px;line-height:1.25;font-family:'Open Sans';-inkscape-font-specification:'Open Sans, @wght=700';font-variant-ligatures:none;font-variation-settings:'wght' 700;stroke-width:0.73839"
           x="6088.4131"
           y="-224.50598"
           id="text38583"><tspan
             sodipodi:role="line"
             id="tspan38581"
             style="font-style:normal;font-variant:normal;font-weight:normal;font-stretch:normal;font-size:7.87616px;font-family:'Open Sans';-inkscape-font-specification:'Open Sans, @wght=300,wdth=75.0';font-variant-ligatures:none;font-variant-caps:normal;font-variant-numeric:normal;font-variant-east-asian:normal;font-variation-settings:'wdth' 75, 'wght' 300;stroke-width:0.73839"
             x="6088.4131"
             y="-224.50598">U  P  O  Z  N  A  J       T  O  M  I  S  L  A  V  G  R  A  D</tspan></text>
      </g>
    </g>
  </g>
</svg>
