<?xml version="1.0" encoding="UTF-8" standalone="no"?>
<svg
   width="209.6378"
   height="100"
   viewBox="0 0 209.6378 100"
   fill="none"
   version="1.1"
   id="svg15"
   sodipodi:docname="logo_figma_en.svg"
   inkscape:version="1.2 (dc2aedaf03, 2022-05-15)"
   xmlns:inkscape="http://www.inkscape.org/namespaces/inkscape"
   xmlns:sodipodi="http://sodipodi.sourceforge.net/DTD/sodipodi-0.dtd"
   xmlns="http://www.w3.org/2000/svg"
   xmlns:svg="http://www.w3.org/2000/svg">
  <sodipodi:namedview
     id="namedview17"
     pagecolor="#ffffff"
     bordercolor="#666666"
     borderopacity="1.0"
     inkscape:pageshadow="2"
     inkscape:pageopacity="0.0"
     inkscape:pagecheckerboard="0"
     showgrid="false"
     inkscape:zoom="2.4224955"
     inkscape:cx="-1.0319937"
     inkscape:cy="57.585246"
     inkscape:window-width="1920"
     inkscape:window-height="991"
     inkscape:window-x="-9"
     inkscape:window-y="-9"
     inkscape:window-maximized="1"
     inkscape:current-layer="svg15"
     fit-margin-top="0"
     fit-margin-left="0"
     fit-margin-right="0"
     fit-margin-bottom="0"
     width="209.6378px"
     inkscape:showpageshadow="0"
     inkscape:deskcolor="#d1d1d1" />
  <path
     d="M 184.41124,45.799645 169.32273,31.593316 c -0.40015,-0.376851 -0.63444,-0.897176 -0.65155,-1.44659 -0.0158,-0.549283 0.18559,-1.08277 0.56336,-1.483051 0.37645,-0.400148 0.89639,-0.634315 1.44528,-0.6509 0.5502,-0.01658 1.08329,0.185858 1.48344,0.562578 l 13.70115,12.899396 10.8198,-9.738617 -5.62972,1.474495 c -0.85426,0.230612 -1.75592,0.227585 -2.60887,-0.0084 -0.85426,-0.236139 -1.62823,-0.696837 -2.24425,-1.334048 -0.6147,-0.63721 -1.04775,-1.427635 -1.2531,-2.289007 -0.20666,-0.861374 -0.17769,-1.762234 0.083,-2.608601 l 2.66547,-8.877113 -8.7006,3.194607 c -0.82926,0.311037 -1.72696,0.394226 -2.59834,0.240748 -0.87269,-0.153609 -1.68747,-0.538094 -2.3614,-1.113704 -0.67262,-0.575608 -1.17938,-1.321148 -1.46634,-2.158827 -0.28695,-0.837812 -0.34486,-1.737356 -0.16584,-2.604783 l 1.16359,-5.6796108 -9.06917,11.3867298 1.62956,1.534254 c 0.40015,0.376719 0.63444,0.897044 0.65024,1.446459 0.0171,0.549414 -0.1856,1.082901 -0.56205,1.48305 -0.37645,0.40028 -0.8977,0.634447 -1.44659,0.6509 -0.5502,0.01658 -1.0833,-0.185727 -1.48344,-0.562578 l -3.01824,-2.841186 c -0.3804,-0.356712 -0.61338,-0.84413 -0.65023,-1.364849 -0.0382,-0.520851 0.12241,-1.036569 0.44884,-1.444089 L 175.60537,0.73249117 c 0.29222,-0.3452606 0.68973,-0.585218 1.132,-0.6832801 0.44228,-0.098061 0.90297,-0.0487030016 1.31497,0.140315 0.42515,0.1946771 0.77265,0.5274326 0.98457,0.94429783 0.21192,0.4167334 0.27641,0.893227 0.18427,1.3515545 l -2.81551,14.0864166 c -0.0263,0.145317 -0.0145,0.294846 0.0329,0.434371 0.0487,0.139658 0.13031,0.264836 0.23956,0.36382 0.11188,0.09635 0.24747,0.161112 0.39226,0.187702 0.1461,0.02659 0.29483,0.01395 0.43437,-0.03672 l 12.55729,-4.600919 c 0.35934,-0.127943 0.74765,-0.154268 1.12015,-0.07608 0.37383,0.07818 0.71869,0.25799 0.99643,0.519404 0.27773,0.261544 0.47781,0.594563 0.57784,0.962462 0.10007,0.3679 0.0974,0.756466 -0.007,1.122918 l -3.83695,12.812258 c -0.0421,0.1415 -0.0448,0.291556 -0.0106,0.434768 0.0356,0.143342 0.10793,0.274575 0.21191,0.380272 0.10535,0.101745 0.23563,0.17546 0.37778,0.214685 0.14216,0.03923 0.2909,0.04265 0.43437,0.01003 l 13.89201,-3.658859 c 0.45148,-0.120308 0.93061,-0.08411 1.35971,0.102537 0.42911,0.186779 0.78187,0.512953 1.00168,0.92587 0.21457,0.398964 0.2909,0.856897 0.21982,1.303906 -0.071,0.446876 -0.28694,0.858213 -0.61338,1.171092 l -18.55689,16.686857 c -0.38699,0.350261 -0.89244,0.541517 -1.41501,0.535461 -0.52124,-0.0059 -1.02274,-0.208761 -1.40183,-0.567973 z"
     fill="#fdc82f"
     id="path2"
     style="stroke-width:1.31628" />
  <g
     clip-path="url(#clip0_408:51)"
     id="g6"
     transform="matrix(1.3162784,0,0,1.3162784,-3.337456,-29.816074)">
    <path
       d="m 2.56023,54.8229 c 56.49627,1.3962 -7.44426,24.6849 31.03687,18.2893 38.4811,-6.3956 36.7575,5.3802 36.7575,5.3802"
       stroke="#000000"
       stroke-width="2"
       id="path4" />
  </g>
  <path
     d="M 22.961129,11.301173 H 14.639617 V 34.681568 H 9.5054722 V 11.301173 H 1.1839603 V 7.0831592 H 22.961129 Z m 6.947054,3.492745 c 1.450538,0 2.767474,0.23535 3.950809,0.706184 1.195971,0.470832 2.213981,1.138843 3.053766,2.004033 0.852422,0.86519 1.507797,1.921371 1.965862,3.168282 0.458064,1.246911 0.687098,2.640192 0.687098,4.179842 0,1.552288 -0.229034,2.952018 -0.687098,4.198929 -0.458065,1.24691 -1.11344,2.30941 -1.965862,3.187367 -0.839785,0.877958 -1.857795,1.552287 -3.053766,2.02312 -1.183335,0.470833 -2.500271,0.706184 -3.950809,0.706184 -1.463308,0 -2.793011,-0.235351 -3.988982,-0.706184 -1.196102,-0.470833 -2.22043,-1.145162 -3.072852,-2.02312 -0.839785,-0.877957 -1.495161,-1.940457 -1.965862,-3.187367 -0.458064,-1.246911 -0.687097,-2.646641 -0.687097,-4.198929 0,-1.53965 0.229033,-2.932931 0.687097,-4.179842 0.470701,-1.246911 1.126077,-2.303092 1.965862,-3.168282 0.852422,-0.86519 1.87675,-1.533201 3.072852,-2.004033 1.195971,-0.470834 2.525674,-0.706184 3.988982,-0.706184 z m 0,16.547594 c 1.628631,0 2.831052,-0.547178 3.607261,-1.641399 0.788845,-1.094223 1.183334,-2.69745 1.183334,-4.809682 0,-2.112232 -0.394489,-3.721777 -1.183334,-4.828767 -0.776209,-1.10699 -1.97863,-1.660485 -3.607261,-1.660485 -1.654168,0 -2.881992,0.559813 -3.683605,1.679571 -0.788978,1.106991 -1.183334,2.710217 -1.183334,4.809681 0,2.099464 0.394356,3.702691 1.183334,4.809682 0.801613,1.094221 2.029437,1.641399 3.683605,1.641399 z m 13.254002,3.340056 V 15.099295 h 2.881992 c 0.610753,0 1.01156,0.28629 1.20242,0.858871 l 0.305376,1.450539 c 0.343549,-0.381721 0.699865,-0.731588 1.068818,-1.049732 0.381721,-0.318145 0.782528,-0.591667 1.20242,-0.820699 0.432661,-0.229034 0.890726,-0.407126 1.374196,-0.53441 0.496236,-0.13992 1.037095,-0.209946 1.622313,-0.209946 1.234273,0 2.245833,0.33723 3.034679,1.01156 0.801614,0.661693 1.399731,1.545969 1.794087,2.652959 0.305377,-0.648925 0.687098,-1.202421 1.145162,-1.660485 0.458066,-0.470833 0.960752,-0.852554 1.507798,-1.145162 0.547177,-0.292609 1.126075,-0.509006 1.736829,-0.648926 0.623521,-0.13992 1.247042,-0.209946 1.870431,-0.209946 1.081587,0 2.042207,0.165456 2.881992,0.496237 0.839785,0.33078 1.545969,0.814381 2.11855,1.450538 0.572582,0.636158 1.005242,1.412367 1.297851,2.328497 0.305376,0.91613 0.458065,1.965862 0.458065,3.149196 V 34.681568 H 65.950913 V 22.218386 c 0,-1.246911 -0.273523,-2.182126 -0.8207,-2.805647 -0.547046,-0.636158 -1.348659,-0.954302 -2.404841,-0.954302 -0.483468,0 -0.935216,0.08266 -1.355108,0.248119 -0.407125,0.165456 -0.76976,0.407124 -1.087904,0.725269 -0.305377,0.305376 -0.547045,0.693415 -0.72527,1.164248 -0.178092,0.470833 -0.267204,1.01156 -0.267204,1.622313 V 34.681568 H 54.556549 V 22.218386 c 0,-1.310618 -0.267205,-2.26492 -0.801614,-2.862905 -0.521641,-0.597985 -1.291401,-0.897044 -2.309411,-0.897044 -0.687097,0 -1.329572,0.171775 -1.927689,0.515323 -0.585217,0.330781 -1.132395,0.788845 -1.6414,1.374194 V 34.681568 Z M 80.032196,15.099295 V 34.681568 H 75.298859 V 15.099295 Z m 0.648925,-5.7067258 c 0,0.407125 -0.08266,0.7888468 -0.248119,1.1451628 -0.165324,0.356317 -0.388038,0.668011 -0.668011,0.935215 -0.267205,0.267205 -0.585218,0.48347 -0.954302,0.648926 -0.368953,0.152688 -0.763441,0.229032 -1.183334,0.229032 -0.407126,0 -0.795164,-0.07635 -1.164248,-0.229032 -0.356186,-0.165456 -0.668012,-0.381721 -0.935216,-0.648926 -0.267205,-0.267204 -0.483469,-0.578898 -0.648925,-0.935215 -0.152688,-0.356316 -0.229032,-0.7380378 -0.229032,-1.1451628 0,-0.419892 0.07635,-0.814381 0.229032,-1.183333 0.165456,-0.368953 0.38172,-0.6870989 0.648925,-0.9543033 0.267204,-0.2672044 0.57903,-0.4771502 0.935216,-0.6298384 0.369084,-0.1654562 0.757122,-0.2481189 1.164248,-0.2481189 0.419893,0 0.814381,0.08266 1.183334,0.2481189 0.369084,0.1526882 0.687097,0.362634 0.954302,0.6298384 0.279973,0.2672044 0.502687,0.5853503 0.668011,0.9543033 0.165456,0.368952 0.248119,0.763441 0.248119,1.183333 z m 16.105061,9.5239328 c -0.127153,0.203628 -0.260755,0.349867 -0.400808,0.438979 -0.13992,0.07635 -0.318012,0.114516 -0.534408,0.114516 -0.229033,0 -0.477151,-0.06358 -0.744356,-0.19086 -0.254436,-0.127285 -0.553494,-0.267205 -0.897043,-0.419893 -0.343549,-0.165456 -0.737906,-0.311695 -1.183335,-0.438979 -0.432528,-0.127284 -0.947852,-0.190861 -1.545969,-0.190861 -0.928765,0 -1.660485,0.197179 -2.194893,0.591668 -0.521642,0.394488 -0.782528,0.909812 -0.782528,1.545969 0,0.419892 0.133601,0.776209 0.400807,1.068817 0.279972,0.279973 0.642606,0.528092 1.087904,0.744356 0.458065,0.216264 0.973387,0.413575 1.545969,0.591667 0.572581,0.165457 1.151611,0.349868 1.736829,0.553495 0.598117,0.203628 1.183334,0.438979 1.755915,0.706183 0.572582,0.254437 1.081587,0.585349 1.526883,0.992475 0.458065,0.394489 0.8207,0.871639 1.087904,1.431453 0.279973,0.559813 0.419893,1.234274 0.419893,2.023119 0,0.941534 -0.171774,1.813174 -0.515323,2.614787 -0.330781,0.788846 -0.827018,1.475944 -1.488711,2.061293 -0.661562,0.57258 -1.48226,1.024328 -2.462099,1.355108 -0.966937,0.318145 -2.086696,0.47715 -3.359142,0.47715 -0.674329,0 -1.336022,-0.06358 -1.984948,-0.19086 -0.636157,-0.114516 -1.253229,-0.279972 -1.851345,-0.496237 -0.585217,-0.216264 -1.132394,-0.470832 -1.641399,-0.763441 -0.496238,-0.292608 -0.935216,-0.610753 -1.316936,-0.954301 l 1.087903,-1.794088 c 0.140052,-0.216264 0.305377,-0.381721 0.496237,-0.496237 0.190861,-0.114516 0.432661,-0.171775 0.72527,-0.171775 0.29274,0 0.566263,0.08266 0.820699,0.248119 0.267205,0.165456 0.572581,0.343549 0.91613,0.534409 0.343548,0.19086 0.744355,0.368953 1.20242,0.534409 0.470833,0.165456 1.0625,0.248119 1.775001,0.248119 0.559945,0 1.037096,-0.06358 1.431453,-0.190861 0.407257,-0.139921 0.738037,-0.318144 0.992475,-0.534409 0.267204,-0.216265 0.458064,-0.464383 0.57258,-0.744355 0.127285,-0.29261 0.190861,-0.591667 0.190861,-0.897044 0,-0.458065 -0.13992,-0.833468 -0.419893,-1.126076 -0.267204,-0.292609 -0.629839,-0.547177 -1.087904,-0.763441 -0.445297,-0.216266 -0.96062,-0.407126 -1.545969,-0.572582 -0.572581,-0.178093 -1.164248,-0.368953 -1.775001,-0.572581 -0.597986,-0.203628 -1.189653,-0.438979 -1.775002,-0.706184 -0.572581,-0.279972 -1.087905,-0.629838 -1.545969,-1.049732 -0.445297,-0.419892 -0.807932,-0.935215 -1.087905,-1.545969 -0.267204,-0.610753 -0.400806,-1.34879 -0.400806,-2.213979 0,-0.801614 0.159138,-1.565056 0.477151,-2.290325 0.318144,-0.72527 0.782527,-1.355108 1.39328,-1.889518 0.623522,-0.547177 1.393281,-0.979706 2.309411,-1.29785 0.928898,-0.330781 1.997715,-0.496237 3.206454,-0.496237 1.34879,0 2.576616,0.222714 3.683605,0.668012 1.10699,0.445296 2.02957,1.030645 2.767475,1.755914 z M 106.38475,6.319718 v 28.36185 H 101.6705 V 6.319718 Z m 15.04151,20.002166 c -1.36143,0.06358 -2.50659,0.184543 -3.43549,0.362635 -0.92876,0.165456 -1.67312,0.381721 -2.23306,0.648925 -0.55982,0.267204 -0.96062,0.578899 -1.20243,0.935216 -0.24167,0.356316 -0.36263,0.744356 -0.36263,1.164248 0,0.827018 0.2418,1.418685 0.72527,1.775001 0.49624,0.356317 1.13885,0.534409 1.92769,0.534409 0.96707,0 1.80054,-0.171773 2.50027,-0.515323 0.71264,-0.356317 1.40605,-0.890725 2.08038,-1.603226 z m -10.8027,-8.493287 c 2.25215,-2.061291 4.96237,-3.091937 8.13065,-3.091937 1.14517,0 2.16949,0.19086 3.07286,0.57258 0.90349,0.368954 1.66693,0.890727 2.29032,1.565056 0.62352,0.661693 1.09435,1.456857 1.41237,2.385754 0.33091,0.928898 0.49623,1.946776 0.49623,3.053767 v 12.367751 h -2.13763 c -0.4453,0 -0.78885,-0.06358 -1.03065,-0.19086 -0.24167,-0.139921 -0.43253,-0.413575 -0.57258,-0.8207 l -0.41989,-1.412366 c -0.49624,0.445296 -0.97971,0.839785 -1.45054,1.183333 -0.4707,0.330782 -0.96062,0.610754 -1.46963,0.839787 -0.50887,0.229032 -1.05605,0.400806 -1.6414,0.515322 -0.57257,0.127284 -1.20873,0.19086 -1.9086,0.19086 -0.82702,0 -1.59046,-0.108197 -2.29032,-0.324462 -0.69974,-0.229032 -1.30417,-0.566263 -1.81317,-1.01156 -0.50887,-0.445296 -0.90337,-0.998792 -1.18334,-1.660485 -0.27984,-0.661693 -0.41989,-1.431452 -0.41989,-2.309411 0,-0.496237 0.0828,-0.986155 0.24812,-1.469625 0.16545,-0.496236 0.43266,-0.967069 0.80161,-1.412366 0.38172,-0.445296 0.87164,-0.86519 1.46963,-1.259679 0.59811,-0.394488 1.3297,-0.738037 2.19489,-1.030645 0.87795,-0.292609 1.89596,-0.528092 3.05376,-0.706184 1.15793,-0.19086 2.48119,-0.305376 3.9699,-0.343548 v -1.145162 c 0,-1.310619 -0.27985,-2.277557 -0.83979,-2.901078 -0.55981,-0.636158 -1.36774,-0.954302 -2.42392,-0.954302 -0.76344,0 -1.3996,0.08911 -1.9086,0.267204 -0.49624,0.178093 -0.93523,0.381721 -1.31695,0.610753 -0.38172,0.216266 -0.73158,0.413575 -1.04973,0.591668 -0.30537,0.178092 -0.64892,0.267204 -1.03064,0.267204 -0.33078,0 -0.61076,-0.08266 -0.83979,-0.248118 -0.22903,-0.178092 -0.41344,-0.38172 -0.55349,-0.610754 z m 37.04903,-2.729302 -7.76736,19.582273 h -4.27527 l -7.76815,-19.582273 h 3.89302 c 0.35672,0 0.64893,0.08266 0.87796,0.248118 0.2422,0.165456 0.40146,0.375403 0.47781,0.629839 l 3.77904,10.459148 c 0.20401,0.610753 0.38172,1.208739 0.5344,1.794088 0.15269,0.585349 0.28564,1.170566 0.40015,1.755916 0.12768,-0.58535 0.26721,-1.170567 0.41989,-1.755916 0.15269,-0.585349 0.33829,-1.183335 0.55416,-1.794088 l 3.85537,-10.459148 c 0.0895,-0.254436 0.24747,-0.464383 0.4765,-0.629839 0.22904,-0.165456 0.50282,-0.248118 0.82136,-0.248118 z m -28.417,43.91697 v 11.165332 c -1.39973,1.030645 -2.89477,1.787769 -4.48523,2.271238 -1.57782,0.470832 -3.27015,0.706183 -5.07688,0.706183 -2.25216,0 -4.29436,-0.349867 -6.12662,-1.049732 -1.81962,-0.699865 -3.37823,-1.673253 -4.676081,-2.920164 -1.285214,-1.24691 -2.277687,-2.735621 -2.977422,-4.466132 -0.699865,-1.730511 -1.049732,-3.620029 -1.049732,-5.668553 0,-2.07406 0.337099,-3.976214 1.01156,-5.706725 0.674329,-1.730511 1.628632,-3.219222 2.862906,-4.466132 1.246911,-1.246911 2.754709,-2.213981 4.523389,-2.901078 1.76855,-0.687098 3.7535,-1.030646 5.95484,-1.030646 1.11963,0 2.16305,0.08911 3.13012,0.267204 0.9797,0.178092 1.88307,0.426211 2.71022,0.744356 0.83978,0.305376 1.60322,0.680779 2.29032,1.126076 0.6871,0.445297 1.31694,0.935216 1.88952,1.469625 l -1.46963,2.328496 c -0.22903,0.368953 -0.52809,0.597985 -0.89704,0.687097 -0.36908,0.07635 -0.76989,-0.01908 -1.20242,-0.28629 -0.41989,-0.2418 -0.83978,-0.483469 -1.25968,-0.72527 -0.41989,-0.2418 -0.89072,-0.451746 -1.41237,-0.629838 -0.509,-0.178093 -1.0879,-0.324463 -1.73682,-0.438979 -0.63629,-0.114516 -1.3742,-0.171775 -2.21399,-0.171775 -1.36156,0 -2.59569,0.229032 -3.70269,0.687098 -1.09435,0.458065 -2.02957,1.113308 -2.80564,1.965862 -0.77621,0.852553 -1.3742,1.876749 -1.79409,3.072852 -0.4199,1.196102 -0.62984,2.532124 -0.62984,4.008067 0,1.577823 0.22258,2.99019 0.66801,4.2371 0.45807,1.234274 1.09422,2.284006 1.9086,3.149196 0.82702,0.852554 1.8195,1.507797 2.97742,1.965862 1.15781,0.445297 2.44933,0.668011 3.87447,0.668011 1.01788,0 1.92769,-0.108198 2.72931,-0.324462 0.80161,-0.216264 1.58414,-0.509005 2.34758,-0.877959 v -5.000541 h -3.47366 c -0.33091,0 -0.59167,-0.08911 -0.78252,-0.267205 -0.17823,-0.19086 -0.26722,-0.419892 -0.26722,-0.687097 v -2.901077 z m 20.776,-5.744898 v 19.582275 h -2.88134 c -0.6239,0 -1.01879,-0.286291 -1.18333,-0.858872 l -0.32512,-1.565056 c -0.80161,0.814383 -1.68615,1.475944 -2.65229,1.984949 -0.96747,0.496236 -2.10605,0.744355 -3.41707,0.744355 -1.06881,0 -2.0168,-0.178092 -2.84381,-0.534409 -0.81439,-0.368953 -1.50149,-0.884276 -2.06129,-1.545969 -0.55982,-0.661694 -0.98617,-1.44422 -1.27878,-2.347583 -0.27996,-0.916129 -0.41989,-1.921371 -0.41989,-3.015593 V 53.271367 h 4.71425 v 12.444097 c 0,1.196101 0.27353,2.124868 0.82071,2.786561 0.55941,0.648925 1.39393,0.973388 2.50092,0.973388 0.81347,0 1.57691,-0.178092 2.29033,-0.534409 0.71211,-0.368952 1.38604,-0.87164 2.02312,-1.507797 v -14.16184 z m 9.56013,0 v 19.582275 h -4.73334 V 53.271367 Z m 0.64892,-5.706724 c 0,0.407125 -0.083,0.788845 -0.24745,1.145162 -0.16585,0.356316 -0.38831,0.668012 -0.66868,0.935216 -0.2672,0.267204 -0.58573,0.483469 -0.95429,0.648925 -0.36856,0.152688 -0.76344,0.229032 -1.18334,0.229032 -0.40673,0 -0.79503,-0.07635 -1.1636,-0.229032 -0.3567,-0.165456 -0.66866,-0.381721 -0.93586,-0.648925 -0.2672,-0.267204 -0.48308,-0.5789 -0.64893,-0.935216 -0.15269,-0.356317 -0.22903,-0.738037 -0.22903,-1.145162 0,-0.419892 0.0763,-0.814382 0.22903,-1.183335 0.16585,-0.368952 0.38173,-0.687097 0.64893,-0.954301 0.2672,-0.267204 0.57916,-0.477151 0.93586,-0.62984 0.36857,-0.165456 0.75687,-0.248117 1.1636,-0.248117 0.4199,0 0.81478,0.08266 1.18334,0.248117 0.36856,0.152689 0.68709,0.362636 0.95429,0.62984 0.28037,0.267204 0.50283,0.585349 0.66868,0.954301 0.16453,0.368953 0.24745,0.763443 0.24745,1.183335 z m 16.44822,10.707266 c -0.53441,-0.648925 -1.11884,-1.106989 -1.75592,-1.374194 -0.6226,-0.267204 -1.29785,-0.400807 -2.02312,-0.400807 -0.7121,0 -1.35445,0.133603 -1.92702,0.400807 -0.57259,0.267205 -1.06224,0.674329 -1.47028,1.221506 -0.40674,0.534409 -0.7187,1.221507 -0.93456,2.061292 -0.21587,0.827017 -0.32512,1.806856 -0.32512,2.93925 0,1.145162 0.0895,2.118549 0.2672,2.920164 0.19085,0.788845 0.45806,1.43777 0.80161,1.946775 0.34355,0.496237 0.76344,0.858872 1.25968,1.087904 0.49624,0.216265 1.05039,0.324463 1.66115,0.324463 0.9793,0 1.8125,-0.203628 2.49961,-0.610753 0.68709,-0.407126 1.33601,-0.986156 1.94677,-1.736829 z m 4.71491,-13.780118 v 28.361851 h -2.88265 c -0.6226,0 -1.01748,-0.286291 -1.18334,-0.858872 l -0.40014,-1.889518 c -0.78846,0.903362 -1.69932,1.635081 -2.72996,2.194894 -1.01748,0.559813 -2.2074,0.839786 -3.56843,0.839786 -1.06883,0 -2.04813,-0.222714 -2.93925,-0.668011 -0.89112,-0.445298 -1.66115,-1.087904 -2.31007,-1.92769 -0.63576,-0.852554 -1.132,-1.902286 -1.48872,-3.149196 -0.34354,-1.246911 -0.51465,-2.672045 -0.51465,-4.275272 0,-1.450539 0.19744,-2.79933 0.591,-4.04624 0.39488,-1.24691 0.96088,-2.328496 1.69932,-3.244627 0.73842,-0.916129 1.62165,-1.62863 2.65229,-2.137635 1.03065,-0.521642 2.18897,-0.782528 3.47367,-0.782528 1.09514,0 2.0297,0.171774 2.8063,0.515323 0.7766,0.343549 1.46896,0.807931 2.07972,1.39328 V 44.491791 Z m 17.26826,16.318562 c 0,-0.610754 -0.0895,-1.183335 -0.26721,-1.717744 -0.16585,-0.547177 -0.4199,-1.024328 -0.76344,-1.431453 -0.34355,-0.407124 -0.78187,-0.725269 -1.31627,-0.954301 -0.52257,-0.241801 -1.13332,-0.362635 -1.83227,-0.362635 -1.36234,0 -2.43774,0.388039 -3.2262,1.164248 -0.7766,0.776209 -1.27284,1.876749 -1.4887,3.301885 z m -8.98887,2.843818 c 0.0763,1.005243 0.25404,1.876751 0.53441,2.614788 0.27905,0.725269 0.64893,1.329705 1.10699,1.813173 0.45807,0.470833 0.99774,0.827018 1.62166,1.068818 0.63576,0.229032 1.33602,0.34355 2.09946,0.34355 0.76344,0 1.41895,-0.08911 1.96652,-0.267206 0.55942,-0.178092 1.04249,-0.375402 1.45053,-0.591666 0.4199,-0.216265 0.78187,-0.413575 1.08726,-0.591668 0.31853,-0.178092 0.62391,-0.267204 0.91612,-0.267204 0.39489,0 0.6871,0.14637 0.87796,0.438979 l 1.35577,1.717743 c -0.52256,0.610753 -1.10699,1.126076 -1.75592,1.545969 -0.64892,0.407125 -1.33076,0.738037 -2.04286,0.992474 -0.70026,0.2418 -1.41895,0.413574 -2.15606,0.515322 -0.72528,0.101745 -1.43212,0.152689 -2.11921,0.152689 -1.36104,0 -2.62729,-0.222714 -3.79747,-0.668011 -1.17149,-0.458066 -2.18897,-1.126076 -3.05376,-2.004035 -0.86612,-0.890725 -1.54662,-1.984947 -2.04286,-3.282798 -0.49624,-1.310618 -0.7437,-2.824733 -0.7437,-4.542477 0,-1.336022 0.21587,-2.589382 0.64892,-3.759949 0.43174,-1.183334 1.04907,-2.207662 1.85068,-3.072851 0.81479,-0.877958 1.80068,-1.571373 2.959,-2.080378 1.17018,-0.509006 2.48646,-0.763442 3.95015,-0.763442 1.23468,0 2.37325,0.197179 3.41706,0.591667 1.0425,0.394489 1.94019,0.973388 2.69047,1.73683 0.75028,0.750674 1.33603,1.679571 1.75592,2.786561 0.43305,1.094223 0.64892,2.347583 0.64892,3.759949 0,0.712501 -0.0763,1.196102 -0.22903,1.450539 -0.15269,0.241801 -0.4449,0.362634 -0.87795,0.362634 z m 28.71198,-6.565596 c -0.12768,0.203629 -0.26062,0.349867 -0.40146,0.438979 -0.13952,0.07635 -0.31723,0.114517 -0.53441,0.114517 -0.22903,0 -0.4765,-0.06358 -0.7437,-0.190862 -0.25536,-0.127284 -0.55416,-0.267204 -0.8977,-0.419892 -0.34355,-0.165456 -0.73711,-0.311694 -1.18334,-0.438978 -0.43173,-0.127285 -0.94772,-0.190861 -1.54531,-0.190861 -0.92929,0 -1.66114,0.197178 -2.19555,0.591667 -0.52124,0.394488 -0.78187,0.909812 -0.78187,1.545969 0,0.419893 0.13295,0.77621 0.40015,1.068818 0.28037,0.279973 0.64234,0.528091 1.08857,0.744356 0.45805,0.216264 0.97272,0.413574 1.54531,0.591666 0.57257,0.165457 1.15174,0.349867 1.73748,0.553496 0.59759,0.203628 1.18334,0.438979 1.75591,0.706183 0.57259,0.254437 1.08067,0.585349 1.52689,0.992474 0.45806,0.394488 0.82004,0.87164 1.08725,1.431453 0.28036,0.559812 0.41989,1.234274 0.41989,2.02312 0,0.941533 -0.17112,1.813173 -0.51467,2.614786 -0.3317,0.788846 -0.82794,1.475943 -1.4887,2.061292 -0.66209,0.572581 -1.48214,1.024328 -2.46276,1.355109 -0.96615,0.318144 -2.08631,0.477151 -3.35915,0.477151 -0.67393,0 -1.33602,-0.06358 -1.98494,-0.19086 -0.63576,-0.114516 -1.2531,-0.279973 -1.8507,-0.496237 -0.58573,-0.216265 -1.1333,-0.470833 -1.6414,-0.763442 -0.49623,-0.292609 -0.93586,-0.610753 -1.31758,-0.954302 l 1.08856,-1.794087 c 0.13952,-0.216265 0.30537,-0.381721 0.49624,-0.496237 0.19085,-0.114516 0.43173,-0.171774 0.72526,-0.171774 0.29222,0 0.566,0.08266 0.82004,0.248118 0.2672,0.165456 0.57259,0.343549 0.91614,0.534409 0.34354,0.19086 0.74501,0.368953 1.20307,0.53441 0.46991,0.165456 1.06223,0.248118 1.77434,0.248118 0.56074,0 1.03724,-0.06358 1.43212,-0.190861 0.40673,-0.13992 0.73711,-0.318144 0.99247,-0.534409 0.26721,-0.216264 0.45806,-0.464383 0.57258,-0.744355 0.12636,-0.292609 0.19087,-0.591668 0.19087,-0.897044 0,-0.458065 -0.14085,-0.833467 -0.4199,-1.126076 -0.26721,-0.292609 -0.6305,-0.547177 -1.08857,-0.763441 -0.44489,-0.216265 -0.96088,-0.407125 -1.5453,-0.572581 -0.57259,-0.178093 -1.16491,-0.368953 -1.77567,-0.572581 -0.59759,-0.203629 -1.18991,-0.438979 -1.77434,-0.706184 -0.57258,-0.279972 -1.08855,-0.629839 -1.54662,-1.049732 -0.44491,-0.419893 -0.8082,-0.935216 -1.08725,-1.545969 -0.2672,-0.610753 -0.40147,-1.348791 -0.40147,-2.21398 0,-0.801613 0.15928,-1.565056 0.47781,-2.290325 0.31723,-0.725269 0.78187,-1.355108 1.39263,-1.889517 0.62392,-0.547177 1.39393,-0.979707 2.31007,-1.297851 0.92797,-0.330781 1.99679,-0.496237 3.20645,-0.496237 1.34787,0 2.57596,0.222715 3.68295,0.668012 1.10698,0.445296 2.0297,1.030645 2.76813,1.755915 z"
     fill="#000000"
     id="path8"
     style="stroke-width:1.31628"
     sodipodi:nodetypes="cccccccccsccsssccscccscccsscscscscsccscccccscccccssscsccscscscsccscscccccccccscccscscscscscccsccscccscscccccccscccscccccsscscscccscccccccscccsscccccccccccscsccccscccscsccccccscccsccccccscscccscccccccscccscsccssccccscccscccsccsccccsccsccsscccssccscsccccscccscscsccscscccccccccscccscscscscscccsccssccscccssccccscccssccscscsscccccscscccccccscccscccccscccscccscccscscccscccscscccccccscccscccccsscscscccscccccccscccsscc" />
  <defs
     id="defs13">
    <clipPath
       id="clip0_408:51">
      <rect
         width="71.347198"
         height="18.943399"
         fill="#ffffff"
         transform="rotate(8.32729,-362.65171,45.343572)"
         id="rect10"
         x="0"
         y="0" />
    </clipPath>
  </defs>
  <text
     xml:space="preserve"
     style="font-size:24px;line-height:1.25;font-family:'Open Sans';-inkscape-font-specification:'Open Sans, @wght=700';font-variant-ligatures:none;font-variation-settings:'wght' 700;letter-spacing:2px;word-spacing:2px"
     x="19.812565"
     y="92.302269"
     id="text450"><tspan
       sodipodi:role="line"
       id="tspan448"
       x="19.812565"
       y="92.302269"
       style="font-style:normal;font-variant:normal;font-weight:normal;font-stretch:normal;font-size:14.6667px;font-family:'Open Sans';-inkscape-font-specification:'Open Sans, @wght=457';font-variant-ligatures:none;font-variant-caps:normal;font-variant-numeric:normal;font-variant-east-asian:normal;font-variation-settings:'wght' 457;fill:#000000;fill-opacity:1">Meet  Tomislavgrad</tspan></text>
</svg>
