<svg version="1.1" xmlns="http://www.w3.org/2000/svg" viewBox="-3939.1415563480227 -2162.55888671875 11202.372806348023 3828.4810546875"><desc>Created with Snap</desc><defs></defs><g><rect x="-3939.1415563480227" y="-2162.55888671875" width="11202.372806348023" height="3828.4810546875" style="" fill="#37393a"></rect><g transform="matrix(33.6058,0,0,33.6058,-3631.9416,-1901.0418)"><g><path d="M100,97l-34.152-9.154L34.153,96.34L0,87.188V1.36l34.153,9.153L65.848,2.02L100,11.171V97z M65.848,85.789l32.165,8.618   v-81.71l-32.165-8.62l-31.695,8.494L1.988,3.952v81.71l32.165,8.62L65.848,85.789z" style="" fill="#ffffff"></path><polygon points="32.204,39.276 32.235,39.245 32.235,20.666 23.226,29.967  " style="" fill="#ffffff"></polygon><polygon points="16.711,55.273 4.374,42.48 4.374,68.01  " style="" fill="#ffffff"></polygon><polygon points="30.993,40.528 4.374,12.923 4.374,39.973 17.922,54.021  " style="" fill="#ffffff"></polygon><polygon points="21.651,28.333 32.235,17.405 32.235,14.528 4.374,7.061 4.374,10.415  " style="" fill="#ffffff"></polygon><polygon points="18.053,57.146 4.374,71.27 4.374,83.832 32.235,91.297 32.235,81.864  " style="" fill="#ffffff"></polygon><polygon points="32.235,42.506 19.331,55.828 32.235,78.319  " style="" fill="#ffffff"></polygon><polygon points="36.069,37.52 36.069,42.259 39.761,44.109 63.27,7.24 53.75,9.79  " style="" fill="#ffffff"></polygon><polygon points="41.337,44.898 48.943,48.711 63.931,34.86 63.931,9.464  " style="" fill="#ffffff"></polygon><polygon points="63.931,37.238 50.611,49.547 63.931,56.222  " style="" fill="#ffffff"></polygon><polygon points="36.069,34.259 43.001,23.389 36.069,19.915  " style="" fill="#ffffff"></polygon><polygon points="37.664,85.901 41.033,89.97 63.931,83.832 63.931,74.196  " style="" fill="#ffffff"></polygon><polygon points="36.069,44.767 36.069,83.976 36.443,84.428 63.931,72.179 63.931,58.729  " style="" fill="#ffffff"></polygon><polygon points="44.213,21.488 51.243,10.462 36.069,14.528 36.069,17.409  " style="" fill="#ffffff"></polygon><polygon points="36.069,87.521 36.069,91.297 38.631,90.612  " style="" fill="#ffffff"></polygon><polygon points="80.266,74.643 67.765,73.515 67.765,83.832 95.626,91.297 95.626,90.571  " style="" fill="#ffffff"></polygon><polygon points="67.765,61.679 67.765,71.496 78.135,72.432  " style="" fill="#ffffff"></polygon><polygon points="95.626,58.758 71.171,33.398 67.765,34.72 67.765,59.171 95.626,88.063  " style="" fill="#ffffff"></polygon><polygon points="67.765,32.342 95.626,21.525 95.626,14.528 67.765,7.063  " style="" fill="#ffffff"></polygon><polygon points="72.93,32.715 95.626,56.25 95.626,23.903  " style="" fill="#ffffff"></polygon></g><desc>Created with Snap</desc><defs></defs></g><g><g transform="matrix(1.024,0,0,-1.024,0,0)"><path d="M841 830Q872 824 887 809Q903 794 903 774Q903 741 884 726Q866 711 826 714Q736 721 685 723Q635 726 553 727Q516 543 485 357Q474 289 462 199Q450 110 446 55Q444 26 422 10Q400 -5 369 -5Q336 -5 318 11Q300 27 300 53Q300 77 307 132Q315 188 325 249Q336 310 342 355Q353 431 367 506Q381 581 395 648Q398 663 402 682Q406 702 411 726Q313 723 257 710Q201 697 177 673Q154 650 154 613Q154 579 174 548Q178 541 178 533Q178 514 155 497Q133 481 109 481Q92 481 81 491Q61 508 48 539Q35 571 35 611Q35 696 90 747Q146 799 259 823Q373 847 551 847Q661 847 726 843Q792 839 841 830ZM1255 307Q1268 307 1275 294Q1282 281 1282 261Q1282 213 1253 204Q1193 183 1121 180Q1102 96 1046 45Q990 -5 919 -5Q859 -5 816 24Q774 53 752 101Q730 149 730 205Q730 281 759 340Q788 400 839 433Q890 467 952 467Q1028 467 1074 414Q1121 362 1129 285Q1176 288 1241 305Q1249 307 1255 307ZM927 101Q959 101 982 127Q1006 153 1014 202Q983 223 966 257Q950 291 950 329Q950 345 953 361L948 361Q908 361 881 322Q855 284 855 214Q855 159 876 130Q898 101 927 101ZM1267 -5Q1229 -5 1213 35Q1198 75 1198 163Q1198 293 1235 410Q1244 439 1264 452Q1285 466 1322 466Q1342 466 1350 461Q1358 456 1358 442Q1358 426 1343 370Q1333 330 1327 300Q1321 271 1317 227Q1344 305 1381 359Q1419 413 1458 439Q1498 466 1533 466Q1568 466 1582 450Q1597 434 1597 401Q1597 369 1578 285Q1570 249 1567 231Q1617 354 1678 410Q1739 466 1792 466Q1857 466 1857 401Q1857 362 1835 260Q1816 173 1816 145Q1816 105 1845 105Q1865 105 1892 129Q1920 154 1966 209Q1978 223 1993 223Q2006 223 2013 211Q2021 199 2021 178Q2021 138 2002 116Q1959 63 1909 29Q1860 -5 1797 -5Q1746 -5 1720 24Q1694 54 1694 110Q1694 138 1708 210Q1721 273 1721 297Q1721 313 1710 313Q1697 313 1673 279Q1649 246 1625 191Q1601 136 1586 75Q1575 27 1560 11Q1546 -5 1514 -5Q1481 -5 1464 26Q1448 58 1448 103Q1448 141 1458 213Q1466 277 1466 297Q1466 313 1455 313Q1440 313 1417 277Q1394 241 1372 185Q1351 129 1338 75Q1327 28 1312 11Q1298 -5 1267 -5ZM2071 532Q2029 532 2008 551Q1987 571 1987 606Q1987 641 2014 664Q2042 688 2083 688Q2120 688 2143 670Q2166 652 2166 619Q2166 579 2140 555Q2114 532 2071 532ZM2063 -5Q1998 -5 1968 41Q1939 87 1939 163Q1939 208 1950 278Q1962 349 1980 410Q1989 442 2004 454Q2019 466 2052 466Q2103 466 2103 432Q2103 407 2084 316Q2060 206 2060 167Q2060 137 2068 121Q2076 105 2095 105Q2113 105 2140 130Q2167 155 2212 209Q2224 223 2239 223Q2252 223 2259 211Q2267 199 2267 178Q2267 138 2248 116Q2149 -5 2063 -5ZM2372 -27Q2320 -27 2292 -3Q2265 21 2265 51Q2265 77 2284 96Q2303 115 2340 115Q2353 115 2370 112Q2388 110 2397 109Q2396 135 2385 158Q2375 181 2359 202Q2343 224 2329 240Q2298 181 2267 142Q2237 103 2201 68Q2183 50 2163 50Q2147 50 2137 61Q2127 73 2127 90Q2127 110 2141 127L2154 143Q2209 211 2237 255Q2254 284 2277 332Q2300 381 2322 433Q2341 477 2401 477Q2429 477 2440 472Q2451 467 2451 456Q2451 450 2447 437Q2443 424 2436 411Q2418 375 2418 350Q2418 335 2428 317Q2439 299 2461 272Q2493 230 2509 200Q2526 171 2526 136Q2526 126 2524 108Q2573 127 2639 209Q2651 223 2666 223Q2679 223 2686 211Q2694 199 2694 178Q2694 140 2675 116Q2625 54 2579 31Q2534 9 2467 7Q2427 -27 2372 -27ZM2992 223Q3005 223 3012 211Q3020 199 3020 178Q3020 138 3001 116Q2958 63 2907 29Q2857 -5 2793 -5Q2705 -5 2662 75Q2620 155 2620 282Q2620 404 2651 560Q2683 716 2744 828Q2806 940 2891 940Q2939 940 2966 895Q2994 851 2994 768Q2994 649 2928 492Q2862 335 2749 181Q2756 140 2772 122Q2788 105 2814 105Q2855 105 2886 128Q2917 152 2965 209Q2977 223 2992 223ZM2869 841Q2846 841 2817 758Q2788 675 2766 552Q2744 429 2742 316Q2813 433 2855 550Q2897 668 2897 765Q2897 841 2869 841ZM3062 -5Q3000 -5 2963 40Q2926 85 2926 158Q2926 238 2963 309Q3000 381 3061 424Q3123 468 3192 468Q3214 468 3221 459Q3229 451 3234 429Q3255 433 3278 433Q3327 433 3327 398Q3327 377 3312 298Q3289 183 3289 138Q3289 123 3296 114Q3304 105 3316 105Q3335 105 3362 129Q3389 154 3435 209Q3447 223 3462 223Q3475 223 3482 211Q3490 199 3490 178Q3490 138 3471 116Q3430 65 3384 30Q3338 -5 3295 -5Q3262 -5 3234 17Q3207 40 3193 79Q3141 -5 3062 -5ZM3098 96Q3120 96 3140 122Q3160 148 3169 191L3206 375Q3164 374 3128 343Q3093 313 3072 263Q3051 213 3051 157Q3051 126 3063 111Q3076 96 3098 96ZM3904 304Q3907 305 3914 305Q3929 305 3937 295Q3945 285 3945 268Q3945 237 3933 219Q3921 202 3897 194Q3851 179 3799 179Q3755 179 3716 191Q3687 144 3652 94Q3612 37 3583 16Q3554 -5 3517 -5Q3476 -5 3452 27Q3429 59 3423 128Q3411 268 3411 373L3411 408Q3412 441 3429 454Q3446 467 3480 467Q3506 467 3518 455Q3531 444 3531 417Q3531 302 3545 118Q3605 207 3635 260Q3620 289 3620 329Q3620 363 3635 395Q3650 427 3676 447Q3702 467 3735 467Q3764 467 3782 446Q3800 426 3800 387Q3800 342 3776 284Q3814 286 3877 299L3904 304ZM4702 221Q4715 221 4722 208Q4730 196 4730 177Q4730 154 4723 141Q4716 128 4701 118Q4642 79 4513 -10Q4474 -217 4412 -336Q4350 -455 4255 -455Q4204 -455 4172 -424Q4140 -392 4140 -341Q4140 -294 4161 -246Q4182 -198 4239 -135Q4297 -72 4402 9L4405 28Q4326 -5 4250 -5Q4138 -5 4053 38Q3968 82 3921 162Q3874 242 3874 348Q3874 496 3930 609Q3986 723 4084 785Q4183 848 4305 848Q4422 848 4480 793Q4539 739 4539 649Q4539 590 4517 554Q4496 519 4456 519Q4429 519 4412 532Q4396 545 4396 568Q4396 578 4400 602Q4406 630 4406 646Q4406 688 4380 711Q4355 734 4295 734Q4222 734 4159 692Q4097 650 4059 566Q4021 483 4021 366Q4021 246 4086 180Q4152 115 4276 115Q4345 115 4420 146L4434 268L4332 268Q4304 268 4289 281Q4274 295 4274 326Q4274 354 4289 370Q4304 386 4329 386L4516 386Q4538 386 4552 371Q4567 357 4564 330Q4561 298 4544 185L4533 109Q4613 169 4679 213Q4692 221 4702 221ZM4266 -358Q4292 -358 4323 -299Q4354 -240 4381 -109Q4305 -174 4271 -227Q4238 -279 4238 -319Q4238 -358 4266 -358ZM4771 -5Q4726 -5 4697 36Q4669 78 4669 140Q4669 215 4679 277Q4689 340 4712 410Q4722 440 4740 453Q4758 466 4797 466Q4819 466 4827 459Q4836 452 4836 438Q4836 430 4825 384Q4815 347 4809 317Q4789 212 4789 177Q4789 156 4794 147Q4799 139 4810 139Q4825 139 4847 169Q4870 199 4895 260Q4921 321 4945 410Q4953 440 4969 453Q4986 466 5019 466Q5042 466 5051 460Q5060 455 5060 440Q5060 415 5035 303Q5007 175 5007 145Q5007 126 5015 115Q5023 105 5036 105Q5056 105 5083 129Q5111 154 5157 209Q5169 223 5184 223Q5197 223 5204 211Q5212 199 5212 178Q5212 138 5193 116Q5150 63 5100 29Q5051 -5 4988 -5Q4940 -5 4917 32Q4895 69 4895 136Q4878 68 4844 31Q4810 -5 4771 -5ZM5262 532Q5220 532 5199 551Q5178 571 5178 606Q5178 641 5205 664Q5233 688 5274 688Q5311 688 5334 670Q5357 652 5357 619Q5357 579 5331 555Q5305 532 5262 532ZM5254 -5Q5189 -5 5159 41Q5130 87 5130 163Q5130 208 5141 278Q5153 349 5171 410Q5180 442 5195 454Q5210 466 5243 466Q5294 466 5294 432Q5294 407 5275 316Q5251 206 5251 167Q5251 137 5259 121Q5267 105 5286 105Q5304 105 5331 130Q5358 155 5403 209Q5415 223 5430 223Q5443 223 5450 211Q5458 199 5458 178Q5458 138 5439 116Q5340 -5 5254 -5ZM5945 223Q5958 223 5965 211Q5973 199 5973 178Q5973 138 5954 116Q5913 66 5864 30Q5815 -5 5767 -5Q5691 -5 5651 84Q5609 31 5577 13Q5546 -5 5504 -5Q5443 -5 5403 40Q5364 86 5364 159Q5364 239 5398 307Q5432 376 5491 419Q5551 463 5625 471Q5644 665 5697 802Q5751 940 5838 940Q5881 940 5909 901Q5938 862 5938 783Q5938 671 5883 521Q5828 371 5736 213Q5740 155 5753 130Q5767 105 5788 105Q5815 105 5843 129Q5871 153 5918 209Q5930 223 5945 223ZM5827 842Q5808 842 5789 774Q5770 707 5756 598Q5743 489 5737 370Q5849 614 5849 762Q5849 800 5842 821Q5836 842 5827 842ZM5539 96Q5558 96 5577 111Q5596 127 5625 169Q5615 223 5615 290Q5615 314 5617 368Q5562 351 5525 294Q5489 238 5489 169Q5489 96 5539 96ZM6338 223Q6351 223 6358 211Q6366 199 6366 178Q6366 138 6347 116Q6310 71 6242 33Q6175 -5 6098 -5Q5993 -5 5935 52Q5877 109 5877 208Q5877 277 5906 336Q5935 396 5986 431Q6038 466 6103 466Q6161 466 6196 431Q6231 397 6231 338Q6231 269 6181 219Q6132 170 6014 141Q6039 95 6109 95Q6154 95 6211 126Q6269 158 6311 209Q6323 223 6338 223ZM6086 368Q6049 368 6023 325Q5998 282 5998 221L5998 219Q6057 233 6091 261Q6125 289 6125 326Q6125 345 6114 356Q6104 368 6086 368ZM6471 -27Q6419 -27 6391 -3Q6364 21 6364 51Q6364 77 6383 96Q6402 115 6439 115Q6452 115 6469 112Q6487 110 6496 109Q6495 135 6484 158Q6474 181 6458 202Q6442 224 6428 240Q6397 181 6366 142Q6336 103 6300 68Q6282 50 6262 50Q6246 50 6236 61Q6226 73 6226 90Q6226 110 6240 127L6253 143Q6308 211 6336 255Q6353 284 6376 332Q6399 381 6421 433Q6440 477 6500 477Q6528 477 6539 472Q6550 467 6550 456Q6550 450 6546 437Q6542 424 6535 411Q6517 375 6517 350Q6517 335 6527 317Q6538 299 6560 272Q6592 230 6608 200Q6625 171 6625 136Q6625 126 6623 108Q6672 127 6738 209Q6750 223 6765 223Q6778 223 6785 211Q6793 199 6793 178Q6793 140 6774 116Q6724 54 6678 31Q6633 9 6566 7Q6526 -27 6471 -27Z" style="" fill="#ffffff"></path></g></g></g></svg>