<?xml version="1.0" encoding="UTF-8" standalone="no"?>
<svg
   width="209.6378"
   height="100"
   viewBox="0 0 209.6378 100"
   fill="none"
   version="1.1"
   id="svg15"
   sodipodi:docname="logo_figma_white.svg"
   inkscape:version="1.1 (c68e22c387, 2021-05-23)"
   xmlns:inkscape="http://www.inkscape.org/namespaces/inkscape"
   xmlns:sodipodi="http://sodipodi.sourceforge.net/DTD/sodipodi-0.dtd"
   xmlns="http://www.w3.org/2000/svg"
   xmlns:svg="http://www.w3.org/2000/svg">
  <sodipodi:namedview
     id="namedview17"
     pagecolor="#ffffff"
     bordercolor="#666666"
     borderopacity="1.0"
     inkscape:pageshadow="2"
     inkscape:pageopacity="0.0"
     inkscape:pagecheckerboard="0"
     showgrid="false"
     inkscape:zoom="1.2112478"
     inkscape:cx="16.924696"
     inkscape:cy="64.809202"
     inkscape:window-width="1920"
     inkscape:window-height="991"
     inkscape:window-x="-9"
     inkscape:window-y="-9"
     inkscape:window-maximized="1"
     inkscape:current-layer="svg15"
     fit-margin-top="0"
     fit-margin-left="0"
     fit-margin-right="0"
     fit-margin-bottom="0"
     width="209.6378px" />
  <path
     d="M 184.41124,45.799645 169.32273,31.593316 c -0.40015,-0.376851 -0.63444,-0.897176 -0.65155,-1.44659 -0.0158,-0.549283 0.18559,-1.08277 0.56336,-1.483051 0.37645,-0.400148 0.89639,-0.634315 1.44528,-0.6509 0.5502,-0.01658 1.08329,0.185858 1.48344,0.562578 l 13.70115,12.899396 10.8198,-9.738617 -5.62972,1.474495 c -0.85426,0.230612 -1.75592,0.227585 -2.60887,-0.0084 -0.85426,-0.236139 -1.62823,-0.696837 -2.24425,-1.334048 -0.6147,-0.63721 -1.04775,-1.427635 -1.2531,-2.289007 -0.20666,-0.861374 -0.17769,-1.762234 0.083,-2.608601 l 2.66547,-8.877113 -8.7006,3.194607 c -0.82926,0.311037 -1.72696,0.394226 -2.59834,0.240748 -0.87269,-0.153609 -1.68747,-0.538094 -2.3614,-1.113704 -0.67262,-0.575608 -1.17938,-1.321148 -1.46634,-2.158827 -0.28695,-0.837812 -0.34486,-1.737356 -0.16584,-2.604783 l 1.16359,-5.6796108 -9.06917,11.3867298 1.62956,1.534254 c 0.40015,0.376719 0.63444,0.897044 0.65024,1.446459 0.0171,0.549414 -0.1856,1.082901 -0.56205,1.48305 -0.37645,0.40028 -0.8977,0.634447 -1.44659,0.6509 -0.5502,0.01658 -1.0833,-0.185727 -1.48344,-0.562578 l -3.01824,-2.841186 c -0.3804,-0.356712 -0.61338,-0.84413 -0.65023,-1.364849 -0.0382,-0.520851 0.12241,-1.036569 0.44884,-1.444089 L 175.60537,0.73249117 c 0.29222,-0.3452606 0.68973,-0.585218 1.132,-0.6832801 0.44228,-0.098061 0.90297,-0.0487030016 1.31497,0.140315 0.42515,0.1946771 0.77265,0.5274326 0.98457,0.94429783 0.21192,0.4167334 0.27641,0.893227 0.18427,1.3515545 l -2.81551,14.0864166 c -0.0263,0.145317 -0.0145,0.294846 0.0329,0.434371 0.0487,0.139658 0.13031,0.264836 0.23956,0.36382 0.11188,0.09635 0.24747,0.161112 0.39226,0.187702 0.1461,0.02659 0.29483,0.01395 0.43437,-0.03672 l 12.55729,-4.600919 c 0.35934,-0.127943 0.74765,-0.154268 1.12015,-0.07608 0.37383,0.07818 0.71869,0.25799 0.99643,0.519404 0.27773,0.261544 0.47781,0.594563 0.57784,0.962462 0.10007,0.3679 0.0974,0.756466 -0.007,1.122918 l -3.83695,12.812258 c -0.0421,0.1415 -0.0448,0.291556 -0.0106,0.434768 0.0356,0.143342 0.10793,0.274575 0.21191,0.380272 0.10535,0.101745 0.23563,0.17546 0.37778,0.214685 0.14216,0.03923 0.2909,0.04265 0.43437,0.01003 l 13.89201,-3.658859 c 0.45148,-0.120308 0.93061,-0.08411 1.35971,0.102537 0.42911,0.186779 0.78187,0.512953 1.00168,0.92587 0.21457,0.398964 0.2909,0.856897 0.21982,1.303906 -0.071,0.446876 -0.28694,0.858213 -0.61338,1.171092 l -18.55689,16.686857 c -0.38699,0.350261 -0.89244,0.541517 -1.41501,0.535461 -0.52124,-0.0059 -1.02274,-0.208761 -1.40183,-0.567973 z"
     fill="#fdc82f"
     id="path2"
     style="stroke-width:1.31628" />
  <g
     clip-path="url(#clip0_408:51)"
     id="g6"
     transform="matrix(1.3162784,0,0,1.3162784,-3.337456,-29.816074)">
    <path
       d="m 2.56023,54.8229 c 56.49627,1.3962 -7.44426,24.6849 31.03687,18.2893 38.4811,-6.3956 36.7575,5.3802 36.7575,5.3802"
       stroke="#000000"
       stroke-width="2"
       id="path4"
       style="stroke:#ffffff;stroke-opacity:1" />
  </g>
  <path
     d="M 22.961129,11.301173 H 14.639617 V 34.681568 H 9.5054722 V 11.301173 H 1.1839603 V 7.0831592 H 22.961129 Z m 6.947054,3.492745 c 1.450538,0 2.767474,0.23535 3.950809,0.706184 1.195971,0.470832 2.213981,1.138843 3.053766,2.004033 0.852422,0.86519 1.507797,1.921371 1.965862,3.168282 0.458064,1.246911 0.687098,2.640192 0.687098,4.179842 0,1.552288 -0.229034,2.952018 -0.687098,4.198929 -0.458065,1.24691 -1.11344,2.30941 -1.965862,3.187367 -0.839785,0.877958 -1.857795,1.552287 -3.053766,2.02312 -1.183335,0.470833 -2.500271,0.706184 -3.950809,0.706184 -1.463308,0 -2.793011,-0.235351 -3.988982,-0.706184 -1.196102,-0.470833 -2.22043,-1.145162 -3.072852,-2.02312 -0.839785,-0.877957 -1.495161,-1.940457 -1.965862,-3.187367 -0.458064,-1.246911 -0.687097,-2.646641 -0.687097,-4.198929 0,-1.53965 0.229033,-2.932931 0.687097,-4.179842 0.470701,-1.246911 1.126077,-2.303092 1.965862,-3.168282 0.852422,-0.86519 1.87675,-1.533201 3.072852,-2.004033 1.195971,-0.470834 2.525674,-0.706184 3.988982,-0.706184 z m 0,16.547594 c 1.628631,0 2.831052,-0.547178 3.607261,-1.641399 0.788845,-1.094223 1.183334,-2.69745 1.183334,-4.809682 0,-2.112232 -0.394489,-3.721777 -1.183334,-4.828767 -0.776209,-1.10699 -1.97863,-1.660485 -3.607261,-1.660485 -1.654168,0 -2.881992,0.559813 -3.683605,1.679571 -0.788978,1.106991 -1.183334,2.710217 -1.183334,4.809681 0,2.099464 0.394356,3.702691 1.183334,4.809682 0.801613,1.094221 2.029437,1.641399 3.683605,1.641399 z m 13.254002,3.340056 V 15.099295 h 2.881992 c 0.610753,0 1.01156,0.28629 1.20242,0.858871 l 0.305376,1.450539 c 0.343549,-0.381721 0.699865,-0.731588 1.068818,-1.049732 0.381721,-0.318145 0.782528,-0.591667 1.20242,-0.820699 0.432661,-0.229034 0.890726,-0.407126 1.374196,-0.53441 0.496236,-0.13992 1.037095,-0.209946 1.622313,-0.209946 1.234273,0 2.245833,0.33723 3.034679,1.01156 0.801614,0.661693 1.399731,1.545969 1.794087,2.652959 0.305377,-0.648925 0.687098,-1.202421 1.145162,-1.660485 0.458066,-0.470833 0.960752,-0.852554 1.507798,-1.145162 0.547177,-0.292609 1.126075,-0.509006 1.736829,-0.648926 0.623521,-0.13992 1.247042,-0.209946 1.870431,-0.209946 1.081587,0 2.042207,0.165456 2.881992,0.496237 0.839785,0.33078 1.545969,0.814381 2.11855,1.450538 0.572582,0.636158 1.005242,1.412367 1.297851,2.328497 0.305376,0.91613 0.458065,1.965862 0.458065,3.149196 V 34.681568 H 65.950913 V 22.218386 c 0,-1.246911 -0.273523,-2.182126 -0.8207,-2.805647 -0.547046,-0.636158 -1.348659,-0.954302 -2.404841,-0.954302 -0.483468,0 -0.935216,0.08266 -1.355108,0.248119 -0.407125,0.165456 -0.76976,0.407124 -1.087904,0.725269 -0.305377,0.305376 -0.547045,0.693415 -0.72527,1.164248 -0.178092,0.470833 -0.267204,1.01156 -0.267204,1.622313 V 34.681568 H 54.556549 V 22.218386 c 0,-1.310618 -0.267205,-2.26492 -0.801614,-2.862905 -0.521641,-0.597985 -1.291401,-0.897044 -2.309411,-0.897044 -0.687097,0 -1.329572,0.171775 -1.927689,0.515323 -0.585217,0.330781 -1.132395,0.788845 -1.6414,1.374194 V 34.681568 Z M 80.032196,15.099295 V 34.681568 H 75.298859 V 15.099295 Z m 0.648925,-5.7067258 c 0,0.407125 -0.08266,0.7888468 -0.248119,1.1451628 -0.165324,0.356317 -0.388038,0.668011 -0.668011,0.935215 -0.267205,0.267205 -0.585218,0.48347 -0.954302,0.648926 -0.368953,0.152688 -0.763441,0.229032 -1.183334,0.229032 -0.407126,0 -0.795164,-0.07635 -1.164248,-0.229032 -0.356186,-0.165456 -0.668012,-0.381721 -0.935216,-0.648926 -0.267205,-0.267204 -0.483469,-0.578898 -0.648925,-0.935215 -0.152688,-0.356316 -0.229032,-0.7380378 -0.229032,-1.1451628 0,-0.419892 0.07635,-0.814381 0.229032,-1.183333 0.165456,-0.368953 0.38172,-0.6870989 0.648925,-0.9543033 0.267204,-0.2672044 0.57903,-0.4771502 0.935216,-0.6298384 0.369084,-0.1654562 0.757122,-0.2481189 1.164248,-0.2481189 0.419893,0 0.814381,0.08266 1.183334,0.2481189 0.369084,0.1526882 0.687097,0.362634 0.954302,0.6298384 0.279973,0.2672044 0.502687,0.5853503 0.668011,0.9543033 0.165456,0.368952 0.248119,0.763441 0.248119,1.183333 z m 16.105061,9.5239328 c -0.127153,0.203628 -0.260755,0.349867 -0.400808,0.438979 -0.13992,0.07635 -0.318012,0.114516 -0.534408,0.114516 -0.229033,0 -0.477151,-0.06358 -0.744356,-0.19086 -0.254436,-0.127285 -0.553494,-0.267205 -0.897043,-0.419893 -0.343549,-0.165456 -0.737906,-0.311695 -1.183335,-0.438979 -0.432528,-0.127284 -0.947852,-0.190861 -1.545969,-0.190861 -0.928765,0 -1.660485,0.197179 -2.194893,0.591668 -0.521642,0.394488 -0.782528,0.909812 -0.782528,1.545969 0,0.419892 0.133601,0.776209 0.400807,1.068817 0.279972,0.279973 0.642606,0.528092 1.087904,0.744356 0.458065,0.216264 0.973387,0.413575 1.545969,0.591667 0.572581,0.165457 1.151611,0.349868 1.736829,0.553495 0.598117,0.203628 1.183334,0.438979 1.755915,0.706183 0.572582,0.254437 1.081587,0.585349 1.526883,0.992475 0.458065,0.394489 0.8207,0.871639 1.087904,1.431453 0.279973,0.559813 0.419893,1.234274 0.419893,2.023119 0,0.941534 -0.171774,1.813174 -0.515323,2.614787 -0.330781,0.788846 -0.827018,1.475944 -1.488711,2.061293 -0.661562,0.57258 -1.48226,1.024328 -2.462099,1.355108 -0.966937,0.318145 -2.086696,0.47715 -3.359142,0.47715 -0.674329,0 -1.336022,-0.06358 -1.984948,-0.19086 -0.636157,-0.114516 -1.253229,-0.279972 -1.851345,-0.496237 -0.585217,-0.216264 -1.132394,-0.470832 -1.641399,-0.763441 -0.496238,-0.292608 -0.935216,-0.610753 -1.316936,-0.954301 l 1.087903,-1.794088 c 0.140052,-0.216264 0.305377,-0.381721 0.496237,-0.496237 0.190861,-0.114516 0.432661,-0.171775 0.72527,-0.171775 0.29274,0 0.566263,0.08266 0.820699,0.248119 0.267205,0.165456 0.572581,0.343549 0.91613,0.534409 0.343548,0.19086 0.744355,0.368953 1.20242,0.534409 0.470833,0.165456 1.0625,0.248119 1.775001,0.248119 0.559945,0 1.037096,-0.06358 1.431453,-0.190861 0.407257,-0.139921 0.738037,-0.318144 0.992475,-0.534409 0.267204,-0.216265 0.458064,-0.464383 0.57258,-0.744355 0.127285,-0.29261 0.190861,-0.591667 0.190861,-0.897044 0,-0.458065 -0.13992,-0.833468 -0.419893,-1.126076 -0.267204,-0.292609 -0.629839,-0.547177 -1.087904,-0.763441 -0.445297,-0.216266 -0.96062,-0.407126 -1.545969,-0.572582 -0.572581,-0.178093 -1.164248,-0.368953 -1.775001,-0.572581 -0.597986,-0.203628 -1.189653,-0.438979 -1.775002,-0.706184 -0.572581,-0.279972 -1.087905,-0.629838 -1.545969,-1.049732 -0.445297,-0.419892 -0.807932,-0.935215 -1.087905,-1.545969 -0.267204,-0.610753 -0.400806,-1.34879 -0.400806,-2.213979 0,-0.801614 0.159138,-1.565056 0.477151,-2.290325 0.318144,-0.72527 0.782527,-1.355108 1.39328,-1.889518 0.623522,-0.547177 1.393281,-0.979706 2.309411,-1.29785 0.928898,-0.330781 1.997715,-0.496237 3.206454,-0.496237 1.34879,0 2.576616,0.222714 3.683605,0.668012 1.10699,0.445296 2.02957,1.030645 2.767475,1.755914 z M 106.38475,6.319718 v 28.36185 H 101.6705 V 6.319718 Z m 15.04151,20.002166 c -1.36143,0.06358 -2.50659,0.184543 -3.43549,0.362635 -0.92876,0.165456 -1.67312,0.381721 -2.23306,0.648925 -0.55982,0.267204 -0.96062,0.578899 -1.20243,0.935216 -0.24167,0.356316 -0.36263,0.744356 -0.36263,1.164248 0,0.827018 0.2418,1.418685 0.72527,1.775001 0.49624,0.356317 1.13885,0.534409 1.92769,0.534409 0.96707,0 1.80054,-0.171773 2.50027,-0.515323 0.71264,-0.356317 1.40605,-0.890725 2.08038,-1.603226 z m -10.8027,-8.493287 c 2.25215,-2.061291 4.96237,-3.091937 8.13065,-3.091937 1.14517,0 2.16949,0.19086 3.07286,0.57258 0.90349,0.368954 1.66693,0.890727 2.29032,1.565056 0.62352,0.661693 1.09435,1.456857 1.41237,2.385754 0.33091,0.928898 0.49623,1.946776 0.49623,3.053767 v 12.367751 h -2.13763 c -0.4453,0 -0.78885,-0.06358 -1.03065,-0.19086 -0.24167,-0.139921 -0.43253,-0.413575 -0.57258,-0.8207 l -0.41989,-1.412366 c -0.49624,0.445296 -0.97971,0.839785 -1.45054,1.183333 -0.4707,0.330782 -0.96062,0.610754 -1.46963,0.839787 -0.50887,0.229032 -1.05605,0.400806 -1.6414,0.515322 -0.57257,0.127284 -1.20873,0.19086 -1.9086,0.19086 -0.82702,0 -1.59046,-0.108197 -2.29032,-0.324462 -0.69974,-0.229032 -1.30417,-0.566263 -1.81317,-1.01156 -0.50887,-0.445296 -0.90337,-0.998792 -1.18334,-1.660485 -0.27984,-0.661693 -0.41989,-1.431452 -0.41989,-2.309411 0,-0.496237 0.0828,-0.986155 0.24812,-1.469625 0.16545,-0.496236 0.43266,-0.967069 0.80161,-1.412366 0.38172,-0.445296 0.87164,-0.86519 1.46963,-1.259679 0.59811,-0.394488 1.3297,-0.738037 2.19489,-1.030645 0.87795,-0.292609 1.89596,-0.528092 3.05376,-0.706184 1.15793,-0.19086 2.48119,-0.305376 3.9699,-0.343548 v -1.145162 c 0,-1.310619 -0.27985,-2.277557 -0.83979,-2.901078 -0.55981,-0.636158 -1.36774,-0.954302 -2.42392,-0.954302 -0.76344,0 -1.3996,0.08911 -1.9086,0.267204 -0.49624,0.178093 -0.93523,0.381721 -1.31695,0.610753 -0.38172,0.216266 -0.73158,0.413575 -1.04973,0.591668 -0.30537,0.178092 -0.64892,0.267204 -1.03064,0.267204 -0.33078,0 -0.61076,-0.08266 -0.83979,-0.248118 -0.22903,-0.178092 -0.41344,-0.38172 -0.55349,-0.610754 z m 37.04903,-2.729302 -7.76736,19.582273 h -4.27527 l -7.76815,-19.582273 h 3.89302 c 0.35672,0 0.64893,0.08266 0.87796,0.248118 0.2422,0.165456 0.40146,0.375403 0.47781,0.629839 l 3.77904,10.459148 c 0.20401,0.610753 0.38172,1.208739 0.5344,1.794088 0.15269,0.585349 0.28564,1.170566 0.40015,1.755916 0.12768,-0.58535 0.26721,-1.170567 0.41989,-1.755916 0.15269,-0.585349 0.33829,-1.183335 0.55416,-1.794088 l 3.85537,-10.459148 c 0.0895,-0.254436 0.24747,-0.464383 0.4765,-0.629839 0.22904,-0.165456 0.50282,-0.248118 0.82136,-0.248118 z m -28.417,43.91697 v 11.165332 c -1.39973,1.030645 -2.89477,1.787769 -4.48523,2.271238 -1.57782,0.470832 -3.27015,0.706183 -5.07688,0.706183 -2.25216,0 -4.29436,-0.349867 -6.12662,-1.049732 -1.81962,-0.699865 -3.37823,-1.673253 -4.676081,-2.920164 -1.285214,-1.24691 -2.277687,-2.735621 -2.977422,-4.466132 -0.699865,-1.730511 -1.049732,-3.620029 -1.049732,-5.668553 0,-2.07406 0.337099,-3.976214 1.01156,-5.706725 0.674329,-1.730511 1.628632,-3.219222 2.862906,-4.466132 1.246911,-1.246911 2.754709,-2.213981 4.523389,-2.901078 1.76855,-0.687098 3.7535,-1.030646 5.95484,-1.030646 1.11963,0 2.16305,0.08911 3.13012,0.267204 0.9797,0.178092 1.88307,0.426211 2.71022,0.744356 0.83978,0.305376 1.60322,0.680779 2.29032,1.126076 0.6871,0.445297 1.31694,0.935216 1.88952,1.469625 l -1.46963,2.328496 c -0.22903,0.368953 -0.52809,0.597985 -0.89704,0.687097 -0.36908,0.07635 -0.76989,-0.01908 -1.20242,-0.28629 -0.41989,-0.2418 -0.83978,-0.483469 -1.25968,-0.72527 -0.41989,-0.2418 -0.89072,-0.451746 -1.41237,-0.629838 -0.509,-0.178093 -1.0879,-0.324463 -1.73682,-0.438979 -0.63629,-0.114516 -1.3742,-0.171775 -2.21399,-0.171775 -1.36156,0 -2.59569,0.229032 -3.70269,0.687098 -1.09435,0.458065 -2.02957,1.113308 -2.80564,1.965862 -0.77621,0.852553 -1.3742,1.876749 -1.79409,3.072852 -0.4199,1.196102 -0.62984,2.532124 -0.62984,4.008067 0,1.577823 0.22258,2.99019 0.66801,4.2371 0.45807,1.234274 1.09422,2.284006 1.9086,3.149196 0.82702,0.852554 1.8195,1.507797 2.97742,1.965862 1.15781,0.445297 2.44933,0.668011 3.87447,0.668011 1.01788,0 1.92769,-0.108198 2.72931,-0.324462 0.80161,-0.216264 1.58414,-0.509005 2.34758,-0.877959 v -5.000541 h -3.47366 c -0.33091,0 -0.59167,-0.08911 -0.78252,-0.267205 -0.17823,-0.19086 -0.26722,-0.419892 -0.26722,-0.687097 v -2.901077 z m 20.776,-5.744898 v 19.582275 h -2.88134 c -0.6239,0 -1.01879,-0.286291 -1.18333,-0.858872 l -0.32512,-1.565056 c -0.80161,0.814383 -1.68615,1.475944 -2.65229,1.984949 -0.96747,0.496236 -2.10605,0.744355 -3.41707,0.744355 -1.06881,0 -2.0168,-0.178092 -2.84381,-0.534409 -0.81439,-0.368953 -1.50149,-0.884276 -2.06129,-1.545969 -0.55982,-0.661694 -0.98617,-1.44422 -1.27878,-2.347583 -0.27996,-0.916129 -0.41989,-1.921371 -0.41989,-3.015593 V 53.271367 h 4.71425 v 12.444097 c 0,1.196101 0.27353,2.124868 0.82071,2.786561 0.55941,0.648925 1.39393,0.973388 2.50092,0.973388 0.81347,0 1.57691,-0.178092 2.29033,-0.534409 0.71211,-0.368952 1.38604,-0.87164 2.02312,-1.507797 v -14.16184 z m 9.56013,0 v 19.582275 h -4.73334 V 53.271367 Z m 0.64892,-5.706724 c 0,0.407125 -0.083,0.788845 -0.24745,1.145162 -0.16585,0.356316 -0.38831,0.668012 -0.66868,0.935216 -0.2672,0.267204 -0.58573,0.483469 -0.95429,0.648925 -0.36856,0.152688 -0.76344,0.229032 -1.18334,0.229032 -0.40673,0 -0.79503,-0.07635 -1.1636,-0.229032 -0.3567,-0.165456 -0.66866,-0.381721 -0.93586,-0.648925 -0.2672,-0.267204 -0.48308,-0.5789 -0.64893,-0.935216 -0.15269,-0.356317 -0.22903,-0.738037 -0.22903,-1.145162 0,-0.419892 0.0763,-0.814382 0.22903,-1.183335 0.16585,-0.368952 0.38173,-0.687097 0.64893,-0.954301 0.2672,-0.267204 0.57916,-0.477151 0.93586,-0.62984 0.36857,-0.165456 0.75687,-0.248117 1.1636,-0.248117 0.4199,0 0.81478,0.08266 1.18334,0.248117 0.36856,0.152689 0.68709,0.362636 0.95429,0.62984 0.28037,0.267204 0.50283,0.585349 0.66868,0.954301 0.16453,0.368953 0.24745,0.763443 0.24745,1.183335 z m 16.44822,10.707266 c -0.53441,-0.648925 -1.11884,-1.106989 -1.75592,-1.374194 -0.6226,-0.267204 -1.29785,-0.400807 -2.02312,-0.400807 -0.7121,0 -1.35445,0.133603 -1.92702,0.400807 -0.57259,0.267205 -1.06224,0.674329 -1.47028,1.221506 -0.40674,0.534409 -0.7187,1.221507 -0.93456,2.061292 -0.21587,0.827017 -0.32512,1.806856 -0.32512,2.93925 0,1.145162 0.0895,2.118549 0.2672,2.920164 0.19085,0.788845 0.45806,1.43777 0.80161,1.946775 0.34355,0.496237 0.76344,0.858872 1.25968,1.087904 0.49624,0.216265 1.05039,0.324463 1.66115,0.324463 0.9793,0 1.8125,-0.203628 2.49961,-0.610753 0.68709,-0.407126 1.33601,-0.986156 1.94677,-1.736829 z m 4.71491,-13.780118 v 28.361851 h -2.88265 c -0.6226,0 -1.01748,-0.286291 -1.18334,-0.858872 l -0.40014,-1.889518 c -0.78846,0.903362 -1.69932,1.635081 -2.72996,2.194894 -1.01748,0.559813 -2.2074,0.839786 -3.56843,0.839786 -1.06883,0 -2.04813,-0.222714 -2.93925,-0.668011 -0.89112,-0.445298 -1.66115,-1.087904 -2.31007,-1.92769 -0.63576,-0.852554 -1.132,-1.902286 -1.48872,-3.149196 -0.34354,-1.246911 -0.51465,-2.672045 -0.51465,-4.275272 0,-1.450539 0.19744,-2.79933 0.591,-4.04624 0.39488,-1.24691 0.96088,-2.328496 1.69932,-3.244627 0.73842,-0.916129 1.62165,-1.62863 2.65229,-2.137635 1.03065,-0.521642 2.18897,-0.782528 3.47367,-0.782528 1.09514,0 2.0297,0.171774 2.8063,0.515323 0.7766,0.343549 1.46896,0.807931 2.07972,1.39328 V 44.491791 Z m 17.26826,16.318562 c 0,-0.610754 -0.0895,-1.183335 -0.26721,-1.717744 -0.16585,-0.547177 -0.4199,-1.024328 -0.76344,-1.431453 -0.34355,-0.407124 -0.78187,-0.725269 -1.31627,-0.954301 -0.52257,-0.241801 -1.13332,-0.362635 -1.83227,-0.362635 -1.36234,0 -2.43774,0.388039 -3.2262,1.164248 -0.7766,0.776209 -1.27284,1.876749 -1.4887,3.301885 z m -8.98887,2.843818 c 0.0763,1.005243 0.25404,1.876751 0.53441,2.614788 0.27905,0.725269 0.64893,1.329705 1.10699,1.813173 0.45807,0.470833 0.99774,0.827018 1.62166,1.068818 0.63576,0.229032 1.33602,0.34355 2.09946,0.34355 0.76344,0 1.41895,-0.08911 1.96652,-0.267206 0.55942,-0.178092 1.04249,-0.375402 1.45053,-0.591666 0.4199,-0.216265 0.78187,-0.413575 1.08726,-0.591668 0.31853,-0.178092 0.62391,-0.267204 0.91612,-0.267204 0.39489,0 0.6871,0.14637 0.87796,0.438979 l 1.35577,1.717743 c -0.52256,0.610753 -1.10699,1.126076 -1.75592,1.545969 -0.64892,0.407125 -1.33076,0.738037 -2.04286,0.992474 -0.70026,0.2418 -1.41895,0.413574 -2.15606,0.515322 -0.72528,0.101745 -1.43212,0.152689 -2.11921,0.152689 -1.36104,0 -2.62729,-0.222714 -3.79747,-0.668011 -1.17149,-0.458066 -2.18897,-1.126076 -3.05376,-2.004035 -0.86612,-0.890725 -1.54662,-1.984947 -2.04286,-3.282798 -0.49624,-1.310618 -0.7437,-2.824733 -0.7437,-4.542477 0,-1.336022 0.21587,-2.589382 0.64892,-3.759949 0.43174,-1.183334 1.04907,-2.207662 1.85068,-3.072851 0.81479,-0.877958 1.80068,-1.571373 2.959,-2.080378 1.17018,-0.509006 2.48646,-0.763442 3.95015,-0.763442 1.23468,0 2.37325,0.197179 3.41706,0.591667 1.0425,0.394489 1.94019,0.973388 2.69047,1.73683 0.75028,0.750674 1.33603,1.679571 1.75592,2.786561 0.43305,1.094223 0.64892,2.347583 0.64892,3.759949 0,0.712501 -0.0763,1.196102 -0.22903,1.450539 -0.15269,0.241801 -0.4449,0.362634 -0.87795,0.362634 z m 28.71198,-6.565596 c -0.12768,0.203629 -0.26062,0.349867 -0.40146,0.438979 -0.13952,0.07635 -0.31723,0.114517 -0.53441,0.114517 -0.22903,0 -0.4765,-0.06358 -0.7437,-0.190862 -0.25536,-0.127284 -0.55416,-0.267204 -0.8977,-0.419892 -0.34355,-0.165456 -0.73711,-0.311694 -1.18334,-0.438978 -0.43173,-0.127285 -0.94772,-0.190861 -1.54531,-0.190861 -0.92929,0 -1.66114,0.197178 -2.19555,0.591667 -0.52124,0.394488 -0.78187,0.909812 -0.78187,1.545969 0,0.419893 0.13295,0.77621 0.40015,1.068818 0.28037,0.279973 0.64234,0.528091 1.08857,0.744356 0.45805,0.216264 0.97272,0.413574 1.54531,0.591666 0.57257,0.165457 1.15174,0.349867 1.73748,0.553496 0.59759,0.203628 1.18334,0.438979 1.75591,0.706183 0.57259,0.254437 1.08067,0.585349 1.52689,0.992474 0.45806,0.394488 0.82004,0.87164 1.08725,1.431453 0.28036,0.559812 0.41989,1.234274 0.41989,2.02312 0,0.941533 -0.17112,1.813173 -0.51467,2.614786 -0.3317,0.788846 -0.82794,1.475943 -1.4887,2.061292 -0.66209,0.572581 -1.48214,1.024328 -2.46276,1.355109 -0.96615,0.318144 -2.08631,0.477151 -3.35915,0.477151 -0.67393,0 -1.33602,-0.06358 -1.98494,-0.19086 -0.63576,-0.114516 -1.2531,-0.279973 -1.8507,-0.496237 -0.58573,-0.216265 -1.1333,-0.470833 -1.6414,-0.763442 -0.49623,-0.292609 -0.93586,-0.610753 -1.31758,-0.954302 l 1.08856,-1.794087 c 0.13952,-0.216265 0.30537,-0.381721 0.49624,-0.496237 0.19085,-0.114516 0.43173,-0.171774 0.72526,-0.171774 0.29222,0 0.566,0.08266 0.82004,0.248118 0.2672,0.165456 0.57259,0.343549 0.91614,0.534409 0.34354,0.19086 0.74501,0.368953 1.20307,0.53441 0.46991,0.165456 1.06223,0.248118 1.77434,0.248118 0.56074,0 1.03724,-0.06358 1.43212,-0.190861 0.40673,-0.13992 0.73711,-0.318144 0.99247,-0.534409 0.26721,-0.216264 0.45806,-0.464383 0.57258,-0.744355 0.12636,-0.292609 0.19087,-0.591668 0.19087,-0.897044 0,-0.458065 -0.14085,-0.833467 -0.4199,-1.126076 -0.26721,-0.292609 -0.6305,-0.547177 -1.08857,-0.763441 -0.44489,-0.216265 -0.96088,-0.407125 -1.5453,-0.572581 -0.57259,-0.178093 -1.16491,-0.368953 -1.77567,-0.572581 -0.59759,-0.203629 -1.18991,-0.438979 -1.77434,-0.706184 -0.57258,-0.279972 -1.08855,-0.629839 -1.54662,-1.049732 -0.44491,-0.419893 -0.8082,-0.935216 -1.08725,-1.545969 -0.2672,-0.610753 -0.40147,-1.348791 -0.40147,-2.21398 0,-0.801613 0.15928,-1.565056 0.47781,-2.290325 0.31723,-0.725269 0.78187,-1.355108 1.39263,-1.889517 0.62392,-0.547177 1.39393,-0.979707 2.31007,-1.297851 0.92797,-0.330781 1.99679,-0.496237 3.20645,-0.496237 1.34787,0 2.57596,0.222715 3.68295,0.668012 1.10698,0.445296 2.0297,1.030645 2.76813,1.755915 z M 12.640321,91.584285 c 0.390541,0 0.739354,-0.06576 1.046442,-0.197441 0.307087,-0.131628 0.565999,-0.315907 0.776604,-0.552837 0.214948,-0.23693 0.377377,-0.519933 0.487023,-0.849003 0.114121,-0.329069 0.171116,-0.691045 0.171116,-1.085929 v -5.732392 h 1.270209 v 5.732392 c 0,0.544018 -0.0878,1.048679 -0.263256,1.513723 -0.171116,0.465035 -0.418971,0.868743 -0.743697,1.210976 -0.320251,0.337883 -0.713029,0.60325 -1.178069,0.796342 -0.465041,0.193104 -0.987209,0.289582 -1.566372,0.289582 -0.579162,0 -1.10133,-0.09648 -1.566371,-0.289582 C 10.608909,92.227024 10.214024,91.961657 9.8892986,91.623774 9.5646129,91.281541 9.3145201,90.877833 9.1390076,90.412798 8.9678914,89.947754 8.8823334,89.443093 8.8823334,88.899075 v -5.732392 h 1.2702216 v 5.725811 c 0,0.394883 0.05489,0.75686 0.164535,1.085929 0.114121,0.32907 0.276418,0.612067 0.487023,0.848997 0.214948,0.23693 0.476098,0.423447 0.783186,0.559424 0.311563,0.131627 0.662482,0.197441 1.053022,0.197441 z M 23.398923,90.99196 c 0.214948,0.289581 0.449772,0.493599 0.704208,0.612064 0.254438,0.118465 0.539675,0.177703 0.855582,0.177703 0.622994,0 1.10133,-0.22153 1.434743,-0.664726 0.333413,-0.443185 0.500186,-1.075002 0.500186,-1.895438 0,-0.434371 -0.03949,-0.807273 -0.118466,-1.118836 -0.07463,-0.311563 -0.184278,-0.566 -0.329069,-0.763442 -0.144791,-0.201785 -0.322488,-0.348814 -0.533093,-0.440953 -0.210604,-0.09214 -0.449772,-0.138209 -0.717371,-0.138209 -0.381721,0 -0.717372,0.08779 -1.006954,0.263255 -0.285237,0.17546 -0.548493,0.423447 -0.789766,0.743697 z m -0.05923,-4.027814 c 0.280762,-0.346576 0.605488,-0.625232 0.974046,-0.835837 0.368559,-0.210604 0.789768,-0.315906 1.263628,-0.315906 0.386064,0 0.734878,0.07464 1.046441,0.223767 0.311563,0.14479 0.576925,0.361976 0.796349,0.651557 0.219424,0.285238 0.388302,0.640633 0.506767,1.066185 0.118465,0.425554 0.177697,0.914815 0.177697,1.467651 0,0.491367 -0.06581,0.949958 -0.197441,1.375514 -0.131628,0.421209 -0.322488,0.787529 -0.572581,1.099087 -0.245749,0.307092 -0.548494,0.550598 -0.908233,0.730539 -0.355395,0.175454 -0.75686,0.263256 -1.204394,0.263256 -0.408046,0 -0.759098,-0.06808 -1.053023,-0.204029 -0.289582,-0.140441 -0.546256,-0.333408 -0.770023,-0.579162 v 2.948462 h -1.178069 v -8.924362 h 0.704209 c 0.166772,0 0.269837,0.08121 0.309325,0.243511 z m 12.887026,-1.138581 c 0.487024,0 0.925739,0.08122 1.316279,0.243512 0.390407,0.162297 0.723952,0.392645 1.000371,0.691046 0.276418,0.2984 0.487023,0.660376 0.631814,1.085929 0.149134,0.42121 0.223767,0.892832 0.223767,1.415 0,0.526511 -0.07464,1.000371 -0.223767,1.421578 -0.144791,0.421209 -0.355396,0.780952 -0.631814,1.079347 -0.276419,0.298406 -0.609964,0.528749 -1.000371,0.691052 -0.39054,0.157953 -0.829255,0.23693 -1.316279,0.23693 -0.491499,0 -0.934558,-0.07896 -1.329441,-0.23693 -0.39054,-0.162303 -0.723953,-0.392646 -1.000371,-0.691052 -0.27642,-0.298395 -0.489262,-0.658138 -0.638396,-1.079347 -0.144791,-0.421207 -0.217186,-0.895067 -0.217186,-1.421578 0,-0.522168 0.07239,-0.99379 0.217186,-1.415 0.149134,-0.425553 0.361976,-0.787529 0.638396,-1.085929 0.276418,-0.298401 0.609831,-0.528749 1.000371,-0.691046 0.394883,-0.162297 0.837942,-0.243512 1.329441,-0.243512 z m 0,5.949575 c 0.65814,0 1.149506,-0.219418 1.474232,-0.658139 0.324594,-0.443185 0.487023,-1.059601 0.487023,-1.849368 0,-0.79411 -0.162429,-1.412762 -0.487023,-1.855953 -0.324726,-0.443191 -0.816092,-0.66472 -1.474232,-0.66472 -0.333545,0 -0.625232,0.05699 -0.875325,0.171116 -0.245749,0.114121 -0.45201,0.278656 -0.618651,0.493604 -0.162429,0.214948 -0.285237,0.480442 -0.368558,0.796349 -0.07898,0.311563 -0.118465,0.664721 -0.118465,1.059604 0,0.789767 0.162297,1.406183 0.487023,1.849368 0.32907,0.438721 0.827018,0.658139 1.493976,0.658139 z M 49.30236,86.431053 c 0,0.08333 -0.0154,0.164535 -0.04606,0.243512 -0.02633,0.07898 -0.06358,0.147028 -0.111884,0.204023 l -3.613184,4.804413 h 3.646091 v 0.914818 h -5.021606 v -0.487023 c 0,-0.057 0.01316,-0.122814 0.03949,-0.197441 0.02633,-0.07896 0.06581,-0.153615 0.118465,-0.223768 L 47.9466,86.852262 h -3.586858 v -0.921394 h 4.942625 z m 6.274041,0.467279 c 0.144791,-0.162297 0.298401,-0.309326 0.460697,-0.440953 0.162297,-0.131628 0.333414,-0.243512 0.513349,-0.335651 0.184279,-0.09649 0.377377,-0.168878 0.579162,-0.217186 0.206261,-0.05265 0.427791,-0.07898 0.664721,-0.07898 0.364215,0 0.684465,0.06146 0.960883,0.184279 0.280762,0.118465 0.513349,0.289581 0.697628,0.513349 0.188622,0.219423 0.331307,0.484785 0.42779,0.796348 0.09649,0.311563 0.144792,0.655902 0.144792,1.033279 v 4.244999 h -1.17807 v -4.244999 c 0,-0.50453 -0.116227,-0.89507 -0.348814,-1.171488 -0.228111,-0.280762 -0.576924,-0.421209 -1.046441,-0.421209 -0.346577,0 -0.671303,0.08333 -0.974046,0.250092 -0.298401,0.166773 -0.574819,0.392646 -0.829256,0.677884 v 4.90972 h -1.178069 v -6.666951 h 0.704209 c 0.166773,0 0.269837,0.08121 0.309326,0.243511 z m 13.664549,2.69837 c -0.539674,0.01751 -1.000371,0.06146 -1.382092,0.131628 -0.377377,0.06581 -0.686702,0.15361 -0.927976,0.263256 -0.236931,0.109646 -0.410284,0.239168 -0.519931,0.3883 -0.105302,0.149139 -0.157953,0.315906 -0.157953,0.500185 0,0.175465 0.02844,0.326832 0.08555,0.454121 0.057,0.127279 0.133734,0.232582 0.230348,0.315907 0.100827,0.07896 0.217187,0.138204 0.348815,0.177692 0.135972,0.03515 0.280762,0.05267 0.434372,0.05267 0.206129,0 0.394883,-0.01974 0.565999,-0.05922 0.171116,-0.04381 0.331176,-0.105345 0.480442,-0.184279 0.153478,-0.07896 0.298268,-0.173354 0.434371,-0.283005 0.140316,-0.109641 0.276419,-0.234692 0.408047,-0.375134 z m -3.7843,-2.724696 c 0.368558,-0.355395 0.765547,-0.620888 1.191231,-0.796348 0.425554,-0.17546 0.897176,-0.263255 1.415,-0.263255 0.372902,0 0.704209,0.06146 0.99379,0.184278 0.289581,0.122809 0.533094,0.293925 0.730535,0.513349 0.197442,0.219423 0.346576,0.484785 0.447535,0.796348 0.100826,0.311563 0.151372,0.653795 0.151372,1.026698 v 4.264743 h -0.51993 c -0.114122,0 -0.201917,-0.01752 -0.263256,-0.05267 -0.06146,-0.03948 -0.109777,-0.114127 -0.14479,-0.223767 l -0.131629,-0.631814 c -0.175591,0.162292 -0.346707,0.307083 -0.513348,0.434372 -0.166773,0.122803 -0.342233,0.228106 -0.526512,0.315907 -0.184279,0.08328 -0.38172,0.147028 -0.592325,0.190855 -0.206261,0.04834 -0.436609,0.07241 -0.691046,0.07241 -0.258912,0 -0.502423,-0.03515 -0.730535,-0.105345 -0.228243,-0.07463 -0.42779,-0.184279 -0.598906,-0.329069 -0.166773,-0.144791 -0.300638,-0.326832 -0.401465,-0.546261 -0.09661,-0.223767 -0.144791,-0.487022 -0.144791,-0.789766 0,-0.263256 0.07239,-0.515587 0.217186,-0.756858 0.144791,-0.245749 0.379483,-0.462935 0.704209,-0.651558 0.324595,-0.188622 0.748042,-0.342232 1.270209,-0.460697 0.522036,-0.122808 1.162668,-0.193098 1.921766,-0.210604 v -0.51993 c 0,-0.517693 -0.111884,-0.908233 -0.335651,-1.171488 -0.223767,-0.2676 -0.550731,-0.401465 -0.980627,-0.401465 -0.289581,0 -0.533093,0.03725 -0.730534,0.111883 -0.193098,0.07016 -0.361977,0.151372 -0.506768,0.243512 -0.140446,0.08779 -0.263256,0.168878 -0.368558,0.243511 -0.100953,0.07015 -0.201917,0.105302 -0.302744,0.105302 -0.07898,0 -0.147028,-0.01975 -0.204023,-0.05924 -0.05713,-0.04383 -0.105302,-0.09648 -0.144791,-0.157954 z M 77.2251,85.930868 v 7.16055 c 0,0.267605 -0.03514,0.515586 -0.105302,0.743702 -0.07029,0.232581 -0.182174,0.434372 -0.335651,0.605488 -0.15361,0.171116 -0.351052,0.304982 -0.592325,0.40146 -0.23693,0.101016 -0.522168,0.151377 -0.855581,0.151377 -0.140447,0 -0.269837,-0.01098 -0.388302,-0.03293 -0.118466,-0.02196 -0.236931,-0.05489 -0.355396,-0.0987 l 0.04606,-0.631813 c 0.0087,-0.03948 0.02409,-0.07019 0.04606,-0.09215 0.01751,-0.01752 0.04384,-0.02861 0.07898,-0.03293 0.03501,-0.0042 0.08109,-0.0063 0.138209,-0.0063 0.05265,0.0042 0.120572,0.0063 0.204024,0.0063 0.342232,0 0.585743,-0.08117 0.730534,-0.243506 0.144791,-0.157953 0.217186,-0.414633 0.217186,-0.770028 V 85.93087 Z m 0.243511,-2.092883 c 0,0.114121 -0.02421,0.221529 -0.07239,0.322488 -0.04396,0.09649 -0.105302,0.184279 -0.184279,0.263255 -0.07464,0.07464 -0.162428,0.133866 -0.263255,0.177698 -0.100964,0.04383 -0.208499,0.06581 -0.322488,0.06581 -0.114122,0 -0.221662,-0.02199 -0.322488,-0.06581 -0.09661,-0.04384 -0.182174,-0.103065 -0.256675,-0.177698 -0.07463,-0.07898 -0.133865,-0.166772 -0.177697,-0.263255 -0.04396,-0.100954 -0.06581,-0.208367 -0.06581,-0.322488 0,-0.114122 0.02185,-0.22153 0.06581,-0.322488 0.04383,-0.105303 0.103064,-0.195204 0.177697,-0.269837 0.0745,-0.07898 0.16006,-0.140447 0.256675,-0.184279 0.100826,-0.04384 0.208366,-0.06581 0.322488,-0.06581 0.113989,0 0.221529,0.02199 0.322488,0.06581 0.100826,0.04383 0.188622,0.105302 0.263255,0.184279 0.07898,0.07464 0.140316,0.164534 0.184279,0.269837 0.04818,0.100964 0.07239,0.208366 0.07239,0.322488 z m 19.337315,0.401464 H 93.75216 v 8.35837 h -1.270209 v -8.35837 h -3.060347 v -1.072766 h 7.384322 z m 7.750514,1.586116 c 0.48702,0 0.92574,0.08122 1.31628,0.243512 0.39054,0.162297 0.72395,0.392645 1.00037,0.691046 0.27641,0.2984 0.48702,0.660376 0.63181,1.085929 0.14914,0.42121 0.22377,0.892832 0.22377,1.415 0,0.526511 -0.0746,1.000371 -0.22377,1.421578 -0.14479,0.421209 -0.3554,0.780952 -0.63181,1.079347 -0.27642,0.298406 -0.60983,0.528749 -1.00037,0.691052 -0.39054,0.157953 -0.82926,0.23693 -1.31628,0.23693 -0.49137,0 -0.93456,-0.07896 -1.32945,-0.23693 -0.39053,-0.162303 -0.72394,-0.392646 -1.00036,-0.691052 -0.27642,-0.298395 -0.48926,-0.658138 -0.6384,-1.079347 -0.14479,-0.421207 -0.21718,-0.895067 -0.21718,-1.421578 0,-0.522168 0.0724,-0.99379 0.21718,-1.415 0.14914,-0.425553 0.36198,-0.787529 0.6384,-1.085929 0.27642,-0.298401 0.60983,-0.528749 1.00036,-0.691046 0.39489,-0.162297 0.83808,-0.243512 1.32945,-0.243512 z m 0,5.949575 c 0.65813,0 1.14951,-0.219418 1.47423,-0.658139 0.32473,-0.443185 0.48702,-1.059601 0.48702,-1.849368 0,-0.79411 -0.16229,-1.412762 -0.48702,-1.855953 -0.32472,-0.443191 -0.8161,-0.66472 -1.47423,-0.66472 -0.33341,0 -0.62523,0.05699 -0.87532,0.171116 -0.24576,0.114121 -0.45189,0.278656 -0.61865,0.493604 -0.16231,0.214948 -0.28524,0.480442 -0.36856,0.796349 -0.079,0.311563 -0.11847,0.664721 -0.11847,1.059604 0,0.789767 0.1623,1.406183 0.48703,1.849368 0.32907,0.438721 0.82701,0.658139 1.49397,0.658139 z m 8.47525,0.822679 v -6.666951 h 0.70422 c 0.16676,0 0.26983,0.08121 0.30932,0.243511 l 0.0856,0.684464 c 0.24575,-0.302743 0.52217,-0.550598 0.82926,-0.743697 0.30722,-0.193098 0.66261,-0.289581 1.06618,-0.289581 0.44754,0 0.80951,0.125047 1.08593,0.37514 0.28089,0.250092 0.48268,0.587981 0.60548,1.013533 0.0966,-0.241273 0.21943,-0.449772 0.36856,-0.625232 0.15362,-0.175459 0.32473,-0.32025 0.51335,-0.434371 0.18876,-0.114122 0.38831,-0.197442 0.59891,-0.250093 0.21508,-0.05265 0.43226,-0.07898 0.65155,-0.07898 0.35106,0 0.66262,0.057 0.93456,0.171116 0.27642,0.109646 0.50901,0.272075 0.69763,0.487023 0.1931,0.214948 0.34013,0.480442 0.44096,0.796348 0.10091,0.311563 0.15136,0.669065 0.15136,1.072768 v 4.244999 h -1.1781 v -4.244999 c 0,-0.522168 -0.11399,-0.917052 -0.34223,-1.184651 -0.22812,-0.272075 -0.55719,-0.408046 -0.98721,-0.408046 -0.19297,0 -0.37725,0.03514 -0.55284,0.105302 -0.17111,0.06581 -0.32249,0.164535 -0.45412,0.296162 -0.13163,0.131628 -0.23693,0.298401 -0.31591,0.500186 -0.0745,0.197442 -0.11187,0.427791 -0.11187,0.691047 v 4.244999 h -1.17808 v -4.244999 c 0,-0.53533 -0.1074,-0.934558 -0.32248,-1.197814 -0.21495,-0.263256 -0.52862,-0.394883 -0.94115,-0.394883 -0.28958,0 -0.55717,0.07898 -0.80292,0.23693 -0.24562,0.153609 -0.47163,0.364214 -0.67788,0.631813 v 4.968953 z m 15.87734,-6.666951 v 6.666951 h -1.17096 v -6.666951 z m 0.2501,-2.092883 c 0,0.114121 -0.0237,0.221529 -0.0724,0.322488 -0.0435,0.09649 -0.10535,0.184279 -0.18428,0.263255 -0.0737,0.07464 -0.16454,0.133866 -0.26985,0.177698 -0.10006,0.04383 -0.20796,0.06581 -0.32248,0.06581 -0.1136,0 -0.221,-0.02199 -0.32196,-0.06581 -0.0965,-0.04384 -0.18205,-0.103065 -0.25667,-0.177698 -0.0746,-0.07898 -0.13387,-0.166772 -0.17771,-0.263255 -0.0438,-0.100954 -0.0659,-0.208367 -0.0659,-0.322488 0,-0.114122 0.022,-0.22153 0.0659,-0.322488 0.0438,-0.105303 0.10303,-0.195204 0.17771,-0.269837 0.0746,-0.07898 0.16019,-0.140447 0.25667,-0.184279 0.10101,-0.04384 0.20836,-0.06581 0.32196,-0.06581 0.11452,0 0.22245,0.02199 0.32248,0.06581 0.10535,0.04383 0.19614,0.105302 0.26985,0.184279 0.0789,0.07464 0.14084,0.164534 0.18428,0.269837 0.0487,0.100964 0.0724,0.208366 0.0724,0.322488 z m 9.37585,3.191975 c -0.0527,0.09648 -0.13426,0.14479 -0.24351,0.14479 -0.0659,0 -0.14085,-0.02409 -0.22377,-0.07239 -0.0842,-0.04831 -0.18691,-0.100953 -0.30932,-0.157953 -0.11847,-0.06148 -0.26194,-0.116227 -0.4278,-0.164535 -0.16716,-0.05265 -0.36461,-0.07898 -0.59232,-0.07898 -0.19744,0 -0.37514,0.02633 -0.53309,0.07898 -0.15795,0.04831 -0.29485,0.116227 -0.40804,0.204023 -0.11057,0.08779 -0.19614,0.19086 -0.25668,0.309325 -0.0579,0.114122 -0.0856,0.239168 -0.0856,0.37514 0,0.171116 0.0474,0.31367 0.14479,0.427791 0.10007,0.114121 0.23166,0.212842 0.39488,0.296163 0.16191,0.08332 0.34618,0.157953 0.55284,0.223767 0.20534,0.06148 0.41594,0.12939 0.63181,0.204023 0.2185,0.07016 0.43174,0.149134 0.63839,0.23693 0.20535,0.08779 0.38963,0.197442 0.55284,0.329069 0.16191,0.131628 0.2909,0.293925 0.38831,0.487023 0.10006,0.188623 0.15136,0.416865 0.15136,0.684473 0,0.307082 -0.0553,0.592325 -0.16452,0.855581 -0.11057,0.258906 -0.27248,0.484785 -0.48703,0.677877 -0.21587,0.188628 -0.47913,0.337894 -0.78976,0.447535 -0.31196,0.109651 -0.67131,0.16454 -1.07935,0.16454 -0.46597,0 -0.88718,-0.07463 -1.26363,-0.223767 -0.37777,-0.153615 -0.69763,-0.348819 -0.96088,-0.585749 l 0.27642,-0.447535 c 0.0342,-0.057 0.0763,-0.100911 0.12504,-0.131627 0.0474,-0.03061 0.10925,-0.04602 0.18428,-0.04602 0.0789,0 0.1619,0.03061 0.25009,0.09215 0.0869,0.06143 0.19217,0.12939 0.31591,0.204018 0.12636,0.07463 0.28036,0.142553 0.46069,0.204028 0.17903,0.06143 0.40279,0.09215 0.6713,0.09215 0.22772,0 0.4278,-0.0286 0.59892,-0.08561 0.17111,-0.06143 0.31326,-0.142553 0.42778,-0.243506 0.11321,-0.101017 0.19744,-0.217191 0.25009,-0.348819 0.0566,-0.131628 0.0856,-0.27207 0.0856,-0.421209 0,-0.184279 -0.0513,-0.335646 -0.15138,-0.454119 -0.0974,-0.122809 -0.22639,-0.226005 -0.38829,-0.309325 -0.16322,-0.08779 -0.34882,-0.162297 -0.55943,-0.223768 -0.20665,-0.06581 -0.41989,-0.133865 -0.63839,-0.204023 -0.21587,-0.07015 -0.42779,-0.149134 -0.6384,-0.23693 -0.20665,-0.09214 -0.39093,-0.206261 -0.55283,-0.342232 -0.16322,-0.135971 -0.29485,-0.302744 -0.39489,-0.500186 -0.0974,-0.201785 -0.14479,-0.445297 -0.14479,-0.730535 0,-0.254436 0.0527,-0.497948 0.15796,-0.730534 0.10534,-0.23693 0.25798,-0.443191 0.46069,-0.618651 0.20139,-0.179935 0.44886,-0.322488 0.74371,-0.42779 0.29352,-0.105302 0.62917,-0.157953 1.00694,-0.157953 0.43832,0 0.83058,0.07015 1.17808,0.210604 0.35012,0.135972 0.65287,0.324726 0.90823,0.566 z m 6.83938,-4.126533 v 9.694392 h -1.17149 v -9.694392 z m 9.32978,6.693275 c -0.53967,0.01751 -1.00037,0.06146 -1.38209,0.131628 -0.37645,0.06581 -0.68577,0.15361 -0.92797,0.263256 -0.23693,0.109646 -0.40937,0.239168 -0.51993,0.3883 -0.10535,0.149139 -0.15796,0.315906 -0.15796,0.500185 0,0.175465 0.0289,0.326832 0.0856,0.454121 0.0579,0.127279 0.13425,0.232582 0.23034,0.315907 0.10133,0.07896 0.21719,0.138204 0.34882,0.177692 0.13689,0.03515 0.28169,0.05267 0.43437,0.05267 0.20666,0 0.39488,-0.01974 0.566,-0.05922 0.17112,-0.04381 0.3317,-0.105345 0.48044,-0.184279 0.154,-0.07896 0.29879,-0.173354 0.43437,-0.283005 0.14084,-0.109641 0.27642,-0.234692 0.40804,-0.375134 z m -3.78429,-2.724696 c 0.36856,-0.355395 0.76607,-0.620888 1.19123,-0.796348 0.42647,-0.17546 0.8977,-0.263255 1.415,-0.263255 0.37382,0 0.7042,0.06146 0.99378,0.184278 0.28958,0.122809 0.5331,0.293925 0.73054,0.513349 0.19745,0.219423 0.3475,0.484785 0.44754,0.796348 0.10133,0.311563 0.15136,0.653795 0.15136,1.026698 v 4.264743 h -0.51992 c -0.1132,0 -0.20139,-0.01752 -0.26326,-0.05267 -0.0606,-0.03948 -0.10925,-0.114127 -0.14479,-0.223767 l -0.13162,-0.631814 c -0.17507,0.162292 -0.34618,0.307083 -0.51335,0.434372 -0.16585,0.122803 -0.34223,0.228106 -0.52651,0.315907 -0.18428,0.08328 -0.38172,0.147028 -0.59233,0.190855 -0.20534,0.04834 -0.43569,0.07241 -0.69105,0.07241 -0.25799,0 -0.50149,-0.03515 -0.73053,-0.105345 -0.22771,-0.07463 -0.42779,-0.184279 -0.59891,-0.329069 -0.16585,-0.144791 -0.30011,-0.326832 -0.40146,-0.546261 -0.0961,-0.223767 -0.14479,-0.487022 -0.14479,-0.789766 0,-0.263256 0.0724,-0.515587 0.21718,-0.756858 0.14479,-0.245749 0.3804,-0.462935 0.70421,-0.651558 0.32513,-0.188622 0.74896,-0.342232 1.27021,-0.460697 0.52256,-0.122808 1.16359,-0.193098 1.92176,-0.210604 v -0.51993 c 0,-0.517693 -0.11188,-0.908233 -0.33564,-1.171488 -0.22377,-0.2676 -0.55021,-0.401465 -0.98064,-0.401465 -0.28958,0 -0.53308,0.03725 -0.73052,0.111883 -0.19218,0.07016 -0.36199,0.151372 -0.50678,0.243512 -0.13952,0.08779 -0.26325,0.168878 -0.36855,0.243511 -0.10007,0.07015 -0.20139,0.105302 -0.30275,0.105302 -0.079,0 -0.14611,-0.01975 -0.20402,-0.05924 -0.0566,-0.04383 -0.10534,-0.09648 -0.14479,-0.157954 z m 16.24419,-0.941138 -2.71812,6.666951 h -1.05302 l -2.71811,-6.666951 h 0.95429 c 0.0961,0 0.17507,0.02409 0.23693,0.07239 0.0619,0.04831 0.10271,0.105302 0.12506,0.171116 l 1.69141,4.291075 c 0.0527,0.162292 0.0987,0.320245 0.13821,0.47386 0.0395,0.153605 0.0763,0.307082 0.11188,0.460697 0.0356,-0.153615 0.0724,-0.307103 0.11189,-0.460697 0.0395,-0.153615 0.0881,-0.311568 0.14479,-0.47386 l 1.71116,-4.291075 c 0.0263,-0.07016 0.0698,-0.127284 0.13163,-0.171116 0.0619,-0.0483 0.13425,-0.07239 0.21718,-0.07239 z m 7.21452,3.40916 c 0.23693,0 0.44491,-0.0329 0.62523,-0.09871 0.18033,-0.06581 0.3317,-0.157954 0.45412,-0.276419 0.12241,-0.118465 0.21455,-0.258912 0.27642,-0.421209 0.0618,-0.166772 0.0922,-0.348813 0.0922,-0.546255 0,-0.408047 -0.12505,-0.732773 -0.37514,-0.974047 -0.24614,-0.241273 -0.60286,-0.361976 -1.07277,-0.361976 -0.47386,0 -0.83584,0.120703 -1.08593,0.361976 -0.24614,0.241274 -0.36856,0.566 -0.36856,0.974047 0,0.197442 0.0303,0.379483 0.0922,0.546255 0.0658,0.162297 0.16059,0.302744 0.283,0.421209 0.12242,0.118465 0.27379,0.210605 0.45411,0.276419 0.18033,0.06581 0.38831,0.09871 0.62524,0.09871 z m 2.11263,3.619762 c 0,-0.162291 -0.046,-0.293919 -0.13821,-0.394883 -0.0922,-0.100911 -0.21718,-0.17993 -0.37514,-0.23693 -0.154,-0.057 -0.33303,-0.09648 -0.53967,-0.118465 -0.20666,-0.02628 -0.42517,-0.04602 -0.65815,-0.05922 -0.22772,-0.01319 -0.4607,-0.02628 -0.69763,-0.03948 -0.23693,-0.01319 -0.46464,-0.03515 -0.68446,-0.06576 -0.24614,0.114116 -0.44754,0.258907 -0.60549,0.434372 -0.15401,0.171116 -0.23034,0.372896 -0.23034,0.605488 0,0.149129 0.0368,0.287343 0.11187,0.414622 0.079,0.131628 0.19745,0.243517 0.3554,0.335656 0.15795,0.09648 0.35539,0.171116 0.59232,0.223767 0.24089,0.057 0.52389,0.08561 0.84901,0.08561 0.31591,0 0.5989,-0.02861 0.84899,-0.08561 0.25011,-0.057 0.46071,-0.138214 0.63183,-0.243516 0.17506,-0.105345 0.30932,-0.230344 0.40146,-0.375134 0.0922,-0.144791 0.13821,-0.304982 0.13821,-0.480447 z m 1.19123,-6.765667 v 0.434372 c 0,0.14479 -0.0922,0.23693 -0.27642,0.276418 l -0.75686,0.09872 c 0.14874,0.289581 0.22377,0.609831 0.22377,0.960884 0,0.324725 -0.0632,0.620888 -0.19086,0.888487 -0.12242,0.263256 -0.29353,0.489261 -0.51335,0.677883 -0.21982,0.188623 -0.48308,0.333413 -0.78977,0.434372 -0.30669,0.100964 -0.64103,0.151372 -1.00037,0.151372 -0.31196,0 -0.60549,-0.03725 -0.88191,-0.111884 -0.14084,0.08779 -0.24746,0.182041 -0.32249,0.283 -0.0751,0.09649 -0.11188,0.195207 -0.11188,0.296171 0,0.157953 0.0632,0.278656 0.19086,0.361971 0.13162,0.07896 0.30274,0.135977 0.51335,0.171116 0.2106,0.03515 0.45017,0.057 0.71737,0.06587 0.27247,0.0084 0.54889,0.02407 0.82926,0.04602 0.28563,0.01752 0.56205,0.05046 0.82925,0.0987 0.27247,0.04834 0.51335,0.127289 0.72395,0.23693 0.21061,0.109651 0.3791,0.261017 0.50678,0.454121 0.13162,0.193093 0.19744,0.443185 0.19744,0.750278 0,0.285232 -0.0724,0.561651 -0.21719,0.829255 -0.14085,0.267594 -0.34486,0.504524 -0.61207,0.71079 -0.26721,0.210605 -0.59628,0.377372 -0.9872,0.500186 -0.38568,0.127279 -0.82268,0.190855 -1.30971,0.190855 -0.48702,0 -0.91218,-0.04835 -1.27679,-0.144791 -0.36461,-0.09648 -0.66735,-0.226005 -0.90823,-0.388296 -0.24088,-0.162303 -0.42385,-0.351057 -0.54626,-0.566 -0.11846,-0.210604 -0.17769,-0.432134 -0.17769,-0.664725 0,-0.32907 0.1027,-0.607726 0.30932,-0.835832 0.20666,-0.228116 0.48966,-0.410284 0.849,-0.54626 -0.19744,-0.08782 -0.35539,-0.204018 -0.47386,-0.348809 -0.11451,-0.149139 -0.17111,-0.348818 -0.17111,-0.598911 0,-0.09648 0.0171,-0.195204 0.0527,-0.296158 0.0356,-0.105344 0.0882,-0.208366 0.15795,-0.309333 0.075,-0.105302 0.16453,-0.204023 0.26984,-0.296163 0.10534,-0.09214 0.22772,-0.173354 0.36855,-0.243511 -0.32907,-0.184279 -0.58574,-0.42779 -0.77001,-0.730534 -0.18428,-0.307088 -0.27642,-0.662483 -0.27642,-1.066185 0,-0.324727 0.0619,-0.618652 0.18428,-0.881908 0.12768,-0.267599 0.30274,-0.493604 0.52651,-0.677883 0.22376,-0.188622 0.48965,-0.333413 0.79634,-0.434371 0.31196,-0.100964 0.65156,-0.151372 1.02012,-0.151372 0.28958,0 0.55941,0.03291 0.80951,0.09871 0.2501,0.06146 0.47781,0.15361 0.68447,0.276418 z m 6.14044,1.072767 c 0.2106,-0.456354 0.46991,-0.811749 0.7766,-1.066185 0.30801,-0.258912 0.68315,-0.388302 1.12541,-0.388302 0.14085,0 0.27511,0.0154 0.40147,0.04606 0.13163,0.03066 0.24878,0.07898 0.34881,0.144791 l -0.0856,0.875324 c -0.0263,0.109646 -0.0922,0.164535 -0.19744,0.164535 -0.0606,0 -0.15138,-0.01316 -0.26985,-0.03949 -0.11846,-0.02633 -0.2514,-0.03949 -0.40146,-0.03949 -0.2106,0 -0.39883,0.03066 -0.566,0.09214 -0.1619,0.06147 -0.30933,0.15361 -0.44095,0.276418 -0.12636,0.118465 -0.24351,0.267599 -0.34881,0.447535 -0.10007,0.17546 -0.19218,0.377377 -0.27642,0.605489 v 4.212097 h -1.17807 v -6.666957 h 0.6713 c 0.12768,0 0.21587,0.02409 0.26325,0.07239 0.0487,0.04831 0.0816,0.131628 0.0987,0.250093 z m 11.11333,2.329812 c -0.53967,0.01751 -1.00037,0.06146 -1.38209,0.131628 -0.37777,0.06581 -0.68709,0.15361 -0.92797,0.263256 -0.23693,0.109646 -0.41069,0.239168 -0.51994,0.3883 -0.10534,0.149139 -0.15795,0.315906 -0.15795,0.500185 0,0.175465 0.0289,0.326832 0.0856,0.454121 0.0566,0.127279 0.13425,0.232582 0.23034,0.315907 0.10133,0.07896 0.21719,0.138204 0.34882,0.177692 0.13557,0.03515 0.28036,0.05267 0.43437,0.05267 0.20666,0 0.39488,-0.01974 0.566,-0.05922 0.17112,-0.04381 0.3317,-0.105345 0.48044,-0.184279 0.154,-0.07896 0.29879,-0.173354 0.43437,-0.283005 0.14084,-0.109641 0.27642,-0.234692 0.40804,-0.375134 z m -3.78429,-2.724696 c 0.36856,-0.355395 0.76607,-0.620888 1.19122,-0.796348 0.42516,-0.17546 0.89771,-0.263255 1.41501,-0.263255 0.3725,0 0.7042,0.06146 0.99378,0.184278 0.28958,0.122809 0.5331,0.293925 0.73054,0.513349 0.19744,0.219423 0.34618,0.484785 0.44754,0.796348 0.10133,0.311563 0.15136,0.653795 0.15136,1.026698 v 4.264743 h -0.51992 c -0.11452,0 -0.20139,-0.01752 -0.26326,-0.05267 -0.0618,-0.03948 -0.10925,-0.114127 -0.14479,-0.223767 l -0.13163,-0.631814 c -0.17506,0.162292 -0.34618,0.307083 -0.51334,0.434372 -0.16717,0.122803 -0.34224,0.228106 -0.52651,0.315907 -0.18428,0.08328 -0.38173,0.147028 -0.59233,0.190855 -0.20666,0.04834 -0.43701,0.07241 -0.69105,0.07241 -0.25931,0 -0.50281,-0.03515 -0.73053,-0.105345 -0.22771,-0.07463 -0.4278,-0.184279 -0.59891,-0.329069 -0.16717,-0.144791 -0.30011,-0.326832 -0.40146,-0.546261 -0.0961,-0.223767 -0.14479,-0.487022 -0.14479,-0.789766 0,-0.263256 0.0724,-0.515587 0.21718,-0.756858 0.14479,-0.245749 0.37909,-0.462935 0.70421,-0.651558 0.32512,-0.188622 0.74764,-0.342232 1.27021,-0.460697 0.52256,-0.122808 1.16227,-0.193098 1.92176,-0.210604 v -0.51993 c 0,-0.517693 -0.11188,-0.908233 -0.33564,-1.171488 -0.22377,-0.2676 -0.55021,-0.401465 -0.98064,-0.401465 -0.28958,0 -0.53308,0.03725 -0.73053,0.111883 -0.19349,0.07016 -0.36198,0.151372 -0.50677,0.243512 -0.14084,0.08779 -0.26325,0.168878 -0.36856,0.243511 -0.10133,0.07015 -0.20138,0.105302 -0.30274,0.105302 -0.0789,0 -0.14742,-0.01975 -0.20402,-0.05924 -0.0566,-0.04383 -0.10534,-0.09648 -0.14479,-0.157954 z m 14.87526,0.644976 c -0.21982,-0.293924 -0.45675,-0.497947 -0.71079,-0.612069 -0.25536,-0.118465 -0.53968,-0.177697 -0.85558,-0.177697 -0.61865,0 -1.09515,0.221529 -1.42817,0.66472 -0.33433,0.443191 -0.50019,1.075005 -0.50019,1.895441 0,0.434372 0.0368,0.807273 0.11189,1.118834 0.0737,0.307093 0.18428,0.561661 0.32907,0.763441 0.14479,0.197442 0.32249,0.342233 0.53309,0.434372 0.2106,0.09215 0.44885,0.138215 0.71738,0.138215 0.38566,0 0.72132,-0.08782 1.00694,-0.263256 0.28958,-0.175465 0.55416,-0.423447 0.79636,-0.743702 z m 1.17148,-4.613555 v 9.694392 h -0.69762 c -0.16717,0 -0.27247,-0.08117 -0.31591,-0.243517 l -0.10534,-0.809505 c -0.28564,0.342232 -0.61076,0.61865 -0.97405,0.829255 -0.36461,0.210604 -0.78582,0.315907 -1.26363,0.315907 -0.38172,0 -0.72922,-0.07241 -1.03986,-0.217192 -0.31195,-0.149128 -0.57784,-0.36632 -0.79635,-0.651552 -0.21982,-0.285243 -0.3883,-0.640638 -0.50676,-1.066185 -0.11847,-0.425556 -0.1777,-0.914816 -0.1777,-1.467653 0,-0.491366 0.0659,-0.94772 0.19744,-1.36893 0.13163,-0.425552 0.31985,-0.79411 0.566,-1.105673 0.24483,-0.311563 0.54626,-0.555075 0.90165,-0.730534 0.35935,-0.179936 0.76344,-0.269837 1.21098,-0.269837 0.40804,0 0.75685,0.07016 1.04643,0.210604 0.29354,0.135971 0.55416,0.326832 0.78319,0.572581 v -3.692161 z"
     fill="#000000"
     id="path8"
     style="stroke-width:1.31628;fill:#ffffff;fill-opacity:1" />
  <defs
     id="defs13">
    <clipPath
       id="clip0_408:51">
      <rect
         width="71.347198"
         height="18.943399"
         fill="#ffffff"
         transform="rotate(8.32729,-362.65171,45.343572)"
         id="rect10"
         x="0"
         y="0" />
    </clipPath>
  </defs>
</svg>
