<?xml version="1.0" encoding="UTF-8" standalone="no"?>
<svg
   version="1.1"
   viewBox="-301.2 -3238.025 8000 2561.8589"
   id="svg146"
   sodipodi:docname="logonew.svg"
   width="8000"
   height="2561.8589"
   inkscape:version="1.1 (c68e22c387, 2021-05-23)"
   xmlns:inkscape="http://www.inkscape.org/namespaces/inkscape"
   xmlns:sodipodi="http://sodipodi.sourceforge.net/DTD/sodipodi-0.dtd"
   xmlns="http://www.w3.org/2000/svg"
   xmlns:svg="http://www.w3.org/2000/svg">
  <sodipodi:namedview
     id="namedview148"
     pagecolor="#7c7c7c"
     bordercolor="#ffffff"
     borderopacity="1"
     inkscape:pageshadow="2"
     inkscape:pageopacity="0"
     inkscape:pagecheckerboard="0"
     showgrid="false"
     fit-margin-top="500"
     fit-margin-left="500"
     fit-margin-right="500"
     fit-margin-bottom="500"
     inkscape:zoom="0.08"
     inkscape:cx="4118.75"
     inkscape:cy="1293.75"
     inkscape:window-width="1920"
     inkscape:window-height="1013"
     inkscape:window-x="-9"
     inkscape:window-y="-9"
     inkscape:window-maximized="1"
     inkscape:current-layer="g140" />
  <desc
     id="desc2">Created with Snap</desc>
  <defs
     id="defs4" />
  <rect
     x="-234.91803"
     y="-4219.481"
     width="10000"
     height="4815.5107"
     fill="#37393a"
     id="rect6"
     style="fill:#37393a;fill-opacity:0;stroke-width:1.3543" />
  <g
     id="g142"
     transform="matrix(1.3542979,0,0,1.3542979,172.99654,-1277.1177)">
    <g
       transform="scale(0.5,-0.5)"
       id="g140">
      <path
         d="m 56.997678,1781.9676 c -12.59443,30.436 -18.89165,66.383 -18.89165,107.839 0,41.457 1.5743,75.305 4.72291,101.543 3.14861,26.763 7.34675,50.902 12.59443,72.418 12.59443,48.279 28.07508,72.418 46.441962,72.418 h 693.48082 c 30.4365,0 50.9025,-45.13 61.3978,-135.39 2.6238,-25.189 3.9358,-51.165 3.9358,-77.928 0,-62.972 -6.822,-109.939 -20.4659,-140.9 -45.1301,140.113 -103.6417,229.848 -175.5349,269.205 -16.26783,9.446 -32.27324,14.169 -48.01628,14.169 -15.74304,0 -28.07509,-4.198 -36.99614,-12.594 -8.92105,-7.872 -16.26781,-20.728 -22.04025,-38.571 -9.44583,-31.486 -14.16874,-69.269 -14.16874,-113.35 v -295.181 l 0.7872,-240.869 v -228.274 c 0,-51.427 6.5596,-89.473 19.6788,-114.137 13.64397,-24.139 27.28793,-42.506 40.9319,-55.101 14.16873,-12.594 30.69893,-24.401 49.59057,-35.421 H 252.21134 c 37.78329,30.961 61.92263,56.412 72.41798,76.353 19.41641,36.209 29.12462,78.978 29.12462,128.306 v 709.224 c 0,82.388 -3.14861,135.39 -9.44582,159.005 -6.29722,24.139 -13.90636,40.144 -22.82741,48.016 -8.92105,8.396 -21.2531,12.594 -36.99614,12.594 -15.74303,0 -31.74846,-4.723 -48.01626,-14.169 -16.26781,-8.921 -32.27323,-20.99 -48.01627,-36.208 -15.21826,-14.694 -29.91177,-32.011 -44.0805,-51.953 -13.64397,-19.416 -26.2384,-39.619 -37.78329,-60.61 -22.565032,-41.457 -39.095222,-81.602 -49.590572,-120.434 z M 1307.782,1663.8946 c -47.2292,0 -81.3391,-23.615 -102.3298,-70.844 -20.4659,-47.229 -30.6989,-126.731 -30.6989,-238.507 0,-239.819 44.3429,-359.728 133.0287,-359.728 47.2291,0 81.0766,32.011 101.5425,96.032 20.9908,64.022 31.4861,151.921 31.4861,263.696 0,111.776 -10.4953,191.278 -31.4861,238.507 -20.4659,47.229 -54.3134,70.844 -101.5425,70.844 z m -331.39095,-279.439 c 0,238.769 110.46355,358.154 331.39095,358.154 220.9273,0 331.3909,-119.385 331.3909,-358.154 0,-144.836 -30.4366,-259.498 -91.3096,-343.985 -59.2988,-82.914 -139.3259,-124.37 -240.0813,-124.37 -100.7555,0 -180.7826,41.456 -240.0813,124.37 -60.8731,84.487 -91.30965,199.149 -91.30965,343.985 z M 2082.3394,931.8436 h -225.9126 c 24.1394,82.913 36.209,225.387 36.209,427.423 0,143.786 -12.5944,241.918 -37.7833,294.395 -6.2972,13.119 -13.3816,25.451 -21.2531,36.996 l -25.976,36.209 h 273.1417 c -7.8715,-30.961 -13.1192,-55.625 -15.743,-73.992 l -5.5101,-47.229 c 60.8731,91.309 138.2764,136.964 232.2098,136.964 94.4582,0 155.5937,-51.165 183.4064,-153.495 41.4567,70.844 96.2949,117.811 164.5147,140.901 24.1394,8.396 51.1649,12.594 81.0767,12.594 30.4366,0 57.7245,-6.56 81.8638,-19.679 24.664,-12.594 45.3924,-30.699 62.185,-54.313 33.0605,-47.754 49.5906,-113.088 49.5906,-196.001 v -84.225 c 0,-160.579 2.0992,-261.335 6.2973,-302.267 4.7229,-40.407 8.1338,-67.17 10.2329,-80.289 3.1486,-23.09 8.3963,-47.754 15.7431,-73.992 h -232.2099 c 23.0897,79.24 34.6347,221.714 34.6347,427.423 0,83.438 -4.1981,139.326 -12.5945,167.663 -8.3963,28.863 -19.4164,49.591 -33.0604,62.185 -13.1192,13.12 -31.2237,19.679 -54.3135,19.679 -67.695,0 -121.4837,-39.882 -161.366,-119.647 v -100.755 c 0,-160.579 2.099,-261.335 6.2972,-302.267 4.7229,-40.407 8.1338,-67.17 10.2329,-80.289 3.1486,-23.09 8.3964,-47.754 15.7431,-73.992 h -232.2098 c 23.6145,80.814 35.4218,223.288 35.4218,427.423 0,85.537 -4.1981,141.95 -12.5944,169.238 -8.3964,27.812 -19.154,48.016 -32.2733,60.61 -13.1192,13.12 -31.2237,19.679 -54.3134,19.679 -22.5651,0 -43.0311,-4.46 -61.3979,-13.381 -18.3668,-8.921 -34.8971,-20.729 -49.5906,-35.422 -27.8126,-27.288 -49.5905,-62.448 -65.3336,-105.479 -1.0495,-15.218 -1.5743,-30.961 -1.5743,-47.229 v -48.016 c 0,-202.036 12.0697,-344.51 36.209,-427.423 z m 376.2586,473.865 3.1486,14.169 z m 928.0522,532.902 c -10.4954,-17.318 -23.3522,-32.011 -38.5705,-44.081 -15.2182,-11.545 -32.5356,-17.317 -51.952,-17.317 -19.4164,0 -36.7338,5.772 -51.952,17.317 -15.2183,12.07 -28.0751,26.763 -38.5704,44.081 -21.5155,35.684 -32.2733,73.467 -32.2733,113.35 0,48.278 22.0403,80.551 66.1208,96.819 15.743,5.773 34.897,8.659 57.4621,8.659 62.4473,0 101.2802,-22.04 116.4985,-66.121 4.7229,-12.594 7.0843,-26.763 7.0843,-42.506 0,-15.218 -2.8862,-33.06 -8.6586,-53.526 -5.7724,-20.466 -14.1688,-39.358 -25.1889,-56.675 z m 18.8916,-1006.767 H 3173.332 c 24.1394,82.913 36.209,225.387 36.209,427.423 0,142.212 -12.5944,240.081 -37.7833,293.608 -6.2972,13.644 -13.3816,26.238 -21.2531,37.783 l -25.976,36.209 h 279.4389 c -23.0897,-86.587 -34.6347,-220.14 -34.6347,-400.66 0,-179.996 12.0697,-311.45 36.209,-394.363 z m 695.0552,841.465 c 14.1687,-31.486 21.253,-63.235 21.253,-95.246 0,-32.01 -1.5743,-58.511 -4.7229,-79.502 -2.6238,-20.991 -6.822,-41.194 -12.5944,-60.611 -13.1192,-44.08 -31.7484,-77.928 -55.8878,-101.542 -16.2678,81.339 -34.1098,134.078 -53.5263,158.217 -18.8917,24.14 -38.0456,40.408 -57.4621,48.804 -18.8917,8.396 -39.0953,12.594 -60.6107,12.594 -21.5155,0 -39.0953,-2.099 -52.7392,-6.297 -13.6439,-4.198 -25.4512,-10.233 -35.4218,-18.104 -22.565,-17.318 -33.8475,-36.997 -33.8475,-59.037 0,-22.04 5.51,-41.194 16.5301,-57.462 11.0201,-15.743 25.4513,-30.699 43.2934,-44.868 18.3668,-13.644 39.0952,-27.025 62.185,-40.144 l 70.8437,-40.145 c 60.873,-34.11 102.5921,-62.447 125.1572,-85.012 44.6052,-44.606 66.9078,-91.572 66.9078,-140.901 0,-64.546 -22.0402,-118.86 -66.1207,-162.94 -55.6254,-56.675 -139.0635,-85.012 -250.3143,-85.012 -101.2803,0 -177.3715,23.614 -228.2741,70.843 -14.6935,13.644 -25.1888,27.288 -31.486,40.932 4.1981,39.358 21.7779,76.354 52.7392,110.988 29.9117,33.586 59.0363,53.002 87.3738,58.25 -2.0991,-6.822 -3.1486,-17.055 -3.1486,-30.699 0,-13.644 3.9358,-30.699 11.8073,-51.165 7.8715,-19.941 19.154,-38.57 33.8475,-55.888 33.0603,-39.882 70.3189,-59.823 111.7756,-59.823 41.4567,0 71.8932,9.445 91.3096,28.337 19.4164,18.892 29.1246,40.407 29.1246,64.547 0,24.139 -5.5101,44.342 -16.5302,60.61 -11.0201,16.268 -25.7136,31.486 -44.0805,45.655 -17.8421,14.169 -38.3081,27.813 -61.3978,40.932 l -70.8437,40.145 c -60.3484,35.684 -101.805,66.12 -124.37,91.309 -45.13,50.378 -67.6951,105.216 -67.6951,164.515 0,62.447 26.2384,113.087 78.7152,151.92 49.8529,36.734 112.038,55.101 186.555,55.101 l 138.5388,-9.446 c 33.5851,0 56.9373,3.936 70.0564,11.807 13.1193,8.397 24.1394,17.843 33.0605,28.338 z m 434.5078,-274.716 -0.787,-206.234 c 0,-170.025 10.2329,-290.197 30.6989,-360.515 h -232.2099 c 14.6935,50.902 23.8768,110.988 27.5502,180.257 7.8716,167.401 11.8074,297.281 11.8074,389.64 0,92.36 -0.262,154.282 -0.787,185.768 l -1.5743,96.033 c -3.1486,113.875 -8.6586,185.505 -16.5302,214.892 -7.3467,29.912 -14.4311,51.428 -21.2531,64.547 -6.2972,13.644 -13.6439,25.976 -22.0402,36.996 l -25.9761,36.209 h 287.3105 c -14.6936,-53.002 -23.3522,-103.904 -25.976,-152.708 -2.0991,-48.278 -3.9358,-91.047 -5.5101,-128.305 -1.0495,-37.259 -2.0991,-76.092 -3.1486,-116.499 -1.0495,-67.17 -1.5743,-147.197 -1.5743,-240.081 z m 809.1922,-146.41 -2.3616,-151.134 c 0,-93.933 8.6588,-157.955 25.9761,-192.065 10.4953,-20.466 22.8274,-36.209 36.9961,-47.229 l 36.9962,-29.911 h -228.2741 l -24.4017,91.309 c -59.2988,-71.368 -143.7864,-107.052 -253.4629,-107.052 -62.4474,0 -112.825,20.99 -151.1332,62.972 -33.5851,37.783 -50.3777,82.388 -50.3777,133.815 0,51.428 12.0697,96.295 36.209,134.603 24.664,38.309 56.9373,70.057 96.8197,95.246 78.7152,48.803 177.6339,74.254 296.7562,76.353 v 8.659 c 0,127.519 -19.6787,202.298 -59.0364,224.339 -14.1687,7.871 -32.5355,11.807 -55.1006,11.807 -22.0402,0 -44.0805,-7.347 -66.1207,-22.04 -22.0403,-14.694 -41.9814,-33.586 -59.8236,-56.675 -35.6842,-46.705 -61.1355,-101.805 -76.3537,-165.302 -46.7043,27.812 -70.0565,81.076 -70.0565,159.792 0,32.01 4.1981,67.957 12.5944,107.839 19.9412,0 38.8328,2.887 56.6749,8.659 l 60.6107,18.892 c 59.2987,18.366 117.2856,27.55 173.9606,27.55 56.6749,0 101.805,-8.396 135.3901,-25.189 34.1099,-16.792 60.6107,-41.719 79.5024,-74.779 32.0108,-56.15 48.0163,-152.97 48.0163,-290.459 z m -440.018,-255.038 c 0,-32.535 7.3468,-57.724 22.0403,-75.566 15.2183,-17.842 34.1098,-26.763 56.6749,-26.763 22.5651,0 44.3429,5.772 65.3336,17.317 20.9908,12.07 39.8824,28.338 56.6749,48.803 39.3577,46.705 59.0364,101.543 59.0364,164.515 v 116.499 c -73.4674,-6.822 -134.0781,-31.224 -181.832,-73.205 -51.9521,-45.13 -77.9281,-102.33 -77.9281,-171.6 z m 551.7935,629.722 h 290.459 c -9.4458,-23.09 -14.1687,-48.541 -14.1687,-76.354 0,-27.288 2.0991,-51.689 6.2972,-73.205 4.1981,-20.991 9.9707,-45.655 17.3174,-73.992 l 85.0124,-302.267 29.9118,-96.819 c 30.9612,92.884 51.4271,155.593 61.3978,188.129 l 28.3375,96.033 c 30.9612,105.478 46.4419,170.812 46.4419,196 0,25.189 -1.312,43.556 -3.9358,55.101 -2.0991,12.07 -5.2477,22.827 -9.4458,32.273 -5.2477,14.169 -15.4807,32.536 -30.6989,55.101 h 286.5233 c -38.8328,-53.526 -64.8088,-93.671 -77.928,-120.434 l -29.1247,-59.824 c -4.7229,-9.446 -11.2824,-23.09 -19.6788,-40.932 -102.8545,-234.571 -154.2817,-391.739 -154.2817,-471.504 0,-36.209 6.822,-70.319 20.4659,-102.329 h -283.3747 c 12.5944,19.941 19.9412,38.57 22.0403,55.887 2.6238,17.842 3.9358,35.947 3.9358,54.314 0,18.891 -4.7229,45.917 -14.1688,81.076 -9.4458,35.16 -21.7778,75.042 -36.9961,119.648 -15.2182,44.605 -32.798,91.572 -52.7392,140.9 -19.4164,49.853 -39.3576,97.344 -59.8236,142.474 -46.1795,101.28 -83.4381,168.188 -111.7755,200.724 z m 1116.7623,-1474.5 -0.787,102.33 c 0,59.299 -5.7724,98.657 -17.3173,118.073 -11.5448,19.941 -23.6146,34.372 -36.2091,43.293 -12.5944,9.446 -28.075,18.892 -46.4419,28.338 h 345.5596 c -33.0603,-30.437 -54.0509,-69.27 -62.972,-116.499 -8.3963,-45.13 -12.5945,-114.924 -12.5945,-209.382 0,-183.669001 11.0202,-305.940002 33.0604,-366.813 -7.3468,-0.53 -14.6935,-0.79 -22.0402,-0.79 h -21.2532 c -230.8979,0 -405.908,74.254998 -525.0303,222.763999 -113.8745,142.212001 -170.812,343.985001 -170.812,605.320001 0,129.093 38.0458,228.011 114.137,296.756 70.319,64.022 164.5148,96.033 282.5877,96.033 l 138.5387,-1.575 c 72.9427,0 123.8452,8.921 152.7074,26.763 12.0696,7.872 22.3027,17.843 30.699,29.912 13.1191,-25.189 19.6787,-59.823 19.6787,-103.904 0,-44.08 -1.3119,-79.765 -3.9357,-107.052 -2.6239,-26.764 -6.5596,-53.002 -11.8074,-78.716 -11.02,-54.576 -28.075,-97.082 -51.1648,-127.518 -19.9412,104.953 -44.8676,177.371 -74.7794,217.254 -33.5851,44.08 -86.0619,66.12 -157.4304,66.12 -90.2601,0 -154.0194,-36.209 -191.2779,-108.627 -26.7631,-53.001 -40.1448,-133.291 -40.1448,-240.868 0,-147.46 22.8275,-288.885 68.4823,-424.275 32.0109,-94.983 71.8932,-162.416001 119.647,-202.298002 24.6642,-20.9909995 50.1154,-31.486 76.3539,-31.486 26.763,0 43.818,7.6090005 51.1648,22.8270005 7.3468,15.2189995 11.2825,41.1950005 11.8073,77.9280005 1.0495,72.418001 1.5743,127.781001 1.5743,166.089001 z m 1016.2131,373.898 v -37.784 l -11.8076,-351.857 c 0,-143.261001 12.5944,-241.6550015 37.7839,-295.182002 8.9208,-19.416 24.6638,-44.079998 47.229,-73.991998 h -218.8284 c -12.0694,35.683998 -19.9409,80.813998 -23.6145,135.3899985 C 7358.9369,-97.915402 7280.4844,-148.2934 7184.4514,-148.2934 c -66.1206,0 -116.7607,24.664 -151.9196,73.991998 -34.6351,47.754 -51.9523,113.350001 -51.9523,196.788002 v 106.266 72.418 l -1.5743,71.631 c -0.525,45.655 -2.0991,81.076 -4.7229,106.265 -2.0991,25.714 -4.7229,46.967 -7.8716,63.76 -2.6239,17.317 -6.0348,32.535 -10.233,45.654 -4.1981,13.644 -8.921,26.239 -14.1686,37.784 l -17.3174,36.209 h 227.4869 c 0.525,-8.397 0.787,-16.268 0.787,-23.615 v -22.827 l -13.3812,-395.151 c 0,-77.14 4.9854,-129.617001 14.9555,-157.430001 9.9708,-27.813 21.7784,-47.754001 35.4221,-59.8230005 14.1687,-12.07 32.7978,-18.1050005 55.888,-18.1050005 62.447,0 113.0871,34.11 151.9203,102.330001 10.4951,19.416001 19.1541,39.095001 25.9756,59.036001 1.05,29.387 1.5743,62.71 1.5743,99.968 0,191.541 -14.1687,318.01 -42.5061,379.408 l -17.3173,36.209 h 224.3381 c -0.524,-13.12 -0.787,-25.189 -0.787,-36.209 z m 480.9497,247.952 c -10.4951,-17.317 -23.352,-32.01 -38.57,-44.08 -15.218,-11.545 -32.536,-17.317 -51.9526,-17.317 -19.4166,0 -36.7339,5.772 -51.9519,17.317 -15.218,12.07 -28.0749,26.763 -38.57,44.08 -21.5159,35.685 -32.2735,73.468 -32.2735,113.35 0,48.279 22.0402,80.552 66.1206,96.82 15.743,5.772 34.8971,8.659 57.4623,8.659 62.447,0 101.2802,-22.041 116.4982,-66.121 4.7229,-12.595 7.0847,-26.763 7.0847,-42.506 0,-15.219 -2.8868,-33.061 -8.659,-53.527 -5.7722,-20.466 -14.1687,-39.357 -25.1888,-56.675 z m 18.8916,-1006.767 h -232.2096 c 24.1395,82.912998 36.2089,225.387999 36.2089,427.424 0,142.212 -12.5944,240.081 -37.7832,293.607 -6.2972,13.644 -13.3819,26.239 -21.2534,37.784 l -25.9756,36.209 h 279.4386 c -23.0895,-86.587 -34.6346,-220.141 -34.6346,-400.661 0,-179.995001 12.0694,-311.450002 36.2089,-394.363 z m 665.9309,0 -11.0208,62.184998 C 8686.5995,-122.3174 8613.92,-148.2934 8525.7585,-148.2934 c -80.8143,0 -144.5738,23.352 -191.2778,70.056998 -48.2783,48.278 -72.4178,116.236001 -72.4178,203.872002 0,88.161 12.8562,165.039 38.57,230.636 25.7145,66.12 59.5616,121.483 101.5427,166.089 82.9136,88.161 184.7188,134.603 305.4148,139.325 -4.1979,161.629 -9.7076,254.251 -16.5298,277.865 -6.2972,24.139 -12.8569,43.031 -19.6791,56.675 -6.2972,14.169 -13.6437,27.026 -22.0402,38.57 l -26.763,36.997 h 287.3107 c -14.6944,-53.002 -23.3527,-104.429 -25.9763,-154.282 -2.0993,-49.853 -3.6736,-93.671 -4.7229,-131.455 -1.0493,-37.783 -1.8368,-77.403 -2.3618,-118.86 -1.5743,-69.269 -2.3611,-138.276 -2.3611,-207.021 v -155.068 c 0.525,-35.16 1.3118,-68.483 2.3611,-99.969 2.6236,-118.072001 7.0847,-188.391002 13.3819,-210.9560015 6.2972,-22.0410005 12.5944,-39.8830005 18.8916,-53.5270005 6.8222,-13.119 14.4312,-25.451 22.8277,-36.996 l 26.7631,-36.208998 z m -46.4422,288.885 c 2.6236,80.814 3.9354,156.381 3.9354,226.7 0,70.843 -0.787,138.276 -2.3611,202.298 -76.0914,-11.545 -136.9647,-56.413 -182.6194,-134.603 -45.6547,-77.666 -68.4817,-175.535 -68.4817,-293.608 0,-69.794001 5.2479,-118.598001 15.743,-146.410002 11.0201,-27.813 23.8763,-48.279 38.57,-61.398 15.218,-12.594 33.3228,-18.892 54.3137,-18.892 21.5152,0 40.145,4.198 55.888,12.595 16.2679,8.921 30.4366,21.778 42.506,38.57 26.2381,35.684 40.4068,93.934001 42.5061,174.748002 z m 931.9877,-21.253 c 18.8912,-12.595 28.3372,-34.635 28.3372,-66.121001 0,-30.961 -4.198,-58.249001 -12.5942,-81.864001 -8.3965,-23.614 -23.0895,-45.655 -44.0804,-66.12 -47.229,-46.179998 -119.1218,-69.269998 -215.6798,-69.269998 -112.3003,0 -197.8368,41.457 -256.6116,124.369998 -51.9519,73.992001 -77.9275,173.961002 -77.9275,299.905002 0,126.994 35.1596,226.7 105.4781,299.118 66.6456,68.744 156.905,103.117 270.7803,103.117 79.24,0 141.162,-23.09 185.7681,-69.27 35.16,-36.734 52.739,-79.24 52.739,-127.518 0,-47.754 -9.446,-91.048 -28.3377,-129.88 -18.3666,-38.308 -45.6547,-71.369 -81.8636,-99.182 -74.5171,-57.724 -178.6834,-88.161 -312.4996,-91.309 11.0201,-105.479001 44.0804,-176.060002 99.1816,-211.744002 19.9409,-12.594 46.4415,-18.892 79.5018,-18.892 33.0603,0 68.2206,17.318 105.4788,51.952 37.2582,34.635 71.3685,85.538001 102.3295,152.708002 z m -391.2146,125.157 v -24.402 c 165.8272,11.02 248.7401,91.31 248.7401,240.869 0,56.15 -16.7923,93.933 -50.3776,113.35 -11.5451,6.297 -26.7631,9.445 -45.6547,9.445 -18.8916,0 -38.0457,-5.772 -57.4623,-17.317 -18.8916,-11.545 -35.4221,-30.436 -49.5908,-56.675 -30.4367,-57.199 -45.6547,-145.623 -45.6547,-265.27 z m 1087.058,448.677 c 14.168,-31.486 21.252,-63.235 21.252,-95.246 0,-32.011 -1.574,-58.511 -4.723,-79.502 -2.623,-20.991 -6.822,-41.194 -12.594,-60.611 -13.119,-44.08 -31.749,-77.928 -55.888,-101.542 -16.268,81.339 -34.11,134.078 -53.526,158.217 -18.892,24.139 -38.045,40.407 -57.463,48.803 -18.891,8.397 -39.095,12.595 -60.61,12.595 -21.515,0 -39.095,-2.099 -52.739,-6.297 -13.644,-4.198 -25.451,-10.233 -35.422,-18.105 -22.565,-17.317 -33.8472,-36.996 -33.8472,-59.036 0,-22.04 5.509,-41.194 16.5292,-57.462 11.021,-15.743 25.452,-30.699 43.294,-44.868 18.367,-13.644 39.096,-27.025 62.185,-40.145 l 70.844,-40.144 c 60.872,-34.11 102.592,-62.448 125.157,-85.013 44.605,-44.605 66.908,-91.572 66.908,-140.900001 0,-64.546 -22.04,-118.860001 -66.121,-162.940001 -55.626,-56.674998 -139.064,-85.012998 -250.314,-85.012998 -101.2812,0 -177.3722,23.615 -228.2742,70.843998 -14.694,13.644 -25.189,27.288 -31.486,40.932 4.198,39.3570005 21.778,76.353001 52.739,110.988001 29.911,33.585001 59.036,53.002001 87.374,58.249001 -2.1,-6.822 -3.149,-17.055 -3.149,-30.699 0,-13.644001 3.936,-30.698001 11.808,-51.164001 7.871,-19.942 19.153,-38.571001 33.847,-55.8880005 33.0602,-39.8830005 70.3182,-59.8240005 111.7762,-59.8240005 41.456,0 71.892,9.446 91.309,28.338 19.417,18.891 29.125,40.4070005 29.125,64.546 0,24.139001 -5.51,44.343001 -16.531,60.611001 -11.02,16.268001 -25.713,31.486001 -44.08,45.655001 -17.842,14.168 -38.308,27.812 -61.398,40.932 l -70.844,40.144 c -60.3482,35.684 -101.8042,66.121 -124.3702,91.31 -45.129,50.378 -67.694,105.216 -67.694,164.515 0,62.447 26.238,113.087 78.715,151.92 49.852,36.734 112.0372,55.101 186.5542,55.101 l 138.54,-9.446 c 33.585,0 56.936,3.936 70.056,11.807 13.119,8.396 24.14,17.842 33.061,28.338 z"
         fill="#ffffff"
         id="path138"
         sodipodi:nodetypes="csccsscsccsccsccscccccssccscccccscsscscsssscscsccsscccccsccsccssccccsccscsccccsccssccssccccccsccscscsscccsccccsccscccccsscsccccsscsccccsccsssscccssccccccccccsccccccccccccccccccscscccscssccscccscccscsccsccsccsccccccscccccccscccsssccc"
         style="stroke-width:0.78715;fill:#ffffff;fill-opacity:1" />
      <path
         class="cls-1"
         d="m 7172.3418,1066.3259 -500.3573,543.0449 a 73.841525,73.841525 0 0 0 108.6092,100.0716 l 454.3136,-493.0731 409.1263,318.7677 -203.7788,-38.1859 a 176.47878,176.47878 0 0 0 -198.2888,236.9954 l 117.1649,308.7325 -317.3041,-91.5186 a 176.47878,176.47878 0 0 0 -220.0071,216.9871 l 55.687,198.9121 -351.0889,-381.7565 54.0395,-58.6498 a 73.841525,73.841525 0 0 0 -108.6092,-100.0716 l -100.0831,108.6217 a 73.840496,73.840496 0 0 0 -0.086,100.3449 l 601.6397,654.6967 a 73.840496,73.840496 0 0 0 88.3207,13.1178 73.840496,73.840496 0 0 0 35.7385,-84.5601 l -135.7013,-493.4708 a 31.013007,31.013007 0 0 1 7.7062,-29.0693 29.536197,29.536197 0 0 1 28.9553,-7.451 l 457.9371,131.7602 a 73.840496,73.840496 0 0 0 89.072,-96.6711 l -168.7261,-445.6451 a 29.536197,29.536197 0 0 1 5.0608,-29.4671 31.751413,31.751413 0 0 1 28.3088,-10.0183 l 502.9392,94.9022 a 73.840496,73.840496 0 0 0 81.3594,-42.528 73.840496,73.840496 0 0 0 -20.2885,-86.954 l -701.6889,-546.1118 a 73.840496,73.840496 0 0 0 -99.9701,8.2473 z"
         id="path6"
         style="fill:#ffc107;stroke-width:73.8404;fill-opacity:1" />
    </g>
  </g>
</svg>
