<?xml version="1.0" encoding="UTF-8" standalone="no"?>
<svg
   version="1.1"
   viewBox="-301.2 -3238.025 191.52559 91.89009"
   id="svg146"
   sodipodi:docname="logo.svg"
   width="191.52559"
   height="91.890091"
   inkscape:version="1.1 (c68e22c387, 2021-05-23)"
   xmlns:inkscape="http://www.inkscape.org/namespaces/inkscape"
   xmlns:sodipodi="http://sodipodi.sourceforge.net/DTD/sodipodi-0.dtd"
   xmlns="http://www.w3.org/2000/svg"
   xmlns:svg="http://www.w3.org/2000/svg">
  <sodipodi:namedview
     id="namedview148"
     pagecolor="#7c7c7c"
     bordercolor="#ffffff"
     borderopacity="1"
     inkscape:pageshadow="2"
     inkscape:pageopacity="0"
     inkscape:pagecheckerboard="0"
     showgrid="false"
     fit-margin-top="0"
     fit-margin-left="0"
     fit-margin-right="0"
     fit-margin-bottom="0"
     inkscape:zoom="2.56"
     inkscape:cx="40.234375"
     inkscape:cy="56.835938"
     inkscape:window-width="1920"
     inkscape:window-height="1013"
     inkscape:window-x="-9"
     inkscape:window-y="-9"
     inkscape:window-maximized="1"
     inkscape:current-layer="g142"
     lock-margins="true" />
  <desc
     id="desc2">Created with Snap</desc>
  <defs
     id="defs4" />
  <rect
     x="-8948.8594"
     y="-5786.3867"
     width="10000"
     height="4815.5107"
     fill="#37393a"
     id="rect6"
     style="fill:#37393a;fill-opacity:0;stroke-width:1.3543" />
  <g
     id="g142"
     transform="matrix(1.3542979,0,0,1.3542979,-8540.9443,-2844.0244)">
    <g
       transform="matrix(0.00960565,0.02170269,0.02170269,-0.00960565,6151.9215,-381.7979)"
       id="g140" />
    <text
       xml:space="preserve"
       style="font-style:normal;font-weight:normal;font-size:29.5356px;line-height:1.25;font-family:sans-serif;fill:#000000;fill-opacity:1;stroke:none;stroke-width:0.73839"
       x="263.3497"
       y="14.023318"
       id="text24481"><tspan
         sodipodi:role="line"
         id="tspan24479"
         style="stroke-width:0.73839"
         x="263.3497"
         y="14.023318" /></text>
    <path
       class="cls-1"
       d="m 6208.9788,-253.23663 -14.1469,-10.34377 a 1.7525254,1.7525254 0 0 1 2.0688,-2.82939 l 12.8451,9.39192 8.0605,-9.30311 -4.5692,1.82599 a 4.1884452,4.1884452 0 0 1 -5.7065,-4.60652 l 1.3086,-7.72716 -6.9673,3.58973 a 4.1884452,4.1884452 0 0 1 -6.1202,-4.04081 l 0.3821,-4.88746 -6.4196,10.5029 1.5279,1.11715 a 1.7525254,1.7525254 0 0 1 -2.0688,2.82939 l -2.8297,-2.069 a 1.7524876,1.7524876 0 0 1 -0.4633,-2.33602 l 10.9985,-18.00992 a 1.7524876,1.7524876 0 0 1 1.9961,-0.7115 1.7524876,1.7524876 0 0 1 1.2209,1.80458 l -0.8909,12.1138 a 0.73604475,0.73604475 0 0 0 0.3131,0.64141 0.70099499,0.70099499 0 0 0 0.7085,0.0404 l 10.0567,-5.17327 a 1.7524876,1.7524876 0 0 1 2.5184,1.84136 l -1.8797,11.15206 a 0.70099499,0.70099499 0 0 0 0.2533,0.66284 0.75356965,0.75356965 0 0 0 0.7052,0.10312 l 11.274,-4.52197 a 1.7524876,1.7524876 0 0 1 2.0899,0.61616 1.7524876,1.7524876 0 0 1 -0.073,2.1179 l -13.8273,15.94163 a 1.7524876,1.7524876 0 0 1 -2.3656,0.26759 z"
       id="path6"
       style="fill:#ffc107;fill-opacity:1;stroke-width:1.75249" />
    <path
       style="fill:none;stroke:#000000;stroke-width:1.26584;stroke-linecap:butt;stroke-linejoin:miter;stroke-miterlimit:4;stroke-dasharray:none;stroke-opacity:1"
       d="m 6084.2229,-255.7042 c 46.7476,5.82417 -7.4391,17.75396 24.7798,16.24947 32.2191,-1.50446 30.1849,7.11975 30.1849,7.11975"
       id="path32017" />
    <g
       id="g53689"
       transform="translate(5.4888264)">
      <text
         xml:space="preserve"
         style="font-size:17.7214px;line-height:1.25;font-family:'Open Sans';-inkscape-font-specification:'Open Sans, @wght=700';font-variant-ligatures:none;font-variation-settings:'wght' 700;stroke-width:0.73839"
         x="6079.2256"
         y="-258.03314"
         id="text1580"><tspan
           sodipodi:role="line"
           style="font-style:normal;font-variant:normal;font-weight:normal;font-stretch:normal;font-size:28.5511px;font-family:'Open Sans';-inkscape-font-specification:'Open Sans, @wght=700,wdth=75.0';font-variant-ligatures:none;font-variant-caps:normal;font-variant-numeric:normal;font-variant-east-asian:normal;font-feature-settings:'ss01';font-variation-settings:'wdth' 75, 'wght' 700;stroke-width:0.73839"
           x="6079.2256"
           y="-258.03314"
           id="tspan3716">Tomislav</tspan><tspan
           sodipodi:role="line"
           style="font-style:normal;font-variant:normal;font-weight:normal;font-stretch:normal;font-size:28.5511px;font-family:'Open Sans';-inkscape-font-specification:'Open Sans, @wght=700,wdth=75.0';font-variant-ligatures:none;font-variant-caps:normal;font-variant-numeric:normal;font-variant-east-asian:normal;font-feature-settings:'ss01';font-variation-settings:'wdth' 75, 'wght' 700;stroke-width:0.73839"
           x="6079.2256"
           y="-232.19788"
           id="tspan28910" /></text>
      <text
         xml:space="preserve"
         style="font-size:17.7214px;line-height:1.25;font-family:'Open Sans';-inkscape-font-specification:'Open Sans, @wght=700';font-variant-ligatures:none;font-variation-settings:'wght' 700;stroke-width:0.73839"
         x="6132.3833"
         y="-234.14087"
         id="text32808"><tspan
           sodipodi:role="line"
           id="tspan32806"
           style="font-style:normal;font-variant:normal;font-weight:normal;font-stretch:normal;font-size:28.5511px;font-family:'Open Sans';-inkscape-font-specification:'Open Sans, @wght=700,wdth=75.0';font-variant-ligatures:none;font-variant-caps:normal;font-variant-numeric:normal;font-variant-east-asian:normal;font-variation-settings:'wdth' 75, 'wght' 700;stroke-width:0.73839"
           x="6132.3833"
           y="-234.14087">Guides</tspan></text>
    </g>
    <text
       xml:space="preserve"
       style="font-size:17.7214px;line-height:1.25;font-family:'Open Sans';-inkscape-font-specification:'Open Sans, @wght=700';font-variant-ligatures:none;font-variation-settings:'wght' 700;stroke-width:0.73839"
       x="6088.4131"
       y="-224.50598"
       id="text38583"><tspan
         sodipodi:role="line"
         id="tspan38581"
         style="font-style:normal;font-variant:normal;font-weight:normal;font-stretch:normal;font-size:7.87616px;font-family:'Open Sans';-inkscape-font-specification:'Open Sans, @wght=300,wdth=75.0';font-variant-ligatures:none;font-variant-caps:normal;font-variant-numeric:normal;font-variant-east-asian:normal;font-variation-settings:'wdth' 75, 'wght' 300;stroke-width:0.73839"
         x="6088.4131"
         y="-224.50598">U  P  O  Z  N  A  J       T  O  M  I  S  L  A  V  G  R  A  D</tspan></text>
  </g>
</svg>
