<svg version="1.1" xmlns="http://www.w3.org/2000/svg" viewBox="-1598.2462922280897 -5224.769685453407 9562.699847157344 9563.603953270784"><desc>Created with Snap</desc><defs></defs><g><g transform="matrix(23.1451,0,0,23.1451,-1445.9197,-5071.991)">
<g id="gSkui2vvv3f">
	<g>
		<path fill="#f0dd7a" d="M82.06866,46.80432c0.44048,0.09728,1.81986-0.49205,3.98136-1.64856
			c2.20975-1.09238,5.2579-2.67703,8.94401-4.68989c7.51703-3.80428,17.93356-8.86331,30.43024-13.1756
			c12.47414-4.32378,26.96772-7.99401,42.01273-9.6109c1.87662-0.19844,3.75923-0.39779,5.64507-0.59735
			c1.88943-0.14902,3.78758-0.23685,5.67796-0.35662c3.77602-0.30159,7.57491-0.23849,11.32912-0.3126
			c1.87773-0.03781,3.75569,0.09517,5.61867,0.13513c1.86383,0.08778,3.71739,0.06724,5.55797,0.24432
			c3.67995,0.31842,7.31462,0.49835,10.86098,1.02225c-24.46938,0.31527-45.84834,5.87472-62.983,13.23676
			c-8.58604,3.71305-16.09875,8.00225-22.67894,12.26207c-3.22648,2.26534-6.32965,4.31355-9.06628,6.60401
			c-1.37437,1.11085-2.71513,2.19456-4.02266,3.25142c-1.23869,1.13261-2.44566,2.23617-3.62017,3.31003
			c-9.26917,8.664-14.87678,16.66336-17.84011,22.57063c-2.84336,6.059-3.17654,9.94636-1.23619,11.60844
			c12.396-15.45393,28.45402-29.09509,47.43205-39.08565c18.9328-10.01645,40.72635-16.36285,63.47681-17.78591
			c22.73022-1.48197,46.37234,1.87225,68.61374,10.25464c11.11929,4.17942,21.8819,9.59661,32.00284,16.15094
			c10.12143,6.55412,19.58212,14.25672,28.18671,22.87717c17.22528,17.23357,30.80743,38.36257,39.42282,61.36801
			c8.65921,22.994,12.38708,47.78455,11.09464,72.0957c-1.24237,24.32739-7.58545,48.12822-18.00375,69.4503
			c-10.38284,21.37689-24.93945,40.10056-41.69687,55.30795c-8.38907,7.61682-17.36337,14.36597-26.70444,20.18491
			c-9.34406,5.82074-19.09393,10.61557-28.94733,14.54181c-9.86093,3.9166-19.85266,6.91727-29.78415,9.08392
			c-9.94624,2.10358-19.82362,3.32999-29.4743,3.85846c-9.65497,0.57462-19.08638,0.22992-28.16501-0.64651
			c-1.13516-0.11664-2.26575-0.23282-3.39136-0.34888c-1.12697-0.11121-2.24884-0.22696-3.3564-0.41266
			c-2.22144-0.33698-4.42419-0.67114-6.60777-1.00272c-2.18347-0.34042-4.3194-0.83633-6.45241-1.24716
			c-1.0649-0.21622-2.12482-0.43161-3.18013-0.64587c-1.05194-0.22882-2.08591-0.51355-3.12253-0.76712
			c-2.06961-0.52557-4.12024-1.04596-6.15103-1.56174c-2.00519-0.61169-3.99089-1.21768-5.95718-1.81741
			c-0.98251-0.30374-1.9601-0.60596-2.93306-0.90634c-0.95847-0.3439-1.91188-0.68619-2.86023-1.02689
			c-1.89658-0.68607-3.77393-1.36462-5.63077-2.03653c-7.32208-2.95859-14.25258-6.03729-20.57684-9.50757
			c-12.72123-6.81235-23.36193-14.39328-32.06516-21.69196c-2.17656-1.82785-4.29309-3.57358-6.18667-5.40707
			c-1.91791-1.80673-3.80501-3.49908-5.5228-5.21066c-3.36911-3.48929-6.50893-6.61322-9.06343-9.67181
			c-1.30597-1.50275-2.53819-2.92072-3.69509-4.25165c-1.09204-1.3862-2.11286-2.68185-3.06096-3.88477
			c-0.945-1.20602-1.81723-2.31924-2.61518-3.33749c-0.77715-1.03403-1.43549-2.00656-2.04808-2.85944
			c-2.41859-3.43576-3.70066-5.25714-3.74636-5.32217c-5.46113-8.26123-10.29185-16.883-14.46608-25.78323
			c-4.16677-8.90799-7.4951-18.15073-10.23626-27.52586c-2.76757-9.37598-4.63573-18.97604-5.88218-28.62491
			c-0.68911-4.82196-0.98716-9.67961-1.33614-14.5295l-0.20802-7.29013c-0.05188-1.21474-0.04251-2.42969-0.00855-3.6449
			l0.07005-3.64503c0.42722-19.44357,3.96095-38.7907,10.20834-57.30516c3.20473-9.23248,7.07828-18.25121,11.59234-26.98227
			c4.59464-8.69124,9.87891-17.03811,15.72216-25.0221c0.69774-0.90845,2.08265-2.71173,3.77679-4.91772
			c0.42325-0.55247,0.86528-1.12967,1.32112-1.72482c0.48035-0.5741,0.97521-1.16545,1.47757-1.76587
			c1.00593-1.20171,2.04324-2.44109,3.06269-3.65897c1.98835-2.48425,4.12689-4.67604,5.64749-6.44722
			c1.54144-1.75171,2.56507-2.98889,2.63037-3.26817l-0.00708,0.00397c-17.48207,17.50659-31.66323,38.43564-41.30956,61.28998
			c-9.67891,22.84109-14.85973,47.53831-15.24643,72.3043c-0.40845,24.76634,3.97346,49.61223,12.90819,72.75127
			c8.90224,23.14932,22.40002,44.53232,39.34857,62.56775c16.89465,18.05338,37.32344,32.93442,59.85665,43.33493
			c22.51597,10.43509,47.04972,16.40039,71.79456,17.58765c24.74609,1.20511,49.72084-2.37305,73.14037-10.55167
			c23.42676-8.14722,45.24942-20.94238,63.81384-37.33554c18.55795-16.34717,34.06335-36.25995,45.19333-58.44409
			c11.15619-22.16071,17.92752-46.4855,19.90485-71.17728c1.99942-24.6918-0.77719-49.75745-8.18207-73.42302
			c-7.37558-23.67151-19.42508-45.90224-35.18915-65.02438c-15.71448-19.13124-35.16812-35.17571-56.96564-47.04198
			c-21.789-11.86739-45.88651-19.42662-70.50345-22.19782c-24.61627-2.79403-49.7552-0.82467-73.64371,5.80912
			c-23.89274,6.60539-46.50471,17.92143-66.11643,33.08085L82.06866,46.80432z" style=""></path>
	</g>
</g>


<desc>Created with Snap</desc><defs></defs></g><g><g transform="matrix(1.024,0,0,-1.024,0,0)"><path d="M157 0L299 662L287 662Q198 662 148 617Q99 573 99 460Q99 423 106 408Q113 394 113 392Q59 392 32 414Q6 437 6 489Q6 560 41 618Q76 677 152 713Q229 749 347 749Q413 749 489 737Q553 726 603 726Q667 726 719 747Q717 682 686 651Q655 620 594 620Q562 620 530 625Q498 630 439 642L301 0L157 0ZM627 -4Q553 -4 510 34Q467 72 467 154Q467 222 495 305Q523 388 585 448Q647 509 741 509Q869 509 869 349L869 348Q872 347 880 347Q913 347 956 364Q999 382 1034 407L1043 380Q1014 349 967 327Q921 306 866 297Q858 206 825 138Q792 70 740 33Q688 -4 627 -4ZM667 86Q691 86 715 113Q739 141 757 188Q775 236 783 294Q756 300 756 336Q756 377 787 390Q785 423 777 435Q769 448 749 448Q716 448 685 400Q654 352 635 285Q616 218 616 167Q616 119 627 102Q638 86 667 86ZM1528 -6Q1467 -6 1438 26Q1410 59 1410 107Q1410 128 1415 154Q1420 181 1425 206Q1431 231 1433 238Q1441 273 1448 307Q1455 341 1455 362Q1455 413 1419 413Q1393 413 1373 387Q1353 362 1341 321L1273 0L1129 0L1202 345Q1205 357 1205 370Q1205 414 1175 414Q1147 414 1126 388Q1106 363 1094 321L1026 0L882 0L988 500L1132 500L1121 448Q1172 505 1243 505Q1331 505 1346 419Q1401 504 1485 504Q1536 504 1566 476Q1596 448 1596 391Q1596 362 1589 326Q1582 291 1569 240Q1561 209 1554 179Q1548 150 1548 133Q1548 113 1557 102Q1566 91 1588 91Q1618 91 1636 112Q1654 134 1672 179L1714 179Q1677 69 1628 31Q1580 -6 1528 -6ZM1839 554Q1806 554 1783 577Q1760 600 1760 633Q1760 666 1783 689Q1806 713 1839 713Q1872 713 1895 689Q1919 666 1919 633Q1919 600 1895 577Q1872 554 1839 554ZM1771 -6Q1723 -6 1693 24Q1664 54 1664 114Q1664 139 1672 179L1740 500L1884 500L1812 160Q1808 145 1808 128Q1808 108 1817 99Q1827 91 1849 91Q1878 91 1903 115Q1928 140 1939 179L1981 179Q1944 71 1886 32Q1828 -6 1771 -6ZM2053 -6Q2005 -6 1972 12Q1939 31 1923 60Q1907 90 1907 122Q1907 155 1922 179Q1938 204 1960 215Q1999 285 2028 356Q2057 428 2083 511L2231 531Q2236 403 2248 254Q2253 194 2253 167Q2253 144 2249 129Q2296 156 2321 179L2363 179Q2299 105 2210 54Q2181 23 2138 8Q2096 -6 2053 -6ZM2021 73Q2058 73 2083 95Q2108 117 2108 166Q2108 196 2102 250Q2092 364 2089 403Q2065 324 2008 214Q2031 202 2031 179Q2031 160 2018 145Q2006 130 1987 130Q1966 130 1960 143Q1960 107 1974 90Q1989 73 2021 73ZM2420 -6Q2372 -6 2342 24Q2313 54 2313 114Q2313 139 2321 179L2428 680L2576 700L2461 160Q2457 145 2457 128Q2457 108 2466 99Q2476 91 2498 91Q2527 91 2552 115Q2577 140 2588 179L2630 179Q2593 71 2535 32Q2477 -6 2420 -6ZM2708 -6Q2651 -6 2613 33Q2575 72 2575 155Q2575 229 2604 310Q2634 392 2692 448Q2751 505 2832 505Q2873 505 2893 491Q2913 477 2913 454L2913 447L2924 500L3068 500L2996 160Q2992 145 2992 128Q2992 85 3033 85Q3061 85 3081 111Q3102 137 3114 179L3156 179Q3119 71 3064 32Q3010 -6 2955 -6Q2913 -6 2887 17Q2862 41 2857 86Q2828 45 2792 19Q2757 -6 2708 -6ZM2773 91Q2798 91 2822 114Q2847 138 2856 179L2904 405Q2904 418 2894 430Q2884 443 2863 443Q2823 443 2791 396Q2759 350 2741 284Q2723 219 2723 169Q2723 119 2737 105Q2752 91 2773 91ZM3228 -6Q3170 -6 3137 23Q3105 53 3105 112Q3105 136 3110 160L3182 500L3326 500L3254 160Q3249 135 3249 124Q3249 91 3283 91Q3329 91 3368 149Q3408 207 3432 287Q3456 367 3456 425Q3454 420 3443 417Q3432 415 3424 415Q3407 415 3397 431Q3388 447 3388 466Q3388 490 3403 505Q3419 520 3450 520Q3483 520 3498 495Q3513 471 3513 433Q3513 343 3482 240Q3451 138 3387 66Q3323 -6 3228 -6ZM3759 -207Q3686 -207 3641 -170Q3597 -132 3597 -71Q3597 -33 3615 -1Q3633 31 3664 49Q3695 68 3732 68Q3770 68 3793 49Q3817 30 3817 -1Q3817 -25 3806 -39Q3797 -27 3781 -20Q3766 -13 3749 -13Q3719 -13 3700 -33Q3681 -53 3681 -85Q3681 -117 3699 -137Q3718 -157 3746 -157Q3781 -157 3806 -126Q3831 -95 3844 -34L3894 187L3890 187Q3863 149 3824 129Q3786 109 3740 109Q3682 109 3638 140Q3594 171 3570 228Q3547 286 3547 362Q3547 472 3595 562Q3643 653 3727 705Q3811 757 3912 757Q3997 757 4046 720Q4096 683 4096 619Q4096 576 4075 550Q4054 524 4020 524Q4001 524 3984 532Q3968 540 3957 555Q3975 567 3987 593Q4000 620 4000 647Q4000 677 3982 693Q3965 710 3933 710Q3875 710 3821 658Q3767 607 3734 524Q3701 441 3701 350Q3701 275 3725 235Q3749 196 3794 196Q3848 196 3889 253Q3931 310 3956 419L4074 418L4001 82Q3969 -67 3910 -137Q3852 -207 3759 -207ZM4205 -6Q4157 -6 4127 24Q4098 54 4098 114Q4098 139 4106 179L4174 500L4318 500L4246 160Q4243 145 4243 132Q4243 91 4273 91Q4301 91 4321 114Q4341 138 4353 179L4421 500L4565 500L4493 160Q4489 145 4489 128Q4489 108 4498 99Q4508 91 4530 91Q4558 91 4578 115Q4599 139 4611 179L4653 179Q4616 71 4561 32Q4507 -6 4452 -6Q4409 -6 4383 18Q4358 42 4353 89Q4319 34 4281 14Q4244 -6 4205 -6ZM4778 554Q4745 554 4722 577Q4699 600 4699 633Q4699 666 4722 689Q4745 713 4778 713Q4811 713 4834 689Q4858 666 4858 633Q4858 600 4834 577Q4811 554 4778 554ZM4710 -6Q4662 -6 4632 24Q4603 54 4603 114Q4603 139 4611 179L4679 500L4823 500L4751 160Q4747 145 4747 128Q4747 108 4756 99Q4766 91 4788 91Q4817 91 4842 115Q4867 140 4878 179L4920 179Q4883 71 4825 32Q4767 -6 4710 -6ZM4998 -6Q4941 -6 4903 33Q4865 72 4865 155Q4865 229 4894 310Q4924 392 4982 448Q5041 505 5122 505Q5163 505 5183 491Q5203 477 5203 454L5203 450L5252 680L5400 700L5285 160Q5281 145 5281 128Q5281 108 5290 99Q5300 91 5322 91Q5350 91 5370 115Q5391 139 5403 179L5445 179Q5384 0 5244 0Q5203 0 5177 22Q5152 44 5146 86Q5120 46 5083 20Q5047 -6 4998 -6ZM5063 91Q5087 91 5111 113Q5136 135 5145 174L5145 179L5194 408Q5185 443 5153 443Q5113 443 5081 396Q5049 350 5031 284Q5013 219 5013 169Q5013 119 5027 105Q5042 91 5063 91ZM5546 -6Q5472 -6 5431 32Q5390 71 5390 153Q5390 222 5417 305Q5444 388 5505 448Q5566 509 5660 509Q5770 509 5770 413Q5770 357 5738 310Q5706 263 5653 234Q5600 206 5540 202Q5538 172 5538 162Q5538 113 5555 95Q5572 78 5610 78Q5664 78 5702 103Q5741 128 5787 179L5821 179Q5710 -6 5546 -6ZM5548 250Q5585 252 5618 276Q5652 300 5672 337Q5693 374 5693 415Q5693 456 5668 456Q5632 456 5597 393Q5563 330 5548 250ZM5901 -6Q5853 -6 5820 12Q5787 31 5771 60Q5755 90 5755 122Q5755 155 5770 179Q5786 204 5808 215Q5847 285 5876 356Q5905 428 5931 511L6079 531Q6084 403 6096 254Q6101 194 6101 167Q6101 144 6097 129Q6144 156 6169 179L6211 179Q6147 105 6058 54Q6029 23 5986 8Q5944 -6 5901 -6ZM5869 73Q5906 73 5931 95Q5956 117 5956 166Q5956 196 5950 250Q5940 364 5937 403Q5913 324 5856 214Q5879 202 5879 179Q5879 160 5866 145Q5854 130 5835 130Q5814 130 5808 143Q5808 107 5822 90Q5837 73 5869 73Z" style="" fill="#832161"></path></g></g></g></svg>