<?xml version="1.0" encoding="UTF-8" standalone="no"?>
<svg
   data-name="Layer 1"
   width="744.71936"
   height="600"
   viewBox="0 0 744.71936 600.00002"
   version="1.1"
   id="svg124"
   sodipodi:docname="business.svg"
   inkscape:version="1.2 (dc2aedaf03, 2022-05-15)"
   xmlns:inkscape="http://www.inkscape.org/namespaces/inkscape"
   xmlns:sodipodi="http://sodipodi.sourceforge.net/DTD/sodipodi-0.dtd"
   xmlns="http://www.w3.org/2000/svg"
   xmlns:svg="http://www.w3.org/2000/svg"
   xmlns:rdf="http://www.w3.org/1999/02/22-rdf-syntax-ns#"
   xmlns:cc="http://creativecommons.org/ns#"
   xmlns:dc="http://purl.org/dc/elements/1.1/">
  <defs
     id="defs128" />
  <sodipodi:namedview
     id="namedview126"
     pagecolor="#ffffff"
     bordercolor="#666666"
     borderopacity="1.0"
     inkscape:pageshadow="2"
     inkscape:pageopacity="0.0"
     inkscape:pagecheckerboard="0"
     showgrid="false"
     fit-margin-top="40"
     fit-margin-left="100"
     fit-margin-right="100"
     fit-margin-bottom="0"
     inkscape:zoom="0.7713403"
     inkscape:cx="412.2694"
     inkscape:cy="339.02027"
     inkscape:window-width="1920"
     inkscape:window-height="991"
     inkscape:window-x="-9"
     inkscape:window-y="-9"
     inkscape:window-maximized="1"
     inkscape:current-layer="svg124"
     inkscape:showpageshadow="2"
     inkscape:deskcolor="#d1d1d1" />
  <title
     id="title2">business_shop</title>
  <ellipse
     cx="376.78201"
     cy="571.25488"
     rx="367.93735"
     ry="28.745106"
     fill="#3f3d56"
     id="ellipse4"
     style="stroke-width:0.884465" />
  <polygon
     points="779.369,585.5 783.268,614.093 755.975,616.692 759.874,581.601 "
     fill="#a0616a"
     id="polygon6"
     style="fill:#ffb8b8;fill-opacity:1"
     transform="matrix(0.88446481,0,0,0.88446481,7.6293945e-6,-1.0043124e-8)" />
  <path
     d="m 575.52259,170.70228 c 0,0 2.29902,31.03676 2.29902,32.18629 0,1.14953 -16.09314,80.46573 -16.09314,80.46573 0,0 -22.99021,43.68139 0,42.53188 22.99021,-1.14951 16.09314,-41.38234 16.09314,-41.38234 l 24.1397,-66.67159 -10.34559,-47.12993 z"
     fill="#a0616a"
     id="path8"
     style="stroke-width:0.884465" />
  <polygon
     points="693.591,585.5 689.692,614.093 716.985,616.692 713.086,581.601 "
     fill="#a0616a"
     id="polygon10"
     style="fill:#ffb8b8;fill-opacity:1"
     transform="matrix(0.88446481,0,0,0.88446481,7.6293945e-6,-1.0043124e-8)" />
  <path
     d="m 587.0177,281.05528 -5.74755,8.04657 c 0,0 -3.44853,34.48529 0,45.98041 3.44853,11.49512 10.34558,64.37259 10.34558,67.82111 0,3.44853 1.14951,5.74756 0,6.89706 -1.1495,1.14951 -4.59804,1.14951 -2.29902,3.44853 2.29901,2.29902 2.29902,9.19608 2.29902,9.19608 v 5.74754 l 14.94364,85.06377 c 0,0 -9.19608,10.34559 -2.29903,10.34559 6.89706,0 32.1863,0 31.03676,-11.4951 l -2.29902,-1.14951 c 0,0 -3.44853,-75.86769 -2.29902,-79.31622 1.1495,-3.44852 0,-10.34558 0,-10.34558 0,0 -2.29903,-3.44853 0,-4.59805 2.29902,-1.14952 2.29902,-10.34559 2.29902,-10.34559 l 10.34559,-70.12014 c 0,0 9.19608,47.12993 14.94363,51.72797 5.74755,4.59804 4.59804,16.09315 4.59804,16.09315 l 4.59804,101.15691 c 0,0 -4.59804,11.49511 0,13.79411 4.59804,2.29901 24.1397,10.34559 25.28923,-1.1495 1.14953,-11.49509 6.89706,-111.5025 6.89706,-116.10055 0,-4.59805 -1.14951,-6.89706 0,-10.34559 1.1495,-3.44853 -1.14951,-3.44853 0,-3.44853 1.1495,0 -2.29902,-3.44853 -2.29902,-5.74755 v -56.32599 c 0,0 1.14951,-11.4951 2.29902,-13.79411 1.1495,-2.29902 -1.14951,-4.59805 0,-8.04657 1.1495,-3.44853 -2.29902,-14.94364 -2.29902,-14.94364 l -51.72792,-13.79411 z"
     fill="#2f2e41"
     id="path12"
     style="stroke-width:0.884465" />
  <path
     d="m 627.25056,538.54561 c 0,0 5.74756,-5.74756 -2.29902,-5.74756 a 37.415948,37.415948 0 0 0 -14.94364,3.44853 l -5.74755,20.69117 c 0,0 -23.56497,18.96694 2.87378,16.66792 26.43875,-2.29903 22.41545,-0.57476 22.41545,-0.57476 0,0 8.04658,-2.29902 9.19608,-4.59804 1.1495,-2.29901 -2.29902,-35.63482 -2.29902,-35.63482 0,0 -3.44852,9.19608 -9.19608,5.74756 z"
     fill="#2f2e41"
     id="path14"
     style="stroke-width:0.884465" />
  <path
     d="m 676.67951,538.54561 c 0,0 -5.74756,-5.74756 2.29902,-5.74756 a 37.415948,37.415948 0 0 1 14.94364,3.44853 l 5.74754,20.69117 c 0,0 23.56496,18.96692 -2.87377,16.6679 -26.43873,-2.29903 -25.86399,-0.57475 -25.86399,-0.57475 0,0 -8.04657,-2.29903 -9.19608,-4.59804 -1.14951,-2.29902 5.74756,-35.63483 5.74756,-35.63483 0,0 3.44852,9.1961 9.19608,5.74758 z"
     fill="#2f2e41"
     id="path16"
     style="stroke-width:0.884465" />
  <circle
     cx="601.9613"
     cy="50.003677"
     r="29.887268"
     fill="#a0616a"
     id="circle18"
     style="fill:#ffb8b8;fill-opacity:1;stroke-width:0.884465" />
  <path
     d="m 591.61574,71.84436 c 0,0 4.59804,22.99021 4.59804,26.43874 0,3.44853 19.54168,13.79411 19.54168,13.79411 l 21.8407,-27.58822 c 0,0 -13.79412,-19.54168 -13.79412,-24.1397 z"
     fill="#a0616a"
     id="path20"
     style="fill:#ffb8b8;fill-opacity:1;stroke-width:0.884465" />
  <path
     d="m 608.85839,101.73165 c 0,0 -10.01885,-2.66666 -13.056,-7.08087 0,0 -31.7749,31.2206 -31.7749,36.96814 l 25.28923,44.83092 c 0,0 0,16.09313 2.29902,17.24264 2.29903,1.1495 0,0 0,4.59804 0,4.59804 -6.89706,34.48528 -4.59804,39.08336 2.29902,4.59807 4.59804,1.1495 2.29902,8.04657 -2.29903,6.89706 -8.04657,43.68139 -8.04657,43.68139 0,0 20.69117,-6.89705 50.57845,4.59805 29.88729,11.49509 65.52209,-4.59805 65.52209,-4.59805 0,0 -9.19608,-20.69117 -6.89705,-27.58822 2.29902,-6.89706 -5.74756,-19.54168 -5.74756,-19.54168 l -5.74754,-105.75495 c 0,0 8.04657,-47.12993 2.29902,-49.42895 l -11.49512,-4.5981 -36.8119,-4.52433 c 0,0 -9.16851,22.91654 -24.11215,24.06604 z"
     fill="#d0cde1"
     id="path22"
     style="stroke-width:0.884465" />
  <path
     d="m 575.52259,123.57235 -11.4951,8.04657 c 0,0 -5.74755,17.24264 0,25.28923 5.74755,8.04659 8.04658,19.54169 8.04658,19.54169 l 22.9902,-2.29903 z"
     fill="#d0cde1"
     id="path24"
     style="stroke-width:0.884465" />
  <path
     d="m 579.14256,18.41797 -5.18432,-2.075511 c 0,0 10.8399,-11.934084 25.92161,-10.896315 l -4.24182,-4.66993001 c 0,0 10.36864,-4.15095299 19.79465,6.74536201 4.95506,5.727971 10.68814,12.46088 14.26212,20.045431 h 5.55205 l -2.31722,5.102256 8.11026,5.102248 -8.32439,-0.9165 a 28.233001,28.233001 0 0 1 -0.78735,13.214269 l 0.22313,4.03282 c 0,0 -9.64913,-14.92922 -9.64913,-17.004719 v 5.188749 c 0,0 -5.18432,-4.669852 -5.18432,-7.783088 l -2.82779,3.632138 -1.41389,-5.70765 -17.43811,5.70765 2.82778,-4.669854 -10.83989,1.556658 4.24182,-5.707646 c 0,0 -12.25379,6.745371 -12.72518,12.453022 -0.47125,5.70756 -6.59811,12.97182 -6.59811,12.97182 l -2.82778,-5.18875 c 0,0 -4.2418,-23.349373 9.42588,-31.13246 z"
     fill="#2f2e41"
     id="path26"
     style="stroke-width:0.884465" />
  <rect
     x="129.28146"
     y="250.15497"
     width="456.79315"
     height="320.88229"
     fill="#f2f2f2"
     id="rect28"
     style="stroke-width:0.884465" />
  <rect
     x="167.73428"
     y="372.58621"
     width="114.69553"
     height="200.21994"
     fill="#3f3d56"
     id="rect30"
     style="stroke-width:0.884465" />
  <rect
     x="188.94965"
     y="384.59766"
     width="30.895824"
     height="28.801191"
     fill="#f2f2f2"
     id="rect32"
     style="stroke-width:0.884465" />
  <rect
     x="230.31866"
     y="384.59766"
     width="30.895824"
     height="28.801191"
     fill="#f2f2f2"
     id="rect34"
     style="stroke-width:0.884465" />
  <rect
     x="188.94965"
     y="423.87201"
     width="30.895824"
     height="29.848511"
     fill="#f2f2f2"
     id="rect36"
     style="stroke-width:0.884465" />
  <rect
     x="230.31866"
     y="423.87201"
     width="30.895824"
     height="29.848511"
     fill="#f2f2f2"
     id="rect38"
     style="stroke-width:0.884465" />
  <circle
     cx="267.84427"
     cy="486.17578"
     r="7.2927752"
     fill="#ffc306"
     id="circle40"
     style="stroke-width:0.884465" />
  <rect
     x="320.88266"
     y="353.5798"
     width="226.73915"
     height="190.27522"
     fill="#3f3d56"
     id="rect42"
     style="stroke-width:0.884465" />
  <polygon
     points="155.337,219.117 164.654,199.628 175.455,177.051 667.407,177.051 673.786,199.628 679.295,219.117 686.499,244.603 692.008,264.092 716.602,351.134 92.199,351.134 133.831,264.092 143.148,244.603 "
     fill="#3f3d56"
     id="polygon44"
     transform="matrix(0.88446481,0,0,0.88446481,7.6293945e-6,-1.0043124e-8)" />
  <rect
     x="328.83841"
     y="432.47443"
     width="7.955761"
     height="49.060513"
     fill="#ffc306"
     id="rect46"
     style="stroke-width:0.884465" />
  <rect
     x="328.83841"
     y="439.76718"
     width="7.955761"
     height="5.9668207"
     fill="#f2f2f2"
     id="rect48"
     style="stroke-width:0.884465" />
  <rect
     x="328.83841"
     y="468.27539"
     width="7.955761"
     height="5.9668207"
     fill="#f2f2f2"
     id="rect50"
     style="stroke-width:0.884465" />
  <rect
     x="340.77206"
     y="432.47443"
     width="19.226416"
     height="49.060513"
     fill="#ffc306"
     id="rect52"
     style="stroke-width:0.884465" />
  <rect
     x="340.77206"
     y="439.76718"
     width="19.226416"
     height="5.9668207"
     fill="#f2f2f2"
     id="rect54"
     style="stroke-width:0.884465" />
  <rect
     x="340.77206"
     y="468.27539"
     width="19.226416"
     height="5.9668207"
     fill="#f2f2f2"
     id="rect56"
     style="stroke-width:0.884465" />
  <rect
     x="364.63931"
     y="432.47443"
     width="7.955761"
     height="49.060513"
     fill="#ffc306"
     id="rect58"
     style="stroke-width:0.884465" />
  <rect
     x="364.63931"
     y="439.76718"
     width="7.955761"
     height="5.9668207"
     fill="#f2f2f2"
     id="rect60"
     style="stroke-width:0.884465" />
  <rect
     x="364.63931"
     y="468.27539"
     width="7.955761"
     height="5.9668207"
     fill="#f2f2f2"
     id="rect62"
     style="stroke-width:0.884465" />
  <rect
     x="376.573"
     y="432.47443"
     width="7.955761"
     height="49.060513"
     fill="#ffc306"
     id="rect64"
     style="stroke-width:0.884465" />
  <rect
     x="376.573"
     y="439.76718"
     width="7.955761"
     height="5.9668207"
     fill="#f2f2f2"
     id="rect66"
     style="stroke-width:0.884465" />
  <rect
     x="376.573"
     y="468.27539"
     width="7.955761"
     height="5.9668207"
     fill="#f2f2f2"
     id="rect68"
     style="stroke-width:0.884465" />
  <rect
     x="206.42575"
     y="543.17755"
     width="7.955761"
     height="49.060513"
     transform="rotate(-20.65411)"
     fill="#ffc306"
     id="rect70"
     style="stroke-width:0.884465" />
  <rect
     x="206.42578"
     y="550.47034"
     width="7.955761"
     height="5.9668207"
     transform="rotate(-20.65411)"
     fill="#f2f2f2"
     id="rect72"
     style="stroke-width:0.884465" />
  <rect
     x="206.42572"
     y="578.97845"
     width="7.955761"
     height="5.9668207"
     transform="rotate(-20.65411)"
     fill="#f2f2f2"
     id="rect74"
     style="stroke-width:0.884465" />
  <rect
     x="521.1026"
     y="432.47443"
     width="19.226416"
     height="49.060513"
     fill="#ffc306"
     id="rect76"
     style="stroke-width:0.884465" />
  <rect
     x="521.1026"
     y="439.76718"
     width="19.226416"
     height="5.9668207"
     fill="#f2f2f2"
     id="rect78"
     style="stroke-width:0.884465" />
  <rect
     x="521.1026"
     y="468.27539"
     width="19.226416"
     height="5.9668207"
     fill="#f2f2f2"
     id="rect80"
     style="stroke-width:0.884465" />
  <rect
     x="508.50598"
     y="432.47443"
     width="7.955761"
     height="49.060513"
     fill="#ffc306"
     id="rect82"
     style="stroke-width:0.884465" />
  <rect
     x="508.50598"
     y="439.76718"
     width="7.955761"
     height="5.9668207"
     fill="#f2f2f2"
     id="rect84"
     style="stroke-width:0.884465" />
  <rect
     x="508.50598"
     y="468.27539"
     width="7.955761"
     height="5.9668207"
     fill="#f2f2f2"
     id="rect86"
     style="stroke-width:0.884465" />
  <rect
     x="496.57239"
     y="432.47443"
     width="7.955761"
     height="49.060513"
     fill="#ffc306"
     id="rect88"
     style="stroke-width:0.884465" />
  <rect
     x="496.57239"
     y="439.76718"
     width="7.955761"
     height="5.9668207"
     fill="#f2f2f2"
     id="rect90"
     style="stroke-width:0.884465" />
  <rect
     x="496.57239"
     y="468.27539"
     width="7.955761"
     height="5.9668207"
     fill="#f2f2f2"
     id="rect92"
     style="stroke-width:0.884465" />
  <rect
     x="-281.4512"
     y="610.08844"
     width="49.060513"
     height="7.955761"
     transform="rotate(-69.34589)"
     fill="#ffc306"
     id="rect94"
     style="stroke-width:0.884465" />
  <rect
     x="-245.65025"
     y="610.08844"
     width="5.9668207"
     height="7.955761"
     transform="rotate(-69.34589)"
     fill="#f2f2f2"
     id="rect96"
     style="stroke-width:0.884465" />
  <rect
     x="-274.15839"
     y="610.0885"
     width="5.9668207"
     height="7.955761"
     transform="rotate(-69.34589)"
     fill="#f2f2f2"
     id="rect98"
     style="stroke-width:0.884465" />
  <rect
     x="320.88266"
     y="481.53491"
     width="226.73915"
     height="4.6408572"
     fill="#f2f2f2"
     id="rect100"
     style="stroke-width:0.884465" />
  <rect
     x="419.66669"
     y="432.47443"
     width="41.767735"
     height="49.060513"
     fill="#ffc306"
     id="rect102"
     style="stroke-width:0.884465" />
  <rect
     x="429.94287"
     y="443.08209"
     width="21.215357"
     height="9.2817144"
     fill="#f2f2f2"
     id="rect104"
     style="stroke-width:0.884465" />
  <rect
     x="432.26331"
     y="353.5798"
     width="3.9778805"
     height="42.430714"
     fill="#f2f2f2"
     id="rect106"
     style="stroke-width:0.884465" />
  <circle
     cx="434.25226"
     cy="396.01053"
     r="6.6297979"
     fill="#f2f2f2"
     id="circle108"
     style="stroke-width:0.884465" />
  <polygon
     points="679.295,219.117 155.337,219.117 164.654,199.628 673.786,199.628 "
     fill="#ffc306"
     id="polygon110"
     transform="matrix(0.88446481,0,0,0.88446481,7.6293945e-6,-1.0043124e-8)" />
  <polygon
     points="692.008,264.092 133.831,264.092 143.148,244.603 686.499,244.603 "
     fill="#ffc306"
     id="polygon112"
     transform="matrix(0.88446481,0,0,0.88446481,7.6293945e-6,-1.0043124e-8)" />
  <path
     d="m 660.58636,133.91795 c 0,0 -6.65665,17.11705 -5.26617,34.05272 a 17.948542,17.948542 0 0 0 2.96714,8.47916 v 0 l -81.55136,38.71674 c 0,0 -36.8482,3.81511 -27.65212,19.90825 9.19609,16.09315 42.53189,-8.04656 42.53189,-8.04656 0,0 87.36279,-12.64462 94.25985,-25.28923 6.89705,-12.64461 11.4951,-65.52209 11.4951,-65.52209 z"
     fill="#a0616a"
     id="path114"
     style="fill:#ffb8b8;fill-opacity:1;stroke-width:0.884465" />
  <path
     d="m 664.03489,86.78802 h 17.24264 c 0,0 12.64462,2.29902 16.09315,25.28923 3.44852,22.9902 6.89705,28.73776 3.44852,28.73776 -3.44852,0 -44.83086,-1.14951 -44.83086,-2.29902 0,-1.14951 8.04655,-51.72797 8.04655,-51.72797 z"
     fill="#d0cde1"
     id="path116"
     style="stroke-width:0.884465" />
  <circle
     cx="88.44648"
     cy="341.7363"
     r="88.44648"
     fill="#ffc306"
     id="circle118"
     style="stroke-width:0.884465" />
  <circle
     cx="88.44648"
     cy="341.7363"
     r="76.063972"
     opacity="0.1"
     id="circle120"
     style="stroke-width:0.884465" />
  <metadata
     id="metadata945">
    <rdf:RDF>
      <cc:Work
         rdf:about="">
        <dc:title>business_shop</dc:title>
      </cc:Work>
    </rdf:RDF>
  </metadata>
</svg>
