<?xml version="1.0" encoding="UTF-8" standalone="no"?>
<svg
   data-name="Layer 1"
   width="950"
   height="840"
   viewBox="0 0 950 839.99999"
   version="1.1"
   id="svg98"
   sodipodi:docname="route.svg"
   inkscape:version="1.1 (c68e22c387, 2021-05-23)"
   xmlns:inkscape="http://www.inkscape.org/namespaces/inkscape"
   xmlns:sodipodi="http://sodipodi.sourceforge.net/DTD/sodipodi-0.dtd"
   xmlns="http://www.w3.org/2000/svg"
   xmlns:svg="http://www.w3.org/2000/svg">
  <defs
     id="defs102" />
  <sodipodi:namedview
     id="namedview100"
     pagecolor="#ffffff"
     bordercolor="#666666"
     borderopacity="1.0"
     inkscape:pageshadow="2"
     inkscape:pageopacity="0.0"
     inkscape:pagecheckerboard="0"
     showgrid="false"
     fit-margin-top="50"
     fit-margin-left="200"
     fit-margin-right="200"
     fit-margin-bottom="0"
     inkscape:zoom="0.57275542"
     inkscape:cx="281.97027"
     inkscape:cy="301.17568"
     inkscape:window-width="1920"
     inkscape:window-height="1013"
     inkscape:window-x="-9"
     inkscape:window-y="-9"
     inkscape:window-maximized="1"
     inkscape:current-layer="svg98"
     height="840px" />
  <g
     id="g26159"
     transform="matrix(1.4441338,0,0,1.4441338,102.99999,20.318919)">
    <path
       id="efdf5e1f-6b90-40c1-9274-afa2b16f39be-215"
       data-name="Path 482"
       d="m 325.93039,398.98252 c 0,0 -7.8966,-19.43715 15.79257,-34.01487 z"
       fill="#e6e6e6"
       style="stroke-width:0.619195" />
    <path
       id="af7fe47f-56e6-4bb6-aa0f-d6efaf86a160-216"
       data-name="Path 483"
       d="m 316.21896,398.62893 c 0,0 -2.40868,-13.85386 -21.05264,-13.73498 z"
       fill="#e6e6e6"
       style="stroke-width:0.619195" />
    <path
       id="a08d42bc-6ae2-46d7-9736-aba59e52cc48-217"
       data-name="Path 482"
       d="m 494.32368,398.98252 c 0,0 -10.43245,-25.67905 20.86405,-44.93817 z"
       fill="#e6e6e6"
       style="stroke-width:0.619195" />
    <path
       id="bafd7749-4c33-42a1-9524-e744b9f16454-218"
       data-name="Path 483"
       d="m 481.49356,398.51539 c 0,0 -3.18219,-18.30283 -27.81333,-18.14575"
       fill="#e6e6e6"
       style="stroke-width:0.619195" />
    <polygon
       points="483.215,179.569 466.576,170.731 467.821,170.069 484.46,178.908 "
       fill="#cbcbcb"
       id="polygon6"
       transform="matrix(0.61919504,0,0,0.61919504,-2.8817354e-5,0)" />
    <polygon
       points="468.701,179.569 467.457,178.908 484.095,170.069 485.34,170.731 "
       fill="#cbcbcb"
       id="polygon8"
       transform="matrix(0.61919504,0,0,0.61919504,-2.8817354e-5,0)" />
    <rect
       x="35.090588"
       y="221.3997"
       width="1.09026"
       height="3.2703035"
       transform="rotate(-62.86776)"
       fill="#cbcbcb"
       id="rect10"
       style="stroke-width:0.619195" />
    <path
       d="m 273.8788,100.91542 -5.79291,-2.968417 0.49714,-0.970322 5.7929,2.968422 z m -11.58583,-5.936888 -5.79304,-2.968712 0.49714,-0.970316 5.79305,2.968713 z m -11.58594,-5.937151 -5.79292,-2.968421 0.49713,-0.970323 5.79292,2.968422 z m -11.58583,-5.936892 -5.79305,-2.968421 0.49714,-0.970321 5.79304,2.96842 z m -11.58596,-5.936892 -5.79291,-2.968421 0.49714,-0.970321 5.7929,2.968421 z"
       fill="#cbcbcb"
       id="path12"
       style="stroke-width:0.619195" />
    <rect
       x="35.091"
       y="296.27142"
       width="1.09026"
       height="3.2703035"
       transform="rotate(-62.86776)"
       fill="#cbcbcb"
       id="rect14"
       style="stroke-width:0.619195" />
    <path
       d="m 60.415544,141.74641 q 0,0.51075 -0.03307,1.01298 a 15.344588,15.344588 0 0 1 -1.43777,5.57082 c -0.0064,0.0149 -0.01393,0.0288 -0.02031,0.0427 -0.03845,0.0811 -0.07797,0.16223 -0.11852,0.24231 a 15.162669,15.162669 0 0 1 -0.816557,1.44101 15.420093,15.420093 0 0 1 -12.655276,7.12177 l 0.152662,8.77842 1.990712,-1.0482 0.355462,0.67568 -2.33122,1.22753 0.28499,16.30368 0.0031,0.21776 -1.539201,0.34263 0.0031,-0.21882 0.484614,-26.2776 a 15.389473,15.389473 0 0 1 -10.88763,-4.7372 c -0.09711,-0.10026 -0.193188,-0.20386 -0.287126,-0.30634 l -0.01067,-0.012 a 15.452792,15.452792 0 0 1 -2.811553,-4.35078 c 0.01499,0.0171 0.03096,0.0331 0.04595,0.0501 a 15.439288,15.439288 0 0 1 7.320284,-19.89447 c 0.05337,-0.0267 0.107827,-0.0523 0.161208,-0.079 a 15.451047,15.451047 0 0 1 20.017202,6.07679 c 0.09397,0.15797 0.184712,0.31916 0.272216,0.4814 a 15.355021,15.355021 0 0 1 1.857288,7.33849 z"
       fill="#e5e5e5"
       id="path16"
       style="stroke-width:0.619195" />
    <circle
       cx="58.337723"
       cy="128.14961"
       r="20.231709"
       fill="#e5e5e5"
       id="circle18"
       style="stroke-width:0.619195" />
    <path
       d="M 43.399277,114.63643 A 20.233288,20.233288 0 0 0 77.111288,136.04908 20.233436,20.233436 0 1 1 43.399277,114.63643 Z"
       opacity="0.2"
       style="isolation:isolate;stroke-width:0.619195"
       id="path20" />
    <polygon
       points="94.132,216.291 94.304,206.962 94.396,206.962 94.572,217.069 94.801,230.224 94.965,239.558 94.965,239.627 94.972,240.012 94.972,240.014 95.289,258.209 95.322,260.017 95.977,297.624 95.983,297.986 92.646,297.05 92.653,296.691 93.653,242.341 93.703,239.631 93.704,239.552 93.879,230.056 94.132,216.293 "
       fill="#3f3d56"
       id="polygon22"
       transform="matrix(0.61919504,0,0,0.61919504,-2.8817354e-5,0)" />
    <rect
       x="-23.105011"
       y="168.9594"
       width="3.7795544"
       height="1.0004705"
       transform="rotate(-27.76587)"
       fill="#3f3d56"
       id="rect24"
       style="stroke-width:0.619195" />
    <path
       d="m 320.60028,62.672669 a 515.34013,515.34013 0 0 0 -76.62613,1.177863 c -12.27963,1.109969 -24.7546,2.30888 -36.80735,4.98748 -9.70807,2.157517 -20.97535,5.804037 -27.02425,14.297405 a 13.802304,13.802304 0 0 0 -2.15499,12.082731 c 1.44227,4.841732 5.03009,8.871952 8.85108,12.028562 8.79421,7.26511 19.70557,11.49276 29.45227,17.26467 17.79566,10.53846 34.08244,24.74289 44.53622,42.78699 4.60008,7.94016 8.97579,18.49784 3.85362,27.24694 -5.01808,8.57132 -16.22027,11.5243 -25.35579,12.91686 -11.45051,1.74547 -23.24527,1.27203 -34.74353,0.29463 a 362.01093,362.01093 0 0 1 -37.55484,-5.50053 C 142.7078,197.58664 118.6104,191.64663 93.953641,188.94543 A 211.62889,211.62889 0 0 0 56.6969,187.86809 c -11.222501,0.75698 -22.541121,2.53207 -33.083827,6.57866 -8.124062,3.11826 -16.7839009,7.83609 -21.1721978,15.70402 -4.2301237,7.58436 -2.58024148,16.33058 2.0258391,23.32818 5.5420557,8.41956 14.1841047,14.18909 23.1690027,18.40602 10.230092,4.80135 21.172136,7.91356 32.128174,10.56038 5.556586,1.34241 11.143236,2.55585 16.7304,3.76314 1.165561,0.25186 1.663578,-1.53846 0.493821,-1.79122 -11.266991,-2.43462 -22.566563,-4.87719 -33.553757,-8.40151 -10.167468,-3.26139 -20.57252,-7.43924 -28.898768,-14.28751 -6.7359566,-5.54026 -13.1404579,-13.63261 -12.7428727,-22.83337 0.4007988,-9.27519 8.1828913,-15.75123 15.8104017,-19.73736 9.532255,-4.98156 20.362229,-7.40812 30.974335,-8.67636 a 188.19608,188.19608 0 0 1 36.588542,-0.49761 c 24.598587,1.87168 48.647527,7.47508 72.765577,12.36258 23.43014,4.74811 47.59162,9.14482 71.60298,7.92698 9.51714,-0.4827 19.71466,-1.84647 28.11786,-6.65027 3.84742,-2.19944 7.31667,-5.30124 9.27206,-9.33781 a 20.912651,20.912651 0 0 0 1.59789,-12.28775 c -1.36261,-9.14555 -6.79459,-17.62577 -12.21448,-24.91031 a 120.38181,120.38181 0 0 0 -20.51993,-21.25584 161.86089,161.86089 0 0 0 -27.15128,-17.68745 c -5.10107,-2.68573 -10.2746,-5.26824 -15.13596,-8.37895 -4.66111,-2.9826 -9.25902,-6.57135 -12.10543,-11.413243 -2.46188,-4.187784 -2.91343,-8.967407 -0.34923,-13.214719 2.59352,-4.295883 7.06198,-7.292 11.46844,-9.481431 10.61672,-5.275114 22.95975,-6.687126 34.57538,-8.134042 a 511.40192,511.40192 0 0 1 75.2016,-3.749524 q 9.16056,0.21548 18.30884,0.758458 c 1.19416,0.07025 1.19009,-1.787573 0,-1.857585 z"
       id="path26"
       style="stroke-width:0.619195" />
    <path
       d="m 304.40075,3.1282459 3.85724,-3.08504025 c -2.99652,-0.33060062 -4.22774,1.30363465 -4.73162,2.59714555 -2.341,-0.9720744 -4.88945,0.3018761 -4.88945,0.3018761 l 7.7176,2.8017647 a 5.8400743,5.8400743 0 0 0 -1.95377,-2.6157461 z"
       fill="#3f3d56"
       id="path28"
       style="stroke-width:0.619195" />
    <path
       d="m 285.68117,12.89497 3.85724,-3.0850461 c -2.99652,-0.3305944 -4.22772,1.3036351 -4.73161,2.5971451 -2.341,-0.972068 -4.88945,0.301883 -4.88945,0.301883 l 7.71761,2.801764 a 5.8400309,5.8400309 0 0 0 -1.95379,-2.615746 z"
       fill="#3f3d56"
       id="path30"
       style="stroke-width:0.619195" />
    <path
       d="m 304.40075,28.358945 3.85724,-3.08504 c -2.99652,-0.330601 -4.22774,1.303635 -4.73162,2.597146 -2.341,-0.972075 -4.88945,0.301876 -4.88945,0.301876 l 7.7176,2.801765 a 5.8400743,5.8400743 0 0 0 -1.95377,-2.615747 z"
       fill="#3f3d56"
       id="path32"
       style="stroke-width:0.619195" />
    <g
       id="e2dfab6d-8627-4cc0-b13e-69de57259a01"
       data-name="Group 27"
       transform="matrix(0.61919504,0,0,0.61919504,-2.8817354e-5,0)">
      <circle
         id="bedd3b2f-f695-46eb-9812-80ad4d1341b6"
         data-name="Ellipse 7"
         cx="398.21854"
         cy="34.412971"
         r="18.768471"
         fill="#ff6583" />
      <path
         id="efdddea5-7f44-48b8-bec9-83339a7f085f-219"
         data-name="Path 63"
         d="m 641.059,219.24736 h -92.0731 a 1.88476,1.88476 0 0 1 -0.34417,-0.0273 l 43.54727,-75.4242 a 3.04826,3.04826 0 0 1 5.307,0 l 29.224,50.61377 1.39957,2.42155 z"
         transform="translate(-183.98585,-127)"
         fill="#ffc306" />
      <path
         id="f8d22fd6-a75d-4da9-80c1-fba8d7f50740-220"
         data-name="Path 65"
         d="m 692.32061,219.24825 h -79.63353 l 15.4306,-22.41441 1.11,-1.61523 20.10819,-29.20986 a 4.0685,4.0685 0 0 1 6.04372,-0.36091 3.63814,3.63814 0 0 1 0.28961,0.36091 z"
         transform="translate(-183.98585,-127)"
         fill="#ffc306" />
    </g>
    <path
       d="m 233.42077,164.23211 c 5.40383,2.70093 8.69375,6.2681 8.69375,10.18068 0,8.42848 -15.25153,15.26112 -34.06501,15.26112 -8.17956,0 -15.68374,-1.29262 -21.55595,-3.4453 6.23708,3.11748 15.29092,5.08042 25.37123,5.08042 18.81346,0 34.06501,-6.83263 34.06501,-15.26112 0,-4.76404 -4.87475,-9.01715 -12.50903,-11.8158 z"
       fill="#f1f1f1"
       id="path38"
       style="stroke-width:0.619195" />
    <path
       d="m 245.44083,170.02159 c 6.09758,3.04768 9.8099,7.07285 9.8099,11.4877 0,9.51055 -17.20957,17.22036 -38.43834,17.22036 -9.22972,0 -17.69726,-1.45854 -24.32336,-3.88758 7.03782,3.51769 17.25401,5.73262 28.62845,5.73262 21.22877,0 38.43835,-7.70981 38.43835,-17.22036 -3e-5,-5.37566 -5.50062,-10.17477 -14.115,-13.33274 z"
       fill="#f1f1f1"
       id="path40"
       style="stroke-width:0.619195" />
    <path
       d="m 228.82069,166.78223 c 3.80714,1.90289 6.12498,4.41605 6.12498,7.17256 0,5.93808 -10.74511,10.75185 -23.99968,10.75185 a 45.078279,45.078279 0 0 1 -15.18674,-2.42729 c 4.39419,2.19634 10.77286,3.57928 17.8747,3.57928 13.25457,0 23.99969,-4.81376 23.99969,-10.75187 0,-3.35639 -3.4344,-6.35281 -8.81295,-8.32453 z"
       fill="#f1f1f1"
       id="path42"
       style="stroke-width:0.619195" />
    <path
       d="m 175.32809,165.69215 c 0,0 0.8366,12.22828 24.81835,12.22828 23.98176,0 31.14167,-12.22828 31.14167,-12.22828 z"
       fill="#3f3d56"
       id="path44"
       style="stroke-width:0.619195" />
    <path
       d="m 209.36759,133.60827 a 16.834285,16.834285 0 0 0 -12.12632,-3.31703 16.893089,16.893089 0 0 1 -2.04554,33.20691 16.896539,16.896539 0 0 0 14.17188,-29.88988 z"
       fill="#3f3d56"
       id="path46"
       style="stroke-width:0.619195" />
    <rect
       x="199.87392"
       y="128.0844"
       width="1.6351207"
       height="38.921387"
       fill="#3f3d56"
       id="rect48"
       style="stroke-width:0.619195" />
    <path
       d="m 308.96815,99.165765 -0.009,-0.01499 -0.0221,-0.950724 5.12252,-7.437344 -5.11641,6.72574 -0.0184,0.20096 -0.17512,-7.601858 4.42446,-7.710836 -4.43697,6.375375 0.0463,-15.74914 -2.7e-4,-0.05244 -0.001,0.05157 -0.29381,12.412434 -4.03244,-5.04192 4.0194,6.111238 -0.0881,6.799728 -3.71068,-6.636253 3.69712,7.635913 -0.0492,3.780984 -0.13546,10.475078 -0.009,0.78273 q 0.51256,0.004 1.01476,-0.0171 l -0.23206,-10.061514 z"
       fill="#cbcbcb"
       id="path50"
       style="stroke-width:0.619195" />
    <path
       d="m 284.44135,102.43601 -0.009,-0.015 -0.0221,-0.95072 5.12252,-7.437353 -5.1164,6.725743 -0.0184,0.20096 -0.17511,-7.601855 4.42446,-7.710836 -4.43699,6.375349 0.0463,-15.749139 -2.7e-4,-0.05245 -10e-4,0.05159 -0.2938,12.412433 -4.03245,-5.04192 4.01941,6.111244 -0.0881,6.799728 -3.7107,-6.636253 3.69712,7.635913 -0.0492,3.780986 -0.13546,10.47509 -0.009,0.78273 q 0.51258,0.004 1.01476,-0.0171 l -0.23206,-10.06151 z"
       fill="#cbcbcb"
       id="path52"
       style="stroke-width:0.619195" />
    <path
       d="m 296.43223,92.080248 -0.009,-0.01499 -0.0221,-0.950724 5.12252,-7.437349 -5.1164,6.72574 -0.0184,0.200965 -0.17511,-7.601857 4.42446,-7.710836 -4.43696,6.375375 0.0463,-15.74914 -2.6e-4,-0.05244 -10e-4,0.05157 -0.29381,12.412433 -4.03244,-5.041918 4.0194,6.111244 -0.0881,6.799721 -3.71069,-6.636253 3.69712,7.635913 -0.0492,3.780977 -0.13547,10.475091 -0.009,0.78273 q 0.51257,0.004 1.01476,-0.0171 l -0.23207,-10.061503 z"
       fill="#cbcbcb"
       id="path54"
       style="stroke-width:0.619195" />
    <circle
       cx="93.863655"
       cy="266.52454"
       r="6.5404763"
       fill="#ffc306"
       id="circle56"
       style="stroke-width:0.619195" />
    <polygon
       points="715.399,625.419 705.62,629.052 686.952,593.062 701.385,587.7 "
       fill="#ffb7b7"
       id="polygon58"
       transform="matrix(0.61919504,0,0,0.61919504,-2.8817354e-5,0)" />
    <path
       d="m 446.69636,392.55171 -19.52416,7.25398 -0.0917,-0.24694 a 8.107356,8.107356 0 0 1 4.77554,-10.42288 l 4.8e-4,-1.8e-4 11.92474,-4.43048 z"
       fill="#2f2e41"
       id="path60"
       style="stroke-width:0.619195" />
    <polygon
       points="619.162,635.574 608.73,635.573 603.767,595.335 619.164,595.336 "
       fill="#ffb7b7"
       id="polygon62"
       transform="matrix(0.61919504,0,0,0.61919504,-2.8817354e-5,0)" />
    <path
       d="m 384.50269,399.80569 -20.82822,-6.1e-4 v -0.26344 a 8.1073623,8.1073623 0 0 1 8.10692,-8.10696 h 5.2e-4 l 12.72116,5.1e-4 z"
       fill="#2f2e41"
       id="path64"
       style="stroke-width:0.619195" />
    <path
       d="m 412.95597,220.74589 -2.10754,-4.21509 -17.91415,8.95708 0.52689,3.6882 -3.42477,4.47853 c 0,0 -5.79575,3.16132 -4.74197,13.69907 l 1.05377,10.01084 1.31721,12.90872 -9.2205,31.8766 -4.74198,42.15092 -3.42477,33.98417 16.59691,-0.79033 15.27973,-55.32308 26.8712,59.53816 18.44103,-4.74197 -25.29055,-59.01128 -3.16132,-24.76367 c 0,0 2.10755,-13.17213 -7.90329,-22.12923 l 1.58065,-4.74197 v -5.84347 l 5.26887,-27.87726 z"
       fill="#2f2e41"
       id="path66"
       style="stroke-width:0.619195" />
    <rect
       x="-200.90462"
       y="474.20093"
       width="42.700367"
       height="0.61917025"
       transform="rotate(-74.24881)"
       opacity="0.2"
       id="rect68"
       style="stroke-width:0.619195" />
    <rect
       x="386.61166"
       y="270.27322"
       width="25.817436"
       height="2.6344335"
       fill="#3f3d56"
       id="rect70"
       style="stroke-width:0.619195" />
    <ellipse
       cx="386.61166"
       cy="271.85388"
       rx="1.0537709"
       ry="2.6344335"
       fill="#3f3d56"
       id="ellipse72"
       style="stroke-width:0.619195" />
    <circle
       cx="252.7464"
       cy="367.92886"
       r="14.04436"
       transform="rotate(-28.66322)"
       fill="#ffb7b7"
       id="circle74"
       style="stroke-width:0.619195" />
    <path
       d="m 386.42792,197.7092 a 14.689951,14.689951 0 1 0 8.76595,-11.82637 c -2.45363,-1.97875 -5.49567,-1.36547 -7.96878,0.72286 -2.7967,2.36131 -3.62666,3.98342 -5.79566,7.86659 2.13274,0.29953 2.86568,2.93737 4.99849,3.23692 z"
       fill="#2f2e41"
       id="path80"
       style="stroke-width:0.619195" />
    <path
       d="m 438.05272,239.94509 c -0.15719,4.1622 -0.46868,12.35466 -0.46868,12.77284 0,0.44064 -6.21097,13.30048 -8.89412,18.83508 v 0.003 c -0.19089,0.39009 -0.36205,0.74375 -0.51363,1.05528 a 2.4944272,2.4944272 0 0 1 -2.29297,1.40891 l -11.72591,-0.21052 a 2.4991393,2.4991393 0 0 1 -2.45577,-2.43612 l -1.30792,-51.58811 a 1.275387,1.275387 0 0 1 1.27421,-1.30787 h 15.12192 a 3.3998761,3.3998761 0 0 1 3.05918,1.91971 l 7.25782,15.01531 a 9.5971517,9.5971517 0 0 1 0.94586,4.53265 z"
       fill="#ffc306"
       id="path82"
       style="stroke-width:0.619195" />
    <path
       d="m 411.4976,267.83328 a 33.579901,33.579901 0 0 1 -8.01203,-6.77119 37.156569,37.156569 0 0 1 -9.26033,-21.6026 c -0.5962,-6.85601 0.7642,-11.95216 4.04335,-15.14714 4.16816,-4.06134 9.84173,-3.47124 10.08121,-3.44396 l 0.254,0.0288 3.84372,3.25238 -1.08769,1.28546 -3.43931,-2.91023 c -1.05276,-0.0527 -5.35077,-0.064 -8.49041,3.00696 -2.88992,2.82675 -4.07663,7.46365 -3.52723,13.78193 a 35.484787,35.484787 0 0 0 8.79741,20.58014 32.604829,32.604829 0 0 0 7.6101,6.46462 z"
       fill="#ffc306"
       id="path84"
       style="stroke-width:0.619195" />
    <rect
       x="353.60095"
       y="330.33536"
       width="20.916227"
       height="0.56128174"
       transform="rotate(-11.60623)"
       fill="#3f3d56"
       id="rect86"
       style="stroke-width:0.619195" />
    <rect
       x="409.99307"
       y="235.40623"
       width="0.5613808"
       height="32.628235"
       transform="rotate(-2.33745)"
       fill="#3f3d56"
       id="rect88"
       style="stroke-width:0.619195" />
    <path
       d="m 438.05272,239.94509 c -0.15719,4.1622 -0.46868,12.35466 -0.46868,12.77284 0,0.44064 -6.21097,13.30048 -8.89412,18.83508 l 5.00132,-29.03986 a 6.4010773,6.4010773 0 0 1 4.15659,-4.93684 9.4208173,9.4208173 0 0 1 0.20489,2.36878 z"
       fill="#3f3d56"
       id="path90"
       style="stroke-width:0.619195" />
    <path
       d="m 407.32471,300.80472 a 4.9405573,4.9405573 0 0 0 -1.60687,-7.40344 l 1.01643,-11.24427 -6.68246,-2.28426 -1.21238,15.89925 a 4.9673747,4.9673747 0 0 0 8.48528,5.03272 z"
       fill="#ffb7b7"
       id="path92"
       style="stroke-width:0.619195" />
    <path
       d="m 408.19779,289.92445 -11.84092,-0.42937 0.50092,-57.10364 a 7.7080743,7.7080743 0 0 1 5.2219,-7.33653 7.0026811,7.0026811 0 0 1 4.40406,-0.004 7.7089783,7.7089783 0 0 1 5.21458,7.8899 z"
       fill="#cbcbcb"
       id="path94"
       style="stroke-width:0.619195" />
    <path
       d="M 512.07473,400 H 276.16141 a 0.61919504,0.61919504 0 0 1 0,-1.23839 h 235.91332 a 0.61919504,0.61919504 0 0 1 0,1.23839 z"
       fill="#cbcbcb"
       id="path96"
       style="stroke-width:0.619195" />
  </g>
  <text
     xml:space="preserve"
     style="font-style:normal;font-variant:normal;font-weight:normal;font-stretch:normal;font-size:41.0376px;line-height:1.25;font-family:'Open Sans';-inkscape-font-specification:'Open Sans, @wght=600';font-variant-ligatures:none;font-variant-caps:normal;font-variant-numeric:normal;font-variant-east-asian:normal;font-variation-settings:'wght' 600;stroke-width:2.77223"
     x="369.95135"
     y="727.69165"
     id="text2027"><tspan
       sodipodi:role="line"
       id="tspan2025"
       x="369.95135"
       y="727.69165"
       style="font-style:normal;font-variant:normal;font-weight:normal;font-stretch:normal;font-size:41.0376px;font-family:'Open Sans';-inkscape-font-specification:'Open Sans, @wght=600';font-variant-ligatures:none;font-variant-caps:normal;font-variant-numeric:normal;font-variant-east-asian:normal;font-variation-settings:'wght' 600;stroke-width:2.77223"></tspan><tspan
       sodipodi:role="line"
       x="369.95135"
       y="778.98865"
       style="font-style:normal;font-variant:normal;font-weight:normal;font-stretch:normal;font-size:41.0376px;font-family:'Open Sans';-inkscape-font-specification:'Open Sans, @wght=600';font-variant-ligatures:none;font-variant-caps:normal;font-variant-numeric:normal;font-variant-east-asian:normal;font-variation-settings:'wght' 600;stroke-width:2.77223"
       id="tspan6412">Uskoro . . . </tspan></text>
  <text
     xml:space="preserve"
     style="font-size:24.6226px;line-height:1.25;font-family:'Open Sans';-inkscape-font-specification:'Open Sans, @wght=700';font-variant-ligatures:none;font-variation-settings:'wght' 700;stroke-width:1.02594"
     x="299.74432"
     y="697.11578"
     id="text6922"><tspan
       sodipodi:role="line"
       id="tspan6920"
       x="299.74432"
       y="697.11578"
       style="font-style:normal;font-variant:normal;font-weight:normal;font-stretch:normal;font-size:24.6226px;font-family:'Open Sans';-inkscape-font-specification:'Open Sans, @wght=300';font-variant-ligatures:none;font-variant-caps:normal;font-variant-numeric:normal;font-variant-east-asian:normal;font-variation-settings:'wght' 300;stroke-width:1.02594">Istražite Tomislavgrad uz naše</tspan><tspan
       sodipodi:role="line"
       x="299.74432"
       y="727.89404"
       id="tspan7808"
       style="font-style:normal;font-variant:normal;font-weight:normal;font-stretch:normal;font-size:24.6226px;font-family:'Open Sans';-inkscape-font-specification:'Open Sans, @wght=300';font-variant-ligatures:none;font-variant-caps:normal;font-variant-numeric:normal;font-variant-east-asian:normal;font-variation-settings:'wght' 300;stroke-width:1.02594">prijedloge ili s lokalnim vodičima</tspan></text>
</svg>
