<?xml version="1.0" encoding="UTF-8" standalone="no"?>
<svg
   data-name="Layer 1"
   width="832.0282"
   height="786.42615"
   viewBox="0 0 832.02819 786.42614"
   version="1.1"
   id="svg98"
   sodipodi:docname="route.svg"
   inkscape:version="1.1 (c68e22c387, 2021-05-23)"
   xmlns:inkscape="http://www.inkscape.org/namespaces/inkscape"
   xmlns:sodipodi="http://sodipodi.sourceforge.net/DTD/sodipodi-0.dtd"
   xmlns="http://www.w3.org/2000/svg"
   xmlns:svg="http://www.w3.org/2000/svg">
  <defs
     id="defs102" />
  <sodipodi:namedview
     id="namedview100"
     pagecolor="#ffffff"
     bordercolor="#666666"
     borderopacity="1.0"
     inkscape:pageshadow="2"
     inkscape:pageopacity="0.0"
     inkscape:pagecheckerboard="0"
     showgrid="false"
     fit-margin-top="0"
     fit-margin-left="0"
     fit-margin-right="0"
     fit-margin-bottom="0"
     inkscape:zoom="0.20249962"
     inkscape:cx="471.60582"
     inkscape:cy="37.037106"
     inkscape:window-width="1920"
     inkscape:window-height="1013"
     inkscape:window-x="-9"
     inkscape:window-y="-9"
     inkscape:window-maximized="1"
     inkscape:current-layer="svg98" />
  <g
     id="g25849"
     transform="matrix(0.92879257,0,0,0.92879257,29.623294,22)">
    <path
       id="efdf5e1f-6b90-40c1-9274-afa2b16f39be-215"
       data-name="Path 482"
       d="m 526.37757,644.35677 c 0,0 -12.753,-31.391 25.505,-54.934 z"
       fill="#e6e6e6" />
    <path
       id="af7fe47f-56e6-4bb6-aa0f-d6efaf86a160-216"
       data-name="Path 483"
       d="m 510.69361,643.78573 c 0,0 -3.89,-22.374 -34,-22.182 z"
       fill="#e6e6e6" />
    <path
       id="a08d42bc-6ae2-46d7-9736-aba59e52cc48-217"
       data-name="Path 482"
       d="m 798.33274,644.35677 c 0,0 -16.8484,-41.47168 33.69546,-72.57516 z"
       fill="#e6e6e6" />
    <path
       id="bafd7749-4c33-42a1-9524-e744b9f16454-218"
       data-name="Path 483"
       d="m 777.6121,643.60235 c 0,0 -5.13923,-29.55906 -44.91853,-29.30538"
       fill="#e6e6e6" />
    <polygon
       points="466.576,170.731 467.821,170.069 484.46,178.908 483.215,179.569 "
       fill="#cbcbcb"
       id="polygon6"
       transform="translate(-4.6536835e-5)" />
    <polygon
       points="467.457,178.908 484.095,170.069 485.34,170.731 468.701,179.569 "
       fill="#cbcbcb"
       id="polygon8"
       transform="translate(-4.6536835e-5)" />
    <rect
       x="56.671299"
       y="357.56052"
       width="1.76077"
       height="5.2815399"
       transform="rotate(-62.86776)"
       fill="#cbcbcb"
       id="rect10" />
    <path
       d="m 442.31427,162.97841 -9.35556,-4.794 0.80288,-1.56707 9.35555,4.794 z m -18.71111,-9.58808 -9.35577,-4.79447 0.80288,-1.56706 9.35577,4.79447 z m -18.71132,-9.5885 -9.35555,-4.794 0.80287,-1.56707 9.35555,4.794 z m -18.71111,-9.58808 -9.35577,-4.794 0.80288,-1.56707 9.35577,4.794 z m -18.71132,-9.58808 -9.35555,-4.794 0.80287,-1.56707 9.35555,4.794 z"
       fill="#cbcbcb"
       id="path12" />
    <rect
       x="56.671963"
       y="478.47833"
       width="1.76077"
       height="5.2815399"
       transform="rotate(-62.86776)"
       fill="#cbcbcb"
       id="rect14" />
    <path
       d="m 97.571103,228.92045 q 0,0.82486 -0.0534,1.63595 a 24.78151,24.78151 0 0 1 -2.322,8.9969 c -0.0104,0.0241 -0.0225,0.0466 -0.0328,0.069 -0.0621,0.131 -0.12592,0.262 -0.19141,0.39133 a 24.48771,24.48771 0 0 1 -1.31874,2.32723 24.90345,24.90345 0 0 1 -20.43827,11.50168 l 0.24655,14.17714 3.215,-1.69285 0.57407,1.09122 -3.76492,1.98246 0.46026,26.33045 0.005,0.35168 -2.48581,0.55335 0.005,-0.35339 0.78265,-42.43833 a 24.854,24.854 0 0 1 -17.58352,-7.65056 c -0.15682,-0.162 -0.312,-0.32925 -0.46371,-0.49475 l -0.0173,-0.019 a 24.95626,24.95626 0 0 1 -4.54066,-7.02651 c 0.0242,0.0276 0.05,0.0534 0.0742,0.081 a 24.93445,24.93445 0 0 1 11.82226,-32.12957 c 0.0862,-0.0431 0.17415,-0.0845 0.26035,-0.12756 a 24.95344,24.95344 0 0 1 32.32778,9.814 c 0.15176,0.25514 0.29831,0.51545 0.43963,0.77747 a 24.79836,24.79836 0 0 1 2.99952,11.85166 z"
       fill="#e5e5e5"
       id="path16" />
    <circle
       cx="94.215424"
       cy="206.96164"
       r="32.67421"
       fill="#e5e5e5"
       id="circle18" />
    <path
       d="M 70.089833,185.13783 A 32.67676,32.67676 0 0 0 124.53473,219.71926 32.677,32.677 0 1 1 70.089833,185.13783 Z"
       opacity="0.2"
       style="isolation:isolate"
       id="path20" />
    <polygon
       points="95.289,258.209 95.322,260.017 95.977,297.624 95.983,297.986 92.646,297.05 92.653,296.691 93.653,242.341 93.703,239.631 93.704,239.552 93.879,230.056 94.132,216.293 94.132,216.291 94.304,206.962 94.396,206.962 94.572,217.069 94.801,230.224 94.965,239.558 94.965,239.627 94.972,240.012 94.972,240.014 "
       fill="#3f3d56"
       id="polygon22"
       transform="translate(-4.6536835e-5)" />
    <rect
       x="-37.314594"
       y="272.86942"
       width="6.1039801"
       height="1.61576"
       transform="rotate(-27.76587)"
       fill="#3f3d56"
       id="rect24" />
    <path
       d="m 517.76945,101.21636 a 832.27432,832.27432 0 0 0 -123.7512,1.90225 c -19.83159,1.7926 -39.97869,3.72884 -59.44387,8.05478 -15.67852,3.48439 -33.87519,9.37352 -43.64416,23.09031 a 22.29072,22.29072 0 0 0 -3.48031,19.51361 c 2.32927,7.8194 8.1236,14.3282 14.29449,19.42613 14.20265,11.73315 31.82451,18.56081 47.56541,27.88244 28.74,17.01962 55.04314,39.95976 71.926,69.101 7.42913,12.82336 14.49591,29.874 6.2236,44.0038 -8.10421,13.84268 -26.19574,18.61175 -40.9496,20.86074 -18.49256,2.81891 -37.54111,2.05432 -56.11081,0.47581 a 584.64766,584.64766 0 0 1 -60.65107,-8.88336 c -39.27483,-7.54145 -78.19214,-17.13457 -118.0128,-21.497 a 341.78066,341.78066 0 0 0 -60.169637,-1.7399 c -18.12434,1.22252 -36.40391,4.08928 -53.43038,10.62453 -13.12036,5.036 -27.106,12.65528 -34.1930995,25.362 -6.83165,12.24873 -4.16709004,26.37387 3.27173,37.675 8.9504195,13.59759 22.9073295,22.91539 37.4179395,29.72573 16.5216,7.75418 34.193,12.78041 51.887,17.055 8.973887,2.168 17.996327,4.12771 27.019597,6.07749 1.88238,0.40675 2.68668,-2.48462 0.79752,-2.89283 -18.19619,-3.9319 -36.444997,-7.87666 -54.189317,-13.56844 -16.42046,-5.26714 -33.22462,-12.01436 -46.67151,-23.07433 C 12.596403,381.44359 2.2531335,368.37445 2.8952335,353.51524 3.5425235,338.53581 16.110603,328.077 28.429033,321.63939 c 15.39459,-8.04521 32.885,-11.9641 50.02355,-14.01231 a 303.93666,303.93666 0 0 1 59.090497,-0.80365 c 39.72671,3.02277 78.56576,12.07225 117.51641,19.96558 37.83967,7.66819 76.86045,14.76886 115.63881,12.80206 15.37019,-0.77956 31.83919,-2.98205 45.41034,-10.74018 6.21359,-3.55209 11.81642,-8.5615 14.97437,-15.08057 a 33.77393,33.77393 0 0 0 2.58061,-19.84471 c -2.20063,-14.77006 -10.97326,-28.46563 -19.7264,-40.23015 a 194.41662,194.41662 0 0 0 -33.13969,-34.32817 261.40534,261.40534 0 0 0 -43.84932,-28.56525 c -8.23822,-4.33745 -16.59347,-8.5082 -24.44456,-13.532 -7.52769,-4.8169 -14.95332,-10.61273 -19.55028,-18.43239 -3.97592,-6.76327 -4.70518,-14.48236 -0.564,-21.34177 4.18854,-6.93785 11.40509,-11.77658 18.52153,-15.31251 17.146,-8.51931 37.08,-10.79971 55.83924,-13.13648 a 825.9141,825.9141 0 0 1 121.45058,-6.05548 q 14.79431,0.348 29.56878,1.22491 c 1.92857,0.11345 1.922,-2.88693 0,-3 z"
       id="path26" />
    <path
       d="m 491.6072,5.0521171 6.22944,-4.98233998 c -4.83937,-0.53392 -6.82778,2.10536998 -7.64155,4.19438998 -3.78071,-1.5699 -7.89647,0.48753 -7.89647,0.48753 l 12.46394,4.52485 a 9.43172,9.43172 0 0 0 -3.15536,-4.22443 z"
       fill="#3f3d56"
       id="path28" />
    <path
       d="m 461.3751,20.825377 6.22944,-4.98235 c -4.83938,-0.53391 -6.82778,2.10537 -7.64156,4.19439 -3.78071,-1.56989 -7.89646,0.48754 -7.89646,0.48754 l 12.46393,4.52485 a 9.43165,9.43165 0 0 0 -3.15535,-4.22443 z"
       fill="#3f3d56"
       id="path30" />
    <path
       d="m 491.6072,45.799697 6.22944,-4.98234 c -4.83937,-0.53392 -6.82778,2.10537 -7.64155,4.19439 -3.78071,-1.5699 -7.89647,0.48753 -7.89647,0.48753 l 12.46394,4.52485 a 9.43172,9.43172 0 0 0 -3.15536,-4.22443 z"
       fill="#3f3d56"
       id="path32" />
    <g
       id="e2dfab6d-8627-4cc0-b13e-69de57259a01"
       data-name="Group 27"
       transform="translate(-4.6536835e-5)">
      <circle
         id="bedd3b2f-f695-46eb-9812-80ad4d1341b6"
         data-name="Ellipse 7"
         cx="398.21854"
         cy="34.412971"
         r="18.768471"
         fill="#ff6583" />
      <path
         id="efdddea5-7f44-48b8-bec9-83339a7f085f-219"
         data-name="Path 63"
         d="m 641.059,219.24736 h -92.0731 a 1.88476,1.88476 0 0 1 -0.34417,-0.0273 l 43.54727,-75.4242 a 3.04826,3.04826 0 0 1 5.307,0 l 29.224,50.61377 1.39957,2.42155 z"
         transform="translate(-183.98585,-127)"
         fill="#ffc306" />
      <path
         id="f8d22fd6-a75d-4da9-80c1-fba8d7f50740-220"
         data-name="Path 65"
         d="m 692.32061,219.24825 h -79.63353 l 15.4306,-22.41441 1.11,-1.61523 20.10819,-29.20986 a 4.0685,4.0685 0 0 1 6.04372,-0.36091 3.63814,3.63814 0 0 1 0.28961,0.36091 z"
         transform="translate(-183.98585,-127)"
         fill="#ffc306" />
    </g>
    <path
       d="m 376.97454,265.23485 c 8.72718,4.362 14.04042,10.123 14.04042,16.4418 0,13.612 -24.63124,24.6467 -55.015,24.6467 -13.21,0 -25.32924,-2.08756 -34.81287,-5.56414 10.07289,5.03473 24.69484,8.20486 40.97454,8.20486 30.38374,0 55.015,-11.03469 55.015,-24.6467 0,-7.69393 -7.87272,-14.56269 -20.20209,-19.08252 z"
       fill="#f1f1f1"
       id="path38" />
    <path
       d="m 396.38693,274.58487 c 9.8476,4.922 15.843,11.42264 15.843,18.55263 0,15.35955 -27.79345,27.8109 -62.07792,27.8109 -14.906,0 -28.58106,-2.35556 -39.28223,-6.27847 11.36608,5.68109 27.86523,9.25821 46.23495,9.25821 34.28447,0 62.07792,-12.45135 62.07792,-27.8109 -3e-5,-8.6817 -8.88347,-16.43224 -22.79572,-21.53237 z"
       fill="#f1f1f1"
       id="path40" />
    <path
       d="m 369.54542,269.35329 c 6.14852,3.07317 9.89184,7.13194 9.89184,11.58368 0,9.59 -17.35335,17.36425 -38.75949,17.36425 a 72.80142,72.80142 0 0 1 -24.52658,-3.92008 c 7.09662,3.5471 17.39817,5.78054 28.86764,5.78054 21.40614,0 38.7595,-7.77423 38.7595,-17.36426 0,-5.42057 -5.54655,-10.25979 -14.23291,-13.44413 z"
       fill="#f1f1f1"
       id="path42" />
    <path
       d="m 283.15488,267.59281 c 0,0 1.3511,19.74867 40.08163,19.74867 38.73053,0 50.29379,-19.74867 50.29379,-19.74867 z"
       fill="#3f3d56"
       id="path44" />
    <path
       d="m 338.12865,215.77736 a 27.18737,27.18737 0 0 0 -19.584,-5.357 27.28234,27.28234 0 0 1 -3.30355,53.62914 27.28791,27.28791 0 0 0 22.88759,-48.27214 z"
       fill="#3f3d56"
       id="path46" />
    <rect
       x="322.79639"
       y="206.85629"
       width="2.6407199"
       height="62.85804"
       fill="#3f3d56"
       id="rect48" />
    <path
       d="m 498.98356,160.15271 -0.0142,-0.0242 -0.0357,-1.53542 8.27287,-12.01131 -8.263,10.86207 -0.0297,0.32455 -0.28281,-12.277 7.1455,-12.453 -7.1657,10.29623 0.0748,-25.43486 -4.3e-4,-0.0847 -0.002,0.0833 -0.4745,20.04608 -6.5124,-8.1427 6.49134,9.86965 -0.14227,10.98156 -5.99276,-10.71755 5.97084,12.332 -0.0795,6.10629 -0.21877,16.91726 -0.0159,1.26411 q 0.82779,0.006 1.63884,-0.0276 l -0.37479,-16.24935 z"
       fill="#cbcbcb"
       id="path50" />
    <path
       d="m 459.37278,165.43415 -0.0142,-0.0242 -0.0357,-1.53542 8.27288,-12.01132 -8.263,10.86208 -0.0297,0.32455 -0.28281,-12.277 7.1455,-12.453 -7.16573,10.29619 0.0748,-25.43486 -4.3e-4,-0.0847 -0.002,0.0833 -0.4745,20.04608 -6.5124,-8.1427 6.49134,9.86966 -0.14227,10.98156 -5.99276,-10.71755 5.97084,12.332 -0.0795,6.10628 -0.21877,16.91727 -0.0159,1.26411 q 0.82781,0.006 1.63884,-0.0276 l -0.37479,-16.24935 z"
       fill="#cbcbcb"
       id="path52" />
    <path
       d="m 478.73805,148.7096 -0.0142,-0.0242 -0.0357,-1.53542 8.27288,-12.01132 -8.263,10.86207 -0.0297,0.32456 -0.28281,-12.277 7.1455,-12.453 -7.1657,10.29623 0.0748,-25.43486 -4.3e-4,-0.0847 -0.002,0.0833 -0.4745,20.04608 -6.5124,-8.1427 6.49134,9.86966 -0.14227,10.98155 -5.99276,-10.71755 5.97084,12.332 -0.0795,6.10628 -0.21877,16.91727 -0.0159,1.26411 q 0.82781,0.006 1.63884,-0.0276 l -0.37479,-16.24934 z"
       fill="#cbcbcb"
       id="path54" />
    <circle
       cx="151.58981"
       cy="430.43713"
       r="10.56287"
       fill="#ffc306"
       id="circle56" />
    <polygon
       points="705.62,629.052 686.952,593.062 701.385,587.7 715.399,625.419 "
       fill="#ffb7b7"
       id="polygon58"
       transform="translate(-4.6536835e-5)" />
    <path
       d="m 721.41462,633.971 -31.53152,11.7152 -0.14819,-0.39882 a 13.09338,13.09338 0 0 1 7.71251,-16.83295 l 7.8e-4,-2.9e-4 19.25843,-7.15522 z"
       fill="#2f2e41"
       id="path60" />
    <polygon
       points="608.73,635.573 603.767,595.335 619.164,595.336 619.162,635.574 "
       fill="#ffb7b7"
       id="polygon62"
       transform="translate(-4.6536835e-5)" />
    <path
       d="m 620.97184,645.6862 -33.63758,-10e-4 v -0.42546 A 13.09339,13.09339 0 0 1 600.42694,632.167 h 8.4e-4 l 20.54468,8.3e-4 z"
       fill="#2f2e41"
       id="path64" />
    <path
       d="m 666.92389,356.50462 -3.40369,-6.80737 -28.93133,14.46567 0.85092,5.95645 -5.531,7.23283 c 0,0 -9.36014,5.10553 -7.65829,22.124 l 1.70184,16.16751 2.1273,20.84758 -14.89111,51.48071 -7.6583,68.07372 -5.531,54.88444 26.804,-1.27638 24.67677,-89.34678 43.397,96.15413 29.78225,-7.65829 -40.84423,-95.30322 -5.10553,-39.99331 c 0,0 3.40368,-21.273 -12.76383,-35.73871 l 2.55277,-7.65829 v -9.43719 l 8.50921,-45.02179 z"
       fill="#2f2e41"
       id="path66" />
    <rect
       x="-324.46097"
       y="765.83447"
       width="68.961098"
       height="0.99996001"
       transform="rotate(-74.24881)"
       opacity="0.2"
       id="rect68" />
    <rect
       x="624.37781"
       y="436.49124"
       width="41.69516"
       height="4.2546101"
       fill="#3f3d56"
       id="rect70" />
    <ellipse
       cx="624.37781"
       cy="439.04401"
       rx="1.70184"
       ry="4.2546101"
       fill="#3f3d56"
       id="ellipse72" />
    <circle
       cx="408.18542"
       cy="594.20514"
       r="22.681641"
       transform="rotate(-28.66322)"
       fill="#ffb7b7"
       id="circle74" />
    <path
       d="m 624.0811,319.30036 a 23.72427,23.72427 0 1 0 14.157,-19.09959 c -3.96261,-3.19569 -8.8755,-2.20524 -12.86957,1.16743 -4.51668,3.81351 -5.85708,6.4332 -9.36,12.70453 3.44438,0.48375 4.62807,4.74387 8.07257,5.22763 z"
       fill="#2f2e41"
       id="path80" />
    <path
       d="m 707.45515,387.51133 c -0.25386,6.72194 -0.75692,19.95277 -0.75692,20.62813 0,0.71163 -10.03072,21.48028 -14.364,30.41866 v 0.005 c -0.3083,0.63 -0.58473,1.20114 -0.82951,1.70428 a 4.0285,4.0285 0 0 1 -3.70315,2.27538 l -18.93734,-0.34 a 4.03611,4.03611 0 0 1 -3.96608,-3.93434 l -2.11229,-83.31478 a 2.05975,2.05975 0 0 1 2.05785,-2.11221 h 24.4219 a 5.4908,5.4908 0 0 1 4.94056,3.10032 l 11.72139,24.24972 a 15.4994,15.4994 0 0 1 1.52756,7.32025 z"
       fill="#ffc306"
       id="path82" />
    <path
       d="M 664.56863,432.55075 A 54.23154,54.23154 0 0 1 651.6292,421.61527 60.00786,60.00786 0 0 1 636.67376,386.72708 c -0.96286,-11.07247 1.23419,-19.30274 6.53,-24.46263 6.73159,-6.55907 15.8944,-5.60606 16.28116,-5.562 l 0.41022,0.0465 6.20761,5.25261 -1.75662,2.076 -5.5545,-4.7 c -1.70019,-0.085 -8.64149,-0.10336 -13.712,4.85623 -4.66723,4.56519 -6.58376,12.05381 -5.69648,22.25783 a 57.30793,57.30793 0 0 0 14.20782,33.2369 52.6568,52.6568 0 0 0 12.2903,10.44039 z"
       fill="#ffc306"
       id="path84" />
    <rect
       x="571.06555"
       y="533.49158"
       width="33.779709"
       height="0.90647"
       transform="rotate(-11.60623)"
       fill="#3f3d56"
       id="rect86" />
    <rect
       x="662.13885"
       y="380.18106"
       width="0.90662998"
       height="52.694599"
       transform="rotate(-2.33745)"
       fill="#3f3d56"
       id="rect88" />
    <path
       d="m 707.45515,387.51133 c -0.25386,6.72194 -0.75692,19.95277 -0.75692,20.62813 0,0.71163 -10.03072,21.48028 -14.364,30.41866 l 8.07712,-46.89939 a 10.33774,10.33774 0 0 1 6.71289,-7.973 15.21462,15.21462 0 0 1 0.33091,3.8256 z"
       fill="#3f3d56"
       id="path90" />
    <path
       d="m 657.82941,485.79963 a 7.979,7.979 0 0 0 -2.5951,-11.95656 l 1.64153,-18.1595 -10.79217,-3.68908 -1.958,25.67728 a 8.02231,8.02231 0 0 0 13.70373,8.12786 z"
       fill="#ffb7b7"
       id="path92" />
    <path
       d="m 659.23942,468.228 -19.12309,-0.69345 0.809,-92.22237 a 12.44854,12.44854 0 0 1 8.43338,-11.8485 11.30933,11.30933 0 0 1 7.11255,-0.006 12.45,12.45 0 0 1 8.42155,12.74221 z"
       fill="#cbcbcb"
       id="path94" />
    <path
       d="M 827.0007,646 H 446.00069 a 1,1 0 0 1 0,-2 H 827.0007 a 1,1 0 0 1 0,2 z"
       fill="#cbcbcb"
       id="path96" />
  </g>
  <text
     xml:space="preserve"
     style="font-style:normal;font-variant:normal;font-weight:normal;font-stretch:normal;font-size:40px;line-height:1.25;font-family:'Open Sans';-inkscape-font-specification:'Open Sans, @wght=600';font-variant-ligatures:none;font-variant-caps:normal;font-variant-numeric:normal;font-variant-east-asian:normal;font-variation-settings:'wght' 600;stroke-width:2.70213"
     x="243.62152"
     y="735.97693"
     id="text2027"><tspan
       sodipodi:role="line"
       id="tspan2025"
       x="243.62152"
       y="735.97693"
       style="font-style:normal;font-variant:normal;font-weight:normal;font-stretch:normal;font-size:40px;font-family:'Open Sans';-inkscape-font-specification:'Open Sans, @wght=600';font-variant-ligatures:none;font-variant-caps:normal;font-variant-numeric:normal;font-variant-east-asian:normal;font-variation-settings:'wght' 600;stroke-width:2.70213"></tspan><tspan
       sodipodi:role="line"
       x="243.62152"
       y="785.97693"
       style="font-style:normal;font-variant:normal;font-weight:normal;font-stretch:normal;font-size:40px;font-family:'Open Sans';-inkscape-font-specification:'Open Sans, @wght=600';font-variant-ligatures:none;font-variant-caps:normal;font-variant-numeric:normal;font-variant-east-asian:normal;font-variation-settings:'wght' 600;stroke-width:2.70213"
       id="tspan6412">Uskoro . . . </tspan></text>
  <text
     xml:space="preserve"
     style="font-size:24px;line-height:1.25;font-family:'Open Sans';-inkscape-font-specification:'Open Sans, @wght=700';font-variant-ligatures:none;font-variation-settings:'wght' 700"
     x="245.18988"
     y="706.17413"
     id="text6922"><tspan
       sodipodi:role="line"
       id="tspan6920"
       x="245.18988"
       y="706.17413"
       style="font-style:normal;font-variant:normal;font-weight:normal;font-stretch:normal;font-size:24px;font-family:'Open Sans';-inkscape-font-specification:'Open Sans, @wght=300';font-variant-ligatures:none;font-variant-caps:normal;font-variant-numeric:normal;font-variant-east-asian:normal;font-variation-settings:'wght' 300">Istražite Tomislavgrad uz naše</tspan><tspan
       sodipodi:role="line"
       x="245.18988"
       y="736.17413"
       id="tspan7808"
       style="font-style:normal;font-variant:normal;font-weight:normal;font-stretch:normal;font-size:24px;font-family:'Open Sans';-inkscape-font-specification:'Open Sans, @wght=300';font-variant-ligatures:none;font-variant-caps:normal;font-variant-numeric:normal;font-variant-east-asian:normal;font-variation-settings:'wght' 300">prijedloge ili s lokalnim vodičima</tspan></text>
</svg>
