<?xml version="1.0" encoding="UTF-8" standalone="no"?>
<!-- Generator: Adobe Illustrator 18.0.0, SVG Export Plug-In . SVG Version: 6.00 Build 0)  -->

<svg
   version="1.1"
   id="Capa_1"
   x="0px"
   y="0px"
   viewBox="0 0 32.275751 40.000001"
   xml:space="preserve"
   sodipodi:docname="guidedPin.svg"
   width="32.275749"
   height="40"
   inkscape:version="1.2 (dc2aedaf03, 2022-05-15)"
   xmlns:inkscape="http://www.inkscape.org/namespaces/inkscape"
   xmlns:sodipodi="http://sodipodi.sourceforge.net/DTD/sodipodi-0.dtd"
   xmlns="http://www.w3.org/2000/svg"
   xmlns:svg="http://www.w3.org/2000/svg"><defs
   id="defs39" /><sodipodi:namedview
   id="namedview37"
   pagecolor="#ffffff"
   bordercolor="#111111"
   borderopacity="1"
   inkscape:showpageshadow="0"
   inkscape:pageopacity="0"
   inkscape:pagecheckerboard="1"
   inkscape:deskcolor="#d1d1d1"
   showgrid="false"
   inkscape:zoom="5.8133848"
   inkscape:cx="13.847355"
   inkscape:cy="5.7625637"
   inkscape:window-width="1920"
   inkscape:window-height="991"
   inkscape:window-x="-9"
   inkscape:window-y="-9"
   inkscape:window-maximized="1"
   inkscape:current-layer="g422" />
<g
   id="XMLID_461_"
   transform="translate(-140.85888,-23.62155)">
	
	
	<g
   id="g422"><path
     d="m 156.99675,24.31095 c -8.53196,-10e-7 -15.44848,6.916522 -15.44847,15.448484 0,10.311859 11.87601,23.172716 15.44847,23.172716 3.57247,0 15.44848,-12.860857 15.44848,-23.172716 1e-5,-8.531962 -6.91651,-15.448485 -15.44848,-15.448484 z"
     fill="#464646"
     id="path4"
     style="fill:#4460a0;fill-opacity:1;stroke:#fcfcfc;stroke-width:1.3788;stroke-miterlimit:4;stroke-dasharray:none;stroke-opacity:1"
     sodipodi:nodetypes="ssscs" /><g
     id="g1122"
     style="fill:#ffffff;fill-opacity:1"
     transform="matrix(0.5,0,0,0.5,109.5632,34.853684)"><path
       id="path437"
       d="M 96.702067,3.5205601 A 2.374827,2.374827 0 0 1 94.32724,5.895387 2.374827,2.374827 0 0 1 91.952413,3.5205601 a 2.374827,2.374827 0 0 1 2.374827,-2.374827 2.374827,2.374827 0 0 1 2.374827,2.374827 z"
       style="fill:#ffffff;fill-opacity:1;stroke-width:0.0653179" /><path
       id="path434"
       d="m 94.608564,26.395464 v 2.229037 c 0,0.759386 0.615621,1.375072 1.375072,1.375072 0.75945,0 1.375071,-0.615621 1.375071,-1.375072 l -0.02502,-12.793157 -2.258794,0.659565 -0.415579,2.089644 c 0.0048,-0.0049 -0.0105,6.37034 -0.05075,7.814911 z"
       sodipodi:nodetypes="cssscccc"
       style="fill:#ffffff;fill-opacity:1;stroke-width:0.0653179" /><path
       id="path431"
       d="m 100.14432,17.166311 -0.007,-1.334967 -0.0326,-6.4809033 c -0.008,-1.4876796 -1.223929,-2.698085 -2.71174,-2.698085 H 92.334849 L 88.222632,4.3015658 86.375443,0.63057129 C 86.090984,0.0653105 85.402142,-0.16232226 84.83675,0.12207172 84.27149,0.40653102 84.043726,1.0954385 84.328251,1.6607646 l 2.002384,3.9793602 c 0.101243,0.2011137 0.259443,0.3680009 0.454939,0.4796944 l 4.478585,2.5602643 5.22e-4,19.9444175 c 0,0.759386 0.615621,1.375072 1.375072,1.375072 0.759451,0 1.375072,-0.615621 1.375072,-1.375072 V 25.98272 c 0.330844,-4.314311 -0.513728,-8.794601 3.318866,-10.151376 V 9.3589321 c 0,-0.1323994 0.107317,-0.2397819 0.239781,-0.2397819 0.1324,-6.53e-5 0.239848,0.1072519 0.239848,0.2397165 v 0.00314 l 0.03253,6.4693423 0.0067,1.334967 c 0.01419,1.204879 2.27502,1.379854 2.29174,0 z"
       sodipodi:nodetypes="cccscccccccccssccscscccc"
       style="fill:#ffffff;fill-opacity:1;stroke-width:0.0653179" /></g></g>
</g>
<g
   id="g6"
   transform="translate(-140.85888,-23.62155)">
</g>
<g
   id="g8"
   transform="translate(-140.85888,-23.62155)">
</g>
<g
   id="g10"
   transform="translate(-140.85888,-23.62155)">
</g>
<g
   id="g12"
   transform="translate(-140.85888,-23.62155)">
</g>
<g
   id="g14"
   transform="translate(-140.85888,-23.62155)">
</g>
<g
   id="g16"
   transform="translate(-140.85888,-23.62155)">
</g>
<g
   id="g18"
   transform="translate(-140.85888,-23.62155)">
</g>
<g
   id="g20"
   transform="translate(-140.85888,-23.62155)">
</g>
<g
   id="g22"
   transform="translate(-140.85888,-23.62155)">
</g>
<g
   id="g24"
   transform="translate(-140.85888,-23.62155)">
</g>
<g
   id="g26"
   transform="translate(-140.85888,-23.62155)">
</g>
<g
   id="g28"
   transform="translate(-140.85888,-23.62155)">
</g>
<g
   id="g30"
   transform="translate(-140.85888,-23.62155)">
</g>
<g
   id="g32"
   transform="translate(-140.85888,-23.62155)">
</g>
<g
   id="g34"
   transform="translate(-140.85888,-23.62155)">
</g>
</svg>
