<?xml version="1.0" encoding="UTF-8" standalone="no"?>
<svg
   width="64"
   height="64"
   viewBox="0 0 64 64"
   fill="none"
   version="1.1"
   id="svg4"
   sodipodi:docname="hike.svg"
   inkscape:version="1.2 (dc2aedaf03, 2022-05-15)"
   xmlns:inkscape="http://www.inkscape.org/namespaces/inkscape"
   xmlns:sodipodi="http://sodipodi.sourceforge.net/DTD/sodipodi-0.dtd"
   xmlns="http://www.w3.org/2000/svg"
   xmlns:svg="http://www.w3.org/2000/svg">
  <defs
     id="defs8" />
  <sodipodi:namedview
     id="namedview6"
     pagecolor="#ffffff"
     bordercolor="#666666"
     borderopacity="1.0"
     inkscape:pageshadow="2"
     inkscape:pageopacity="0.0"
     inkscape:pagecheckerboard="0"
     showgrid="false"
     inkscape:snap-object-midpoints="true"
     fit-margin-top="0"
     fit-margin-left="0"
     fit-margin-right="0"
     fit-margin-bottom="0"
     inkscape:zoom="7.18"
     inkscape:cx="0.20891365"
     inkscape:cy="34.888579"
     inkscape:window-width="1920"
     inkscape:window-height="991"
     inkscape:window-x="-9"
     inkscape:window-y="-9"
     inkscape:window-maximized="1"
     inkscape:current-layer="svg4"
     inkscape:showpageshadow="2"
     inkscape:deskcolor="#d1d1d1" />
  <circle
     cx="32"
     cy="32"
     r="32"
     fill="#4460a0"
     id="circle2"
     style="fill:#4ca6a8;fill-opacity:1" />
  <path
     fill-rule="evenodd"
     clip-rule="evenodd"
     d="m 30.824018,18 c 1.335751,0 2.416879,1.113076 2.416879,2.448846 0,1.335424 -1.081128,2.44851 -2.416879,2.44851 -1.335772,0 -2.448848,-1.113086 -2.448848,-2.44851 C 28.37517,19.113076 29.488573,18 30.824018,18 Z m 0.159132,5.120041 c 0.919054,-0.02893 1.629594,0.5432 2.003488,1.145023 l 2.544036,4.229641 4.452315,1.876329 c 1.271855,0.540215 0.667708,2.225826 -0.763281,1.844372 -0.05133,-0.03453 -0.10435,-0.06627 -0.159134,-0.09557 l -2.989405,6.61457 c 0,0 0.953971,2.194531 2.162583,4.675327 1.176655,2.512088 -1.685593,3.593543 -2.7351,1.271855 l -1.04917,-2.35331 -1.526498,3.339237 -0.636067,-0.286253 1.780793,-3.879807 -2.989405,-6.519045 c -0.12712,0.03173 -0.254334,0 -0.413376,0 0,0 -3.466394,7.886437 -4.420701,9.95381 -0.922042,2.067056 -3.656796,0.826841 -2.734774,-1.20893 0.922322,-2.035108 5.311104,-11.925339 5.311104,-11.925339 l -3.262163,0.0532 c -0.494108,0.0043 -0.612361,-0.07467 -0.643628,-0.444734 -0.0504,-0.978358 -0.136734,-3.280279 0.0896,-4.347239 0.291854,-1.375287 0.466108,-2.888932 1.430961,-3.339238 0.96518,-0.450334 2.639573,0.795201 2.639573,0.795201 0.254333,-0.826841 1.049506,-1.399339 1.908277,-1.399339 z m 1.97153,4.960925 v 3.816882 l 2.735101,5.978811 2.734772,-6.010759 -3.975006,-1.653645 c -0.191054,-0.09557 -0.349814,-0.222693 -0.477308,-0.413373 z"
     fill="#000000"
     id="path2"
     style="fill:#ffffff;stroke-width:0.329412" />
</svg>
