<?xml version="1.0" encoding="UTF-8" standalone="no"?>
<svg
   width="64"
   height="64"
   viewBox="0 0 64 64"
   fill="none"
   version="1.1"
   id="svg4"
   sodipodi:docname="hike.svg"
   inkscape:version="1.2 (dc2aedaf03, 2022-05-15)"
   xmlns:inkscape="http://www.inkscape.org/namespaces/inkscape"
   xmlns:sodipodi="http://sodipodi.sourceforge.net/DTD/sodipodi-0.dtd"
   xmlns="http://www.w3.org/2000/svg"
   xmlns:svg="http://www.w3.org/2000/svg">
  <defs
     id="defs8" />
  <sodipodi:namedview
     id="namedview6"
     pagecolor="#ffffff"
     bordercolor="#666666"
     borderopacity="1.0"
     inkscape:pageshadow="2"
     inkscape:pageopacity="0.0"
     inkscape:pagecheckerboard="0"
     showgrid="false"
     inkscape:snap-object-midpoints="true"
     fit-margin-top="0"
     fit-margin-left="0"
     fit-margin-right="0"
     fit-margin-bottom="0"
     inkscape:zoom="7.18"
     inkscape:cx="12.534819"
     inkscape:cy="34.888579"
     inkscape:window-width="1920"
     inkscape:window-height="991"
     inkscape:window-x="-9"
     inkscape:window-y="-9"
     inkscape:window-maximized="1"
     inkscape:current-layer="svg4"
     inkscape:showpageshadow="2"
     inkscape:deskcolor="#d1d1d1" />
  <circle
     cx="32"
     cy="32"
     r="32"
     fill="#4460a0"
     id="circle2"
     style="fill:#67b779;fill-opacity:1" />
  <path
     fill-rule="evenodd"
     clip-rule="evenodd"
     d="m 30.740019,17 c 1.431162,0 2.589514,1.192582 2.589514,2.623764 0,1.430812 -1.158352,2.623404 -2.589514,2.623404 -1.431183,0 -2.623765,-1.192592 -2.623765,-2.623404 C 28.116254,18.192582 29.309186,17 30.740019,17 Z m 0.1705,5.485759 c 0.984701,-0.031 1.745993,0.582 2.146593,1.226811 l 2.725754,4.531758 4.770338,2.010353 c 1.362702,0.578801 0.715401,2.384813 -0.817801,1.976113 -0.055,-0.037 -0.111801,-0.071 -0.170501,-0.1024 l -3.202935,7.087041 c 0,0 1.022112,2.351283 2.317054,5.009278 1.260702,2.691524 -1.805993,3.850226 -2.930465,1.362702 l -1.124111,-2.521404 -1.635533,3.577755 -0.681501,-0.3067 1.907993,-4.156937 -3.202935,-6.984691 c -0.1362,0.034 -0.2725,0 -0.442901,0 0,0 -3.713995,8.449754 -4.736467,10.664797 -0.987902,2.214704 -3.917996,0.885901 -2.930115,-1.295282 0.988202,-2.180473 5.690469,-12.77715 5.690469,-12.77715 l -3.495175,0.057 c -0.529401,0.0046 -0.656101,-0.08 -0.689601,-0.476501 -0.054,-1.048241 -0.146501,-3.514585 0.096,-4.657757 0.3127,-1.473522 0.499401,-3.095285 1.533172,-3.577755 1.034122,-0.482501 2.828115,0.852001 2.828115,0.852001 0.2725,-0.885901 1.124471,-1.499292 2.044583,-1.499292 z m 2.112353,5.315278 v 4.089516 l 2.930465,6.40587 2.930114,-6.4401 -4.258936,-1.771763 c -0.204701,-0.1024 -0.374801,-0.2386 -0.511401,-0.4429 z"
     fill="#000000"
     id="path2"
     style="fill:#ffffff;stroke-width:0.352941" />
</svg>
