<?xml version="1.0" encoding="UTF-8" standalone="no"?>
<svg
   id="Layer_1_1_"
   version="1.1"
   viewBox="0 0 32.275759 40.000003"
   xml:space="preserve"
   sodipodi:docname="hikePin.svg"
   inkscape:version="1.2 (dc2aedaf03, 2022-05-15)"
   width="32.275757"
   height="40"
   xmlns:inkscape="http://www.inkscape.org/namespaces/inkscape"
   xmlns:sodipodi="http://sodipodi.sourceforge.net/DTD/sodipodi-0.dtd"
   xmlns="http://www.w3.org/2000/svg"
   xmlns:svg="http://www.w3.org/2000/svg"><defs
     id="defs137" /><sodipodi:namedview
     id="namedview135"
     pagecolor="#ffa0a0"
     bordercolor="#666666"
     borderopacity="1.0"
     inkscape:pageshadow="2"
     inkscape:pageopacity="0"
     inkscape:pagecheckerboard="0"
     showgrid="false"
     inkscape:zoom="5.7812499"
     inkscape:cx="15.048649"
     inkscape:cy="38.486487"
     inkscape:window-width="1920"
     inkscape:window-height="991"
     inkscape:window-x="-9"
     inkscape:window-y="-9"
     inkscape:window-maximized="1"
     inkscape:current-layer="g132"
     fit-margin-top="0"
     fit-margin-left="0"
     fit-margin-right="0"
     fit-margin-bottom="0"
     inkscape:snap-nodes="false"
     inkscape:snap-others="true"
     inkscape:snap-bbox="false"
     inkscape:snap-bbox-midpoints="true"
     inkscape:snap-object-midpoints="true"
     inkscape:showpageshadow="2"
     inkscape:deskcolor="#ffa0a0" /><g
     id="g132"
     transform="translate(19.225944,8.5366932)"><path
       d="m -3.088066,-7.8472932 c -8.531961,-4e-7 -15.448481,6.91652234 -15.448478,15.448484 0,10.3118592 11.8760184,23.1727162 15.448478,23.1727162 3.57246144,0 15.448479,-12.860857 15.448479,-23.1727162 5e-6,-8.53196179 -6.9165165,-15.4484849 -15.448479,-15.448484 z"
       fill="#464646"
       id="path4"
       style="fill:#67b779;fill-opacity:1;stroke:#fcfcfc;stroke-width:1.3788;stroke-miterlimit:4;stroke-dasharray:none;stroke-opacity:1"
       sodipodi:nodetypes="ssscs" /><path
       fill-rule="evenodd"
       clip-rule="evenodd"
       d="m -3.7180454,1.9633069 c 0.7155842,0 1.2947577,0.5962922 1.2947577,1.3118779 0,0.7154095 -0.5791735,1.3117009 -1.2947577,1.3117009 -0.7155879,0 -1.3118793,-0.5962914 -1.3118793,-1.3117009 0,-0.7155857 0.5964676,-1.3118779 1.3118793,-1.3118779 z m 0.085235,2.7428731 c 0.4923504,-0.015352 0.8729935,0.2909986 1.0732901,0.6134094 l 1.3628771,2.2658744 2.3851664,1.0051732 c 0.6813505,0.28941 0.3577059,1.192408 -0.40887914,0.988055 -0.027405,-0.01864 -0.05589,-0.03574 -0.085235,-0.05118 l -1.6014656,3.543517 c 0,0 0.5110568,1.175643 1.1585253,2.504637 0.6303496,1.345762 -0.9029972,1.925111 -1.46523046,0.68135 l -0.5620576,-1.2607 -0.817762,1.788876 -0.3407633,-0.15335 0.9539972,-2.078465 -1.6014657,-3.492341 c -0.068115,0.01694 -0.1362323,0 -0.2214668,0 0,0 -1.8569947,4.224868 -2.3682277,5.332392 -0.493942,1.107349 -1.958996,0.442941 -1.465054,-0.647644 0.494114,-1.090231 2.8452262,-6.388565 2.8452262,-6.388565 l -1.7475832,0.02859 c -0.264705,0.0023 -0.328059,-0.03988 -0.344822,-0.238235 -0.02699,-0.524116 -0.07324,-1.757288 0.048,-2.3288744 0.156354,-0.7367619 0.249707,-1.5476419 0.766586,-1.7888757 0.517058,-0.2412346 1.414053,0.4259978 1.414053,0.4259978 0.136236,-0.4429389 0.5622339,-0.7496439 1.0222938,-0.7496439 z m 1.0561713,2.6576378 V 9.408575 l 1.4652307,3.20293 L 0.35364646,9.391458 -1.7758193,8.505578 C -1.8781696,8.454398 -1.9632286,8.386285 -2.0315236,8.284108 Z"
       fill="#000000"
       id="path2"
       style="fill:#ffffff;stroke-width:0.17647" /></g></svg>
