<?xml version="1.0" encoding="UTF-8" standalone="no"?>
<svg
   id="Layer_1_1_"
   version="1.1"
   viewBox="0 0 32.275759 40.000003"
   xml:space="preserve"
   sodipodi:docname="hikePin.svg"
   inkscape:version="1.2 (dc2aedaf03, 2022-05-15)"
   width="32.275757"
   height="40"
   xmlns:inkscape="http://www.inkscape.org/namespaces/inkscape"
   xmlns:sodipodi="http://sodipodi.sourceforge.net/DTD/sodipodi-0.dtd"
   xmlns="http://www.w3.org/2000/svg"
   xmlns:svg="http://www.w3.org/2000/svg"><defs
     id="defs137" /><sodipodi:namedview
     id="namedview135"
     pagecolor="#ffa0a0"
     bordercolor="#666666"
     borderopacity="1.0"
     inkscape:pageshadow="2"
     inkscape:pageopacity="0"
     inkscape:pagecheckerboard="0"
     showgrid="false"
     inkscape:zoom="16.351844"
     inkscape:cx="-1.0396381"
     inkscape:cy="13.301252"
     inkscape:window-width="958"
     inkscape:window-height="981"
     inkscape:window-x="944"
     inkscape:window-y="0"
     inkscape:window-maximized="0"
     inkscape:current-layer="g132"
     fit-margin-top="0"
     fit-margin-left="0"
     fit-margin-right="0"
     fit-margin-bottom="0"
     inkscape:snap-nodes="false"
     inkscape:snap-others="true"
     inkscape:snap-bbox="false"
     inkscape:snap-bbox-midpoints="true"
     inkscape:snap-object-midpoints="true"
     inkscape:showpageshadow="2"
     inkscape:deskcolor="#ffa0a0" /><g
     id="g132"
     transform="translate(19.225944,8.5366932)"><path
       d="m -3.088066,-7.8472932 c -8.531961,-4e-7 -15.448481,6.91652234 -15.448478,15.448484 0,10.3118592 11.8760184,23.1727162 15.448478,23.1727162 3.57246144,0 15.448479,-12.860857 15.448479,-23.1727162 5e-6,-8.53196179 -6.9165165,-15.4484849 -15.448479,-15.448484 z"
       fill="#464646"
       id="path4"
       style="fill:#67b779;fill-opacity:1;stroke:#fcfcfc;stroke-width:1.3788;stroke-miterlimit:4;stroke-dasharray:none;stroke-opacity:1"
       sodipodi:nodetypes="ssscs" /><path
       fill-rule="evenodd"
       clip-rule="evenodd"
       d="m -3.2097643,-0.94225225 c 0.954112,0 1.726343,0.795056 1.726343,1.74917004 0,0.95387901 -0.772231,1.74893401 -1.726343,1.74893401 -0.954117,0 -1.749172,-0.795055 -1.749172,-1.74893401 0,-0.95411404 0.79529,-1.74917004 1.749172,-1.74917004 z m 0.113647,3.65716305 c 0.656467,-0.02047 1.163991,0.387998 1.431053,0.817879 l 1.81716903,3.021165 3.18022097,1.340231 c 0.908467,0.38588 0.476941,1.5898764 -0.545172,1.3174055 -0.03654,-0.02485 -0.07452,-0.04765 -0.113647,-0.06824 L 0.53821983,13.86804 c 0,0 0.68140887,1.567523 1.54469987,3.339515 0.840466,1.794349 -1.20399587,2.566814 -1.95363997,0.908467 l -0.74940997,-1.680934 -1.09034906,2.385168 -0.454351,-0.204467 1.27199607,-2.771286 -2.13528707,-4.656453 c -0.09082,0.02259 -0.181643,0 -0.295289,0 0,0 -2.475992,5.633156 -3.157636,7.109854 -0.658589,1.476465 -2.611994,0.590588 -1.953405,-0.863525 0.658818,-1.453641 3.793634,-8.5180852 3.793634,-8.5180852 l -2.33011,0.03812 c -0.352941,0.003 -0.437412,-0.05318 -0.459763,-0.317646 -0.03599,-0.698821 -0.09765,-2.34305 0.064,-3.105165 0.208472,-0.982349 0.332942,-2.063522 1.022114,-2.385167 0.689411,-0.321646 1.885404,0.567997 1.885404,0.567997 0.181648,-0.590585 0.749645,-0.999525 1.363058,-0.999525 z m 1.408228,3.543516 v 2.726342 L 0.26575073,13.255341 2.2191567,8.9619458 -0.62013024,7.7807738 c -0.136467,-0.06824 -0.249879,-0.159058 -0.34093899,-0.295293 z"
       fill="#000000"
       id="path2"
       style="fill:#ffffff;stroke-width:0.235293" /></g></svg>
