<?xml version="1.0" encoding="UTF-8" standalone="no"?>
<svg
   width="64"
   height="64"
   viewBox="0 0 64 64"
   fill="none"
   version="1.1"
   id="svg4"
   sodipodi:docname="hike.svg"
   inkscape:version="1.1 (c68e22c387, 2021-05-23)"
   xmlns:inkscape="http://www.inkscape.org/namespaces/inkscape"
   xmlns:sodipodi="http://sodipodi.sourceforge.net/DTD/sodipodi-0.dtd"
   xmlns="http://www.w3.org/2000/svg"
   xmlns:svg="http://www.w3.org/2000/svg">
  <defs
     id="defs8" />
  <sodipodi:namedview
     id="namedview6"
     pagecolor="#ffffff"
     bordercolor="#666666"
     borderopacity="1.0"
     inkscape:pageshadow="2"
     inkscape:pageopacity="0.0"
     inkscape:pagecheckerboard="0"
     showgrid="false"
     inkscape:snap-object-midpoints="true"
     fit-margin-top="0"
     fit-margin-left="0"
     fit-margin-right="0"
     fit-margin-bottom="0"
     inkscape:zoom="7.18"
     inkscape:cx="27.228412"
     inkscape:cy="34.470752"
     inkscape:window-width="1920"
     inkscape:window-height="991"
     inkscape:window-x="-9"
     inkscape:window-y="-9"
     inkscape:window-maximized="1"
     inkscape:current-layer="svg4" />
  <circle
     cx="32"
     cy="32"
     r="32"
     fill="#4460a0"
     id="circle2"
     style="fill:#449d59;fill-opacity:1" />
  <path
     fill-rule="evenodd"
     clip-rule="evenodd"
     d="m 30.317488,11.969443 c 1.91114,0 3.45796,1.592541 3.45796,3.503685 0,1.910672 -1.54682,3.503213 -3.45796,3.503213 -1.91115,0 -3.50369,-1.592541 -3.50369,-3.503213 0,-1.911144 1.59301,-3.503685 3.50369,-3.503685 z m 0.22764,7.325501 c 1.31494,-0.041 2.33154,0.777182 2.86648,1.638257 l 3.63989,6.051563 6.37016,2.684556 c 1.81971,0.77294 0.95534,3.184611 -1.09201,2.638839 -0.0732,-0.04977 -0.14926,-0.09544 -0.22764,-0.136679 l -4.2771,9.463814 c 0,0 1.3649,3.139837 3.09412,6.689236 1.6835,3.59418 -2.41167,5.14147 -3.91325,1.81971 l -1.50111,-3.367004 -2.18403,4.777624 -0.91009,-0.40956 2.54788,-5.55104 -4.2771,-9.327135 c -0.18192,0.04525 -0.36384,0 -0.59148,0 0,0 -4.95955,11.283525 -6.32492,14.241435 -1.31919,2.95744 -5.23197,1.18298 -3.91278,-1.72969 1.31965,-2.911724 7.59886,-17.0622 7.59886,-17.0622 l -4.66734,0.07635 c -0.70696,0.0061 -0.87616,-0.106515 -0.92093,-0.636262 -0.0721,-1.399778 -0.19559,-4.69326 0.12819,-6.219819 0.41758,-1.9677 0.6669,-4.133349 2.04735,-4.777623 1.38093,-0.644275 3.77657,1.137731 3.77657,1.137731 0.36385,-1.182976 1.50158,-2.002105 2.73028,-2.002105 z m 2.82076,7.09786 v 5.461016 l 3.91325,8.554194 3.91278,-8.59991 -5.68725,-2.365954 c -0.27335,-0.136678 -0.50052,-0.318602 -0.68292,-0.591488 z"
     fill="#000000"
     id="path2"
     style="fill:#ffffff;stroke-width:0.471305" />
</svg>
