<?xml version="1.0" encoding="UTF-8" standalone="no"?>
<!-- Uploaded to SVGRepo https://www.svgrepo.com -->

<svg
   version="1.2"
   id="Layer_1"
   x="0px"
   y="0px"
   viewBox="0 0 64 64"
   xml:space="preserve"
   sodipodi:docname="speleo.svg"
   inkscape:version="1.1 (c68e22c387, 2021-05-23)"
   width="64"
   height="64"
   xmlns:inkscape="http://www.inkscape.org/namespaces/inkscape"
   xmlns:sodipodi="http://sodipodi.sourceforge.net/DTD/sodipodi-0.dtd"
   xmlns="http://www.w3.org/2000/svg"
   xmlns:svg="http://www.w3.org/2000/svg"><defs
   id="defs11" /><sodipodi:namedview
   id="namedview9"
   pagecolor="#ffffff"
   bordercolor="#666666"
   borderopacity="1.0"
   inkscape:pageshadow="2"
   inkscape:pageopacity="0.0"
   inkscape:pagecheckerboard="0"
   showgrid="false"
   inkscape:snap-object-midpoints="false"
   inkscape:snap-bbox="true"
   inkscape:snap-bbox-midpoints="true"
   inkscape:zoom="7.9328542"
   inkscape:cx="24.896462"
   inkscape:cy="23.005591"
   inkscape:window-width="1920"
   inkscape:window-height="991"
   inkscape:window-x="-9"
   inkscape:window-y="-9"
   inkscape:window-maximized="1"
   inkscape:current-layer="Layer_1"
   fit-margin-top="0"
   fit-margin-left="0"
   fit-margin-right="0"
   fit-margin-bottom="0" />

<circle
   cx="32"
   cy="32"
   r="32"
   fill="#4460a0"
   id="circle2"
   style="fill:#17171c;fill-opacity:1" /><g
   id="XMLID_2_"
   transform="matrix(0.16306015,0,0,0.16306015,11.134884,9.1235136)"
   style="fill:#ffffff">
	<path
   id="XMLID_7_"
   d="m 166.6,59.9 c 0,10.2 -8.3,18.5 -18.4,18.5 -6.3,0 -11.8,-3.2 -15.1,-7.9 h 5.8 c 3.9,0 7.2,-2.3 8.8,-5.5 l 2.5,-5.4 c 0.2,-0.3 0.5,-0.6 0.9,-0.6 h 15.5 z"
   style="fill:#ffffff" />
	<path
   id="XMLID_6_"
   d="m 170.1,54.2 c -2.5,-9.8 -11.4,-17 -22,-17 -12.6,0 -22.7,10.2 -22.7,22.7 0,2.1 0.3,4.1 0.8,5.9 h 12.6 c 2,0 3.8,-1.2 4.6,-2.9 l 2.4,-5.4 c 0.9,-2 2.9,-3.3 5.2,-3.3 z"
   style="fill:#ffffff" />
	<path
   id="XMLID_5_"
   d="m 104.8,70.6 c 2.3,-1.9 2.6,-5.2 0.8,-7.4 L 95.6,51 C 93.8,48.7 90.4,48.4 88.2,50.2 L 45.7,84.8 c -2.2,1.8 -2.6,5.2 -0.8,7.5 l 10,12.2 c 1.8,2.2 5.2,2.6 7.5,0.8 z"
   style="fill:#ffffff" />
	<path
   id="XMLID_4_"
   d="m 62.8,119.6 c -2.4,1.8 -4.5,4.2 -6,7 -1.5,2.7 -2.4,5.5 -2.9,8.3 L 41.8,187.2 8.3,219.3 c -0.9,0.9 -1.7,1.8 -2.3,3 -3.5,6.1 -1.4,14 4.8,17.5 4.9,2.8 11,2 15,-1.7 L 63,202.2 c 0.5,-0.7 1,-1.4 1.5,-2.1 0.5,-1 1,-2 1.3,-3 L 73.4,164 98.3,188.8 98,230.6 c 0,4.5 2.3,8.8 6.5,11.1 6.1,3.5 14,1.4 17.5,-4.8 1.2,-2.2 1.7,-4.6 1.6,-6.9 l 0.1,-46.5 c 0.1,-3.3 -1.1,-6.6 -3.4,-9.1 L 93.5,148 l 30.8,-25.3 7.1,19.7 c 0.6,1.3 1.5,2.5 2.7,3.4 l 29.5,22.4 c 4,2.4 9.3,1.8 12.6,-1.7 3.8,-4.1 3.6,-10.5 -0.5,-14.3 -0.1,-0.1 -0.3,-0.2 -0.4,-0.3 l -25.8,-19.7 -12,-35.1 c -1.9,-4.6 -5.3,-8.6 -10,-11.3 -7.9,-4.5 -17.5,-3.9 -24.5,0.9 z"
   style="fill:#ffffff" />
	<path
   id="XMLID_3_"
   d="m 177.1,54.4 c -0.8,-0.8 -1.4,-1.9 -1.4,-3.1 0,-2.4 1.9,-4.3 4.2,-4.3 l 63.8,0.1 c 6.5,0.1 10.4,18.3 6.1,32.7 -4.1,13.3 -16.2,30.5 -21.9,24.7 z"
   style="fill:#ffffff" />
</g></svg>
