<?xml version="1.0" encoding="UTF-8" standalone="no"?>
<svg
   id="emoji"
   viewBox="0 0 32.27576 40.000001"
   version="1.1"
   sodipodi:docname="islam.svg"
   width="32.275761"
   height="40"
   inkscape:version="1.1 (c68e22c387, 2021-05-23)"
   xmlns:inkscape="http://www.inkscape.org/namespaces/inkscape"
   xmlns:sodipodi="http://sodipodi.sourceforge.net/DTD/sodipodi-0.dtd"
   xmlns="http://www.w3.org/2000/svg"
   xmlns:svg="http://www.w3.org/2000/svg">
  <defs
     id="defs26" />
  <sodipodi:namedview
     id="namedview24"
     pagecolor="#ffffff"
     bordercolor="#666666"
     borderopacity="1.0"
     inkscape:pageshadow="2"
     inkscape:pageopacity="0.0"
     inkscape:pagecheckerboard="true"
     showgrid="false"
     inkscape:zoom="3.6337433"
     inkscape:cx="27.382232"
     inkscape:cy="23.804654"
     inkscape:window-width="1920"
     inkscape:window-height="1013"
     inkscape:window-x="1911"
     inkscape:window-y="-9"
     inkscape:window-maximized="1"
     inkscape:current-layer="emoji"
     fit-margin-top="0"
     fit-margin-left="0"
     fit-margin-right="0"
     fit-margin-bottom="0" />
  <path
     d="M 16.13788,0.68940002 C 7.6059179,0.68939922 0.68939762,7.6059227 0.68940002,16.137884 c 0,10.311858 11.87601798,23.172716 15.44847998,23.172716 3.572461,0 15.448479,-12.860858 15.448479,-23.172716 4e-6,-8.5319621 -6.916518,-15.44848478 -15.448479,-15.44848398 z"
     fill="#464646"
     id="path4-2"
     style="fill:#2e354f;fill-opacity:1;stroke:#fcfcfc;stroke-width:1.3788;stroke-miterlimit:4;stroke-dasharray:none;stroke-opacity:1"
     sodipodi:nodetypes="ssscs" />
  <g
     id="hair"
     transform="translate(40.283571,47.102725)" />
  <g
     id="skin-shadow"
     transform="translate(40.283571,47.102725)" />
  <path
     d="m 18.53788,9.0917394 c -1.3,0 -2.50312,0.3218719 -3.60936,0.9656236 -1.106264,0.643752 -1.981263,1.518752 -2.625015,2.625 -0.643752,1.106248 -0.965624,2.309376 -0.965624,3.609376 0,1.3 0.321872,2.503119 0.965624,3.609359 0.643752,1.10624 1.518751,1.98128 2.625015,2.62504 1.10624,0.64376 2.30936,0.9656 3.60936,0.9656 1.18752,0 2.33128,-0.26872 3.43128,-0.80624 1.1,-0.53752 2.02496,-1.25624 2.77496,-2.15624 -0.8,1.61248 -1.96872,2.90936 -3.50624,3.89064 -1.537521,0.9812 -3.23752,1.47184 -5.1,1.47184 -1.3,0 -2.543751,-0.25312 -3.731247,-0.75936 -1.187504,-0.50624 -2.209376,-1.18752 -3.065624,-2.04376 -0.856256,-0.85624 -1.5375043,-1.87816 -2.0437531,-3.0656 -0.5062503,-1.18752 -0.7593751,-2.431279 -0.7593751,-3.731279 0,-1.3 0.2531248,-2.543752 0.7593751,-3.731248 0.5062488,-1.187504 1.1874971,-2.209376 2.0437531,-3.0656237 0.856248,-0.8562559 1.87812,-1.5375036 3.065624,-2.0437524 1.187496,-0.5062503 2.431247,-0.7593751 3.731247,-0.7593751 1.86248,0 3.562479,0.4906248 5.1,1.4718716 1.53752,0.981256 2.70624,2.2781276 3.506239,3.8906236 -0.749999,-0.9 -1.674959,-1.618744 -2.774959,-2.1562477 -1.1,-0.5374959 -2.24376,-0.8062479 -3.43128,-0.8062479 z m 2.73752,6.0562396 0.86248,-2.45624 0.862479,2.45624 2.73752,-0.01872 -2.212479,1.66872 0.731199,2.493759 -2.118719,-1.462479 -2.11872,1.462479 0.731199,-2.493759 -2.212479,-1.66872 z"
     fill="black"
     id="path2"
     style="fill:#ffffff;fill-opacity:1;stroke-width:0.8" />
</svg>
