<?xml version="1.0" encoding="UTF-8" standalone="no"?>
<svg
   id="emoji"
   viewBox="0 0 32.27576 40.000001"
   version="1.1"
   sodipodi:docname="ortodox.svg"
   width="32.275761"
   height="40"
   inkscape:version="1.1 (c68e22c387, 2021-05-23)"
   xmlns:inkscape="http://www.inkscape.org/namespaces/inkscape"
   xmlns:sodipodi="http://sodipodi.sourceforge.net/DTD/sodipodi-0.dtd"
   xmlns="http://www.w3.org/2000/svg"
   xmlns:svg="http://www.w3.org/2000/svg">
  <defs
     id="defs26" />
  <sodipodi:namedview
     id="namedview24"
     pagecolor="#ffffff"
     bordercolor="#666666"
     borderopacity="1.0"
     inkscape:pageshadow="2"
     inkscape:pageopacity="0.0"
     inkscape:pagecheckerboard="true"
     showgrid="false"
     inkscape:zoom="7.2674865"
     inkscape:cx="26.487837"
     inkscape:cy="13.828715"
     inkscape:window-width="1920"
     inkscape:window-height="1013"
     inkscape:window-x="-9"
     inkscape:window-y="-9"
     inkscape:window-maximized="1"
     inkscape:current-layer="emoji"
     fit-margin-top="0"
     fit-margin-left="0"
     fit-margin-right="0"
     fit-margin-bottom="0" />
  <path
     d="M 16.13788,0.68940002 C 7.6059179,0.68939922 0.68939762,7.6059227 0.68940002,16.137884 c 0,10.311858 11.87601798,23.172716 15.44847998,23.172716 3.572461,0 15.448479,-12.860858 15.448479,-23.172716 4e-6,-8.5319621 -6.916518,-15.44848478 -15.448479,-15.44848398 z"
     fill="#464646"
     id="path4-2"
     style="fill:#2e354f;fill-opacity:1;stroke:#fcfcfc;stroke-width:1.3788;stroke-miterlimit:4;stroke-dasharray:none;stroke-opacity:1"
     sodipodi:nodetypes="ssscs" />
  <g
     id="hair"
     transform="translate(40.283571,47.102725)" />
  <g
     id="skin-shadow"
     transform="translate(40.283571,47.102725)" />
  <path
     d="m 9.0644343,12.625977 c 0.07655,4.2e-5 0.153009,0.0055 0.228817,0.01609 -0.0047,-0.03925 -0.0079,-0.07732 -0.009,-0.11657 l -0.0031,-0.0024 v -0.08596 c -4.1e-5,-0.228942 0.04659,-0.455487 0.137016,-0.665809 0.09043,-0.210322 0.2227769,-0.400005 0.3889519,-0.557482 0.166175,-0.157467 0.3627028,-0.279432 0.5775778,-0.358422 0.214875,-0.079 0.443597,-0.113377 0.672204,-0.10104 0.228607,0.0123 0.452305,0.07113 0.657436,0.17279 0.205121,0.101668 0.387382,0.244066 0.535649,0.418509 0.148267,0.174444 0.25942,0.377272 0.326698,0.596103 0.06727,0.218832 0.08924,0.449082 0.06456,0.676684 h 1.902769 v -2.477344 c -0.238319,0.03989 -0.482396,0.02806 -0.715671,-0.03466 -0.233296,-0.06272 -0.450379,-0.1748828 -0.636535,-0.3288638 -0.186144,-0.153982 -0.337007,-0.346197 -0.442351,-0.563605 -0.105331,-0.217408 -0.16269,-0.454922 -0.168185,-0.696444 -0.0055,-0.241523 0.04103,-0.481403 0.136388,-0.703374 0.09536,-0.221961 0.237336,-0.420833 0.416301,-0.5831035 0.178965,-0.1622814 0.390731,-0.2841835 0.62095,-0.3574274 0.230208,-0.073254 0.473437,-0.096144 0.713327,-0.067121 -0.03255,-0.2383198 -0.01371,-0.4808471 0.05526,-0.7112857 0.06897,-0.2304292 0.186511,-0.4434192 0.344659,-0.6246477 0.158147,-0.1812298 0.35324,-0.326496 0.572302,-0.4260325 0.218957,-0.099535 0.456649,-0.1510374 0.697167,-0.1510374 0.240621,0 0.478313,0.051505 0.69727,0.1510374 0.219061,0.099535 0.414155,0.2448027 0.572302,0.4260325 0.158147,0.1812285 0.275685,0.3942185 0.344658,0.6246477 0.06897,0.2304386 0.08781,0.4729659 0.05526,0.7112857 0.239471,-0.028552 0.482187,-0.00534 0.711924,0.068042 0.229738,0.07338 0.440949,0.1952401 0.619506,0.3573227 0.178557,0.1620822 0.320167,0.3606192 0.415411,0.5821722 0.09514,0.221563 0.141611,0.460972 0.136273,0.702055 -0.0054,0.241083 -0.06238,0.478199 -0.167253,0.695335 -0.104873,0.217125 -0.255171,0.409204 -0.44074,0.563228 -0.185465,0.154034 -0.40191,0.2664218 -0.634682,0.3295658 -0.232668,0.06315 -0.476221,0.07559 -0.714227,0.03649 v 2.477396 h 1.902791 c -0.0076,-0.05962 -0.01112,-0.11967 -0.0106,-0.179761 -3.14e-4,-0.23002 0.04658,-0.457664 0.137529,-0.668907 0.09106,-0.211233 0.224399,-0.401595 0.391757,-0.559355 0.167462,-0.15776 0.365382,-0.279568 0.581618,-0.35793 0.216235,-0.07837 0.446287,-0.111624 0.675919,-0.09772 0.229528,0.01389 0.453928,0.07466 0.659069,0.178557 0.205246,0.103892 0.387048,0.248692 0.534205,0.4255 0.147158,0.176799 0.256531,0.381856 0.321423,0.60254 0.06489,0.220684 0.08384,0.452306 0.05579,0.68062 0.23832,-0.0328 0.480931,-0.01417 0.711401,0.05466 0.23047,0.06883 0.443566,0.186239 0.624844,0.344334 0.181278,0.158094 0.326656,0.353198 0.426191,0.572176 0.09954,0.218988 0.15103,0.456753 0.15103,0.697302 0,0.240581 -0.05149,0.478367 -0.15103,0.697387 -0.09953,0.219009 -0.244809,0.414207 -0.426191,0.572355 -0.181278,0.158147 -0.39427,0.27558 -0.62474,0.344553 -0.230574,0.06887 -0.473081,0.0876 -0.711505,0.05495 0.02899,0.243658 0.0043,0.490665 -0.07222,0.723751 -0.0764,0.233087 -0.202944,0.446706 -0.370511,0.625786 -0.167671,0.179185 -0.372394,0.319539 -0.599933,0.411329 -0.22754,0.09179 -0.472349,0.132714 -0.717367,0.12005 -0.245018,-0.01282 -0.48428,-0.07881 -0.701039,-0.193629 -0.216864,-0.114816 -0.405992,-0.27558 -0.554196,-0.471092 -0.148204,-0.195512 -0.251926,-0.420958 -0.303839,-0.660744 -0.05202,-0.239785 -0.05097,-0.488048 0.003,-0.727309 h -1.933457 v 8.840022 c 0.241145,-0.04009 0.488152,-0.02711 0.723856,0.03789 0.235703,0.065 0.45445,0.180545 0.640962,0.338483 0.186615,0.158043 0.336599,0.354706 0.439483,0.576489 0.102885,0.221783 0.156368,0.463243 0.156578,0.707738 -1.05e-4,0.23832 -0.05076,0.473814 -0.148623,0.691096 -0.09776,0.217282 -0.240622,0.411329 -0.418865,0.569372 -0.178348,0.158042 -0.388199,0.276522 -0.615634,0.347484 -0.227434,0.07107 -0.467429,0.09294 -0.703969,0.06447 0.03255,0.23832 0.01371,0.480826 -0.05526,0.711296 -0.06897,0.230366 -0.186511,0.443357 -0.344658,0.624635 -0.158147,0.181172 -0.353241,0.326445 -0.572303,0.425981 -0.218957,0.09953 -0.456649,0.15103 -0.69727,0.15103 -0.240517,0 -0.478209,-0.0515 -0.697166,-0.15103 -0.219062,-0.09954 -0.414155,-0.244809 -0.572303,-0.425981 -0.158147,-0.181278 -0.275685,-0.394269 -0.344658,-0.624635 -0.06897,-0.23047 -0.08781,-0.472976 -0.05526,-0.711296 -0.239994,0.02941 -0.483463,0.0069 -0.713944,-0.06604 -0.23048,-0.07306 -0.44255,-0.194779 -0.621798,-0.357009 -0.179258,-0.162229 -0.321486,-0.36109 -0.417033,-0.583187 -0.09555,-0.222097 -0.142165,-0.462196 -0.136702,-0.703865 0.0055,-0.241669 0.06289,-0.479361 0.168373,-0.696957 0.105488,-0.217492 0.256563,-0.40976 0.442959,-0.56372 0.186406,-0.153961 0.403751,-0.266056 0.637298,-0.328541 0.233548,-0.06248 0.477781,-0.074 0.716205,-0.0337 v -8.83929 h -1.934985 c 0.05261,0.231203 0.05582,0.470883 0.0094,0.703447 -0.04639,0.232563 -0.141328,0.452671 -0.278626,0.645986 -0.137288,0.193314 -0.313845,0.355543 -0.518107,0.475907 -0.204273,0.120468 -0.431656,0.196454 -0.667285,0.222934 -0.23563,0.02648 -0.474201,0.0029 -0.700119,-0.06908 -0.225917,-0.07201 -0.434093,-0.190907 -0.6109128,-0.348845 -0.176738,-0.158106 -0.3182219,-0.351629 -0.4151199,-0.56797 -0.0969,-0.216445 -0.147032,-0.450892 -0.147116,-0.687956 0,-0.06908 0.0047,-0.136586 0.01217,-0.202525 -0.238362,0.03276 -0.480973,0.01403 -0.711484,-0.05484 C 8.3508263,15.85636 8.1377413,15.738923 7.9564423,15.580776 7.7751684,15.422523 7.6298634,15.227387 7.530328,15.008347 7.430803,14.789296 7.3793607,14.551478 7.3794654,14.310877 c -1.57e-4,-0.221312 0.04332,-0.440489 0.1279412,-0.644992 0.084631,-0.204492 0.2087313,-0.390302 0.3652249,-0.546796 0.1564938,-0.156492 0.3423038,-0.280603 0.5468068,-0.365223 0.204492,-0.08462 0.423669,-0.128096 0.644991,-0.127939"
     fill="#495F67"
     id="path2"
     style="fill:#ffffff;fill-opacity:1;stroke-width:1.04664" />
</svg>
