<?xml version="1.0" encoding="UTF-8" standalone="no"?>
<svg
   id="Layer_1_1_"
   version="1.1"
   viewBox="0 0 100 80"
   xml:space="preserve"
   sodipodi:docname="povijesneZnamenitosti.svg"
   inkscape:version="1.1 (c68e22c387, 2021-05-23)"
   width="100"
   height="80"
   xmlns:inkscape="http://www.inkscape.org/namespaces/inkscape"
   xmlns:sodipodi="http://sodipodi.sourceforge.net/DTD/sodipodi-0.dtd"
   xmlns="http://www.w3.org/2000/svg"
   xmlns:svg="http://www.w3.org/2000/svg"><defs
     id="defs137" /><sodipodi:namedview
     id="namedview135"
     pagecolor="#ffffff"
     bordercolor="#666666"
     borderopacity="1.0"
     inkscape:pageshadow="2"
     inkscape:pageopacity="0.0"
     inkscape:pagecheckerboard="0"
     showgrid="false"
     inkscape:zoom="2.890625"
     inkscape:cx="119.35135"
     inkscape:cy="58.291892"
     inkscape:window-width="1920"
     inkscape:window-height="1013"
     inkscape:window-x="-9"
     inkscape:window-y="-9"
     inkscape:window-maximized="1"
     inkscape:current-layer="g132"
     fit-margin-top="0"
     fit-margin-left="0"
     fit-margin-right="0"
     fit-margin-bottom="0" /><g
     id="g132"
     transform="translate(-1,-14)"><rect
       height="48.979591"
       style="fill:#838f9b;stroke-width:1.62274"
       width="74.19355"
       x="13.903226"
       y="43.387756"
       id="rect2" /><rect
       height="6.5306125"
       style="fill:#aab2bd;stroke-width:1.62274"
       width="90.322578"
       x="5.8387098"
       y="53.183674"
       id="rect20" /><polygon
       points="2,32 2,31 32,14 62,31 62,32 "
       style="fill:#969faa"
       id="polygon32"
       transform="matrix(1.6129032,0,0,1.6326531,-0.61290323,-8.8571433)" /><polygon
       points="55,32 9,32 32,18.598 "
       style="fill:#ccd1d9"
       id="polygon34"
       transform="matrix(1.6129032,0,0,1.6326531,-0.61290323,-8.8571433)" /><rect
       height="9.7959185"
       style="fill:#aab2bd;stroke-width:1.62274"
       width="6.4516129"
       x="7.4516129"
       y="43.387756"
       id="rect36" /><path
       d="m 21.967742,92.367348 v -3.265306 c 0,-1.804082 -1.443548,-3.265306 -3.225807,-3.265306 h -6.451612 c -1.782258,0 -3.2258069,1.461224 -3.2258069,3.265306 v 3.265306 z"
       style="fill:#e6e9ed;stroke-width:1.62274"
       id="path38" /><path
       d="m 9.0645161,59.714286 v 3.265307 c 0,1.804081 1.4435489,3.265306 3.2258069,3.265306 h 6.451612 c 1.782259,0 3.225807,-1.461225 3.225807,-3.265306 v -3.265307 z"
       style="fill:#e6e9ed;stroke-width:1.62274"
       id="path40" /><rect
       height="19.591837"
       style="fill:#e6e9ed;stroke-width:1.62274"
       width="6.4516129"
       x="12.290322"
       y="66.244896"
       id="rect42" /><path
       d="m 44.548387,92.367348 v -3.265306 c 0,-1.804082 -1.443548,-3.265306 -3.225806,-3.265306 h -6.451613 c -1.782258,0 -3.225807,1.461224 -3.225807,3.265306 v 3.265306 z"
       style="fill:#e6e9ed;stroke-width:1.62274"
       id="path44" /><path
       d="m 31.645161,59.714286 v 3.265307 c 0,1.804081 1.443549,3.265306 3.225807,3.265306 h 6.451613 c 1.782258,0 3.225806,-1.461225 3.225806,-3.265306 v -3.265307 z"
       style="fill:#e6e9ed;stroke-width:1.62274"
       id="path46" /><rect
       height="19.591837"
       style="fill:#e6e9ed;stroke-width:1.62274"
       width="6.4516129"
       x="34.870968"
       y="66.244896"
       id="rect48" /><path
       d="m 70.354839,92.367348 v -3.265306 c 0,-1.804082 -1.443549,-3.265306 -3.225807,-3.265306 h -6.451613 c -1.782258,0 -3.225806,1.461224 -3.225806,3.265306 v 3.265306 z"
       style="fill:#e6e9ed;stroke-width:1.62274"
       id="path50" /><path
       d="m 57.451613,59.714286 v 3.265307 c 0,1.804081 1.443548,3.265306 3.225806,3.265306 h 6.451613 c 1.782258,0 3.225807,-1.461225 3.225807,-3.265306 v -3.265307 z"
       style="fill:#e6e9ed;stroke-width:1.62274"
       id="path52" /><rect
       height="19.591837"
       style="fill:#e6e9ed;stroke-width:1.62274"
       width="6.4516129"
       x="60.677418"
       y="66.244896"
       id="rect54" /><path
       d="m 92.935484,92.367348 v -3.265306 c 0,-1.804082 -1.443549,-3.265306 -3.225807,-3.265306 h -6.451612 c -1.782259,0 -3.225807,1.461224 -3.225807,3.265306 v 3.265306 z"
       style="fill:#e6e9ed;stroke-width:1.62274"
       id="path56" /><path
       d="m 80.032258,59.714286 v 3.265307 c 0,1.804081 1.443548,3.265306 3.225807,3.265306 h 6.451612 c 1.782258,0 3.225807,-1.461225 3.225807,-3.265306 v -3.265307 z"
       style="fill:#e6e9ed;stroke-width:1.62274"
       id="path58" /><rect
       height="19.591837"
       style="fill:#e6e9ed;stroke-width:1.62274"
       width="6.4516129"
       x="83.258064"
       y="66.244896"
       id="rect60" /><ellipse
       cx="51"
       cy="36.857143"
       style="fill:#e6e9ed;stroke-width:1.62274"
       id="circle62"
       rx="6.4516129"
       ry="6.5306125" /><rect
       height="3.2653062"
       style="fill:#b27946;stroke-width:1.62274"
       width="100"
       x="1"
       y="90.734695"
       id="rect64" /><rect
       height="9.7959185"
       style="fill:#aab2bd;stroke-width:1.62274"
       width="6.4516129"
       x="23.580645"
       y="43.387756"
       id="rect66" /><rect
       height="9.7959185"
       style="fill:#aab2bd;stroke-width:1.62274"
       width="6.4516129"
       x="39.709679"
       y="43.387756"
       id="rect68" /><rect
       height="9.7959185"
       style="fill:#aab2bd;stroke-width:1.62274"
       width="6.4516129"
       x="55.838711"
       y="43.387756"
       id="rect70" /><rect
       height="9.7959185"
       style="fill:#aab2bd;stroke-width:1.62274"
       width="6.4516129"
       x="71.967743"
       y="43.387756"
       id="rect72" /><rect
       height="9.7959185"
       style="fill:#aab2bd;stroke-width:1.62274"
       width="6.4516129"
       x="88.096771"
       y="43.387756"
       id="rect74" /><rect
       height="3.2653062"
       style="fill:#ccd1d9;stroke-width:1.62274"
       width="12.903226"
       x="9.0645161"
       y="59.714287"
       id="rect76" /><rect
       height="3.2653062"
       style="fill:#ccd1d9;stroke-width:1.62274"
       width="12.903226"
       x="31.645161"
       y="59.714287"
       id="rect78" /><rect
       height="3.2653062"
       style="fill:#ccd1d9;stroke-width:1.62274"
       width="12.903226"
       x="57.451614"
       y="59.714287"
       id="rect80" /><rect
       height="3.2653062"
       style="fill:#ccd1d9;stroke-width:1.62274"
       width="12.903226"
       x="80.032257"
       y="59.714287"
       id="rect82" /><path
       d="m 80.479032,87.469389 c -0.275806,0.481633 -0.446774,1.035102 -0.446774,1.632653 v 1.632654 h 12.903226 v -1.632654 c 0,-0.597551 -0.170968,-1.15102 -0.446774,-1.632653 z"
       style="fill:#ccd1d9;stroke-width:1.62274"
       id="path84" /><path
       d="m 57.898387,87.469389 c -0.275806,0.481633 -0.446774,1.035102 -0.446774,1.632653 v 1.632654 h 12.903226 v -1.632654 c 0,-0.597551 -0.170968,-1.15102 -0.446774,-1.632653 z"
       style="fill:#ccd1d9;stroke-width:1.62274"
       id="path86" /><path
       d="m 32.091935,87.469389 c -0.275806,0.481633 -0.446774,1.035102 -0.446774,1.632653 v 1.632654 h 12.903226 v -1.632654 c 0,-0.597551 -0.170968,-1.15102 -0.446774,-1.632653 z"
       style="fill:#ccd1d9;stroke-width:1.62274"
       id="path88" /><path
       d="m 9.5112903,87.469389 c -0.2758064,0.481633 -0.4467742,1.035102 -0.4467742,1.632653 v 1.632654 H 21.967742 v -1.632654 c 0,-0.597551 -0.170968,-1.15102 -0.446774,-1.632653 z"
       style="fill:#ccd1d9;stroke-width:1.62274"
       id="path90" /><rect
       height="3.2653062"
       style="fill:#ccd1d9;stroke-width:1.62274"
       width="6.4516129"
       x="12.290322"
       y="66.244896"
       id="rect92" /><rect
       height="3.2653062"
       style="fill:#ccd1d9;stroke-width:1.62274"
       width="6.4516129"
       x="12.290322"
       y="82.571426"
       id="rect94" /><rect
       height="3.2653062"
       style="fill:#ccd1d9;stroke-width:1.62274"
       width="6.4516129"
       x="34.870968"
       y="66.244896"
       id="rect96" /><rect
       height="3.2653062"
       style="fill:#ccd1d9;stroke-width:1.62274"
       width="6.4516129"
       x="34.870968"
       y="82.571426"
       id="rect98" /><rect
       height="3.2653062"
       style="fill:#ccd1d9;stroke-width:1.62274"
       width="6.4516129"
       x="60.677418"
       y="66.244896"
       id="rect100" /><rect
       height="3.2653062"
       style="fill:#ccd1d9;stroke-width:1.62274"
       width="6.4516129"
       x="60.677418"
       y="82.571426"
       id="rect102" /><rect
       height="3.2653062"
       style="fill:#ccd1d9;stroke-width:1.62274"
       width="6.4516129"
       x="83.258064"
       y="66.244896"
       id="rect104" /><rect
       height="3.2653062"
       style="fill:#ccd1d9;stroke-width:1.62274"
       width="6.4516129"
       x="83.258064"
       y="82.571426"
       id="rect106" /><rect
       height="3.2653062"
       style="fill:#969faa;stroke-width:1.62274"
       width="6.4516129"
       x="7.4516129"
       y="49.918369"
       id="rect108" /><rect
       height="3.2653062"
       style="fill:#969faa;stroke-width:1.62274"
       width="6.4516129"
       x="23.580645"
       y="49.918369"
       id="rect110" /><rect
       height="3.2653062"
       style="fill:#969faa;stroke-width:1.62274"
       width="6.4516129"
       x="7.4516129"
       y="43.387756"
       id="rect112" /><rect
       height="3.2653062"
       style="fill:#969faa;stroke-width:1.62274"
       width="6.4516129"
       x="23.580645"
       y="43.387756"
       id="rect114" /><rect
       height="3.2653062"
       style="fill:#969faa;stroke-width:1.62274"
       width="6.4516129"
       x="39.709679"
       y="49.918369"
       id="rect116" /><rect
       height="3.2653062"
       style="fill:#969faa;stroke-width:1.62274"
       width="6.4516129"
       x="39.709679"
       y="43.387756"
       id="rect118" /><rect
       height="3.2653062"
       style="fill:#969faa;stroke-width:1.62274"
       width="6.4516129"
       x="55.838711"
       y="49.918369"
       id="rect120" /><rect
       height="3.2653062"
       style="fill:#969faa;stroke-width:1.62274"
       width="6.4516129"
       x="55.838711"
       y="43.387756"
       id="rect122" /><rect
       height="3.2653062"
       style="fill:#969faa;stroke-width:1.62274"
       width="6.4516129"
       x="71.967743"
       y="49.918369"
       id="rect124" /><rect
       height="3.2653062"
       style="fill:#969faa;stroke-width:1.62274"
       width="6.4516129"
       x="71.967743"
       y="43.387756"
       id="rect126" /><rect
       height="3.2653062"
       style="fill:#969faa;stroke-width:1.62274"
       width="6.4516129"
       x="88.096771"
       y="49.918369"
       id="rect128" /><rect
       height="3.2653062"
       style="fill:#969faa;stroke-width:1.62274"
       width="6.4516129"
       x="88.096771"
       y="43.387756"
       id="rect130" /><rect
       height="48.979591"
       style="fill:#838f9b;stroke-width:1.62274"
       width="74.19355"
       x="13.903226"
       y="43.387756"
       id="rect873" /><rect
       height="6.5306125"
       style="fill:#aab2bd;stroke-width:1.62274"
       width="90.322578"
       x="5.8387098"
       y="53.183674"
       id="rect875" /><polygon
       points="2,32 2,31 32,14 62,31 62,32 "
       style="fill:#969faa"
       id="polygon877"
       transform="matrix(1.6129032,0,0,1.6326531,-0.61290323,-8.8571433)" /><polygon
       points="55,32 9,32 32,18.598 "
       style="fill:#ccd1d9"
       id="polygon879"
       transform="matrix(1.6129032,0,0,1.6326531,-0.61290323,-8.8571433)" /><rect
       height="9.7959185"
       style="fill:#aab2bd;stroke-width:1.62274"
       width="6.4516129"
       x="7.4516129"
       y="43.387756"
       id="rect881" /><path
       d="m 21.967742,92.367348 v -3.265306 c 0,-1.804082 -1.443548,-3.265306 -3.225807,-3.265306 h -6.451612 c -1.782258,0 -3.2258069,1.461224 -3.2258069,3.265306 v 3.265306 z"
       style="fill:#e6e9ed;stroke-width:1.62274"
       id="path883" /><path
       d="m 9.0645161,59.714286 v 3.265307 c 0,1.804081 1.4435489,3.265306 3.2258069,3.265306 h 6.451612 c 1.782259,0 3.225807,-1.461225 3.225807,-3.265306 v -3.265307 z"
       style="fill:#e6e9ed;stroke-width:1.62274"
       id="path885" /><rect
       height="19.591837"
       style="fill:#e6e9ed;stroke-width:1.62274"
       width="6.4516129"
       x="12.290322"
       y="66.244896"
       id="rect887" /><path
       d="m 44.548387,92.367348 v -3.265306 c 0,-1.804082 -1.443548,-3.265306 -3.225806,-3.265306 h -6.451613 c -1.782258,0 -3.225807,1.461224 -3.225807,3.265306 v 3.265306 z"
       style="fill:#e6e9ed;stroke-width:1.62274"
       id="path889" /><path
       d="m 31.645161,59.714286 v 3.265307 c 0,1.804081 1.443549,3.265306 3.225807,3.265306 h 6.451613 c 1.782258,0 3.225806,-1.461225 3.225806,-3.265306 v -3.265307 z"
       style="fill:#e6e9ed;stroke-width:1.62274"
       id="path891" /><rect
       height="19.591837"
       style="fill:#e6e9ed;stroke-width:1.62274"
       width="6.4516129"
       x="34.870968"
       y="66.244896"
       id="rect893" /><path
       d="m 70.354839,92.367348 v -3.265306 c 0,-1.804082 -1.443549,-3.265306 -3.225807,-3.265306 h -6.451613 c -1.782258,0 -3.225806,1.461224 -3.225806,3.265306 v 3.265306 z"
       style="fill:#e6e9ed;stroke-width:1.62274"
       id="path895" /><path
       d="m 57.451613,59.714286 v 3.265307 c 0,1.804081 1.443548,3.265306 3.225806,3.265306 h 6.451613 c 1.782258,0 3.225807,-1.461225 3.225807,-3.265306 v -3.265307 z"
       style="fill:#e6e9ed;stroke-width:1.62274"
       id="path897" /><rect
       height="19.591837"
       style="fill:#e6e9ed;stroke-width:1.62274"
       width="6.4516129"
       x="60.677418"
       y="66.244896"
       id="rect899" /><path
       d="m 92.935484,92.367348 v -3.265306 c 0,-1.804082 -1.443549,-3.265306 -3.225807,-3.265306 h -6.451612 c -1.782259,0 -3.225807,1.461224 -3.225807,3.265306 v 3.265306 z"
       style="fill:#e6e9ed;stroke-width:1.62274"
       id="path901" /><path
       d="m 80.032258,59.714286 v 3.265307 c 0,1.804081 1.443548,3.265306 3.225807,3.265306 h 6.451612 c 1.782258,0 3.225807,-1.461225 3.225807,-3.265306 v -3.265307 z"
       style="fill:#e6e9ed;stroke-width:1.62274"
       id="path903" /><rect
       height="19.591837"
       style="fill:#e6e9ed;stroke-width:1.62274"
       width="6.4516129"
       x="83.258064"
       y="66.244896"
       id="rect905" /><ellipse
       cx="51"
       cy="36.857143"
       style="fill:#e6e9ed;stroke-width:1.62274"
       id="ellipse907"
       rx="6.4516129"
       ry="6.5306125" /><rect
       height="3.2653062"
       style="fill:#b27946;stroke-width:1.62274"
       width="100"
       x="1"
       y="90.734695"
       id="rect909" /><rect
       height="9.7959185"
       style="fill:#aab2bd;stroke-width:1.62274"
       width="6.4516129"
       x="23.580645"
       y="43.387756"
       id="rect911" /><rect
       height="9.7959185"
       style="fill:#aab2bd;stroke-width:1.62274"
       width="6.4516129"
       x="39.709679"
       y="43.387756"
       id="rect913" /><rect
       height="9.7959185"
       style="fill:#aab2bd;stroke-width:1.62274"
       width="6.4516129"
       x="55.838711"
       y="43.387756"
       id="rect915" /><rect
       height="9.7959185"
       style="fill:#aab2bd;stroke-width:1.62274"
       width="6.4516129"
       x="71.967743"
       y="43.387756"
       id="rect917" /><rect
       height="9.7959185"
       style="fill:#aab2bd;stroke-width:1.62274"
       width="6.4516129"
       x="88.096771"
       y="43.387756"
       id="rect919" /><rect
       height="3.2653062"
       style="fill:#ccd1d9;stroke-width:1.62274"
       width="12.903226"
       x="9.0645161"
       y="59.714287"
       id="rect921" /><rect
       height="3.2653062"
       style="fill:#ccd1d9;stroke-width:1.62274"
       width="12.903226"
       x="31.645161"
       y="59.714287"
       id="rect923" /><rect
       height="3.2653062"
       style="fill:#ccd1d9;stroke-width:1.62274"
       width="12.903226"
       x="57.451614"
       y="59.714287"
       id="rect925" /><rect
       height="3.2653062"
       style="fill:#ccd1d9;stroke-width:1.62274"
       width="12.903226"
       x="80.032257"
       y="59.714287"
       id="rect927" /><path
       d="m 80.479032,87.469389 c -0.275806,0.481633 -0.446774,1.035102 -0.446774,1.632653 v 1.632654 h 12.903226 v -1.632654 c 0,-0.597551 -0.170968,-1.15102 -0.446774,-1.632653 z"
       style="fill:#ccd1d9;stroke-width:1.62274"
       id="path929" /><path
       d="m 57.898387,87.469389 c -0.275806,0.481633 -0.446774,1.035102 -0.446774,1.632653 v 1.632654 h 12.903226 v -1.632654 c 0,-0.597551 -0.170968,-1.15102 -0.446774,-1.632653 z"
       style="fill:#ccd1d9;stroke-width:1.62274"
       id="path931" /><path
       d="m 32.091935,87.469389 c -0.275806,0.481633 -0.446774,1.035102 -0.446774,1.632653 v 1.632654 h 12.903226 v -1.632654 c 0,-0.597551 -0.170968,-1.15102 -0.446774,-1.632653 z"
       style="fill:#ccd1d9;stroke-width:1.62274"
       id="path933" /><path
       d="m 9.5112903,87.469389 c -0.2758064,0.481633 -0.4467742,1.035102 -0.4467742,1.632653 v 1.632654 H 21.967742 v -1.632654 c 0,-0.597551 -0.170968,-1.15102 -0.446774,-1.632653 z"
       style="fill:#ccd1d9;stroke-width:1.62274"
       id="path935" /><rect
       height="3.2653062"
       style="fill:#ccd1d9;stroke-width:1.62274"
       width="6.4516129"
       x="12.290322"
       y="66.244896"
       id="rect937" /><rect
       height="3.2653062"
       style="fill:#ccd1d9;stroke-width:1.62274"
       width="6.4516129"
       x="12.290322"
       y="82.571426"
       id="rect939" /><rect
       height="3.2653062"
       style="fill:#ccd1d9;stroke-width:1.62274"
       width="6.4516129"
       x="34.870968"
       y="66.244896"
       id="rect941" /><rect
       height="3.2653062"
       style="fill:#ccd1d9;stroke-width:1.62274"
       width="6.4516129"
       x="34.870968"
       y="82.571426"
       id="rect943" /><rect
       height="3.2653062"
       style="fill:#ccd1d9;stroke-width:1.62274"
       width="6.4516129"
       x="60.677418"
       y="66.244896"
       id="rect945" /><rect
       height="3.2653062"
       style="fill:#ccd1d9;stroke-width:1.62274"
       width="6.4516129"
       x="60.677418"
       y="82.571426"
       id="rect947" /><rect
       height="3.2653062"
       style="fill:#ccd1d9;stroke-width:1.62274"
       width="6.4516129"
       x="83.258064"
       y="66.244896"
       id="rect949" /><rect
       height="3.2653062"
       style="fill:#ccd1d9;stroke-width:1.62274"
       width="6.4516129"
       x="83.258064"
       y="82.571426"
       id="rect951" /><rect
       height="3.2653062"
       style="fill:#969faa;stroke-width:1.62274"
       width="6.4516129"
       x="7.4516129"
       y="49.918369"
       id="rect953" /><rect
       height="3.2653062"
       style="fill:#969faa;stroke-width:1.62274"
       width="6.4516129"
       x="23.580645"
       y="49.918369"
       id="rect955" /><rect
       height="3.2653062"
       style="fill:#969faa;stroke-width:1.62274"
       width="6.4516129"
       x="7.4516129"
       y="43.387756"
       id="rect957" /><rect
       height="3.2653062"
       style="fill:#969faa;stroke-width:1.62274"
       width="6.4516129"
       x="23.580645"
       y="43.387756"
       id="rect959" /><rect
       height="3.2653062"
       style="fill:#969faa;stroke-width:1.62274"
       width="6.4516129"
       x="39.709679"
       y="49.918369"
       id="rect961" /><rect
       height="3.2653062"
       style="fill:#969faa;stroke-width:1.62274"
       width="6.4516129"
       x="39.709679"
       y="43.387756"
       id="rect963" /><rect
       height="3.2653062"
       style="fill:#969faa;stroke-width:1.62274"
       width="6.4516129"
       x="55.838711"
       y="49.918369"
       id="rect965" /><rect
       height="3.2653062"
       style="fill:#969faa;stroke-width:1.62274"
       width="6.4516129"
       x="55.838711"
       y="43.387756"
       id="rect967" /><rect
       height="3.2653062"
       style="fill:#969faa;stroke-width:1.62274"
       width="6.4516129"
       x="71.967743"
       y="49.918369"
       id="rect969" /><rect
       height="3.2653062"
       style="fill:#969faa;stroke-width:1.62274"
       width="6.4516129"
       x="71.967743"
       y="43.387756"
       id="rect971" /><rect
       height="3.2653062"
       style="fill:#969faa;stroke-width:1.62274"
       width="6.4516129"
       x="88.096771"
       y="49.918369"
       id="rect973" /><rect
       height="3.2653062"
       style="fill:#969faa;stroke-width:1.62274"
       width="6.4516129"
       x="88.096771"
       y="43.387756"
       id="rect975" /></g></svg>
