<?xml version="1.0" encoding="UTF-8" standalone="no"?>
<svg
   id="icons"
   viewBox="0 0 100 64.304694"
   version="1.1"
   sodipodi:docname="prirodneLjepote.svg"
   width="100"
   height="64.304695"
   inkscape:version="1.1 (c68e22c387, 2021-05-23)"
   xmlns:inkscape="http://www.inkscape.org/namespaces/inkscape"
   xmlns:sodipodi="http://sodipodi.sourceforge.net/DTD/sodipodi-0.dtd"
   xmlns="http://www.w3.org/2000/svg"
   xmlns:svg="http://www.w3.org/2000/svg">
  <defs
     id="defs53" />
  <sodipodi:namedview
     id="namedview51"
     pagecolor="#ffffff"
     bordercolor="#666666"
     borderopacity="1.0"
     inkscape:pageshadow="2"
     inkscape:pageopacity="0.0"
     inkscape:pagecheckerboard="0"
     showgrid="false"
     fit-margin-top="0"
     fit-margin-left="0"
     fit-margin-right="0"
     fit-margin-bottom="0"
     inkscape:zoom="1.0882353"
     inkscape:cx="259.13513"
     inkscape:cy="121.75676"
     inkscape:window-width="1920"
     inkscape:window-height="1013"
     inkscape:window-x="-9"
     inkscape:window-y="-9"
     inkscape:window-maximized="1"
     inkscape:current-layer="icons" />
  <title
     id="title2" />
  <path
     d="M 24.382812,15.435634 29.76,13.742822 l 34.355312,2.190625 3.983126,2.887812 c 0,0 10.754687,9.0625 18.521874,12.646875 v 9.607188 H 4.865 L 3.9084375,34.117197 c 0,0 13.8449995,-11.92 20.4743745,-18.681563 z"
     style="fill:#4673aa;stroke-width:0.3125"
     id="path6" />
  <path
     d="m 86.620312,36.912509 v -5.44375 C 78.853125,27.883759 68.098438,18.821884 68.098438,18.821884 l -3.983126,-2.887812 -3.04125,-0.19375 c 6.587501,6.987187 15.516875,15.231562 25.54625,21.172187 z"
     style="fill:#aeb7d8;stroke-width:0.3125"
     id="path8" />
  <rect
     height="23.22875"
     style="fill:#b5d4f4;stroke-width:0.3125"
     width="100"
     x="0"
     y="41.075325"
     id="rect10" />
  <path
     d="m 14.15625,36.365634 c 5.120312,-3.180937 8.6175,-0.2925 9.75,0.833125 a 12.069375,12.069375 0 0 0 1.71125,1.260625 c 1.534062,1.039375 4.977187,1.84375 4.977187,1.84375 A 23.7875,23.7875 0 0 0 33.86,41.075947 H 0 c 0,0 1.2678125,-4.989063 4.865625,-7.808438 q 0.1725,-0.135 0.3509375,-0.258125 c 0,0 4.183125,-1.28125 6.2143755,0.025 a 7.89625,7.89625 0 0 1 2.725312,3.33125 z"
     style="fill:#698779;stroke-width:0.3125"
     id="path12" />
  <path
     d="m 100,41.075322 a 10.370313,10.370312 0 0 0 -1.573438,-4.088438 c 0,0 -2.851875,-3.4375 -7.004062,-3.65375 0,0 -1.507188,-4.1775 -5.628125,-4.182812 a 5.4778125,5.4778125 0 0 0 -2.060625,0.430625 5.6225,5.6225 0 0 0 -3.1675,2.921875 c 0,0 -5.309375,-2.67875 -8.39625,2.767812 0,0 -2.705,-1.76 -5.44375,0.738125 a 10.638438,10.638437 0 0 0 -0.860938,0.90375 17.203125,17.203125 0 0 1 -2.601875,2.23125 c -1.375,1.015 -3.179062,1.931563 -5.2225,1.931563 z"
     style="fill:#698779;stroke-width:0.3125"
     id="path14" />
  <path
     d="m 40.177812,9.0829332e-6 h 8.873125 A 3.3359375,3.3359375 0 0 1 51.5625,1.1406341 c 2.587812,2.96125 9.81875,11.1249999 16.535625,17.6806249 a 10.272812,10.272812 0 0 0 -8.53125,0.858125 5.9821875,5.9821875 0 0 1 -4.085938,0.672813 A 7.5040625,7.5040625 0 0 1 53.265,19.568134 5.515625,5.515625 0 0 0 48.718125,19.253759 8.1896875,8.1896875 0 0 0 46.745,20.295634 a 7.8828125,7.8828125 0 0 1 -5.1875,1.52 7.7334375,7.7334375 0 0 1 -3.970313,-1.478437 5.9321875,5.9321875 0 0 0 -2.4725,-1.010313 11.054375,11.054375 0 0 0 -6.55125,0.888438 c 0,0 0.199375,-4.78125 -4.182187,-4.78125 0,0 8.065312,-7.6271879 13.17375,-14.1618754 A 3.32375,3.32375 0 0 1 40.177812,9.0829332e-6 Z"
     style="fill:#c4dfe8;stroke-width:0.3125"
     id="path16" />
  <path
     d="M 68.098438,18.821259 C 61.381562,12.264384 54.150625,4.1025091 51.562812,1.1406341 A 3.3359375,3.3359375 0 0 0 49.050937,6.3408318e-4 H 40.177812 A 3.385625,3.385625 0 0 0 39.759062,0.02875908 l 8.39125,1.69781252 a 3.5675,3.5675 0 0 1 2.138438,1.34375 161.51531,161.51531 0 0 0 13.294375,15.2718754 9.799375,9.799375 0 0 1 4.515313,0.479062 z"
     style="fill:#fffaff;stroke-width:0.3125"
     id="path18" />
  <path
     d="M 73.52875,49.684697 H 37.921875 a 1.25,1.25 0 0 1 0,-2.5 H 73.52875 a 1.25,1.25 0 1 1 0,2.5 z"
     style="fill:#6c9bd3;stroke-width:0.3125"
     id="path24" />
  <path
     d="m 30.019375,49.684697 h -0.65125 a 1.25,1.25 0 0 1 0,-2.5 h 0.65125 a 1.25,1.25 0 1 1 0,2.5 z"
     style="fill:#6c9bd3;stroke-width:0.3125"
     id="path26" />
  <path
     d="M 20.814687,47.184697 H 0 v 2.5 h 20.814687 a 1.25,1.25 0 1 0 0,-2.5 z"
     style="fill:#6c9bd3;stroke-width:0.3125"
     id="path28" />
  <path
     d="m 28.565,20.215322 5.225625,-6.319375 a 0.548125,0.548125 0 0 1 0.94,0.529375 l -2.58125,7.411875 z"
     style="fill:#4673aa;stroke-width:0.3125"
     id="path30" />
  <path
     d="m 59.130625,19.906259 -3.956563,-7.35875 a 0.395625,0.395625 0 0 1 0.638125,-0.456875 l 8.056563,8.659063 z"
     style="fill:#4673aa;stroke-width:0.3125"
     id="path32" />
  <path
     d="m 46.745625,20.295634 -0.9225,7.097188 a 0.5103125,0.5103125 0 0 1 -1.007812,0.02688 l -1.315625,-7.125 z"
     style="fill:#c4dfe8;stroke-width:0.3125"
     id="path34" />
  <path
     d="M 81.026875,49.570322 75.875,53.718759 a 10.788125,10.788125 0 0 1 -6.766875,2.385938 H 0 v 8.2 h 100 v -17.12 H 87.79375 a 10.790938,10.790937 0 0 0 -6.766875,2.385625 z"
     style="fill:#6c9bd3;stroke-width:0.3125"
     id="path36" />
  <path
     d="M 83.834063,56.104072 H 53.788437 a 1.25,1.25 0 0 1 0,-2.5 h 30.045626 a 1.25,1.25 0 0 1 0,2.5 z"
     style="fill:#b5d4f4;stroke-width:0.3125"
     id="path38" />
  <path
     d="m 91.2,56.104072 h -0.868125 a 1.25,1.25 0 0 1 0,-2.5 H 91.2 a 1.25,1.25 0 0 1 0,2.5 z"
     style="fill:#b5d4f4;stroke-width:0.3125"
     id="path40" />
  <path
     d="m 91.699062,33.160947 c 0,0 -1.705312,-4.263438 -5.826249,-4.26875 a 5.7478125,5.7478125 0 0 0 -2.116251,0.417187 c -1.038437,0.41125 -2.5625,1.275 -3.310312,2.955313 0,0 -5.377188,-2.7275 -8.464063,2.71875 0,0 -2.755312,-1.495625 -5.495,1.005937 a 7.2146875,7.2146875 0 0 0 -0.69375,0.751875 14.698437,14.698437 0 0 1 -2.53125,2.401563 c 1.27,-0.419063 2.711876,-1.08875 3.765313,-2.142188 a 3.4128125,3.4128125 0 0 1 1.84375,-0.942812 5.670625,5.670625 0 0 1 4.121875,0.854375 c 0,0 3.148125,-5.512188 9.818438,-1.92875 0,0 0.07219,-2.926875 2.837812,-3.51375 2.765625,-0.586875 4.846563,3.78875 4.846563,3.78875 0,0 4.526875,-0.99625 7.929062,1.728125 -1.180937,-1.787813 -3.22375,-3.545625 -6.725938,-3.825625 z"
     style="fill:#b0d1ba;stroke-width:0.3125"
     id="path46" />
  <path
     d="M 25.76,38.090947 A 10.640938,10.640937 0 0 1 24.241875,36.803134 C 23.110937,35.678134 19.360312,32.651572 14.24,35.832509 A 6.79125,6.79125 0 0 0 11.719687,32.744072 C 9.6884375,31.437822 7.201875,31.643134 5.2175,33.010009 c 2.13375,-0.381562 6.314375,-0.31875 8.1875,5.323438 0,0 4.2875,-3.650313 8.59875,-0.467188 a 12.618437,12.618437 0 0 0 3.862187,2.010313 11.09375,11.09375 0 0 0 4.72625,0.425312 A 18.478437,18.478437 0 0 1 25.76,38.090947 Z"
     style="fill:#b0d1ba;stroke-width:0.3125"
     id="path48" />
</svg>
