<?xml version="1.0" encoding="UTF-8" standalone="no"?>
<svg
   id="svg"
   version="1.1"
   width="62.15506"
   height="39.999966"
   viewBox="0 0 62.155062 39.999965"
   sodipodi:docname="turistickaPonuda.svg"
   inkscape:version="1.1 (c68e22c387, 2021-05-23)"
   xmlns:inkscape="http://www.inkscape.org/namespaces/inkscape"
   xmlns:sodipodi="http://sodipodi.sourceforge.net/DTD/sodipodi-0.dtd"
   xmlns="http://www.w3.org/2000/svg"
   xmlns:svg="http://www.w3.org/2000/svg">
  <defs
     id="defs11" />
  <sodipodi:namedview
     id="namedview9"
     pagecolor="#ffffff"
     bordercolor="#666666"
     borderopacity="1.0"
     inkscape:pageshadow="2"
     inkscape:pageopacity="0.0"
     inkscape:pagecheckerboard="0"
     showgrid="false"
     fit-margin-top="10"
     fit-margin-left="10"
     fit-margin-right="10"
     fit-margin-bottom="0"
     inkscape:zoom="0.925"
     inkscape:cx="200"
     inkscape:cy="148.64865"
     inkscape:window-width="1920"
     inkscape:window-height="1013"
     inkscape:window-x="-9"
     inkscape:window-y="-9"
     inkscape:window-maximized="1"
     inkscape:current-layer="svgg"
     lock-margins="true" />
  <g
     id="svgg"
     transform="translate(-35.563752,-79.558604)">
    <path
       id="path0"
       d="m 46.225526,90.7821 c 0,0.02258 -0.03449,0.04106 -0.07663,0.04106 -0.09962,0 -0.470713,0.371097 -0.470713,0.470713 0,0.04214 -0.02463,0.07663 -0.05474,0.07663 -0.08812,0 -0.07457,27.443557 0.01368,27.597227 0.130678,0.22783 0.387655,0.48138 0.487681,0.48138 0.05542,0 0.100712,0.0246 0.100712,0.0547 0,0.0362 1.751492,0.0547 5.145008,0.0547 h 5.14501 V 105.14694 90.735439 l -5.14501,0.0028 c -2.829755,0.0016 -5.145008,0.02134 -5.145008,0.04393"
       stroke="none"
       fill="#f7d03b"
       fill-rule="evenodd"
       style="stroke-width:0.136835" />
    <path
       id="path1"
       d="m 56.570277,105.13613 v 14.42244 h 15.216091 c 10.107614,0 15.216094,-0.0184 15.216094,-0.0547 0,-0.0302 0.0576,-0.0547 0.128077,-0.0547 0.12534,0 0.369997,-0.22865 0.515047,-0.48138 0.07731,-0.13478 0.104265,-27.597228 0.02715,-27.597228 -0.02287,0 -0.07417,-0.07403 -0.114262,-0.164475 -0.04005,-0.09059 -0.09538,-0.150657 -0.122873,-0.133689 -0.02745,0.01711 -0.04995,-0.0074 -0.04995,-0.05432 0,-0.04694 -0.01845,-0.08251 -0.04102,-0.07895 -0.109057,0.01724 -0.180892,-0.0119 -0.150517,-0.06116 0.0186,-0.03011 -0.0045,-0.05473 -0.05145,-0.05473 -0.04695,0 -0.08539,-0.02463 -0.08539,-0.05474 0,-0.0364 -5.117645,-0.05473 -15.243458,-0.05473 H 56.570277 v 14.422402 m 16.51329,-9.611378 c 0.144499,0.02711 0.435137,0.07882 0.645862,0.115078 1.119039,0.192528 2.237122,0.617676 3.448253,1.311155 1.637511,0.937735 3.323041,2.882303 4.105879,4.736965 0.05088,0.12041 0.113574,0.2682 0.139296,0.3284 0.730295,1.70607 0.860015,4.21987 0.324851,6.29525 -1.164059,4.51488 -5.270213,7.69302 -9.933973,7.68892 -0.524489,-4.2e-4 -1.468792,-0.0921 -1.888327,-0.18323 -5.683319,-1.23535 -9.229818,-6.40951 -8.202869,-11.96734 0.08183,-0.44267 0.247125,-1.09921 0.323752,-1.28626 0.02477,-0.0602 0.09948,-0.26929 0.166255,-0.46483 0.219347,-0.64243 1.189373,-2.406107 1.415152,-2.572906 0.02038,-0.01507 0.07307,-0.08032 0.117267,-0.14505 0.266966,-0.39162 1.116987,-1.236712 1.80048,-1.790076 1.88217,-1.524074 5.351902,-2.474942 7.538122,-2.066076 m -2.200312,3.515982 c -0.854947,0.153532 -1.287208,0.288172 -2.038846,0.634507 -0.857411,0.395169 -1.917337,1.282139 -2.437996,2.040069 -0.09305,0.13547 -0.189107,0.25452 -0.213464,0.26451 -0.02436,0.0101 -0.0442,0.0383 -0.0442,0.0628 0,0.0246 -0.09414,0.20115 -0.209084,0.39231 -2.585504,4.29937 0.781193,10.07081 5.869552,10.06205 2.874772,-0.005 5.480119,-1.86233 6.409507,-4.56934 0.319097,-0.92952 0.461129,-2.44867 0.298433,-3.19142 -0.03108,-0.14121 -0.08251,-0.37998 -0.114528,-0.5305 -0.699913,-3.29062 -4.276924,-5.74763 -7.519377,-5.164986 m 1.614656,0.08471 c 0.255881,0.01507 0.488641,0.0498 0.517238,0.07717 0.02858,0.02738 0.144087,0.04965 0.256704,0.04965 0.112617,0 0.220032,0.0246 0.23864,0.05475 0.01863,0.03015 0.106324,0.05475 0.194853,0.05475 0.08853,0 0.160918,0.0246 0.160918,0.05475 0,0.03015 0.06007,0.05475 0.133552,0.05475 0.07348,0 0.148879,0.0246 0.167486,0.05475 0.01863,0.03015 0.094,0.05475 0.167487,0.05475 0.07348,0 0.13355,0.0246 0.13355,0.05475 0,0.03015 0.04926,0.05475 0.109469,0.05475 0.06021,0 0.109468,0.0246 0.109468,0.05475 0,0.03015 0.04926,0.05475 0.109468,0.05475 0.06021,0 0.109469,0.0246 0.109469,0.05475 0,0.03015 0.02639,0.05475 0.05857,0.05475 0.03217,0 0.165981,0.07388 0.297206,0.164206 0.131228,0.0903 0.263001,0.1642 0.292691,0.1642 0.02968,0 0.06212,0.0185 0.07225,0.041 0.01,0.0226 0.158321,0.14763 0.32964,0.27777 0.369182,0.28065 1.029548,0.91542 1.029548,0.98959 0,0.0286 0.03204,0.0847 0.07102,0.12439 0.0795,0.081 0.380951,0.52051 0.443757,0.64708 0.04216,0.0851 -0.04913,-0.0206 -0.257112,-0.29788 -0.122742,-0.16353 -1.030779,-1.08251 -1.222622,-1.23713 -0.217297,-0.17542 -0.616721,-0.43542 -0.668714,-0.43542 -0.02968,0 -0.06212,-0.0209 -0.07225,-0.0465 -0.02314,-0.0592 -0.862201,-0.460036 -1.222352,-0.584011 -1.371638,-0.47181 -3.34795,-0.456622 -4.551827,0.03518 -0.782153,0.319521 -1.192247,0.528741 -1.408036,0.718531 -0.05993,0.0526 -0.132182,0.0958 -0.160645,0.0958 -0.02833,0 -0.0914,0.0443 -0.140119,0.0984 -0.04871,0.0541 -0.174739,0.15805 -0.280102,0.23085 -0.263545,0.18227 -0.837295,0.77613 -1.157353,1.19785 -0.14614,0.19253 -0.265734,0.33251 -0.265734,0.31089 0,-0.041 0.323615,-0.53133 0.382181,-0.57909 0.01847,-0.0151 0.0936,-0.11357 0.167075,-0.21893 0.172687,-0.24781 0.730428,-0.80774 1.010666,-1.01463 0.120416,-0.0888 0.231252,-0.17556 0.246304,-0.19281 0.06308,-0.0722 0.544058,-0.37985 0.593729,-0.37985 0.02968,0 0.06212,-0.0185 0.07225,-0.04102 0.02626,-0.0591 0.479606,-0.287355 0.570737,-0.287355 0.04229,0 0.0769,-0.0246 0.0769,-0.05475 0,-0.03015 0.06158,-0.05475 0.136836,-0.05475 0.07526,0 0.136835,-0.0246 0.136835,-0.05475 0,-0.03015 0.06007,-0.05475 0.133552,-0.05475 0.07348,0 0.148874,-0.0246 0.167486,-0.05475 0.01859,-0.03015 0.106319,-0.05475 0.194853,-0.05475 0.08853,0 0.160919,-0.0246 0.160919,-0.05475 0,-0.03015 0.09701,-0.05475 0.215652,-0.05475 0.118636,0 0.230976,-0.0246 0.249587,-0.05475 0.01863,-0.03015 0.23563,-0.05655 0.482208,-0.05857 0.246578,-0.0023 0.497535,-0.02588 0.55774,-0.0528 0.06021,-0.02685 0.171045,-0.03533 0.246304,-0.01868 0.07526,0.01665 0.346194,0.04275 0.602075,0.0579 m -2.292399,2.831945 c 1.590024,0.48261 1.914324,2.43115 0.557466,3.34932 -1.49862,1.01422 -3.411444,-0.54023 -2.757507,-2.24082 0.324299,-0.84372 1.357407,-1.36425 2.200041,-1.1085 m 5.225602,6.21657 c 0.0029,0 0.05254,0.0433 0.109877,0.0963 0.584973,0.54132 -0.04051,1.49903 -0.742194,1.13628 -0.728236,-0.37671 -0.322111,-1.49889 0.462777,-1.27859 0.09017,0.0253 0.166391,0.046 0.16954,0.046"
       stroke="none"
       fill="#3ea4ea"
       fill-rule="evenodd"
       style="stroke-width:0.136835" />
    <path
       id="path2"
       d="m 56.5425,105.13613 c 0,7.94739 0.0063,11.19053 0.01409,7.20684 0.0078,-3.98369 0.0078,-10.4861 0,-14.449816 -0.0078,-3.963703 -0.01409,-0.704421 -0.01409,7.242976 m 13.781371,-9.575739 c -1.700999,0.265185 -3.589464,1.067588 -4.778426,2.030363 -0.683493,0.553364 -1.533514,1.398456 -1.80048,1.790076 -0.0442,0.06472 -0.09688,0.129997 -0.117267,0.14505 -0.225779,0.166799 -1.195805,1.93048 -1.415152,2.57291 -0.06677,0.19554 -0.141487,0.40462 -0.166255,0.46483 -0.07663,0.18705 -0.241925,0.84359 -0.323752,1.28626 -0.98412,5.32617 2.444153,10.6128 7.682895,11.84721 0.594959,0.14025 0.621369,0.14503 1.231517,0.22632 4.515704,0.60125 9.085459,-2.1516 10.75362,-6.4782 0.900377,-2.3351 0.913643,-5.36996 0.03228,-7.42893 -0.02574,-0.0602 -0.08839,-0.20799 -0.139296,-0.3284 -0.691698,-1.63888 -1.934578,-3.185389 -3.449069,-4.291706 -1.180617,-0.862473 -2.708247,-1.516136 -4.105063,-1.756418 -0.210725,-0.03626 -0.501363,-0.08799 -0.645862,-0.115078 -0.378211,-0.07075 -2.230415,-0.04666 -2.759696,0.03571 m 2.361917,0.02546 c 0.967564,0.10851 1.703599,0.26464 2.488623,0.528184 0.573886,0.192666 1.384089,0.554591 1.419394,0.634097 0.01012,0.02256 0.06554,0.04104 0.123151,0.04104 0.05774,0 0.104955,0.0246 0.104955,0.05472 0,0.03012 0.02559,0.05472 0.05678,0.05472 0.06144,0 0.958121,0.591405 1.190193,0.78489 0.409136,0.34113 0.983029,0.841402 1.079221,0.940604 0.511488,0.527909 0.317184,0.442942 -0.257111,-0.112342 -0.40545,-0.392032 -1.308563,-1.120537 -1.38902,-1.120537 -0.01699,0 -0.133825,-0.06993 -0.259713,-0.155451 -3.723429,-2.529811 -9.284142,-1.90146 -12.646871,1.428972 -0.237272,0.234945 -0.441157,0.417345 -0.453198,0.405308 -0.02942,-0.02925 0.651473,-0.71319 1.017371,-1.022024 0.160645,-0.135465 0.31951,-0.271755 0.353172,-0.302813 0.03379,-0.03105 0.147509,-0.116722 0.252872,-0.190072 0.105362,-0.0735 0.239325,-0.177333 0.297616,-0.230835 0.05842,-0.05352 0.138478,-0.09729 0.177887,-0.09729 0.03955,0 0.07183,-0.0246 0.07183,-0.05472 0,-0.03012 0.03695,-0.05472 0.0821,-0.05472 0.04516,0 0.08224,-0.01848 0.08251,-0.04104 2.73e-4,-0.02262 0.0557,-0.06815 0.123152,-0.101262 0.329499,-0.161736 0.617127,-0.327036 0.633547,-0.363978 0.01013,-0.02262 0.06554,-0.04104 0.123152,-0.04104 0.05774,0 0.104952,-0.0246 0.104952,-0.05472 0,-0.03012 0.03722,-0.05472 0.08279,-0.05472 0.04556,0 0.125615,-0.02178 0.177886,-0.0483 0.519975,-0.264504 1.575659,-0.577578 2.393935,-0.710037 1.056642,-0.170904 1.787344,-0.204156 2.56881,-0.116583 m 0.167895,3.473698 c 2.8002,0.505064 4.994766,2.540213 5.548948,5.146103 0.03198,0.15053 0.08347,0.3893 0.114534,0.53051 0.03096,0.14136 0.05586,0.57239 0.05526,0.95785 -0.0074,5.09616 -5.272272,8.34052 -9.823824,6.05359 -3.365876,-1.69114 -4.710831,-6.1502 -2.808957,-9.31273 0.114942,-0.19116 0.209084,-0.36768 0.209084,-0.39231 0,-0.0245 0.01985,-0.0526 0.0442,-0.0628 0.02436,-0.01 0.120414,-0.12904 0.213463,-0.26451 0.941017,-1.36999 2.543223,-2.327159 4.476842,-2.674588 0.432402,-0.07772 1.49123,-0.06758 1.970428,0.0189 m -3.667185,2.921168 c -0.54926,0.18759 -1.480423,1.10289 -1.122051,1.10289 0.03011,0 0.05474,-0.0493 0.05474,-0.10947 0,-0.0602 0.02463,-0.10947 0.05473,-0.10947 0.03011,0 0.05473,-0.0345 0.05473,-0.0766 0,-0.0421 0.132731,-0.19786 0.295015,-0.3462 1.48836,-1.36028 3.706053,0.33703 2.815388,2.15461 -0.196767,0.40147 -0.801852,0.89422 -1.100567,0.89627 -0.06677,4.1e-4 -0.158452,0.027 -0.203608,0.0589 -0.199643,0.14094 0.376431,-0.0244 0.649419,-0.18638 1.878475,-1.11507 0.562529,-4.08863 -1.497798,-3.38448 m -1.255876,1.31211 c -0.02245,0.0999 -0.02737,0.19527 -0.01095,0.21168 0.04118,0.0412 0.106458,-0.23535 0.07622,-0.32279 -0.01341,-0.0388 -0.04282,0.0111 -0.06527,0.11111 m -0.0099,0.86781 c 0.109605,0.63889 0.781328,1.31061 1.420214,1.42022 0.133003,0.0227 0.154624,0.0161 0.09182,-0.0287 -0.04516,-0.0322 -0.122878,-0.0589 -0.172689,-0.0594 -0.242197,-0.002 -1.031463,-0.58374 -1.031463,-0.75985 0,-0.0341 -0.02463,-0.062 -0.05473,-0.062 -0.03011,0 -0.05474,-0.0478 -0.05474,-0.10617 0,-0.0584 -0.02463,-0.12152 -0.05473,-0.14013 -0.03011,-0.0187 -0.05515,-0.0878 -0.05555,-0.1538 -4.11e-4,-0.0659 -0.02723,-0.15681 -0.05938,-0.20197 -0.04475,-0.0628 -0.05145,-0.0412 -0.02873,0.0918 m 1.717969,1.47947 c 0.06801,0.0131 0.166529,0.0126 0.218936,-0.001 0.05228,-0.0136 -0.0034,-0.0245 -0.123834,-0.0239 -0.120416,4.2e-4 -0.163245,0.0118 -0.0951,0.0249 m 5.090277,2.5647 c -0.148605,0.0807 -0.351122,0.38944 -0.293378,0.44718 0.01657,0.0166 0.04667,-0.0164 0.06692,-0.0735 0.05105,-0.14368 0.244254,-0.3499 0.32786,-0.3499 0.03819,0 0.08456,-0.0246 0.10317,-0.0547 0.04708,-0.0762 -0.02803,-0.0649 -0.204565,0.031 m 0.505603,-0.0569 c 0,0.0158 0.06158,0.0521 0.136839,0.0807 0.518196,0.19705 0.400651,1.03994 -0.164889,1.18185 -0.234673,0.0589 -0.683493,-0.18911 -0.683493,-0.37766 0,-0.0475 -0.02461,-0.1014 -0.05473,-0.12002 -0.09756,-0.0604 -0.05788,0.11809 0.05953,0.26738 0.515869,0.65585 1.594266,0.0281 1.185679,-0.6902 -0.130133,-0.22865 -0.478929,-0.47783 -0.478929,-0.34209"
       stroke="none"
       fill="#93cbe4"
       fill-rule="evenodd"
       style="stroke-width:0.136835" />
    <path
       id="path3"
       d="m 70.910622,95.592683 c -1.268462,0.147508 -2.47713,0.458397 -3.187579,0.819783 -0.05228,0.02658 -0.13232,0.0483 -0.177887,0.0483 -0.04556,0 -0.08279,0.0246 -0.08279,0.05472 0,0.03012 -0.04721,0.05472 -0.104952,0.05472 -0.05761,0 -0.113026,0.01848 -0.123152,0.04104 -0.01642,0.0369 -0.304048,0.202248 -0.633548,0.363984 -0.06746,0.03312 -0.122878,0.07868 -0.123152,0.101256 -2.74e-4,0.02262 -0.03736,0.04104 -0.08251,0.04104 -0.04516,0 -0.0821,0.0246 -0.0821,0.05472 0,0.03012 -0.0323,0.05472 -0.07184,0.05472 -0.03941,0 -0.119457,0.0438 -0.177887,0.09729 -0.05829,0.05352 -0.192253,0.157359 -0.297616,0.230844 -0.105363,0.07335 -0.219074,0.159 -0.252872,0.190065 -0.03366,0.03105 -0.192527,0.16734 -0.353172,0.30282 -0.365898,0.308827 -1.04679,0.992729 -1.017371,1.022016 0.01205,0.01208 0.215927,-0.170355 0.453199,-0.405307 3.362729,-3.330433 8.923442,-3.958783 12.646871,-1.428968 0.125887,0.08552 0.242745,0.155439 0.259713,0.155439 0.08046,0 0.983573,0.72852 1.389016,1.120552 0.574296,0.555277 0.768599,0.640251 0.257112,0.112342 -0.09619,-0.09921 -0.670085,-0.599474 -1.079218,-0.940612 -0.232073,-0.193484 -1.128757,-0.784885 -1.190194,-0.784885 -0.03119,0 -0.05678,-0.0246 -0.05678,-0.05472 0,-0.03012 -0.0472,-0.05472 -0.104954,-0.05472 -0.05761,0 -0.113026,-0.01848 -0.123152,-0.04104 C 76.558517,96.668572 75.7483,96.306651 75.174414,96.113985 73.747768,95.6352 72.18675,95.444316 70.910625,95.592644 m -1.743693,6.464786 c -0.358921,0.11809 -0.938281,0.56924 -0.938281,0.73056 0,0.0422 -0.02463,0.0766 -0.05473,0.0766 -0.03011,0 -0.05474,0.0493 -0.05474,0.10947 0,0.0602 -0.02189,0.10946 -0.04871,0.10946 -0.04624,0 -0.06335,0.0656 -0.147919,0.56719 -0.03352,0.19841 0.03243,0.53858 0.147235,0.75943 0.02723,0.0523 0.0494,0.13233 0.0494,0.1779 0,0.0456 0.02463,0.0828 0.05473,0.0828 0.03011,0 0.05474,0.0279 0.05474,0.0619 0,0.20334 0.660229,0.65723 1.184309,0.81418 0.472495,0.14149 1.184173,-0.0869 1.596323,-0.51218 1.332775,-1.37561 -0.02791,-3.57441 -1.842352,-2.9774 m 5.704117,6.13761 c -0.31773,0.17652 -0.521479,0.52052 -0.411871,0.69595 0.03516,0.0562 0.0639,0.13054 0.0639,0.16515 0,0.33799 0.671729,0.45362 0.989047,0.17023 0.495621,-0.44293 -0.06815,-1.34974 -0.641073,-1.03133"
       stroke="none"
       fill="#b7d9eb"
       fill-rule="evenodd"
       style="stroke-width:0.136835" />
    <path
       id="path4"
       d="m 48.207586,89.648282 c -0.04939,0.05597 -0.06582,0.2318 -0.05474,0.58634 l 0.01573,0.506427 h 2.764073 2.764074 l 0.0156,-0.533657 c 0.01355,-0.458535 0.0035,-0.533658 -0.07156,-0.533658 -0.04803,0 -0.07211,-0.02463 -0.0535,-0.05473 0.06048,-0.09784 -5.293202,-0.06869 -5.379682,0.02928 M 71.64953,99.0861 c -0.06021,0.02693 -0.311163,0.05062 -0.557741,0.0528 -0.246578,0.0022 -0.463596,0.02842 -0.482208,0.05857 -0.01863,0.03015 -0.13095,0.05475 -0.249587,0.05475 -0.118636,0 -0.215652,0.0246 -0.215652,0.05475 0,0.03015 -0.07238,0.05475 -0.160919,0.05475 -0.08853,0 -0.176246,0.0246 -0.194853,0.05475 -0.01863,0.03015 -0.09401,0.05475 -0.167486,0.05475 -0.07348,0 -0.133552,0.0246 -0.133552,0.05475 0,0.03015 -0.06158,0.05475 -0.136835,0.05475 -0.07526,0 -0.136835,0.0246 -0.136835,0.05475 0,0.03015 -0.0346,0.05475 -0.0769,0.05475 -0.09113,0 -0.544466,0.22824 -0.570737,0.287348 -0.01012,0.02265 -0.04255,0.04102 -0.07225,0.04102 -0.04967,0 -0.530647,0.30775 -0.593729,0.37986 -0.01505,0.0173 -0.125888,0.104 -0.246303,0.1928 -0.280239,0.2069 -0.83798,0.76683 -1.010666,1.01464 -0.07348,0.10536 -0.148603,0.20388 -0.167075,0.21893 -0.05857,0.0478 -0.382182,0.53804 -0.382182,0.57909 0,0.0216 0.119594,-0.11836 0.265734,-0.31089 0.320058,-0.42173 0.893809,-1.01559 1.157354,-1.19786 0.105363,-0.0728 0.231388,-0.17679 0.280101,-0.23083 0.04871,-0.0541 0.111795,-0.0984 0.14012,-0.0984 0.02846,0 0.100711,-0.043 0.160645,-0.0958 0.215789,-0.18979 0.625884,-0.39901 1.408037,-0.718539 1.203877,-0.491789 3.18019,-0.506977 4.551827,-0.03517 0.360151,0.123975 1.199226,0.524779 1.222353,0.584029 0.01012,0.0256 0.04256,0.0465 0.07225,0.0465 0.052,0 0.451418,0.25999 0.668715,0.43541 0.191843,0.15462 1.099879,1.0736 1.222622,1.23713 0.207989,0.27723 0.299259,0.383 0.257112,0.29789 -0.0628,-0.12658 -0.364253,-0.56609 -0.443757,-0.64709 -0.03899,-0.0397 -0.07102,-0.0958 -0.07102,-0.12439 0,-0.0742 -0.660367,-0.70894 -1.029549,-0.98959 -0.171317,-0.13014 -0.319649,-0.2552 -0.329639,-0.27777 -0.01012,-0.0226 -0.04255,-0.041 -0.07225,-0.041 -0.02968,0 -0.161462,-0.0739 -0.292691,-0.1642 -0.131224,-0.09032 -0.265049,-0.164221 -0.297205,-0.164221 -0.03217,0 -0.05857,-0.0246 -0.05857,-0.05475 0,-0.03015 -0.04926,-0.05475 -0.109469,-0.05475 -0.0602,0 -0.109468,-0.0246 -0.109468,-0.05475 0,-0.03015 -0.04926,-0.05475 -0.109468,-0.05475 -0.0602,0 -0.109468,-0.0246 -0.109468,-0.05475 0,-0.03015 -0.06007,-0.05475 -0.133552,-0.05475 -0.07348,0 -0.148875,-0.0246 -0.167486,-0.05475 -0.01859,-0.03015 -0.09401,-0.05475 -0.167487,-0.05475 -0.07348,0 -0.13355,-0.0246 -0.13355,-0.05475 0,-0.03015 -0.07238,-0.05475 -0.16092,-0.05475 -0.08853,0 -0.176241,-0.0246 -0.194852,-0.05475 -0.01859,-0.03015 -0.126023,-0.05475 -0.23864,-0.05475 -0.112617,0 -0.228105,-0.02235 -0.256703,-0.04965 -0.02858,-0.02738 -0.261357,-0.0621 -0.517239,-0.07717 -0.255881,-0.01515 -0.526815,-0.04117 -0.602075,-0.0579 -0.07526,-0.01665 -0.186098,-0.0082 -0.246303,0.01868"
       stroke="none"
       fill="#6c6454"
       fill-rule="evenodd"
       style="stroke-width:0.136835" />
  </g>
</svg>
