<?xml version="1.0" encoding="UTF-8" standalone="no"?>
<svg
   id="emoji"
   viewBox="0 0 51.023819 40.000001"
   version="1.1"
   sodipodi:docname="vjerskiObjekti.svg"
   width="51.023819"
   height="40"
   inkscape:version="1.1 (c68e22c387, 2021-05-23)"
   xmlns:inkscape="http://www.inkscape.org/namespaces/inkscape"
   xmlns:sodipodi="http://sodipodi.sourceforge.net/DTD/sodipodi-0.dtd"
   xmlns="http://www.w3.org/2000/svg"
   xmlns:svg="http://www.w3.org/2000/svg">
  <defs
     id="defs26" />
  <sodipodi:namedview
     id="namedview24"
     pagecolor="#ffffff"
     bordercolor="#666666"
     borderopacity="1.0"
     inkscape:pageshadow="2"
     inkscape:pageopacity="0.0"
     inkscape:pagecheckerboard="0"
     showgrid="false"
     inkscape:zoom="2.5694445"
     inkscape:cx="12.064865"
     inkscape:cy="86.594593"
     inkscape:window-width="1920"
     inkscape:window-height="1013"
     inkscape:window-x="-9"
     inkscape:window-y="-9"
     inkscape:window-maximized="1"
     inkscape:current-layer="emoji"
     fit-margin-top="10"
     fit-margin-left="10"
     fit-margin-right="10"
     fit-margin-bottom="0"
     lock-margins="false" />
  <g
     id="color"
     transform="matrix(0.46964232,0,0,0.46964232,8.2623234,7.9234297)">
    <path
       fill="#92d3f5"
       stroke="none"
       d="M 27.1667,68 H 4 V 56.3333 l 15,-7.5 C 16.3966,57.37 26.4551,63.3903 31.5,60.5 Z"
       id="path2" />
    <path
       fill="#92d3f5"
       stroke="none"
       d="M 46.2917,68 H 69.4584 V 56.3333 l -15,-7.5 c 2.6034,8.5367 -7.4551,14.557 -12.5,11.6667 z"
       id="path4" />
  </g>
  <g
     id="hair"
     transform="translate(6.3000001,5.5784006)" />
  <g
     id="skin"
     transform="matrix(0.46964232,0,0,0.46964232,8.2623234,7.9234297)">
    <path
       fill="#fadcbc"
       stroke="#fadcbc"
       d="m 29.8302,61.109 c -6.1759,0 -11.1733,-4.7888 -11.1733,-10.7068 6.625,-4.0208 7.2806,-13.8397 7.9681,-19.4647 0.5,-2.8906 1.7917,-2.8906 2.25,-5.7812 L 31.5,7.3474 C 32.125,4 36.079,4.3418 36.7292,7 v 46.9167 c 0,1.9346 -2.8958,3.5 -3.8958,3.5 -0.8126,0 -3.0032,3.0295 -3.0032,3.6923 z"
       id="path8" />
    <path
       fill="#fadcbc"
       stroke="#fadcbc"
       d="m 43.6281,61.109 c 6.1759,0 11.1733,-4.7888 11.1733,-10.7068 -6.625,-4.0208 -7.2806,-13.8397 -7.9681,-19.4647 -0.5,-2.8906 -1.7917,-2.8906 -2.25,-5.7812 L 41.9583,7.3475 C 41.3333,4 37.3794,4.3418 36.7292,7 v 46.9167 c 0,1.9346 2.8958,3.5 3.8958,3.5 0.8125,0 3.0031,3.0295 3.0031,3.6923 z"
       id="path10" />
  </g>
  <g
     id="skin-shadow"
     transform="translate(6.3000001,5.5784006)" />
  <g
     id="line"
     transform="matrix(0.46964232,0,0,0.46964232,8.2623234,7.9234297)"
     style="stroke:#000000;stroke-width:0.6;stroke-miterlimit:4;stroke-dasharray:none;stroke-opacity:1">
    <path
       fill="none"
       stroke="#000000"
       stroke-linecap="round"
       stroke-linejoin="round"
       stroke-miterlimit="10"
       stroke-width="2"
       d="M 27.1667,68 H 4 V 56.3333 l 15,-7.5 C 16.3966,57.37 26.4551,63.3903 31.5,60.5 Z"
       id="path14"
       style="stroke:#000000;stroke-width:0.6;stroke-miterlimit:4;stroke-dasharray:none;stroke-opacity:1" />
    <path
       fill="none"
       stroke="#000000"
       stroke-linecap="round"
       stroke-linejoin="round"
       stroke-miterlimit="10"
       stroke-width="2"
       d="m 29.8302,61.109 c 0,-0.6628 2.1906,-3.6923 3.0031,-3.6923 1,0 3.8958,-1.5654 3.8958,-3.5 V 7 C 36.079,4.3418 32.125,4 31.5,7.3474 l -2.625,17.8088 c -0.4583,2.8906 -1.75,2.8906 -2.25,5.7812 -0.6875,5.625 -1.3431,15.4439 -7.9681,19.4647"
       id="path16"
       style="stroke:#000000;stroke-width:0.6;stroke-miterlimit:4;stroke-dasharray:none;stroke-opacity:1" />
    <path
       fill="none"
       stroke="#000000"
       stroke-linecap="round"
       stroke-linejoin="round"
       stroke-miterlimit="10"
       stroke-width="2"
       d="M 46.2917,68 H 69.4584 V 56.3333 l -15,-7.5 c 2.6034,8.5367 -7.4551,14.557 -12.5,11.6667 z"
       id="path18"
       style="stroke:#000000;stroke-width:0.6;stroke-miterlimit:4;stroke-dasharray:none;stroke-opacity:1" />
    <path
       fill="none"
       stroke="#000000"
       stroke-linecap="round"
       stroke-linejoin="round"
       stroke-miterlimit="10"
       stroke-width="2"
       d="m 43.6281,61.109 c 0,-0.6628 -2.1906,-3.6923 -3.0031,-3.6923 -1,0 -3.8958,-1.5654 -3.8958,-3.5 V 7 c 0.6502,-2.6582 4.6042,-3 5.2292,0.3474 l 2.625,17.8088 c 0.4583,2.8906 1.75,2.8906 2.25,5.7812 0.6875,5.625 1.3431,15.4439 7.9681,19.4647"
       id="path20"
       style="stroke:#000000;stroke-width:0.6;stroke-miterlimit:4;stroke-dasharray:none;stroke-opacity:1" />
  </g>
</svg>
