<?xml version="1.0" encoding="UTF-8" standalone="no"?>
<svg
   xmlns:dc="http://purl.org/dc/elements/1.1/"
   xmlns:cc="http://creativecommons.org/ns#"
   xmlns:rdf="http://www.w3.org/1999/02/22-rdf-syntax-ns#"
   xmlns:svg="http://www.w3.org/2000/svg"
   xmlns="http://www.w3.org/2000/svg"
   xmlns:sodipodi="http://sodipodi.sourceforge.net/DTD/sodipodi-0.dtd"
   xmlns:inkscape="http://www.inkscape.org/namespaces/inkscape"
   height="134.02289pt"
   viewBox="0 -21 145.70782 134.02289"
   width="145.70753pt"
   version="1.1"
   id="svg38"
   sodipodi:docname="360.svg"
   inkscape:version="1.0.2 (e86c870879, 2021-01-15, custom)">
  <metadata
     id="metadata44">
    <rdf:RDF>
      <cc:Work
         rdf:about="">
        <dc:format>image/svg+xml</dc:format>
        <dc:type
           rdf:resource="http://purl.org/dc/dcmitype/StillImage" />
        <dc:title></dc:title>
      </cc:Work>
    </rdf:RDF>
  </metadata>
  <defs
     id="defs42" />
  <sodipodi:namedview
     pagecolor="#ffffff"
     bordercolor="#666666"
     borderopacity="1"
     objecttolerance="10"
     gridtolerance="10"
     guidetolerance="10"
     inkscape:pageopacity="0"
     inkscape:pageshadow="2"
     inkscape:window-width="1920"
     inkscape:window-height="1013"
     id="namedview40"
     showgrid="false"
     fit-margin-top="0"
     fit-margin-left="0"
     fit-margin-right="0"
     fit-margin-bottom="0"
     inkscape:zoom="0.38065685"
     inkscape:cx="763.42297"
     inkscape:cy="80.266234"
     inkscape:window-x="-9"
     inkscape:window-y="-9"
     inkscape:window-maximized="1"
     inkscape:current-layer="svg38" />
  <path
     d="m 123.39231,-14.32052 c -13.54783,-4.30769 -31.520078,-6.67998 -50.606211,-6.67998 -19.085021,0 -37.057268,2.37229 -50.60621,6.67998 C 7.6693593,-9.70712 0,-3.51072 0,3.61726 c 0.00222332,4.83351 3.5484266,9.23458 10.540783,13.07871 5.83734,3.20826 14.011394,5.93295 23.723989,7.91393 v 20.15888 0.0156 0.02 c 0,0.0133 0.0022,0.0278 0.0022,0.0422 0.0011,0.0567 0.0033,0.1145 0.0089,0.17231 0.0033,0.0289 0.0089,0.0567 0.01223,0.0856 0.0056,0.0333 0.0078,0.0667 0.01445,0.10005 0.0022,0.0133 0.0067,0.0245 0.0089,0.0378 0.0067,0.03 0.01445,0.0589 0.02112,0.0878 0.01223,0.0456 0.02446,0.0901 0.0378,0.13452 0.0089,0.0256 0.01779,0.0511 0.02779,0.0756 0.01667,0.0478 0.03557,0.0934 0.05558,0.13896 0.01,0.0222 0.02001,0.0434 0.03113,0.0645 0.02334,0.0478 0.0478,0.0945 0.07448,0.14007 0.01112,0.0189 0.02223,0.0367 0.03335,0.0556 0.03001,0.0467 0.06114,0.0923 0.09449,0.13673 0.01223,0.0156 0.02223,0.0311 0.03446,0.0467 0.0378,0.0478 0.07893,0.0934 0.12006,0.13785 0.01001,0.01 0.0189,0.0211 0.02779,0.0311 0.105608,0.10783 0.222333,0.20455 0.347951,0.28792 0.01779,0.0122 0.03668,0.0222 0.05558,0.0333 0.04335,0.0278 0.08893,0.0545 0.135622,0.0789 0.02223,0.0122 0.04669,0.0222 0.06892,0.0345 0.04447,0.0211 0.08893,0.04 0.1334,0.0578 0.02446,0.01 0.04891,0.0189 0.07337,0.0278 0.04669,0.0167 0.09338,0.0311 0.141181,0.0445 0.02334,0.007 0.0478,0.0133 0.07226,0.0189 0.04891,0.0122 0.09894,0.0211 0.150074,0.03 0.02335,0.003 0.04558,0.008 0.06892,0.0111 0.05336,0.007 0.10672,0.0111 0.16008,0.0133 0.02223,0.001 0.04335,0.003 0.06559,0.004 0.05669,10e-4 0.113389,-0.001 0.170084,-0.004 0.0189,-10e-4 0.0378,0 0.05781,-0.002 0.07448,-0.006 0.151186,-0.0156 0.226779,-0.03 0.658104,-0.12673 1.322878,-0.2479 1.992099,-0.36685 0.285697,-0.0511 0.576953,-0.0989 0.864873,-0.14785 0.385747,-0.0667 0.769271,-0.1334 1.158353,-0.19677 0.331275,-0.0545 0.666997,-0.1056 1.000496,-0.15785 0.360178,-0.0567 0.719245,-0.1145 1.082759,-0.16897 0.302372,-0.0456 0.60808,-0.0889 0.911563,-0.13229 9.045598,-1.30954 18.92383,-1.99655 28.978817,-1.99655 10.047205,0 19.918768,0.6859 28.957687,1.99321 0.31349,0.0456 0.62698,0.0889 0.93825,0.13674 0.34795,0.0523 0.69256,0.10783 1.03829,0.16119 0.34795,0.0556 0.69924,0.10894 1.04496,0.16564 0.35685,0.0578 0.70924,0.12006 1.06275,0.18009 0.32127,0.0556 0.64477,0.10783 0.9627,0.16452 0.59363,0.10561 1.18059,0.21455 1.76532,0.32461 0.0723,0.0145 0.14674,0.0267 0.219,0.0411 0.0667,0.0122 0.1334,0.0222 0.2001,0.0278 0.0678,0.007 0.13562,0.01 0.20343,0.01 0.50359,0 0.98049,-0.17897 1.35512,-0.48802 0,0 0,0 0,-10e-4 0.002,-10e-4 0.004,-0.003 0.007,-0.004 0.0534,-0.0445 0.1045,-0.0923 0.15341,-0.1423 0.0111,-0.0122 0.0222,-0.0245 0.0345,-0.0367 0.04,-0.0434 0.0789,-0.0878 0.11672,-0.13451 0.009,-0.0111 0.0178,-0.0222 0.0256,-0.0333 0.09,-0.11673 0.16786,-0.24346 0.23234,-0.37908 0.003,-0.007 0.006,-0.0144 0.009,-0.0211 0.0267,-0.0578 0.05,-0.11672 0.0723,-0.17675 0.006,-0.0178 0.0122,-0.0356 0.0178,-0.0534 0.0167,-0.0511 0.0311,-0.10228 0.0434,-0.15453 0.006,-0.0211 0.0111,-0.0422 0.0156,-0.0634 0.003,-0.0145 0.007,-0.0278 0.01,-0.0422 0.007,-0.0356 0.009,-0.07 0.0144,-0.10561 0.003,-0.0256 0.008,-0.0523 0.0111,-0.0789 0.007,-0.0611 0.009,-0.12006 0.01,-0.18009 0,-0.0122 0.002,-0.0245 0.002,-0.0367 v -0.0178 c 0,-0.006 0,-0.0122 0,-0.0189 V 24.6095 c 9.71148,-1.97987 17.88665,-4.70456 23.72287,-7.91393 6.99236,-3.84413 10.53856,-8.2452 10.5419,-13.06426 0,-0.006 0,-0.03 0,-0.0356 0,-7.10575 -7.67047,-13.30215 -22.181,-17.91555 z m 0,0"
     fill="#80e7ff"
     id="path2"
     style="stroke-width:0.284586" />
  <path
     d="m 72.786099,57.82637 c -15.217547,0 -27.598132,12.38059 -27.598132,27.59813 0,15.21755 12.380585,27.59814 27.598132,27.59814 15.217547,0 27.598131,-12.38059 27.598131,-27.59814 0,-15.21754 -12.380584,-27.59813 -27.598131,-27.59813 z m 0,0"
     fill="#dddddd"
     id="path4"
     style="stroke-width:0.284586" />
  <path
     d="m 109.36202,13.48883 c 17.34971,-3.3072 30.1594,-8.90442 34.61605,-15.53326 1.14502,1.80756 1.72975,3.6985 1.72975,5.66169 -0.002,4.83351 -3.54843,9.23347 -10.54078,13.0776 -5.83734,3.20937 -14.0114,5.93406 -23.72288,7.91504 v 20.15888 0.0145 0.02 c 0,0.0145 -0.002,0.0289 -0.003,0.0422 -10e-4,0.0578 -0.003,0.11561 -0.009,0.17342 -0.003,0.0289 -0.008,0.0567 -0.0122,0.0856 -0.004,0.0333 -0.008,0.0667 -0.0133,0.10005 -0.003,0.0133 -0.007,0.0245 -0.01,0.0367 -0.006,0.03 -0.0133,0.06 -0.0211,0.0889 -0.0111,0.0456 -0.0234,0.0901 -0.0378,0.1334 -0.009,0.0267 -0.0178,0.0511 -0.0267,0.0767 -0.0178,0.0478 -0.0367,0.0934 -0.0567,0.13896 -0.01,0.0211 -0.02,0.0434 -0.03,0.0645 -0.0233,0.0478 -0.0489,0.0945 -0.0756,0.14007 -0.0111,0.0189 -0.0222,0.0367 -0.0333,0.0556 -0.03,0.0467 -0.0611,0.0912 -0.0945,0.13562 -0.0111,0.0156 -0.0222,0.0322 -0.0345,0.0478 -0.0378,0.0478 -0.0789,0.0934 -0.12006,0.13785 -0.009,0.01 -0.0178,0.0211 -0.0278,0.0311 -0.1056,0.10783 -0.22233,0.20455 -0.34795,0.28792 -0.0178,0.0111 -0.0367,0.0222 -0.0545,0.0333 -0.0445,0.0278 -0.09,0.0545 -0.13562,0.0789 -0.0233,0.0122 -0.0467,0.0222 -0.07,0.0333 -0.0445,0.0211 -0.0878,0.0411 -0.1334,0.0589 -0.0245,0.01 -0.0489,0.0189 -0.0734,0.0278 -0.0467,0.0156 -0.0934,0.0311 -0.14118,0.0445 -0.0233,0.006 -0.0478,0.0133 -0.0711,0.0189 -0.05,0.0111 -0.10005,0.0211 -0.15119,0.03 -0.0233,0.003 -0.0456,0.008 -0.0689,0.01 -0.0534,0.008 -0.10672,0.0111 -0.16008,0.0145 -0.0211,0.001 -0.0434,0.003 -0.0645,0.004 -0.0567,10e-4 -0.11339,-0.001 -0.17119,-0.004 -0.0189,-10e-4 -0.0378,0 -0.0567,-0.002 -0.0756,-0.007 -0.15118,-0.0156 -0.22789,-0.0311 -0.57139,-0.10895 -1.15057,-0.21455 -1.73086,-0.31794 V 16.11807 c -10e-4,-1.28731 0.91713,-2.38785 2.1822,-2.62908 z m 0,0"
     fill="#47dbf4"
     id="path6"
     style="stroke-width:0.284586" />
  <path
     d="M 93.994395,3.09478 C 92.552569,1.49288 90.489324,0.57353 88.33381,0.57353 c -2.155513,0 -4.219871,0.91935 -5.661697,2.52125 l -18.166788,20.1789 c -0.352397,0.3913 -0.548049,0.90045 -0.548049,1.42626 v 19.21064 c 2.917002,-0.11783 5.865131,-0.17898 8.828823,-0.17898 10.047205,0 19.918768,0.6859 28.958811,1.99321 0.31237,0.0456 0.62697,0.0901 0.93713,0.13674 0.34795,0.0522 0.69256,0.10783 1.03829,0.16119 0.34906,0.0556 0.70035,0.10894 1.04496,0.16564 0.35685,0.0578 0.70924,0.12006 1.06275,0.18009 0.32127,0.0556 0.64477,0.10783 0.9627,0.16452 0.59363,0.10561 1.1817,0.21455 1.76643,0.32461 0.0712,0.0145 0.14563,0.0267 0.21789,0.0411 0.0667,0.0122 0.1334,0.0222 0.2001,0.0278 0.0689,0.007 0.13673,0.01 0.20343,0.01 0.5047,0 0.98049,-0.17898 1.35512,-0.48802 0,0 0.001,0 0.001,-0.001 0.002,-10e-4 0.003,-0.003 0.006,-0.004 0.0534,-0.0445 0.1045,-0.0923 0.15341,-0.14229 0.0122,-0.0122 0.0233,-0.0245 0.0345,-0.0367 0.0411,-0.0434 0.08,-0.0878 0.11672,-0.13451 0.009,-0.0111 0.0178,-0.0222 0.0267,-0.0333 0.0889,-0.11672 0.16675,-0.24345 0.23123,-0.37908 0.003,-0.007 0.007,-0.0133 0.01,-0.0211 0.0256,-0.0578 0.05,-0.11561 0.0711,-0.17675 0.007,-0.0178 0.0122,-0.0356 0.0178,-0.0534 0.0167,-0.0511 0.0311,-0.10228 0.0445,-0.15452 0.004,-0.0211 0.01,-0.0423 0.0144,-0.0634 0.003,-0.0145 0.008,-0.0278 0.01,-0.0422 0.007,-0.0356 0.01,-0.07 0.0156,-0.10561 0.003,-0.0256 0.008,-0.0522 0.0111,-0.0789 0.006,-0.06 0.008,-0.12006 0.01,-0.18009 0,-0.0122 10e-4,-0.0245 10e-4,-0.0367 v -0.0167 c 0,-0.007 0,-0.0133 0,-0.02 V 24.61046 c 0.69368,-0.14118 1.37624,-0.28681 2.05324,-0.43577 z m 0,0"
     fill="#5a9e3b"
     id="path8"
     style="stroke-width:0.284586" />
  <path
     d="m 88.33381,0.57353 c -2.155513,0 -4.219871,0.91935 -5.661697,2.52125 L 81.789454,4.07527 111.30854,35.46084 V 24.6099 c 0.69256,-0.1423 1.37512,-0.28792 2.05213,-0.43689 L 93.994395,3.09367 C 92.552569,1.49288 90.489324,0.57353 88.33381,0.57353 Z m 0,0"
     fill="#538c35"
     id="path10"
     style="stroke-width:0.284586" />
  <path
     d="M 36.345804,13.48883 C 18.996088,10.18163 6.1864015,4.58441 1.7297468,-2.04443 0.58473459,-0.23687 0,1.65518 0,3.61726 c 0.00222332,4.83351 3.5484266,9.23458 10.540783,13.07871 5.83734,3.20826 14.011394,5.93295 23.723989,7.91393 v 20.15888 0.0156 0.02 c 0,0.0133 0.0022,0.0278 0.0022,0.0422 0.0011,0.0567 0.0033,0.1145 0.0089,0.17231 0.0033,0.0289 0.0089,0.0567 0.01223,0.0856 0.0056,0.0333 0.0078,0.0667 0.01445,0.10005 0.0022,0.0133 0.0067,0.0245 0.0089,0.0378 0.0067,0.03 0.01445,0.0589 0.02112,0.0878 0.01223,0.0456 0.02446,0.0901 0.0378,0.13452 0.0089,0.0256 0.01779,0.0511 0.02779,0.0756 0.01667,0.0478 0.03557,0.0934 0.05558,0.13896 0.01,0.0222 0.02001,0.0434 0.03113,0.0645 0.02334,0.0478 0.0478,0.0945 0.07448,0.14007 0.01112,0.0189 0.02223,0.0367 0.03335,0.0556 0.03001,0.0467 0.06114,0.0923 0.09449,0.13673 0.01223,0.0156 0.02223,0.0311 0.03446,0.0467 0.0378,0.0478 0.07893,0.0934 0.12006,0.13785 0.01001,0.01 0.0189,0.0211 0.02779,0.0311 0.105608,0.10783 0.222333,0.20455 0.347951,0.28792 0.01779,0.0122 0.03668,0.0222 0.05558,0.0333 0.04335,0.0278 0.08893,0.0545 0.135622,0.0789 0.02223,0.0122 0.04669,0.0222 0.06892,0.0345 0.04447,0.0211 0.08893,0.04 0.1334,0.0578 0.02446,0.01 0.04891,0.0189 0.07337,0.0278 0.04669,0.0167 0.09338,0.0311 0.141181,0.0445 0.02334,0.007 0.0478,0.0133 0.07226,0.0189 0.04891,0.0122 0.09894,0.0211 0.150074,0.03 0.02335,0.003 0.04558,0.008 0.06892,0.0111 0.05336,0.007 0.10672,0.0111 0.16008,0.0133 0.02223,0.001 0.04335,0.003 0.06559,0.004 0.05669,10e-4 0.113389,-0.001 0.170084,-0.004 0.0189,-10e-4 0.0378,0 0.05781,-0.002 0.07448,-0.006 0.151186,-0.0156 0.226779,-0.03 0.571394,-0.11006 1.150571,-0.21455 1.730858,-0.31905 V 16.11808 c 0.0011,-1.28731 -0.917121,-2.38785 -2.182193,-2.62908 z m 0,0"
     fill="#47dbf4"
     id="path12"
     style="stroke-width:0.284586" />
  <path
     d="m 55.675391,9.94596 c -1.33733,-1.48518 -3.24939,-2.33672 -5.248159,-2.33672 -1.990987,0 -3.896377,0.84598 -5.232595,2.32116 L 31.953626,24.11521 c 0.761488,0.16897 1.529647,0.33461 2.311146,0.49469 v 20.15888 0.0156 0.02 c 0,0.0133 0.0022,0.0278 0.0022,0.0422 0.0011,0.0567 0.0033,0.1145 0.01,0.17231 0.0022,0.0289 0.0078,0.0567 0.01112,0.0856 0.0056,0.0333 0.0078,0.0667 0.01445,0.10005 0.0022,0.0133 0.0067,0.0245 0.0089,0.0378 0.0067,0.03 0.01445,0.0589 0.02223,0.0878 0.01112,0.0456 0.02334,0.0901 0.0378,0.13452 0.0078,0.0256 0.01667,0.0511 0.02668,0.0756 0.01779,0.0478 0.03557,0.0934 0.0567,0.13896 0.0089,0.0222 0.0189,0.0434 0.03001,0.0645 0.02334,0.0478 0.04891,0.0945 0.07559,0.14007 0.01,0.0189 0.02112,0.0367 0.03335,0.0556 0.0289,0.0467 0.06114,0.0923 0.09338,0.13673 0.01223,0.0156 0.02334,0.0311 0.03557,0.0467 0.0378,0.0478 0.07782,0.0934 0.118948,0.13785 0.01001,0.01 0.0189,0.0211 0.02779,0.0311 0.105608,0.10783 0.222333,0.20455 0.347951,0.28792 0.01779,0.0122 0.03668,0.0222 0.05558,0.0333 0.04447,0.0278 0.08893,0.0545 0.135622,0.0789 0.02334,0.0122 0.04669,0.0222 0.07003,0.0345 0.04335,0.0211 0.08782,0.04 0.1334,0.0578 0.02446,0.01 0.04891,0.0189 0.07337,0.0278 0.04558,0.0167 0.09338,0.0311 0.14007,0.0445 0.02446,0.007 0.0478,0.0133 0.07226,0.0189 0.05002,0.0122 0.10005,0.0211 0.150074,0.03 0.02335,0.003 0.04669,0.008 0.07004,0.0111 0.05225,0.007 0.105608,0.0111 0.158968,0.0133 0.02223,0.001 0.04335,0.003 0.06559,0.004 0.05669,10e-4 0.113389,-0.001 0.171196,-0.004 0.0189,-10e-4 0.0378,0 0.05669,-0.002 0.07559,-0.006 0.151186,-0.0156 0.226779,-0.03 0.658104,-0.12673 1.322878,-0.2479 1.992099,-0.36685 0.285697,-0.0511 0.576953,-0.0989 0.865985,-0.14785 0.384635,-0.0667 0.76927,-0.1334 1.157241,-0.19677 0.331275,-0.0545 0.666997,-0.1056 1.000496,-0.15785 0.36129,-0.0567 0.719245,-0.1145 1.082759,-0.16897 0.302372,-0.0456 0.60808,-0.0889 0.912675,-0.13229 9.044486,-1.30954 18.922718,-1.99655 28.977705,-1.99655 4.478888,0 8.921091,0.13674 13.271026,0.40354 z m 0,0"
     fill="#68bd45"
     id="path14"
     style="stroke-width:0.284586" />
  <path
     d="m 38.529109,17.0706 -6.576595,7.04461 c 0.0011,0 0.0022,0 0.0022,10e-4 0.311266,0.0689 0.623643,0.13673 0.937132,0.20455 0.45467,0.0967 0.910451,0.19454 1.371791,0.28903 v 20.15888 0.0156 0.02 c 0,0.0133 0.0022,0.0278 0.0033,0.0422 0.0011,0.0567 0.0033,0.1145 0.0089,0.17231 0.0033,0.0289 0.0078,0.0567 0.01223,0.0856 0.0044,0.0333 0.0078,0.0667 0.01334,0.10005 0.0033,0.0133 0.0067,0.0245 0.01,0.0378 0.0056,0.03 0.01334,0.0589 0.02112,0.0878 0.01112,0.0456 0.02334,0.0901 0.0378,0.13452 0.0089,0.0256 0.01779,0.0511 0.02668,0.0756 0.01779,0.0478 0.03668,0.0934 0.05669,0.13896 0.01,0.0222 0.02001,0.0434 0.03001,0.0645 0.02334,0.0478 0.04891,0.0945 0.07559,0.14007 0.01112,0.0189 0.02223,0.0367 0.03335,0.0556 0.03001,0.0467 0.06114,0.0923 0.09449,0.13673 0.01112,0.0156 0.02223,0.0311 0.03446,0.0467 0.0378,0.0478 0.07782,0.0934 0.12006,0.13785 0.0089,0.01 0.01779,0.0211 0.02779,0.0311 0.05336,0.0534 0.107831,0.10561 0.166749,0.15341 0.05781,0.0478 0.117837,0.0923 0.181202,0.13451 0.01779,0.0122 0.03668,0.0222 0.05447,0.0333 0.04447,0.0278 0.09005,0.0545 0.135623,0.0789 0.02334,0.0122 0.04669,0.0222 0.07003,0.0345 0.04447,0.0211 0.08782,0.04 0.1334,0.0578 0.02446,0.01 0.04891,0.0189 0.07337,0.0278 0.04669,0.0167 0.09338,0.0311 0.141181,0.0445 0.01112,0.003 0.02334,0.006 0.03557,0.009 0.01223,0.003 0.02446,0.007 0.03668,0.01 0.04891,0.0122 0.09894,0.0222 0.150074,0.03 0.02335,0.003 0.04558,0.008 0.06892,0.0111 0.05336,0.007 0.10672,0.0111 0.16008,0.0145 0.02223,0.001 0.04335,0.003 0.06559,0.003 0.05669,0.001 0.113389,-10e-4 0.170084,-0.003 0.01,-10e-4 0.0189,-10e-4 0.0289,-10e-4 0.0089,-10e-4 0.0189,-10e-4 0.0289,-0.002 0.07448,-0.006 0.151186,-0.0156 0.226779,-0.03 0.571394,-0.11006 1.150571,-0.21455 1.730858,-0.31905 V 17.07096 Z m 0,0"
     fill="#64af41"
     id="path16"
     style="stroke-width:0.284586" />
  <path
     d="m 45.193526,9.9304 -1.341777,1.43737 29.002162,32.36383 c 4.455543,0.002 8.875513,0.13785 13.203214,0.40354 L 55.675391,9.94596 c -1.33733,-1.48518 -3.24939,-2.33672 -5.248159,-2.33672 -1.990987,0 -3.897488,0.84598 -5.233706,2.32116 z m 0,0"
     fill="#64af41"
     id="path18"
     style="stroke-width:0.284586" />
  <path
     d="m 66.089445,-7.22589 c -4.216536,0 -7.646015,3.43059 -7.646015,7.64712 0,4.21654 3.429479,7.64602 7.646015,7.64602 4.217647,0 7.648237,-3.42948 7.648237,-7.64602 -0.0011,-4.21653 -3.43059,-7.64712 -7.648237,-7.64712 z m 0,0"
     fill="#ffdb56"
     id="path20"
     style="stroke-width:0.284586" />
  <g
     fill="#3e5359"
     id="g34"
     transform="matrix(0.28458559,0,0,0.28458559,0,-21.0005)">
    <path
       d="m 273.24219,337.93359 c -1.73828,0 -3.48047,-0.60156 -4.89844,-1.82422 l -12.58594,-10.89062 -12.58203,10.89062 c -3.12891,2.70704 -7.86328,2.36719 -10.57031,-0.76562 -2.70703,-3.12891 -2.36719,-7.85938 0.76562,-10.56641 l 17.48438,-15.13281 c 2.8164,-2.4375 6.99219,-2.4375 9.80859,0 l 17.48438,15.13281 c 3.1289,2.70703 3.47265,7.4375 0.76172,10.56641 -1.48047,1.71484 -3.56641,2.58984 -5.66797,2.58984 z m 0,0"
       id="path22" />
    <path
       d="m 301.30078,400.96484 c -1.73828,0 -3.48437,-0.60156 -4.90234,-1.82422 -3.12891,-2.70703 -3.46875,-7.4414 -0.76172,-10.57031 l 10.89062,-12.58203 -10.89062,-12.58594 c -2.70703,-3.1289 -2.36719,-7.85937 0.76172,-10.5664 3.1289,-2.70703 7.85937,-2.36719 10.57031,0.76172 l 15.13281,17.48828 c 2.4336,2.8125 2.4336,6.98828 0,9.80469 l -15.13281,17.48828 c -1.48047,1.71093 -3.57031,2.58593 -5.66797,2.58593 z m 0,0"
       id="path24" />
    <path
       d="m 210.21875,400.96484 c -2.10156,0 -4.1875,-0.875 -5.66797,-2.58593 l -15.13281,-17.48829 c -2.4375,-2.8164 -2.4375,-6.99218 0,-9.80468 l 15.13281,-17.48828 c 2.70703,-3.12891 7.4375,-3.46875 10.56641,-0.76172 3.1289,2.70703 3.46875,7.4375 0.76172,10.5664 l -10.88672,12.58594 10.88672,12.58203 c 2.70703,3.12891 2.36718,7.86328 -0.76172,10.57031 -1.41797,1.22266 -3.16016,1.82422 -4.89844,1.82422 z m 0,0"
       id="path26" />
    <path
       d="m 255.75781,444.15625 c -1.74609,0 -3.49609,-0.60938 -4.90234,-1.82813 l -17.48828,-15.13281 c -3.12891,-2.70703 -3.46875,-7.4375 -0.76172,-10.5664 2.70703,-3.12891 7.4375,-3.47266 10.5664,-0.76172 l 12.58594,10.88672 12.58203,-10.88672 c 3.13282,-2.71094 7.85938,-2.3711 10.57032,0.76172 2.70703,3.1289 2.36718,7.85937 -0.76172,10.5664 l -17.48828,15.13282 c -1.40625,1.21875 -3.15235,1.82812 -4.90235,1.82812 z m 0,0"
       id="path28" />
    <path
       d="M 0.078125,85.6875 C 0.03125,86.019531 0,86.359375 0,86.707031 V 299.18359 c 0,21.16016 20.136719,36.67578 37.03125,45.96485 21.71875,11.94531 52.652344,21.97656 89.45313,29.01953 0.46875,0.0898 0.9414,0.13281 1.41015,0.13281 2.58594,0 5.09375,-1.34375 6.50391,-3.76562 0.6914,-1.17969 0.98828,-2.55079 0.98828,-3.91797 V 166.39453 c 0,-4.52344 -3.22656,-8.39453 -7.67188,-9.24219 C 52.488281,142.8125 1.542969,116.22656 0.078125,85.6875 Z m 0,0"
       id="path30" />
    <path
       d="m 511.44922,85.6875 c 0.043,0.332031 0.0781,0.671875 0.0781,1.019531 V 299.18359 c 0,21.16016 -20.14062,36.67578 -37.03125,45.96485 -21.71875,11.94531 -52.65234,21.97656 -89.45703,29.01953 -0.46875,0.0898 -0.9375,0.13281 -1.40625,0.13281 -2.58984,0 -5.09375,-1.34375 -6.50781,-3.76562 -0.6875,-1.17969 -0.98437,-2.55079 -0.98437,-3.91797 V 166.39453 c 0,-4.52344 3.22656,-8.39453 7.67187,-9.24219 C 459.03514,142.8125 509.98045,116.22656 511.4492,85.6875 Z m 0,0"
       id="path32" />
  </g>
  <path
     d="M 135.76511,76.81134 V 15.00069 c 6.04522,-3.42392 9.58253,-7.387 9.78597,-11.61576 0.0133,0.0945 0.0222,0.1912 0.0222,0.29014 v 60.46777 c 0,5.7195 -5.17034,9.9894 -9.8082,12.6685 z m 0,0"
     fill="#334549"
     id="path36"
     style="stroke-width:0.284586" />
</svg>
