<?xml version="1.0" encoding="UTF-8" standalone="no"?>
<svg
   width="31"
   height="30"
   viewBox="0 0 31 30"
   fill="none"
   version="1.1"
   id="svg13"
   sodipodi:docname="360_icon.svg"
   inkscape:version="1.1 (c68e22c387, 2021-05-23)"
   xmlns:inkscape="http://www.inkscape.org/namespaces/inkscape"
   xmlns:sodipodi="http://sodipodi.sourceforge.net/DTD/sodipodi-0.dtd"
   xmlns="http://www.w3.org/2000/svg"
   xmlns:svg="http://www.w3.org/2000/svg">
  <sodipodi:namedview
     id="namedview15"
     pagecolor="#ffffff"
     bordercolor="#666666"
     borderopacity="1.0"
     inkscape:pageshadow="2"
     inkscape:pageopacity="0.0"
     inkscape:pagecheckerboard="0"
     showgrid="false"
     inkscape:zoom="12.333333"
     inkscape:cx="28.945946"
     inkscape:cy="16.662162"
     inkscape:window-width="1920"
     inkscape:window-height="1013"
     inkscape:window-x="-9"
     inkscape:window-y="-9"
     inkscape:window-maximized="1"
     inkscape:current-layer="svg13" />
  <circle
     cx="15.621621"
     cy="15.040541"
     r="13.5"
     fill="#fdc82f"
     id="circle2"
     style="stroke-width:0.899994" />
  <g
     clip-path="url(#clip0_415:170)"
     id="g6"
     transform="matrix(0.89999992,0,0,0.89999992,1.6716216,1.5405406)">
    <path
       d="m 11,12.3333 0.5333,0.4 c 0.0743,-0.099 0.1196,-0.2168 0.1307,-0.3401 0.0111,-0.1233 -0.0123,-0.2473 -0.0677,-0.358 -0.0554,-0.1107 -0.1405,-0.2039 -0.2458,-0.269 C 11.2452,11.7011 11.1238,11.6667 11,11.6667 Z M 9,15 8.46667,14.6 c -0.07429,0.0991 -0.11952,0.2168 -0.13064,0.3401 -0.01112,0.1233 0.01232,0.2473 0.06769,0.358 0.05536,0.1108 0.14048,0.2039 0.24579,0.269 C 8.75483,15.6322 8.87619,15.6667 9,15.6667 Z M 21.9813,8.80534 22.4907,9.23601 Z M 7.66667,13 H 11 V 11.6667 H 7.66667 Z M 10.4667,11.9333 8.46667,14.6 9.53333,15.4 11.5333,12.7333 Z M 9,15.6667 H 9.66667 V 14.3333 H 9 Z M 9.66667,17 h -2 v 1.3333 h 2 z m 0.66663,-0.6667 c 0,0.1768 -0.0702,0.3464 -0.1952,0.4714 C 10.013,16.9298 9.84348,17 9.66667,17 v 1.3333 c 0.53043,0 1.03913,-0.2107 1.41423,-0.5857 0.3751,-0.3751 0.5858,-0.8838 0.5858,-1.4143 z M 9.66667,15.6667 c 0.17681,0 0.34633,0.0702 0.47143,0.1952 0.125,0.1251 0.1952,0.2946 0.1952,0.4714 h 1.3334 c 0,-0.5304 -0.2107,-1.0391 -0.5858,-1.4142 -0.3751,-0.375 -0.8838,-0.5858 -1.41423,-0.5858 z m 6.00003,-4 H 15 V 13 h 0.6667 z m -2.6667,2 V 15 h 1.3333 V 13.6667 Z M 13,15 v 1.3333 h 1.3333 V 15 Z m 2,-0.6667 h -1.3333 v 1.3334 H 15 Z m 2,2 C 17,15.8029 16.7893,15.2942 16.4142,14.9191 16.0391,14.5441 15.5304,14.3333 15,14.3333 v 1.3334 c 0.1768,0 0.3464,0.0702 0.4714,0.1952 0.125,0.1251 0.1953,0.2946 0.1953,0.4714 z m -2,2 c 0.5304,0 1.0391,-0.2107 1.4142,-0.5857 C 16.7893,17.3725 17,16.8638 17,16.3333 h -1.3333 c 0,0.1768 -0.0703,0.3464 -0.1953,0.4714 C 15.3464,16.9298 15.1768,17 15,17 Z M 15,17 c -0.1768,0 -0.3464,-0.0702 -0.4714,-0.1953 -0.125,-0.125 -0.1953,-0.2946 -0.1953,-0.4714 H 13 c 0,0.5305 0.2107,1.0392 0.5858,1.4143 0.3751,0.375 0.8838,0.5857 1.4142,0.5857 z m 0,-5.3333 c -0.5304,0 -1.0391,0.2107 -1.4142,0.5858 C 13.2107,12.6275 13,13.1362 13,13.6667 h 1.3333 c 0,-0.1768 0.0703,-0.3464 0.1953,-0.4714 C 14.6536,13.0702 14.8232,13 15,13 Z m 6,2 v 2.6666 h 1.3333 v -2.6666 z m -1.3333,2.6666 v -2.6666 h -1.3334 v 2.6666 z M 20.3333,17 c -0.1768,0 -0.3463,-0.0702 -0.4714,-0.1953 -0.125,-0.125 -0.1952,-0.2946 -0.1952,-0.4714 h -1.3334 c 0,0.5305 0.2107,1.0392 0.5858,1.4143 0.3751,0.375 0.8838,0.5857 1.4142,0.5857 z M 21,16.3333 c 0,0.1768 -0.0702,0.3464 -0.1953,0.4714 C 20.6797,16.9298 20.5101,17 20.3333,17 v 1.3333 c 0.5305,0 1.0392,-0.2107 1.4142,-0.5857 0.3751,-0.3751 0.5858,-0.8838 0.5858,-1.4143 z M 20.3333,13 c 0.1768,0 0.3464,0.0702 0.4714,0.1953 C 20.9298,13.3203 21,13.4899 21,13.6667 h 1.3333 c 0,-0.5305 -0.2107,-1.0392 -0.5858,-1.4142 -0.375,-0.3751 -0.8837,-0.5858 -1.4142,-0.5858 z m 0,-1.3333 c -0.5304,0 -1.0391,0.2107 -1.4142,0.5858 -0.3751,0.375 -0.5858,0.8837 -0.5858,1.4142 h 1.3334 c 0,-0.1768 0.0702,-0.3464 0.1952,-0.4714 C 19.987,13.0702 20.1565,13 20.3333,13 Z m -5.3333,12 c -2.2985,0 -4.5029,-0.9131 -6.12826,-2.5384 C 7.24643,19.5029 6.33333,17.2985 6.33333,15 H 5 c 0,2.6522 1.05357,5.1957 2.92893,7.0711 C 9.8043,23.9464 12.3478,25 15,25 Z M 23.6667,15 c 0,1.1381 -0.2242,2.2651 -0.6597,3.3166 -0.4356,1.0515 -1.074,2.0069 -1.8787,2.8117 -0.8048,0.8047 -1.7602,1.4431 -2.8117,1.8787 C 17.2651,23.4425 16.1381,23.6667 15,23.6667 V 25 c 2.6522,0 5.1957,-1.0536 7.0711,-2.9289 C 23.9464,20.1957 25,17.6522 25,15 Z M 15,5.00001 c -2.6522,0 -5.1957,1.05356 -7.07107,2.92893 C 6.05357,9.8043 5,12.3478 5,15 h 1.33333 c 0,-2.2985 0.9131,-4.5029 2.53841,-6.12825 C 10.4971,7.24643 12.7015,6.33334 15,6.33334 Z m 8,4 c 0.1768,0 0.3464,0.07023 0.4714,0.19526 0.125,0.12502 0.1953,0.29459 0.1953,0.4714 H 25 C 25,9.13624 24.7893,8.62753 24.4142,8.25246 24.0391,7.87739 23.5304,7.66667 23,7.66667 Z m 0,1.33329 c -0.1768,0 -0.3464,-0.0702 -0.4714,-0.1952 -0.125,-0.125 -0.1953,-0.29462 -0.1953,-0.47143 H 21 c 0,0.53043 0.2107,1.03913 0.5858,1.41423 0.3751,0.3751 0.8838,0.5858 1.4142,0.5858 z M 22.3333,9.66667 c 0,-0.164 0.0587,-0.31333 0.1574,-0.43066 L 21.4733,8.37467 C 21.1787,8.72267 21,9.17467 21,9.66667 Z M 22.4907,9.23601 C 22.5532,9.16186 22.6312,9.10231 22.7192,9.06153 22.8072,9.02076 22.903,8.99976 23,9.00001 V 7.66667 c -0.6133,0 -1.1613,0.276 -1.5267,0.708 z M 15,6.33334 c 2.5787,0 4.8947,1.12533 6.4827,2.91467 L 22.48,8.36267 C 21.5426,7.30418 20.391,6.457 19.1015,5.87727 17.8119,5.29755 16.4139,4.99852 15,5.00001 Z m 7.8053,4.89336 c 0.552,1.1413 0.8614,2.42 0.8614,3.7733 H 25 c 0,-1.56 -0.3573,-3.036 -0.9947,-4.3533 l -1.2,0.5813 z m 0.8614,-1.56003 c 2e-4,0.14154 -0.0447,0.27946 -0.1281,0.39383 -0.0834,0.1143 -0.2011,0.1991 -0.3359,0.2422 l 0.4053,1.2693 c 0.4041,-0.1289 0.7567,-0.383 1.0069,-0.7255 C 24.8651,10.504 25,10.0908 25,9.66667 Z m -0.464,0.63603 C 23.1371,10.3233 23.0687,10.3336 23,10.3333 v 1.3334 c 0.2063,4e-4 0.4114,-0.0311 0.608,-0.0934 z"
       fill="#ffffff"
       id="path4" />
  </g>
  <defs
     id="defs11">
    <clipPath
       id="clip0_415:170">
      <rect
         width="20"
         height="20"
         fill="white"
         transform="translate(5 5)"
         id="rect8" />
    </clipPath>
  </defs>
</svg>
