<?xml version="1.0" encoding="UTF-8" standalone="no"?>
<svg
   id="Icons_Users"
   overflow="hidden"
   version="1.1"
   viewBox="0 0 48 30"
   sodipodi:docname="association.svg"
   inkscape:version="1.1 (c68e22c387, 2021-05-23)"
   width="48"
   height="30"
   xmlns:inkscape="http://www.inkscape.org/namespaces/inkscape"
   xmlns:sodipodi="http://sodipodi.sourceforge.net/DTD/sodipodi-0.dtd"
   xmlns="http://www.w3.org/2000/svg"
   xmlns:svg="http://www.w3.org/2000/svg"
   xmlns:rdf="http://www.w3.org/1999/02/22-rdf-syntax-ns#"
   xmlns:cc="http://creativecommons.org/ns#"
   xmlns:dc="http://purl.org/dc/elements/1.1/">
  <metadata
     id="metadata21">
    <rdf:RDF>
      <cc:Work
         rdf:about="">
        <dc:format>image/svg+xml</dc:format>
        <dc:type
           rdf:resource="http://purl.org/dc/dcmitype/StillImage" />
      </cc:Work>
    </rdf:RDF>
  </metadata>
  <defs
     id="defs19" />
  <sodipodi:namedview
     pagecolor="#ffffff"
     bordercolor="#666666"
     borderopacity="1"
     objecttolerance="10"
     gridtolerance="10"
     guidetolerance="10"
     inkscape:pageopacity="0"
     inkscape:pageshadow="2"
     inkscape:window-width="1920"
     inkscape:window-height="1013"
     id="namedview17"
     showgrid="false"
     inkscape:zoom="7.65625"
     inkscape:cx="29.844898"
     inkscape:cy="26.187755"
     inkscape:window-x="-9"
     inkscape:window-y="-9"
     inkscape:window-maximized="1"
     inkscape:current-layer="Icons_Users"
     fit-margin-top="0"
     fit-margin-left="0"
     fit-margin-right="0"
     fit-margin-bottom="0"
     inkscape:pagecheckerboard="0" />
  <g
     id="g14"
     transform="matrix(0.57142856,0,0,0.57251908,-3.4285714,-12.480916)"
     style="fill:#c3c3c3;fill-opacity:1">
    <circle
       cx="24"
       cy="30.799999"
       r="9"
       id="circle2"
       style="fill:#c3c3c3;fill-opacity:1" />
    <circle
       cx="72"
       cy="30.799999"
       r="9"
       id="circle4"
       style="fill:#c3c3c3;fill-opacity:1" />
    <path
       d="m 66,74.2 v -9 c 0,-1.4 -0.6,-2.8 -1.8,-3.6 -2.4,-2 -5.6,-3.4 -8.8,-4.2 -2.2,-0.6 -4.8,-1.2 -7.4,-1.2 -2.4,0 -5,0.4 -7.4,1.2 -3.2,0.8 -6.2,2.4 -8.8,4.2 -1.2,1 -1.8,2.2 -1.8,3.6 v 9 z"
       id="path6"
       style="fill:#c3c3c3;fill-opacity:1" />
    <circle
       cx="48"
       cy="44.799999"
       r="9"
       id="circle8"
       style="fill:#c3c3c3;fill-opacity:1" />
    <path
       d="m 88.2,47.6 c -2.4,-2 -5.6,-3.4 -8.8,-4.2 -2.2,-0.6 -4.8,-1.2 -7.4,-1.2 -2.4,0 -5,0.4 -7.4,1.2 -1.2,0.4 -2.4,0.8 -3.6,1.4 V 45 c 0,3.4 -1.4,6.6 -3.6,8.8 3.8,1.2 6.8,2.8 9.2,4.6 0.6,0.6 1.2,1 1.6,1.8 H 90 v -9 c 0,-1.4 -0.6,-2.8 -1.8,-3.6 z"
       id="path10"
       style="fill:#c3c3c3;fill-opacity:1" />
    <path
       d="m 29.4,58.4 v 0 c 2.8,-2 6,-3.6 9.2,-4.6 C 36.4,51.4 35,48.4 35,45 c 0,-0.2 0,-0.2 0,-0.4 -1.2,-0.4 -2.4,-1 -3.6,-1.2 -2.2,-0.6 -4.8,-1.2 -7.4,-1.2 -2.4,0 -5,0.4 -7.4,1.2 -3.2,1 -6.2,2.4 -8.8,4.2 C 6.6,48.4 6,49.8 6,51.2 v 9 h 21.6 c 0.6,-0.8 1,-1.2 1.8,-1.8 z"
       id="path12"
       style="fill:#c3c3c3;fill-opacity:1" />
  </g>
</svg>
