<?xml version="1.0" encoding="UTF-8" standalone="no"?>
<svg
   height="30"
   width="21"
   version="1.1"
   id="svg4"
   sodipodi:docname="business.svg"
   inkscape:version="1.2 (dc2aedaf03, 2022-05-15)"
   xmlns:inkscape="http://www.inkscape.org/namespaces/inkscape"
   xmlns:sodipodi="http://sodipodi.sourceforge.net/DTD/sodipodi-0.dtd"
   xmlns="http://www.w3.org/2000/svg"
   xmlns:svg="http://www.w3.org/2000/svg">
  <defs
     id="defs8" />
  <sodipodi:namedview
     id="namedview6"
     pagecolor="#ffffff"
     bordercolor="#111111"
     borderopacity="1"
     inkscape:showpageshadow="0"
     inkscape:pageopacity="0"
     inkscape:pagecheckerboard="1"
     inkscape:deskcolor="#d1d1d1"
     showgrid="false"
     inkscape:zoom="4.9166667"
     inkscape:cx="6"
     inkscape:cy="20.033898"
     inkscape:window-width="1920"
     inkscape:window-height="991"
     inkscape:window-x="-9"
     inkscape:window-y="-9"
     inkscape:window-maximized="1"
     inkscape:current-layer="svg4" />
  <path
     d="M 2.25,28.5 Q 1.3125,28.5 0.65625,27.84375 0,27.1875 0,26.25 V 8.625 Q 0,7.5375 0.76875,6.76875 1.5375,6 2.625,6 H 6 V 1.125 Q 6,0.6 6.46875,0.3 6.9375,0 7.5,0 h 6 Q 14.0625,0 14.53125,0.3 15,0.6 15,1.125 V 6 h 3.75 Q 19.6875,6 20.34375,6.65625 21,7.3125 21,8.25 v 18 q 0,0.9375 -0.65625,1.59375 Q 19.6875,28.5 18.75,28.5 q 0,0.6375 -0.43125,1.06875 Q 17.8875,30 17.25,30 16.6125,30 16.18125,29.56875 15.75,29.1375 15.75,28.5 H 5.25 q 0,0.6375 -0.43125,1.06875 Q 4.3875,30 3.75,30 3.1125,30 2.68125,29.56875 2.25,29.1375 2.25,28.5 Z M 7.5,6 h 6 V 1.5 h -6 z M 4.875,24 h 1.5 V 10.5 h -1.5 z m 4.875,0 h 1.5 V 10.5 h -1.5 z m 4.875,0 h 1.5 V 10.5 h -1.5 z"
     id="path2"
     style="fill:#c3c3c3;fill-opacity:1;stroke-width:0.75" />
</svg>
