<?xml version="1.0" encoding="UTF-8" standalone="no"?>
<!-- Created with Inkscape (http://www.inkscape.org/) -->

<svg
   width="7.0542984mm"
   height="7.9375mm"
   viewBox="0 0 7.0542985 7.9375"
   version="1.1"
   id="svg1115"
   inkscape:version="1.1 (c68e22c387, 2021-05-23)"
   sodipodi:docname="business.svg"
   xmlns:inkscape="http://www.inkscape.org/namespaces/inkscape"
   xmlns:sodipodi="http://sodipodi.sourceforge.net/DTD/sodipodi-0.dtd"
   xmlns="http://www.w3.org/2000/svg"
   xmlns:svg="http://www.w3.org/2000/svg">
  <sodipodi:namedview
     id="namedview1117"
     pagecolor="#ffffff"
     bordercolor="#666666"
     borderopacity="1.0"
     inkscape:pageshadow="2"
     inkscape:pageopacity="0.0"
     inkscape:pagecheckerboard="0"
     inkscape:document-units="mm"
     showgrid="false"
     inkscape:zoom="1.28"
     inkscape:cx="-132.42188"
     inkscape:cy="180.07812"
     inkscape:window-width="1920"
     inkscape:window-height="1013"
     inkscape:window-x="-9"
     inkscape:window-y="-9"
     inkscape:window-maximized="1"
     inkscape:current-layer="svg1115"
     fit-margin-top="0"
     fit-margin-left="0"
     fit-margin-right="0"
     fit-margin-bottom="0" />
  <defs
     id="defs1112" />
  <g
     inkscape:label="Sloj 1"
     inkscape:groupmode="layer"
     id="layer1"
     transform="translate(-17.539,-13.477)" />
  <path
     id="path1176"
     d="M 6.8047825,5.1033152 5.103098,4.2915921 4.3835223,3.9483212 C 4.6977796,3.7503345 4.9530323,3.4447704 5.1200496,3.076724 A 2.3626902,2.3626902 0 0 0 5.3314017,2.0998311 c 0,-0.1985299 -0.031512,-0.3870627 -0.075413,-0.5689671 C 5.0419199,0.64937864 4.3535309,0 3.5271381,0 2.7163929,0 2.0384355,0.62623289 1.8111096,1.4826171 c -0.052485,0.1964652 -0.088561,0.4007545 -0.088561,0.617214 0,0.3758702 0.087801,0.7263127 0.2369972,1.0311165 0.1724504,0.3535941 0.4281377,0.6451407 0.7393524,0.8325866 L 2.0097481,4.2844204 0.25286209,5.1026633 C 0.1002973,5.1741643 0,5.3462887 0,5.5385162 V 7.4689394 C 0,7.7276695 0.18027428,7.937392 0.40281893,7.937392 H 3.0121772 V 6.4593383 a 0.08475824,0.08475824 0 0 1 0.012932,-0.043031 l -0.00108,-6.668e-4 0.4273769,-0.740222 0.00108,6.667e-4 c 0.015211,-0.02608 0.04227,-0.044552 0.074653,-0.044552 0.032382,0 0.059439,0.018365 0.074652,0.044552 l 4.447e-4,-3.173e-4 0.00391,0.00685 c 5.398e-4,0.00108 0.00131,0.00197 0.00175,0.00305 l 0.4217267,0.7303335 -5.398e-4,3.176e-4 a 0.08508423,0.08508423 0 0 1 0.012932,0.043139 V 7.9375 H 6.65137 c 0.2225446,0 0.4029274,-0.2097225 0.4029274,-0.468452 V 5.5385162 C 7.054615,5.3469408 6.9559563,5.1764462 6.8048041,5.1033152 Z M 4.029385,4.6083488 l 0.00108,6.668e-4 -0.4274858,0.7402217 -0.00108,-6.667e-4 a 0.08649687,0.08649687 0 0 1 -0.074653,0.044443 0.08649687,0.08649687 0 0 1 -0.074653,-0.044443 l -5.397e-4,3.174e-4 -0.00435,-0.00749 C 3.447386,5.340633 3.446721,5.340008 3.4464035,5.339238 L 3.0246794,4.6086822 3.0251239,4.6083647 a 0.08508423,0.08508423 0 0 1 -0.012932,-0.04314 c 0,-0.048356 0.039228,-0.087584 0.087584,-0.087584 h 0.8547542 c 0.048356,0 0.087584,0.039228 0.087584,0.087584 a 0.08280228,0.08280228 0 0 1 -0.012713,0.04314 z"
     style="fill:#c3c3c3;fill-opacity:1;stroke-width:0.108665" />
</svg>
