<?xml version="1.0" encoding="UTF-8" standalone="no"?>
<svg
   id="Layer_2"
   version="1.1"
   viewBox="0 0 53.350464 20"
   xml:space="preserve"
   sodipodi:docname="car.svg"
   inkscape:version="1.1 (c68e22c387, 2021-05-23)"
   width="53.350464"
   height="20"
   xmlns:inkscape="http://www.inkscape.org/namespaces/inkscape"
   xmlns:sodipodi="http://sodipodi.sourceforge.net/DTD/sodipodi-0.dtd"
   xmlns="http://www.w3.org/2000/svg"
   xmlns:svg="http://www.w3.org/2000/svg"
   xmlns:rdf="http://www.w3.org/1999/02/22-rdf-syntax-ns#"
   xmlns:cc="http://creativecommons.org/ns#"
   xmlns:dc="http://purl.org/dc/elements/1.1/"><metadata
     id="metadata13"><rdf:RDF><cc:Work
         rdf:about=""><dc:format>image/svg+xml</dc:format><dc:type
           rdf:resource="http://purl.org/dc/dcmitype/StillImage" /></cc:Work></rdf:RDF></metadata><defs
     id="defs11" /><sodipodi:namedview
     pagecolor="#ffffff"
     bordercolor="#666666"
     borderopacity="1"
     objecttolerance="10"
     gridtolerance="10"
     guidetolerance="10"
     inkscape:pageopacity="0"
     inkscape:pageshadow="2"
     inkscape:window-width="1920"
     inkscape:window-height="1013"
     id="namedview9"
     showgrid="false"
     inkscape:zoom="0.735"
     inkscape:cx="347.61905"
     inkscape:cy="129.93197"
     inkscape:window-x="-9"
     inkscape:window-y="-9"
     inkscape:window-maximized="1"
     inkscape:current-layer="Layer_2"
     fit-margin-top="0"
     fit-margin-left="0"
     fit-margin-right="0"
     fit-margin-bottom="0"
     inkscape:pagecheckerboard="0" /><path
     d="m 44.657973,16.957122 c -0.503873,0 -0.926746,-0.347089 -1.042417,-0.815372 -0.0204,-0.08261 -0.03122,-0.169057 -0.03122,-0.258034 0,-0.01803 3.83e-4,-0.03582 0.0014,-0.05339 0.0056,-0.115594 0.02945,-0.226279 0.0688,-0.329217 0.154253,-0.40408 0.545294,-0.690956 1.003375,-0.690956 0.458081,0 0.849121,0.286876 1.003145,0.690956 0.03943,0.103015 0.0632,0.213623 0.0688,0.329217 9.97e-4,0.01756 0.0014,0.03544 0.0014,0.05339 0,0.08905 -0.01082,0.175423 -0.03122,0.258034 -0.115441,0.468283 -0.538161,0.815372 -1.042035,0.815372 z"
     style="fill:#231f20;stroke-width:0.0767048"
     id="path2" /><path
     d="m 8.6470047,16.957122 c -0.5038736,0 -0.926747,-0.347089 -1.0424178,-0.815372 -0.020403,-0.08261 -0.031219,-0.169057 -0.031219,-0.258034 0,-0.01803 3.835e-4,-0.03582 0.00138,-0.05339 0.0056,-0.115594 0.029378,-0.226279 0.068804,-0.329217 0.1542532,-0.40408 0.5452941,-0.690956 1.003375,-0.690956 0.4580808,0 0.8491217,0.286876 1.0031449,0.690956 0.039426,0.103015 0.063205,0.213623 0.068804,0.329217 9.972e-4,0.01756 0.00138,0.03544 0.00138,0.05339 0,0.08905 -0.010815,0.175423 -0.031219,0.258034 -0.1154407,0.468283 -0.5381606,0.815372 -1.0420342,0.815372 z"
     style="fill:#231f20;stroke-width:0.0767048"
     id="path4" /><path
     d="M 52.122421,16.873514 H 48.654598 C 48.211245,18.669172 46.590473,20 44.65828,20 42.726087,20 41.104549,18.669172 40.661195,16.873514 H 12.644013 C 12.20066,18.669172 10.579121,20 8.646928,20 6.714735,20 5.0931963,18.669172 4.6498428,16.873514 H 1.2288103 c -0.33980209,0 -0.64662115,-0.137302 -0.86906496,-0.359745 C 0.13730153,16.291325 0,15.984506 0,15.645471 0,15.123878 0.32446115,14.678224 0.78315563,14.500268 0.76934878,14.421263 0.76244535,14.339956 0.76244535,14.257114 V 6.1432845 c 0,-0.7931273 0.64662115,-1.4082995 1.40446425,-1.4082995 0.092813,0 0.1871596,0.0092 0.2822735,0.028381 L 8.0233182,0.66196211 C 8.6078085,0.23164839 9.3150265,0 10.040654,0 H 30.09358 c 0.816906,0 1.606965,0.29377924 2.225205,0.82841144 l 5.558027,4.79941706 c 0.48324,0.4172739 1.073867,0.6911099 1.70438,0.788525 l 9.525198,1.4804019 c 1.46506,0.2278131 2.614098,1.3753164 2.844212,2.8396106 l 0.515456,3.288333 c 0.01764,0.111989 0.07134,0.210171 0.148807,0.283808 0.07747,0.0744 0.178722,0.122727 0.290711,0.135 0.253126,0.02761 0.444888,0.24162 0.444888,0.49628 v 0.240086 c 0,0.0629 -0.01151,0.123494 -0.03375,0.179489 0.02224,0.09205 0.03375,0.187926 0.03375,0.286109 0,0.67807 -0.549973,1.228043 -1.228043,1.228043 z M 3.8360052,12.59032 3.6181637,10.820741 C 3.6043568,10.709519 3.5353225,10.612104 3.4348393,10.560712 L 2.5834164,10.129631 c -0.2247449,-0.113523 -0.4909105,0.04986 -0.4909105,0.30145 v 2.200659 c 0,0.186393 0.1511084,0.337501 0.3382681,0.337501 h 1.0700314 c 0.2032676,0 0.3597453,-0.177955 0.3351998,-0.378921 z M 24.239472,10.400399 c 0.118126,0.118125 0.28074,0.190995 0.460996,0.190995 h 1.323157 c 0.359745,0 0.651991,-0.292245 0.651991,-0.6519908 0,-0.3597453 -0.292246,-0.6519905 -0.651991,-0.6519905 h -1.323157 c -0.360512,0 -0.651991,0.2922452 -0.651991,0.6519905 0,0.1794888 0.07287,0.3428708 0.190995,0.4609958 z M 12.159239,9.9394032 c 0,-0.3597453 -0.291478,-0.6519905 -0.65199,-0.6519905 h -1.323158 c -0.3597449,0 -0.6519901,0.2922452 -0.6519901,0.6519905 0,0.1794888 0.07287,0.3428708 0.1909949,0.4609958 0.1181253,0.118125 0.2815062,0.190995 0.4609952,0.190995 h 1.323158 c 0.360512,0 0.65199,-0.292245 0.65199,-0.6519908 z M 7.0115824,14.41666 c -0.3083531,0.342104 -0.5093196,0.780088 -0.5538084,1.262561 -0.0069,0.0675 -0.00997,0.135767 -0.00997,0.204801 0,0.35591 0.085142,0.691877 0.2362507,0.989492 0.3628135,0.716422 1.1060827,1.208867 1.9628749,1.208867 0.8567922,0 1.6000614,-0.492445 1.9628754,-1.208867 0.151108,-0.297615 0.236251,-0.633582 0.236251,-0.989492 0,-0.06903 -0.0031,-0.137301 -0.01,-0.204801 -0.04449,-0.482473 -0.245455,-0.920457 -0.553808,-1.262561 -0.4019338,-0.448723 -0.9864241,-0.731763 -1.6353464,-0.731763 -0.6489223,0 -1.2334126,0.28304 -1.6353456,0.731763 z M 21.548669,6.151722 20.184858,2.3502339 c -7.67e-4,-0.00153 -0.0015,-0.00307 -0.0015,-0.0046 -0.09511,-0.2607962 -0.35054,-0.4280126 -0.628212,-0.4280126 h -7.407379 c -0.01918,0.02071 -0.03758,0.042188 -0.05599,0.064432 L 9.0120426,5.7843062 C 8.7803943,6.070415 8.6852804,6.4439672 8.7520135,6.8060137 c 0.05446,0.2999156 0.2124722,0.5576436 0.4333819,0.740968 0.2201427,0.1833244 0.5031833,0.2922451 0.8077012,0.2922451 H 20.361279 c 0.873668,0 1.482704,-0.8652297 1.18739,-1.6875048 z M 35.836465,6.3994784 31.065429,2.2796656 C 30.794661,2.045716 30.450257,1.9176191 30.09358,1.9176191 h -7.179566 c -0.535399,0 -0.902048,0.5392345 -0.706451,1.0370484 l 1.732761,4.4036204 c 0.11429,0.2907111 0.394262,0.4809389 0.706451,0.4809389 h 10.519291 c 0.139602,0 0.276904,-0.038352 0.395796,-0.1112219 l 0.17412,-0.1066196 c 0.438751,-0.2676996 0.489377,-0.88594 0.100483,-1.2219069 z m 11.010202,9.2797426 c -0.04449,-0.482473 -0.246222,-0.920457 -0.553041,-1.262561 -0.4027,-0.448723 -0.986423,-0.731763 -1.635346,-0.731763 -0.648922,0 -1.233412,0.28304 -1.635345,0.731763 -0.308353,0.342104 -0.50932,0.780088 -0.553809,1.262561 -0.0069,0.0675 -0.01,0.135767 -0.01,0.204801 0,0.35591 0.08514,0.691877 0.23625,0.989492 0.362814,0.716422 1.106083,1.208867 1.962875,1.208867 0.856025,0 1.600062,-0.492445 1.962108,-1.208867 0.151109,-0.297615 0.236251,-0.633582 0.236251,-0.989492 0,-0.06903 -0.0031,-0.137301 -0.01,-0.204801 z M 51.2756,12.375547 50.9404,10.900514 c -0.02608,-0.116591 -0.09511,-0.219376 -0.192529,-0.28841 l -0.416506,-0.29608 c -0.138836,-0.09895 -0.320626,-0.117359 -0.477104,-0.04832 -0.179489,0.07901 -0.289944,0.256194 -0.289944,0.44412 0,0.04449 0.0061,0.08898 0.01841,0.132699 l 0.500882,1.771113 c 0.05906,0.209404 0.250058,0.353609 0.467899,0.353609 h 0.250825 c 0.311421,0 0.54307,-0.289944 0.473268,-0.593694 z"
     style="fill:#231f20;stroke-width:0.0767048"
     id="path6" /></svg>
