<svg width="24" height="24" viewBox="0 0 24 24" fill="none" xmlns="http://www.w3.org/2000/svg">
<path d="M5.22609 7.38862C5.29923 7.38866 5.37228 7.3938 5.44471 7.40399C5.44021 7.36649 5.43721 7.33012 5.43609 7.29262L5.43309 7.29037V7.20824C5.43305 6.9895 5.4776 6.77305 5.564 6.5721C5.6504 6.37115 5.77685 6.18992 5.93562 6.03946C6.09439 5.88901 6.28216 5.77248 6.48746 5.69701C6.69276 5.62153 6.91129 5.58868 7.12971 5.60047C7.34813 5.61226 7.56186 5.66843 7.75785 5.76556C7.95383 5.8627 8.12797 5.99875 8.26963 6.16542C8.41129 6.33209 8.51749 6.52588 8.58177 6.73496C8.64604 6.94404 8.66703 7.16403 8.64346 7.38149H10.4615V5.01449C10.2338 5.0526 10.0006 5.0413 9.77772 4.98138C9.55482 4.92145 9.34741 4.81429 9.16955 4.66717C8.9917 4.52005 8.84756 4.3364 8.74691 4.12868C8.64627 3.92096 8.59147 3.69403 8.58622 3.46327C8.58098 3.23251 8.62542 3.00332 8.71653 2.79124C8.80764 2.57917 8.94329 2.38916 9.11428 2.23412C9.28527 2.07907 9.4876 1.9626 9.70756 1.89262C9.92751 1.82263 10.1599 1.80076 10.3891 1.82849C10.358 1.60079 10.376 1.36907 10.4419 1.1489C10.5078 0.928739 10.6201 0.72524 10.7712 0.552087C10.9223 0.378933 11.1087 0.24014 11.318 0.145039C11.5272 0.0499373 11.7543 0.000732422 11.9841 0.000732422C12.214 0.000732422 12.4411 0.0499373 12.6503 0.145039C12.8596 0.24014 13.046 0.378933 13.1971 0.552087C13.3482 0.72524 13.4605 0.928739 13.5264 1.1489C13.5923 1.36907 13.6103 1.60079 13.5792 1.82849C13.808 1.80121 14.0399 1.82338 14.2594 1.8935C14.4789 1.96361 14.6807 2.08004 14.8513 2.2349C15.0219 2.38976 15.1572 2.57945 15.2482 2.79113C15.3391 3.00282 15.3835 3.23156 15.3784 3.4619C15.3733 3.69224 15.3188 3.91879 15.2186 4.12625C15.1184 4.3337 14.9748 4.51722 14.7975 4.66438C14.6203 4.81155 14.4135 4.91893 14.1911 4.97926C13.9688 5.0396 13.7361 5.05149 13.5087 5.01412V7.38112H15.3267C15.3195 7.32416 15.3161 7.26678 15.3166 7.20937C15.3163 6.9896 15.3611 6.7721 15.448 6.57027C15.535 6.36845 15.6624 6.18657 15.8223 6.03584C15.9823 5.88511 16.1714 5.76873 16.378 5.69386C16.5846 5.61899 16.8044 5.58721 17.0238 5.6005C17.2431 5.61378 17.4575 5.67184 17.6535 5.7711C17.8496 5.87036 18.0233 6.00871 18.1639 6.17764C18.3045 6.34656 18.409 6.54248 18.471 6.75333C18.533 6.96418 18.5511 7.18548 18.5243 7.40362C18.752 7.37228 18.9838 7.39008 19.204 7.45584C19.4242 7.5216 19.6278 7.63378 19.801 7.78483C19.9742 7.93588 20.1131 8.12229 20.2082 8.33151C20.3033 8.54074 20.3525 8.76791 20.3525 8.99774C20.3525 9.2276 20.3033 9.45479 20.2082 9.66405C20.1131 9.8733 19.9743 10.0598 19.801 10.2109C19.6278 10.362 19.4243 10.4742 19.2041 10.5401C18.9838 10.6059 18.7521 10.6238 18.5243 10.5926C18.552 10.8254 18.5284 11.0614 18.4553 11.2841C18.3823 11.5068 18.2614 11.7109 18.1013 11.882C17.9411 12.0532 17.7455 12.1873 17.5281 12.275C17.3107 12.3627 17.0768 12.4018 16.8427 12.3897C16.6086 12.3775 16.38 12.3144 16.1729 12.2047C15.9657 12.095 15.785 11.9414 15.6434 11.7546C15.5018 11.5678 15.4027 11.3524 15.3531 11.1233C15.3034 10.8942 15.3044 10.657 15.356 10.4284H13.5087V18.8745C13.7391 18.8362 13.9751 18.8486 14.2003 18.9107C14.4255 18.9728 14.6345 19.0832 14.8127 19.2341C14.991 19.3851 15.1343 19.573 15.2326 19.7849C15.3309 19.9968 15.382 20.2275 15.3822 20.4611C15.3821 20.6888 15.3337 20.9138 15.2402 21.1214C15.1468 21.329 15.0103 21.5144 14.84 21.6654C14.6696 21.8164 14.4691 21.9296 14.2518 21.9974C14.0345 22.0653 13.8052 22.0862 13.5792 22.059C13.6103 22.2867 13.5923 22.5184 13.5264 22.7386C13.4605 22.9587 13.3482 23.1622 13.1971 23.3354C13.046 23.5085 12.8596 23.6473 12.6503 23.7424C12.4411 23.8375 12.214 23.8867 11.9841 23.8867C11.7543 23.8867 11.5272 23.8375 11.318 23.7424C11.1087 23.6473 10.9223 23.5085 10.7712 23.3354C10.6201 23.1622 10.5078 22.9587 10.4419 22.7386C10.376 22.5184 10.358 22.2867 10.3891 22.059C10.1598 22.0871 9.92718 22.0656 9.70697 21.9959C9.48676 21.9261 9.28414 21.8098 9.11288 21.6548C8.94161 21.4998 8.80572 21.3098 8.71443 21.0976C8.62314 20.8854 8.5786 20.656 8.58382 20.4251C8.58904 20.1942 8.64391 19.9671 8.74469 19.7592C8.84548 19.5514 8.98982 19.3677 9.16791 19.2206C9.34601 19.0735 9.55367 18.9664 9.77681 18.9067C9.99995 18.847 10.2333 18.836 10.4611 18.8745V10.4291H8.61234C8.6626 10.65 8.66568 10.879 8.62136 11.1012C8.57704 11.3234 8.48633 11.5337 8.35515 11.7184C8.22398 11.9031 8.05529 12.0581 7.86013 12.1731C7.66496 12.2882 7.44771 12.3608 7.22258 12.3861C6.99745 12.4114 6.76951 12.3889 6.55366 12.3201C6.33781 12.2513 6.13891 12.1377 5.96997 11.9868C5.80103 11.8358 5.66585 11.6509 5.57327 11.4442C5.48069 11.2374 5.43279 11.0134 5.43271 10.7869C5.43271 10.7209 5.43721 10.6564 5.44434 10.5934C5.2166 10.6247 4.9848 10.6068 4.76456 10.541C4.54431 10.4751 4.34072 10.3629 4.1675 10.2118C3.99428 10.0606 3.85545 9.87416 3.76035 9.66488C3.66526 9.45559 3.61611 9.22837 3.61621 8.99849C3.61606 8.78704 3.6576 8.57763 3.73845 8.38224C3.81931 8.18686 3.93788 8.00933 4.0874 7.85981C4.23692 7.71029 4.41445 7.59171 4.60984 7.51086C4.80522 7.43001 5.01463 7.38847 5.22609 7.38862" fill="#495F67"/>
<path d="M8.65166 7.20982C8.65166 7.2687 8.64866 7.3257 8.64303 7.38157H7.62866C7.66775 7.01626 7.58057 6.64858 7.38161 6.33971C7.18266 6.03084 6.88394 5.79942 6.53516 5.68395C6.69875 5.62932 6.87006 5.60134 7.04253 5.60107C7.46917 5.60127 7.87829 5.77082 8.18 6.07246C8.48172 6.37411 8.65136 6.78318 8.65166 7.20982" fill="#374B54"/>
<path d="M13.7733 5.03623C13.6848 5.03618 13.5965 5.02878 13.5093 5.01411V7.38111H14.3122H12.4949V5.01411C12.7254 5.0523 12.9614 5.03989 13.1867 4.97772C13.4119 4.91555 13.6208 4.80512 13.7991 4.65409C13.9773 4.50306 14.1206 4.31505 14.2189 4.1031C14.3172 3.89116 14.3682 3.66037 14.3684 3.42673C14.3685 3.19897 14.3202 2.97378 14.2268 2.76606C14.1333 2.55833 13.9969 2.37281 13.8264 2.22174C13.656 2.07067 13.4554 1.9575 13.2379 1.88971C13.0205 1.82192 12.7911 1.80105 12.565 1.82848C12.6161 1.45636 12.5354 1.07809 12.3367 0.759304C12.1381 0.440515 11.8341 0.201325 11.4775 0.0832345C11.737 -0.00306247 12.0142 -0.0218333 12.2829 0.028693C12.5516 0.0792193 12.8031 0.197377 13.0135 0.372017C13.2239 0.546658 13.3863 0.772024 13.4855 1.02685C13.5846 1.28168 13.6172 1.55757 13.5802 1.82848C13.7974 1.80359 14.0174 1.82321 14.2267 1.88616C14.4361 1.94911 14.6305 2.05406 14.7979 2.19461C14.9654 2.33517 15.1024 2.50837 15.2007 2.70365C15.299 2.89894 15.3565 3.1122 15.3696 3.33044C15.3828 3.54867 15.3513 3.76729 15.2772 3.97296C15.203 4.17862 15.0877 4.36702 14.9383 4.52665C14.7889 4.68628 14.6086 4.81379 14.4083 4.9014C14.208 4.98902 13.9919 5.03489 13.7733 5.03623" fill="#374B54"/>
<path d="M12.58 22.2787C12.58 22.2041 12.5755 22.1302 12.5654 22.0586C12.7915 22.0859 13.0207 22.065 13.2381 21.9972C13.4555 21.9293 13.656 21.8162 13.8264 21.6652C13.9968 21.5142 14.1333 21.3288 14.2268 21.1211C14.3203 20.9135 14.3687 20.6884 14.3688 20.4607C14.3686 20.2271 14.3175 19.9964 14.2192 19.7845C14.1208 19.5726 13.9776 19.3847 13.7993 19.2337C13.6211 19.0828 13.4121 18.9724 13.1869 18.9103C12.9617 18.8482 12.7257 18.8359 12.4953 18.8741V10.428H13.5097V18.8741C13.7401 18.8359 13.9761 18.8482 14.2013 18.9103C14.4265 18.9724 14.6354 19.0828 14.8137 19.2337C14.9919 19.3847 15.1352 19.5726 15.2336 19.7845C15.3319 19.9964 15.3829 20.2271 15.3832 20.4607C15.3831 20.6884 15.3347 20.9134 15.2412 21.121C15.1477 21.3286 15.0113 21.514 14.8409 21.665C14.6705 21.816 14.4701 21.9292 14.2527 21.997C14.0354 22.0649 13.8062 22.0859 13.5802 22.0586C13.6172 22.3296 13.5847 22.6055 13.4856 22.8604C13.3864 23.1152 13.224 23.3407 13.0136 23.5154C12.8032 23.6901 12.5518 23.8083 12.283 23.8589C12.0143 23.9095 11.7371 23.8908 11.4775 23.8046C11.7983 23.6983 12.0774 23.4936 12.2753 23.2198C12.4732 22.9459 12.5798 22.6166 12.58 22.2787" fill="#374B54"/>
<path d="M7.63766 10.7865C7.63766 10.6635 7.62303 10.5438 7.59828 10.4287H8.61266C8.6758 10.707 8.66384 10.9971 8.578 11.2692C8.49216 11.5413 8.33553 11.7858 8.12415 11.9775C7.91277 12.1692 7.65423 12.3012 7.37502 12.3601C7.09581 12.419 6.80596 12.4027 6.53516 12.3127C6.85583 12.2062 7.13485 12.0014 7.33272 11.7275C7.53059 11.4536 7.63727 11.1244 7.63766 10.7865" fill="#374B54"/>
<path d="M17.5224 10.7864C17.5224 10.7204 17.5179 10.6559 17.5108 10.5929C17.7385 10.6243 17.9703 10.6064 18.1906 10.5406C18.4109 10.4748 18.6145 10.3626 18.7878 10.2116C18.961 10.0605 19.0999 9.87405 19.1951 9.66479C19.2903 9.45554 19.3395 9.22832 19.3395 8.99844C19.3395 8.76856 19.2903 8.54134 19.1951 8.33209C19.0999 8.12283 18.961 7.93639 18.7878 7.78532C18.6145 7.63424 18.4109 7.52204 18.1906 7.45625C17.9703 7.39047 17.7385 7.37263 17.5108 7.40394C17.5555 7.03536 17.4713 6.66267 17.2724 6.34913C17.0736 6.03559 16.7724 5.80052 16.4199 5.68382C16.6773 5.59835 16.9522 5.57931 17.2189 5.62846C17.4856 5.6776 17.7356 5.79334 17.9457 5.96494C18.1557 6.13653 18.319 6.35841 18.4204 6.60998C18.5218 6.86155 18.5579 7.13465 18.5255 7.40394C18.7532 7.3726 18.985 7.39041 19.2052 7.45617C19.4254 7.52192 19.629 7.63411 19.8022 7.78516C19.9755 7.9362 20.1143 8.12262 20.2094 8.33184C20.3045 8.54106 20.3537 8.76824 20.3537 8.99807C20.3537 9.22792 20.3045 9.45512 20.2094 9.66437C20.1143 9.87363 19.9755 10.0601 19.8023 10.2112C19.629 10.3623 19.4255 10.4745 19.2053 10.5404C18.985 10.6062 18.7533 10.6242 18.5255 10.5929C18.558 10.8622 18.5218 11.1353 18.4204 11.3869C18.3191 11.6385 18.1558 11.8603 17.9457 12.0319C17.7356 12.2035 17.4856 12.3192 17.2189 12.3683C16.9521 12.4174 16.6773 12.3982 16.4199 12.3127C16.7407 12.2063 17.0199 12.0017 17.2178 11.7277C17.4157 11.4537 17.5223 11.1244 17.5224 10.7864" fill="#374B54"/>
</svg>
