<?xml version="1.0" encoding="UTF-8" standalone="no"?>
<!-- Generator: Adobe Illustrator 19.0.0, SVG Export Plug-In . SVG Version: 6.00 Build 0)  -->

<svg
   version="1.1"
   id="Layer_1"
   x="0px"
   y="0px"
   viewBox="0 0 40 40.043328"
   xml:space="preserve"
   sodipodi:docname="googleMaps.svg"
   width="40"
   height="40.043327"
   inkscape:version="1.1 (c68e22c387, 2021-05-23)"
   xmlns:inkscape="http://www.inkscape.org/namespaces/inkscape"
   xmlns:sodipodi="http://sodipodi.sourceforge.net/DTD/sodipodi-0.dtd"
   xmlns="http://www.w3.org/2000/svg"
   xmlns:svg="http://www.w3.org/2000/svg"><defs
   id="defs59" /><sodipodi:namedview
   id="namedview57"
   pagecolor="#ffffff"
   bordercolor="#666666"
   borderopacity="1.0"
   inkscape:pageshadow="2"
   inkscape:pageopacity="0.0"
   inkscape:pagecheckerboard="0"
   showgrid="false"
   fit-margin-top="0"
   fit-margin-left="0"
   fit-margin-right="0"
   fit-margin-bottom="0"
   inkscape:zoom="0.70117188"
   inkscape:cx="-12.122563"
   inkscape:cy="387.20891"
   inkscape:window-width="1920"
   inkscape:window-height="991"
   inkscape:window-x="-9"
   inkscape:window-y="-9"
   inkscape:window-maximized="1"
   inkscape:current-layer="Layer_1" />
<circle
   style="fill:#40a459;stroke-width:0.0782096"
   cx="19.978258"
   cy="20.021664"
   r="19.978258"
   id="circle2" />
<path
   style="fill:#378b4e;stroke-width:0.0782096"
   d="m 19.978258,0.04340634 c -0.15204,0 -0.303298,0.0023462 -0.454554,0.0057094 -0.03848,8.603e-4 -0.07688,0.0017206 -0.115282,0.0028938 -0.14414,0.0039888 -0.287967,0.009307 -0.431247,0.0163458 -0.03707,0.0017988 -0.07391,0.0043798 -0.110902,0.006335 -0.109024,0.0060222 -0.217814,0.0129046 -0.326447,0.02064734 -0.05467,0.0039104 -0.109258,0.0076646 -0.16377,0.011966 -0.125918,0.0100108 -0.251601,0.0211166 -0.376971,0.0334737 -0.06484,0.006413 -0.129358,0.0135302 -0.193882,0.0204909 -0.07751,0.008447 -0.154854,0.0172844 -0.232126,0.0265913 -0.06695,0.008056 -0.134052,0.0157984 -0.200764,0.0244796 9.802325,1.27692852 17.372391,9.65873202 17.372391,19.80909082 0,10.150358 -7.569988,18.532238 -17.372313,19.809168 0.06679,0.0086 0.133738,0.0166 0.200764,0.02448 0.07719,0.0094 0.15462,0.0182 0.232126,0.02658 0.0646,0.007 0.129202,0.0142 0.193882,0.0205 0.12537,0.0124 0.250975,0.02346 0.376971,0.03348 0.05443,0.0044 0.109102,0.0082 0.163772,0.012 0.108554,0.0078 0.217344,0.0148 0.326447,0.02064 0.03699,0.0022 0.07391,0.0046 0.110902,0.0064 0.143358,0.007 0.287186,0.0124 0.431248,0.0164 0.0384,0.0011 0.0768,0.002 0.115282,0.0028 0.1511,0.0034 0.302514,0.0058 0.454554,0.0058 11.033735,0 19.978257,-8.9446 19.978257,-19.978258 0,-11.0336566 -8.9446,-19.9778656 -19.978335,-19.9778656 z"
   id="path4" />
<path
   style="fill:#898790;stroke-width:0.0782096"
   d="m 17.372392,18.284393 8.334252,-4.782675 c 0,0 9.116816,1.941867 11.220968,-1.8976 l 0.66361,-1.210919 0.577108,1.254482 C 39.36658,14.252374 40,17.148086 40,20.021664 c 0,6.623652 -3.280894,12.813318 -8.77645,16.557212 l -0.56702,0.386356 z"
   id="path6" />
<path
   style="fill:#7a797f;stroke-width:0.0782096"
   d="m 39.956436,20.021664 c 0,-3.452408 -0.87579,-6.700297 -2.417302,-9.533597 l -0.6116,1.115973 c -0.73908,1.348725 -1.711852,2.727795 -2.681338,3.968435 0.325508,1.430845 0.498508,2.9198 0.498508,4.449189 0,5.57924 -2.287476,10.623526 -5.975216,14.247916 l 1.865456,2.711216 c 5.604424,-3.538518 9.321492,-9.841118 9.321492,-16.959132 z"
   id="path8" />
<path
   style="fill:#3d9ae3;stroke-width:0.0782096"
   d="m 19.978258,40.043328 c -6.839823,0 -13.139999,-3.447558 -16.8529226,-9.222244 L 2.7712804,30.270488 13.897929,20.89026 26.703972,38.888016 25.887934,39.152754 c -1.909098,0.590952 -3.897342,0.890574 -5.909676,0.890574 z"
   id="path10" />
<path
   style="fill:#1d81ce;stroke-width:0.0782096"
   d="m 26.784842,38.856652 -1.354356,-1.939206 c -2.39079,1.512026 -5.132508,2.57427 -8.066306,2.956402 0.852954,0.11106 1.730779,0.12608 2.614078,0.12608 2.381326,0 4.688822,-0.378926 6.806584,-1.14327 z"
   id="path12" />
<path
   style="fill:#ffffff;stroke-width:0.0782096"
   d="m 13.897929,20.89026 3.474463,-2.605867 13.358594,18.635633 -0.649296,0.381038 c -0.91732,0.538394 -1.88274,1.005854 -2.869512,1.389472 l -0.508284,0.19764 z"
   id="path14" />
<path
   style="fill:#e0e0e3;stroke-width:0.0782096"
   d="m 26.703972,38.888094 c 1.423416,-0.506408 2.77308,-1.168766 4.027014,-1.968068 l -1.92513,-2.685562 c -1.047618,1.03487 -2.209266,1.954616 -3.464138,2.739136 z"
   id="path16" />
<path
   style="fill:#ffce00;stroke-width:0.0782096"
   d="M 2.4317724,29.65615 C 1.883523,28.66148 1.4178628,27.613864 1.0477749,26.542392 L 0.88259616,25.9121 24.321316,9.598198 27.795778,12.204064 2.7713586,30.27041 Z"
   id="path18" />
<path
   style="fill:#cd2900;stroke-width:0.0782096"
   d="M 29.899696,19.569299 C 28.670788,18.285879 22.54064,11.689445 22.54064,7.8610058 22.54064,3.5263938 26.067112,0 30.401646,0 c 4.334534,0 7.861006,3.5263938 7.861006,7.8610058 0,3.8258582 -6.130228,10.4243262 -7.359136,11.7082932 v 0 c -0.273498,0.285778 -0.730242,0.285856 -1.00382,0 z"
   id="path20" />
<path
   style="fill:#891d00;stroke-width:0.0782096"
   d="m 30.401646,10.510279 c -1.939834,0 -3.51787,-1.5781142 -3.51787,-3.5178694 0,-1.939755 1.578114,-3.5178688 3.51787,-3.5178688 1.939832,0 3.517868,1.5781138 3.517868,3.5178688 0,1.9397552 -1.578036,3.5178694 -3.517868,3.5178694 z"
   id="path22" />
<path
   style="fill:#ffffff;stroke-width:0.0782096"
   d="m 11.292063,14.592821 c 2.274961,0 4.125948,-1.850909 4.125948,-4.125949 0,-0.359764 -0.291643,-0.651486 -0.651486,-0.651486 h -2.605866 c -0.359765,0 -0.651487,0.291644 -0.651487,0.651486 0,0.359764 0.291644,0.651486 0.651487,0.651486 h 1.878438 c -0.294772,1.243612 -1.414655,2.171569 -2.747113,2.171569 -1.5565276,0 -2.822976,-1.266449 -2.822976,-2.822977 0,-1.5565276 1.2664484,-2.822976 2.822976,-2.822976 0.688245,0 1.351072,0.2504272 1.866473,0.7050598 0.26998,0.23807 0.681597,0.2121828 0.919511,-0.057562 C 14.315959,8.0216484 14.29015,7.6099528 14.020405,7.371961 13.266777,6.7071792 12.297838,6.34108 11.291984,6.34108 c -2.2749612,0 -4.1259484,1.8509088 -4.1259484,4.125949 0,2.275039 1.8509872,4.125792 4.1260274,4.125792 z"
   id="path24" />
<g
   id="g26"
   transform="translate(-0.2769928)">
</g>
<g
   id="g28"
   transform="translate(-0.2769928)">
</g>
<g
   id="g30"
   transform="translate(-0.2769928)">
</g>
<g
   id="g32"
   transform="translate(-0.2769928)">
</g>
<g
   id="g34"
   transform="translate(-0.2769928)">
</g>
<g
   id="g36"
   transform="translate(-0.2769928)">
</g>
<g
   id="g38"
   transform="translate(-0.2769928)">
</g>
<g
   id="g40"
   transform="translate(-0.2769928)">
</g>
<g
   id="g42"
   transform="translate(-0.2769928)">
</g>
<g
   id="g44"
   transform="translate(-0.2769928)">
</g>
<g
   id="g46"
   transform="translate(-0.2769928)">
</g>
<g
   id="g48"
   transform="translate(-0.2769928)">
</g>
<g
   id="g50"
   transform="translate(-0.2769928)">
</g>
<g
   id="g52"
   transform="translate(-0.2769928)">
</g>
<g
   id="g54"
   transform="translate(-0.2769928)">
</g>
</svg>
