<?xml version="1.0" encoding="UTF-8" standalone="no"?>
<svg
   width="64"
   height="64"
   viewBox="0 0 64 64"
   fill="none"
   stroke="currentColor"
   stroke-width="2"
   stroke-linecap="round"
   stroke-linejoin="round"
   class="lucide lucide-school"
   version="1.1"
   id="svg20259"
   sodipodi:docname="kategorije_church.svg"
   inkscape:version="1.2 (dc2aedaf03, 2022-05-15)"
   xmlns:inkscape="http://www.inkscape.org/namespaces/inkscape"
   xmlns:sodipodi="http://sodipodi.sourceforge.net/DTD/sodipodi-0.dtd"
   xmlns="http://www.w3.org/2000/svg"
   xmlns:svg="http://www.w3.org/2000/svg">
  <defs
     id="defs20263" />
  <sodipodi:namedview
     id="namedview20261"
     pagecolor="#ffffff"
     bordercolor="#111111"
     borderopacity="1"
     inkscape:showpageshadow="0"
     inkscape:pageopacity="0"
     inkscape:pagecheckerboard="1"
     inkscape:deskcolor="#d1d1d1"
     showgrid="false"
     inkscape:zoom="3.4766083"
     inkscape:cx="5.8965515"
     inkscape:cy="33.078216"
     inkscape:window-width="1536"
     inkscape:window-height="793"
     inkscape:window-x="-8"
     inkscape:window-y="-8"
     inkscape:window-maximized="1"
     inkscape:current-layer="svg20259" />
  <circle
     cx="32"
     cy="32"
     r="32"
     fill="#ff7262"
     id="circle295"
     style="stroke:none" />
  <g
     id="g20773"
     transform="translate(20,19.999994)">
    <path
       d="m 4,6 8,-4 8,4"
       id="path20247"
       style="stroke:#ffffff;stroke-opacity:1" />
    <path
       d="m 18,10 4,2 v 8 a 2,2 0 0 1 -2,2 H 4 A 2,2 0 0 1 2,20 v -8 l 4,-2"
       id="path20249"
       style="stroke:#ffffff;stroke-opacity:1" />
    <path
       d="m 14,22 v -4 a 2,2 0 0 0 -2,-2 v 0 a 2,2 0 0 0 -2,2 v 4"
       id="path20251"
       style="stroke:#ffffff;stroke-opacity:1" />
    <path
       d="M 18,5 V 22"
       id="path20253"
       style="stroke:#ffffff;stroke-opacity:1" />
    <path
       d="M 6,5 V 22"
       id="path20255"
       style="stroke:#ffffff;stroke-opacity:1" />
    <circle
       cx="12"
       cy="9"
       r="2"
       id="circle20257"
       style="stroke:#ffffff;stroke-opacity:1" />
  </g>
</svg>
