<?xml version="1.0" encoding="UTF-8" standalone="no"?>
<svg
   width="64"
   height="64"
   viewBox="0 0 64 64"
   fill="none"
   version="1.1"
   id="svg301"
   sodipodi:docname="kategorije_event.svg"
   inkscape:version="1.2 (dc2aedaf03, 2022-05-15)"
   xmlns:inkscape="http://www.inkscape.org/namespaces/inkscape"
   xmlns:sodipodi="http://sodipodi.sourceforge.net/DTD/sodipodi-0.dtd"
   xmlns="http://www.w3.org/2000/svg"
   xmlns:svg="http://www.w3.org/2000/svg">
  <defs
     id="defs305" />
  <sodipodi:namedview
     id="namedview303"
     pagecolor="#ffffff"
     bordercolor="#666666"
     borderopacity="1.0"
     inkscape:showpageshadow="2"
     inkscape:pageopacity="0.0"
     inkscape:pagecheckerboard="0"
     inkscape:deskcolor="#d1d1d1"
     showgrid="false"
     inkscape:zoom="5.2149125"
     inkscape:cx="35.858703"
     inkscape:cy="44.77544"
     inkscape:window-width="1920"
     inkscape:window-height="991"
     inkscape:window-x="-9"
     inkscape:window-y="-9"
     inkscape:window-maximized="1"
     inkscape:current-layer="svg301" />
  <circle
     cx="32"
     cy="32"
     r="32"
     fill="#ff7262"
     id="circle295" />
  <path
     d="m 9.7077751,26.730082 c 4.2399999,10.293 16.0209999,15.2 26.3149999,10.96 6.352,-2.617 10.643,-8.108 12.009,-14.347 l 16.375,4.657 2.249,-6.608 -16.786,-11.215 1.627,-13.6750001 c 0.305,-2.567 -1.299,-4.975 -3.785,-5.682 l -21.375,-6.0789999 c -2.486,-0.707 -5.118,0.497 -6.209,2.84 l -5.668,12.17499987 -19.6339999,1.208 -2.249,6.60700003 16.784,4.7740001 c -1.597,4.516 -1.621,9.607 0.347,14.385 z m 40.5129999,61.417 h -24.275 l -12.592,-45.474 c -1.821,-8.031 -8.9919999,-14.15 -17.4059999,-14.15 H -48.484225 c -3.065,0 -6.129,1.628 -7.849,4.309 l -17.618,30.798 c -2.68,4.299 -0.961,9.699 3.257,12.339 3.843,2.397 9.538,0.931 12.329,-3.065 l 15.04,-26.115 h 23.303 l -28.684,49.464 c -3.346,5.770998 -3.663,12.811998 -0.848,18.859998 l 14.36,30.856 -12.663,48.457 c -1.77,6.999 2.397,14.018 9.214,15.849 6.999,1.77 14.008,-2.397 15.849,-9.214 l 13.4010001,-53.029 c 0.718,-2.721 0.627,-5.947 -0.8090001,-8.678 l -1.224,-2.589 17.2040001,9.912 -16.9720001,46.242 c -2.468,6.706 0.708,14.362 7.3730001,16.901 6.766,2.579 14.2209999,-0.819 16.7189999,-7.596 l 20.744,-56.69 c 2.569,-7.009 -0.293,-14.827 -6.766,-18.529 l -36.6639999,-20.926 14.342,-25.052998 5.234,18.492 c 1.1839999,4.049998 4.8979999,6.833998 9.1169999,6.833998 h 31.314 c 5.065,0.183 8.862,-3.65 9.052,-8.615998 0.174,-4.534 -4.197,-9.145 -9.05,-9.589 z m 62.690005,-71.181 c 16.823,-6.387 25.937,-24.0440001 22.136,-41.086 -0.049,0.876 -0.442,1.597 -0.804,2.401 -2.273,5.056 -8.353,7.364 -13.409,5.09 -0.804,-0.362 -1.557,-0.838 -2.195,-1.263 -5.544,-4.565 -13.392,-6.16 -20.387005,-3.504 -10.494,3.984 -16.014,15.7979999 -11.935,26.5419999 4.079,10.7430001 15.851005,15.8980001 26.594005,11.8200001 z m 63.737,144.024998 c 0,0 -4.046,-64.752998 -29.837,-88.015998 -0.17,-0.153 -0.337,-0.295 -0.506,-0.443 v -46.362 l 21.414,-9.347 c 5.463,-2.386 8.391,-8.5200001 6.81,-14.2690001 l -10.327,-37.5519999 c -1.258,-4.578 -5.99,-7.268 -10.569,-6.01 -4.578,1.259 -7.269,5.991 -6.009,10.569 l 9.151,33.2769999 -18.992,8.2900001 -38.175003,16.952 c -7.452002,3.31 -12.559002,10.408 -13.325002,18.525 l -1.897,20.062 -22.306,-12.783 c -4.12,-2.361 -9.373,-0.936 -11.734,3.184 -2.361,4.12 -0.935,9.373 3.184,11.734 l 30.013,17.2 c 1.772,1.016 3.736,1.526 5.703,1.526 1.805,0 3.612,-0.429 5.275,-1.29 3.478,-1.801 5.775005,-5.204 6.146005,-9.106 l 1.797,-19.007 8.947,20.92 c 0,0 1.934,13.718 -22.757005,31.353998 -28.32,20.228 -18.711,62.202 -18.711,62.202 0,0 8.44,-2.941 20.734,-4.623 v 31.425 c 0.008,6.093 5.169,11.046 11.126005,11.126 6.093,-0.008 11.038,-5.166 11.126,-11.126 v -32.395 c 4.144,0.236 8.392,0.733 12.656,1.583 l -0.259,0.118 8.408,33.344 c 1.498,5.906 7.713,9.447 13.508,8.068 5.906,-1.498 9.44,-7.708 8.068,-13.508 l -6.186,-24.531 c 24.544,0.793 27.524,-11.091 27.524,-11.091 z"
     id="path2" />
  <path
     d="m 7.5435271,559.08409 c 4.2399999,10.293 16.0209999,15.2 26.3149999,10.96 6.352,-2.617 10.643,-8.108 12.009,-14.347 l 16.375,4.657 2.249,-6.608 -16.786,-11.215 1.627,-13.675 c 0.305,-2.567 -1.299,-4.975 -3.785,-5.682 l -21.375,-6.079 c -2.486,-0.707 -5.118,0.497 -6.209,2.84 l -5.668,12.175 -19.6339999,1.208 -2.249,6.607 16.784,4.774 c -1.597,4.516 -1.621,9.607 0.347,14.385 z m 40.5129999,61.417 h -24.275 l -12.592,-45.474 c -1.8209999,-8.031 -8.9919999,-14.15 -17.4059999,-14.15 H -50.648473 c -3.065,0 -6.129,1.628 -7.849,4.309 l -17.618,30.798 c -2.68,4.299 -0.961,9.699 3.257,12.339 3.843,2.397 9.538,0.931 12.329,-3.065 l 15.04,-26.115 h 23.303 l -28.684,49.464 c -3.346,5.771 -3.663,12.812 -0.848,18.86 l 14.36,30.856 -12.663,48.457 c -1.77,6.999 2.397,14.018 9.214,15.849 6.999,1.77 14.008,-2.397 15.849,-9.214 l 13.401,-53.029 c 0.718,-2.721 0.627,-5.947 -0.809,-8.678 l -1.224,-2.589 17.2040001,9.912 -16.9720001,46.242 c -2.468,6.706 0.708,14.362 7.3730001,16.901 6.76599998,2.579 14.221,-0.819 16.7189999,-7.596 l 20.744,-56.69 c 2.569,-7.009 -0.293,-14.827 -6.766,-18.529 l -36.664,-20.926 14.3420001,-25.053 5.234,18.492 c 1.184,4.05 4.8979999,6.834 9.1169999,6.834 h 31.314 c 5.065,0.183 8.862,-3.65 9.052,-8.616 0.174,-4.534 -4.197,-9.145 -9.05,-9.589 z m 62.690003,-71.181 c 16.823,-6.387 25.937,-24.044 22.136,-41.086 -0.049,0.876 -0.442,1.597 -0.804,2.401 -2.273,5.056 -8.353,7.364 -13.409,5.09 -0.804,-0.362 -1.557,-0.838 -2.195,-1.263 -5.544,-4.565 -13.392,-6.16 -20.387003,-3.504 -10.494,3.984 -16.014,15.798 -11.935,26.542 4.079,10.743 15.851003,15.898 26.594003,11.82 z m 63.737,144.025 c 0,0 -4.046,-64.753 -29.837,-88.016 -0.17,-0.153 -0.337,-0.295 -0.506,-0.443 v -46.362 l 21.414,-9.347 c 5.463,-2.386 8.391,-8.52 6.81,-14.269 l -10.327,-37.552 c -1.258,-4.578 -5.99,-7.268 -10.569,-6.01 -4.578,1.259 -7.269,5.991 -6.009,10.569 l 9.151,33.277 -18.992,8.29 -38.175003,16.952 c -7.452,3.31 -12.559,10.408 -13.325,18.525 l -1.897,20.062 -22.306,-12.783 c -4.12,-2.361 -9.373,-0.936 -11.734,3.184 -2.361,4.12 -0.935,9.373 3.184,11.734 l 30.013,17.2 c 1.772,1.016 3.736,1.526 5.703,1.526 1.805,0 3.612,-0.429 5.275,-1.29 3.478,-1.801 5.775,-5.204 6.146,-9.106 l 1.797003,-19.007 8.947,20.92 c 0,0 1.934,13.718 -22.757003,31.354 -28.32,20.228 -18.711,62.202 -18.711,62.202 0,0 8.44,-2.941 20.734,-4.623 v 31.425 c 0.008,6.093 5.169,11.046 11.126,11.126 6.093003,-0.008 11.038003,-5.166 11.126003,-11.126 v -32.395 c 4.144,0.236 8.392,0.733 12.656,1.583 l -0.259,0.118 8.408,33.344 c 1.498,5.906 7.713,9.447 13.508,8.068 5.906,-1.498 9.44,-7.708 8.068,-13.508 l -6.186,-24.531 c 24.544,0.793 27.524,-11.091 27.524,-11.091 z"
     id="path2-2" />
  <path
     d="m 40.14446,22.541034 v 4"
     id="path1395"
     style="fill:#ffffff;stroke:none" />
  <path
     d="m 32.14446,22.541034 v 4"
     id="path1397"
     style="fill:#ffffff;stroke:none" />
  <path
     d="m 46.14446,42.541034 -1.5,-1.5"
     id="path1403"
     style="fill:#ffffff;stroke:none" />
  <g
     id="g7163"
     transform="matrix(1.1587641,0,0,1.1399939,-65.238005,-28.187615)"
     style="stroke-width:2.01923;stroke-dasharray:none">
    <path
       d="m 92.563127,52.291629 v -6 a 2,2 0 0 0 -2,-2 h -14 a 2,2 0 0 0 -2,2 v 14 c 0,1.1 0.9,2 2,2 h 7.5"
       id="path1393-7"
       style="fill:#ffffff;fill-opacity:0;stroke:#ffffff;stroke-width:2.01923;stroke-dasharray:none;stroke-opacity:1" />
    <path
       d="m 87.563127,42.291629 v 4"
       id="path1395-6"
       style="stroke:#ffffff;stroke-width:2.01923;stroke-dasharray:none;stroke-opacity:1" />
    <path
       d="m 79.563127,42.291629 v 4"
       id="path1397-0"
       style="stroke:#ffffff;stroke-width:2.01923;stroke-dasharray:none;stroke-opacity:1" />
    <path
       d="m 74.563127,50.291629 h 18"
       id="path1399-4"
       style="stroke:#ffffff;stroke-width:2.01923;stroke-dasharray:none;stroke-opacity:1" />
    <path
       d="m 89.563127,61.291629 a 3,3 0 1 0 0,-6 3,3 0 0 0 0,6 z"
       id="path1401-8"
       style="stroke:#ffffff;stroke-width:2.01923;stroke-dasharray:none;stroke-opacity:1" />
    <path
       d="m 93.563127,62.291629 -1.5,-1.5"
       id="path1403-8"
       style="stroke:#ffffff;stroke-width:2.01923;stroke-dasharray:none;stroke-opacity:1" />
  </g>
</svg>
