<?xml version="1.0" encoding="UTF-8" standalone="no"?>
<svg
   width="64"
   height="64"
   viewBox="0 0 64 64"
   fill="none"
   stroke="currentColor"
   stroke-width="2"
   stroke-linecap="round"
   stroke-linejoin="round"
   class="lucide lucide-trees"
   version="1.1"
   id="svg27564"
   sodipodi:docname="kategorije_picnic2.svg"
   inkscape:version="1.2 (dc2aedaf03, 2022-05-15)"
   xmlns:inkscape="http://www.inkscape.org/namespaces/inkscape"
   xmlns:sodipodi="http://sodipodi.sourceforge.net/DTD/sodipodi-0.dtd"
   xmlns="http://www.w3.org/2000/svg"
   xmlns:svg="http://www.w3.org/2000/svg">
  <defs
     id="defs27568" />
  <sodipodi:namedview
     id="namedview27566"
     pagecolor="#ffffff"
     bordercolor="#111111"
     borderopacity="1"
     inkscape:showpageshadow="0"
     inkscape:pageopacity="0"
     inkscape:pagecheckerboard="1"
     inkscape:deskcolor="#d1d1d1"
     showgrid="false"
     inkscape:zoom="4.9166667"
     inkscape:cx="32.644068"
     inkscape:cy="30.406779"
     inkscape:window-width="1920"
     inkscape:window-height="991"
     inkscape:window-x="-9"
     inkscape:window-y="-9"
     inkscape:window-maximized="1"
     inkscape:current-layer="svg27564" />
  <circle
     cx="32"
     cy="32"
     r="32"
     fill="#ff7262"
     id="circle295"
     style="stroke:none" />
  <g
     id="g426">
    <path
       d="m 30.194002,29.830257 v 0.2 a 3,3 0 0 1 -1.1,5.8 v 0 h -3.9 v 0 0 a 3,3 0 0 1 -1,-5.8 v -0.2 a 3,3 0 0 1 6,0 z"
       id="path27556"
       style="stroke:#ffffff;stroke-opacity:1" />
    <path
       d="m 27.194002,35.830257 v 6"
       id="path27558"
       style="stroke:#ffffff;stroke-opacity:1" />
    <path
       d="m 33.194002,38.830257 v 3"
       id="path27560"
       style="stroke:#ffffff;stroke-opacity:1" />
    <path
       d="m 32.194002,38.830257 h 8.3 a 1,1 0 0 0 0.7,-1.7 l -3,-3.3 h 0.3 a 1,1 0 0 0 0.7,-1.7 l -3,-3.3 h 0.2 a 1,1 0 0 0 0.8,-1.7 l -4,-4.3 -1.4,1.5"
       id="path27562"
       style="stroke:#ffffff;stroke-opacity:1" />
  </g>
</svg>
