<?xml version="1.0" encoding="UTF-8" standalone="no"?>
<svg
   height="45"
   viewBox="0 96 900 900"
   width="45"
   version="1.1"
   id="svg183"
   sodipodi:docname="login.svg"
   inkscape:version="1.2 (dc2aedaf03, 2022-05-15)"
   xmlns:inkscape="http://www.inkscape.org/namespaces/inkscape"
   xmlns:sodipodi="http://sodipodi.sourceforge.net/DTD/sodipodi-0.dtd"
   xmlns="http://www.w3.org/2000/svg"
   xmlns:svg="http://www.w3.org/2000/svg">
  <defs
     id="defs187" />
  <sodipodi:namedview
     id="namedview185"
     pagecolor="#ffffff"
     bordercolor="#111111"
     borderopacity="1"
     inkscape:showpageshadow="0"
     inkscape:pageopacity="0"
     inkscape:pagecheckerboard="1"
     inkscape:deskcolor="#d1d1d1"
     showgrid="false"
     inkscape:zoom="4.9166667"
     inkscape:cx="2.9491525"
     inkscape:cy="22.576271"
     inkscape:window-width="1920"
     inkscape:window-height="1009"
     inkscape:window-x="1912"
     inkscape:window-y="-8"
     inkscape:window-maximized="1"
     inkscape:current-layer="svg183" />
  <circle
     style="font-variation-settings:normal;vector-effect:none;fill:#ffffff;fill-opacity:1;fill-rule:evenodd;stroke-width:58.0544;stroke-linecap:butt;stroke-linejoin:miter;stroke-miterlimit:4;stroke-dasharray:none;stroke-dashoffset:0;stroke-opacity:1;stop-color:#000000"
     id="path849"
     cx="450"
     cy="546"
     r="450" />
  <path
     d="m 450,546 q -41.25,0 -67.5,-26.25 -26.25,-26.25 -26.25,-67.5 0,-41.25 26.25,-67.5 26.25,-26.25 67.5,-26.25 41.25,0 67.5,26.25 26.25,26.25 26.25,67.5 0,41.25 -26.25,67.5 Q 491.25,546 450,546 Z M 250,746.625 v -58.75 q 0,-23.75 11.875,-40.625 11.875,-16.875 30.625,-25.625 41.875,-18.75 80.3125,-28.125 38.4375,-9.375 77.1875,-9.375 38.75,0 76.875,9.6875 38.125,9.6875 80,27.8125 19.375,8.75 31.25,25.625 Q 650,664.125 650,687.875 v 58.75 z"
     id="path181"
     style="stroke-width:0.625" />
</svg>
