<?xml version="1.0" encoding="UTF-8" standalone="no"?>
<svg
   width="20.454548"
   height="25.000004"
   viewBox="0 0 20.454548 25.000004"
   fill="none"
   stroke="currentColor"
   stroke-width="2"
   stroke-linecap="round"
   stroke-linejoin="round"
   class="lucide lucide-luggage"
   version="1.1"
   id="svg19249"
   sodipodi:docname="luggage.svg"
   inkscape:version="1.2 (dc2aedaf03, 2022-05-15)"
   xmlns:inkscape="http://www.inkscape.org/namespaces/inkscape"
   xmlns:sodipodi="http://sodipodi.sourceforge.net/DTD/sodipodi-0.dtd"
   xmlns="http://www.w3.org/2000/svg"
   xmlns:svg="http://www.w3.org/2000/svg">
  <defs
     id="defs19253" />
  <sodipodi:namedview
     id="namedview19251"
     pagecolor="#ffffff"
     bordercolor="#111111"
     borderopacity="1"
     inkscape:showpageshadow="0"
     inkscape:pageopacity="0"
     inkscape:pagecheckerboard="1"
     inkscape:deskcolor="#d1d1d1"
     showgrid="false"
     inkscape:zoom="9.8333333"
     inkscape:cx="-0.76271186"
     inkscape:cy="10.983051"
     inkscape:window-width="1536"
     inkscape:window-height="793"
     inkscape:window-x="-8"
     inkscape:window-y="-8"
     inkscape:window-maximized="1"
     inkscape:current-layer="svg19249" />
  <path
     d="m 3.4090924,21.59091 v 0 A 2.2727273,2.2727273 0 0 1 1.1363651,19.318183 V 7.954547 A 2.2727273,2.2727273 0 0 1 3.4090924,5.6818197 H 17.045456 a 2.2727273,2.2727273 0 0 1 2.272727,2.2727273 v 11.363636 a 2.2727273,2.2727273 0 0 1 -2.272727,2.272727 v 0"
     id="path19239"
     style="stroke-width:2.27273;stroke:#c3c3c3;stroke-opacity:1" />
  <path
     d="M 5.6818197,19.318183 V 3.4090924 A 2.2727273,2.2727273 0 0 1 7.9545465,1.1363651 h 4.5454545 a 2.2727273,2.2727273 0 0 1 2.272727,2.2727273 V 19.318183"
     id="path19241"
     style="stroke-width:2.27273;stroke:#c3c3c3;stroke-opacity:1" />
  <path
     d="M 7.9545465,21.59091 H 12.500001"
     id="path19243"
     style="stroke-width:2.27273;stroke:#c3c3c3;stroke-opacity:1" />
  <circle
     cx="14.77273"
     cy="21.590912"
     r="2.2727273"
     id="circle19245"
     style="stroke-width:2.27273;stroke:#c3c3c3;stroke-opacity:1" />
  <circle
     cx="5.6818194"
     cy="21.590912"
     r="2.2727273"
     id="circle19247"
     style="stroke-width:2.27273;stroke:#c3c3c3;stroke-opacity:1" />
</svg>
