<?xml version="1.0" encoding="UTF-8" standalone="no"?>
<svg
   height="64"
   viewBox="0 0 64 64"
   width="64"
   fill="#000000"
   version="1.1"
   id="svg6"
   sodipodi:docname="map.svg"
   inkscape:version="1.1 (c68e22c387, 2021-05-23)"
   xmlns:inkscape="http://www.inkscape.org/namespaces/inkscape"
   xmlns:sodipodi="http://sodipodi.sourceforge.net/DTD/sodipodi-0.dtd"
   xmlns="http://www.w3.org/2000/svg"
   xmlns:svg="http://www.w3.org/2000/svg">
  <defs
     id="defs10" />
  <sodipodi:namedview
     id="namedview8"
     pagecolor="#ffffff"
     bordercolor="#666666"
     borderopacity="1.0"
     inkscape:pageshadow="2"
     inkscape:pageopacity="0.0"
     inkscape:pagecheckerboard="0"
     showgrid="false"
     inkscape:zoom="5.4506148"
     inkscape:cx="33.482462"
     inkscape:cy="24.309184"
     inkscape:window-width="1920"
     inkscape:window-height="1013"
     inkscape:window-x="-9"
     inkscape:window-y="-9"
     inkscape:window-maximized="1"
     inkscape:current-layer="svg6"
     fit-margin-top="0"
     fit-margin-left="0"
     fit-margin-right="0"
     fit-margin-bottom="0" />
  <circle
     cx="32"
     cy="32"
     r="32"
     fill="#fdc82f"
     id="circle2" />
  <path
     d="M 20,20 H 44 V 44 H 20 Z"
     fill="none"
     id="path2" />
  <path
     d="m 43.805556,19.5 -0.222223,0.04167 -7.416666,2.875 L 27.833333,19.5 20,22.138889 c -0.291667,0.09722 -0.5,0.347222 -0.5,0.666667 v 21 C 19.5,44.194444 19.805556,44.5 20.194444,44.5 l 0.222223,-0.04167 7.416666,-2.875 L 36.166667,44.5 44,41.861111 c 0.291667,-0.09722 0.5,-0.347222 0.5,-0.666667 v -21 C 44.5,19.805556 44.194444,19.5 43.805556,19.5 Z M 29.222222,22.930556 34.777778,24.875 V 41.069444 L 29.222222,39.125 Z m -6.944444,1.375 4.166666,-1.402778 v 16.25 l -4.166666,1.611111 z m 19.444444,15.388888 -4.166666,1.402778 V 24.861111 L 41.722222,23.25 Z"
     id="path4"
     style="fill:#ffffff;stroke-width:1.38889" />
</svg>
