<?xml version="1.0" encoding="UTF-8" standalone="no"?>
<svg
   height="25"
   viewBox="0 0 25 25"
   width="25"
   fill="#000000"
   version="1.1"
   id="svg6"
   sodipodi:docname="map.svg"
   inkscape:version="1.1 (c68e22c387, 2021-05-23)"
   xmlns:inkscape="http://www.inkscape.org/namespaces/inkscape"
   xmlns:sodipodi="http://sodipodi.sourceforge.net/DTD/sodipodi-0.dtd"
   xmlns="http://www.w3.org/2000/svg"
   xmlns:svg="http://www.w3.org/2000/svg">
  <defs
     id="defs10" />
  <sodipodi:namedview
     id="namedview8"
     pagecolor="#ffffff"
     bordercolor="#666666"
     borderopacity="1.0"
     inkscape:pageshadow="2"
     inkscape:pageopacity="0.0"
     inkscape:pagecheckerboard="true"
     showgrid="false"
     inkscape:zoom="10.90123"
     inkscape:cx="6.9258242"
     inkscape:cy="1.6970563"
     inkscape:window-width="1920"
     inkscape:window-height="991"
     inkscape:window-x="-9"
     inkscape:window-y="-9"
     inkscape:window-maximized="1"
     inkscape:current-layer="svg6"
     fit-margin-top="0"
     fit-margin-left="0"
     fit-margin-right="0"
     fit-margin-bottom="0" />
  <path
     d="m 0.5,0.5 h 24 v 24 h -24 z"
     fill="none"
     id="path2" />
  <path
     d="M 24.305556,0 24.083333,0.04167 16.666667,2.91667 8.333333,0 0.5,2.638889 C 0.208333,2.736109 0,2.986111 0,3.305556 v 21 C 0,24.694444 0.305556,25 0.694444,25 L 0.916667,24.95833 8.333333,22.08333 16.666667,25 24.5,22.361111 c 0.291667,-0.09722 0.5,-0.347222 0.5,-0.666667 v -21 C 25,0.305556 24.694444,0 24.305556,0 Z M 9.722222,3.430556 15.277778,5.375 V 21.569444 L 9.722222,19.625 Z m -6.944444,1.375 4.166666,-1.402778 v 16.25 l -4.166666,1.611111 z m 19.444444,15.388888 -4.166666,1.402778 V 5.361111 L 22.222222,3.75 Z"
     id="path4"
     style="fill:#000000;stroke-width:0.889;stroke:#fdc82f;stroke-opacity:1;fill-opacity:1;stroke-miterlimit:4;stroke-dasharray:none" />
</svg>
