<?xml version="1.0" encoding="UTF-8" standalone="no"?>
<svg
   xmlns:dc="http://purl.org/dc/elements/1.1/"
   xmlns:cc="http://creativecommons.org/ns#"
   xmlns:rdf="http://www.w3.org/1999/02/22-rdf-syntax-ns#"
   xmlns:svg="http://www.w3.org/2000/svg"
   xmlns="http://www.w3.org/2000/svg"
   xmlns:sodipodi="http://sodipodi.sourceforge.net/DTD/sodipodi-0.dtd"
   xmlns:inkscape="http://www.inkscape.org/namespaces/inkscape"
   version="1.1"
   viewBox="0 0 112 88"
   xml:space="preserve"
   id="svg34"
   sodipodi:docname="panorama.svg"
   width="112"
   height="88"
   inkscape:version="1.0.2 (e86c870879, 2021-01-15, custom)"><metadata
     id="metadata40"><rdf:RDF><cc:Work
         rdf:about=""><dc:format>image/svg+xml</dc:format><dc:type
           rdf:resource="http://purl.org/dc/dcmitype/StillImage" /><dc:title></dc:title></cc:Work></rdf:RDF></metadata><defs
     id="defs38" /><sodipodi:namedview
     pagecolor="#ffffff"
     bordercolor="#666666"
     borderopacity="1"
     objecttolerance="10"
     gridtolerance="10"
     guidetolerance="10"
     inkscape:pageopacity="0"
     inkscape:pageshadow="2"
     inkscape:window-width="1920"
     inkscape:window-height="1013"
     id="namedview36"
     showgrid="false"
     fit-margin-top="0"
     fit-margin-left="0"
     fit-margin-right="0"
     fit-margin-bottom="0"
     inkscape:zoom="5.7421875"
     inkscape:cx="56"
     inkscape:cy="40"
     inkscape:window-x="-9"
     inkscape:window-y="-9"
     inkscape:window-maximized="1"
     inkscape:current-layer="svg34" /><style
     type="text/css"
     id="style2">
	.st0{fill:#1CA2BB;}
	.st1{fill:#EAC100;}
</style><g
     id="_x31_2_3D_Printing"
     transform="translate(-8,-24)" /><g
     id="_x31_1_VR_Gear"
     transform="translate(-8,-24)" /><g
     id="_x31_0_Virtual_reality"
     transform="translate(-8,-24)"><g
       id="g22"><path
         class="st1"
         d="M 116,88 C 116,99 92.7,108 64,108 35.3,108 12,99 12,88 V 48 c 0,-11 23.3,-20 52,-20 28.7,0 52,9 52,20 z"
         id="path6" /><path
         class="st1"
         d="m 32,63.8 v 40 C 19.8,100.1 12,94.4 12,88 V 48 c 0,6.4 7.8,12.1 20,15.8 z"
         id="path8" /><path
         class="st1"
         d="m 96,63.8 v 40 c 12.2,-3.7 20,-9.4 20,-15.8 V 48 c 0,6.4 -7.8,12.1 -20,15.8 z"
         id="path10" /><circle
         class="st0"
         cx="64"
         cy="64"
         r="12"
         id="circle12" /><path
         class="st0"
         d="m 44,96 c 0,-11 9,-20 20,-20 11,0 20,9 20,20"
         id="path14" /><g
         id="g20"><circle
           cx="44"
           cy="48"
           r="4"
           id="circle16" /><path
           d="M 64,24 C 36.9,24 8,32.4 8,48 v 40 c 0,15.6 28.9,24 56,24 27.1,0 56,-8.4 56,-24 V 48 C 120,32.4 91.1,24 64,24 Z m 0,8 c 29.7,0 48,9.3 48,16 0,4.1 -6.7,8.8 -17.2,11.9 L 92,60.8 V 67 c -3.7,-0.9 -7.7,-1.6 -12,-2.1 0,-0.3 0,-0.6 0,-0.9 0,-8.8 -7.2,-16 -16,-16 -8.8,0 -16,7.2 -16,16 0,0.3 0,0.6 0,0.9 -4.3,0.5 -8.3,1.2 -12,2.1 V 60.8 L 33.2,59.9 C 22.7,56.8 16,52.1 16,48 16,41.3 34.3,32 64,32 Z m 48,28.8 v 14.3 c -3.2,-2.3 -7.2,-4.2 -12,-5.9 v -2.6 c 4.8,-1.6 8.9,-3.5 12,-5.8 z M 56,64 c 0,-4.4 3.6,-8 8,-8 4.4,0 8,3.6 8,8 0,4.4 -3.6,8 -8,8 -4.4,0 -8,-3.6 -8,-8 z m -28,5.3 c -4.8,1.6 -8.8,3.6 -12,5.9 V 60.8 c 3.1,2.2 7.2,4.2 12,5.8 z M 16,88 c 0,-3.3 4.3,-7.1 12,-10.1 V 98.2 C 20.3,95.1 16,91.2 16,88 Z m 20,12.8 V 75.3 c 4.3,-1.1 9.2,-2 14.6,-2.6 0.5,0.8 1.1,1.6 1.8,2.3 C 45,79.1 40,87 40,96 h 8 c 0,-8.8 7.2,-16 16,-16 8.8,0 16,7.2 16,16 h 8 c 0,-9 -5,-16.9 -12.4,-21 0.7,-0.7 1.3,-1.5 1.8,-2.3 5.4,0.6 10.3,1.5 14.6,2.6 v 25.5 c -7.5,2 -17,3.2 -28,3.2 -11,0 -20.5,-1.3 -28,-3.2 z m 64,-2.6 V 77.9 c 7.7,3.1 12,6.9 12,10.1 0,3.2 -4.3,7.1 -12,10.2 z"
           id="path18" /></g></g></g><g
     id="_x39__Augmented_reality"
     transform="translate(-8,-24)" /><g
     id="_x38__Teleport"
     transform="translate(-8,-24)" /><g
     id="_x37__Glassess"
     transform="translate(-8,-24)" /><g
     id="_x36__Folding_phone"
     transform="translate(-8,-24)" /><g
     id="_x35__Drone"
     transform="translate(-8,-24)" /><g
     id="_x34__Retina_scan"
     transform="translate(-8,-24)" /><g
     id="_x33__Smartwatch"
     transform="translate(-8,-24)" /><g
     id="_x32__Bionic_Arm"
     transform="translate(-8,-24)" /><g
     id="_x31__Chip"
     transform="translate(-8,-24)" /></svg>
