<?xml version="1.0" encoding="UTF-8" standalone="no"?>
<svg
   xmlns:dc="http://purl.org/dc/elements/1.1/"
   xmlns:cc="http://creativecommons.org/ns#"
   xmlns:rdf="http://www.w3.org/1999/02/22-rdf-syntax-ns#"
   xmlns:svg="http://www.w3.org/2000/svg"
   xmlns="http://www.w3.org/2000/svg"
   xmlns:sodipodi="http://sodipodi.sourceforge.net/DTD/sodipodi-0.dtd"
   xmlns:inkscape="http://www.inkscape.org/namespaces/inkscape"
   version="1.1"
   id="Capa_1"
   x="0px"
   y="0px"
   viewBox="0 0 24.93273 38.312923"
   xml:space="preserve"
   sodipodi:docname="pin.svg"
   width="24.93273"
   height="38.312923"
   inkscape:export-filename="Z:\2 0 2 1\DJELATNICI\TOMO\TgKarta\webKarta\assets\icon\pin.png"
   inkscape:export-xdpi="96"
   inkscape:export-ydpi="96"
   inkscape:version="1.0.2 (e86c870879, 2021-01-15, custom)"><metadata
   id="metadata49"><rdf:RDF><cc:Work
       rdf:about=""><dc:format>image/svg+xml</dc:format><dc:type
         rdf:resource="http://purl.org/dc/dcmitype/StillImage" /><dc:title></dc:title></cc:Work></rdf:RDF></metadata><defs
   id="defs47" /><sodipodi:namedview
   pagecolor="#ffffff"
   bordercolor="#666666"
   borderopacity="1"
   objecttolerance="10"
   gridtolerance="10"
   guidetolerance="10"
   inkscape:pageopacity="0"
   inkscape:pageshadow="2"
   inkscape:window-width="1920"
   inkscape:window-height="1013"
   id="namedview45"
   showgrid="false"
   fit-margin-top="0"
   fit-margin-left="0"
   fit-margin-right="0"
   fit-margin-bottom="0"
   inkscape:zoom="11.484375"
   inkscape:cx="31.594746"
   inkscape:cy="21.143487"
   inkscape:window-x="-9"
   inkscape:window-y="-9"
   inkscape:window-maximized="1"
   inkscape:current-layer="Capa_1" />
<path
   style="fill:#2488ff;stroke-width:0.0748299"
   d="M 12.46637,0 C 5.592415,0 0,5.59242 0,12.46637 c 0,2.67584 0.834503,5.22508 2.413789,7.37427 L 12.46637,34.76382 22.51894,19.84064 c 1.57922,-2.14919 2.41379,-4.6985 2.41379,-7.37427 C 24.93273,5.59242 19.34032,0 12.46637,0 Z"
   id="path2" />
<path
   style="fill:#005ece;stroke-width:0.0748299"
   d="M 12.46637,34.76382 22.51894,19.84064 c 1.57922,-2.14919 2.41379,-4.6985 2.41379,-7.37427 C 24.93273,5.59242 19.34032,0 12.46637,0 Z"
   id="path4" />
<rect
   x="3.4338677"
   y="36.054783"
   style="fill:#ffda44;stroke-width:0.0748299"
   width="18.065067"
   height="2.2581427"
   id="rect6" />
<rect
   x="12.466369"
   y="36.054783"
   style="fill:#ffcd00;stroke-width:0.0748299"
   width="9.0324965"
   height="2.2581427"
   id="rect8" />
<path
   style="fill:#ffffff;stroke-width:0.0748299"
   d="m 12.46637,6.09258 c -3.431479,0 -6.223159,2.79168 -6.223159,6.22308 0,3.43141 2.791755,6.22316 6.223159,6.22316 3.4314,0 6.22315,-2.79175 6.22315,-6.22316 0,-3.4314 -2.79168,-6.22308 -6.22315,-6.22308 z"
   id="path10" />
<path
   style="fill:#d8d7da;stroke-width:0.0748299"
   d="m 12.46637,18.53889 c 3.43147,0 6.22315,-2.79175 6.22315,-6.22315 0,-3.4314 -2.79168,-6.22316 -6.22315,-6.22316 z"
   id="path12" />
<g
   id="g14"
   transform="translate(-89.404,-473.68707)">
</g>
<g
   id="g16"
   transform="translate(-89.404,-473.68707)">
</g>
<g
   id="g18"
   transform="translate(-89.404,-473.68707)">
</g>
<g
   id="g20"
   transform="translate(-89.404,-473.68707)">
</g>
<g
   id="g22"
   transform="translate(-89.404,-473.68707)">
</g>
<g
   id="g24"
   transform="translate(-89.404,-473.68707)">
</g>
<g
   id="g26"
   transform="translate(-89.404,-473.68707)">
</g>
<g
   id="g28"
   transform="translate(-89.404,-473.68707)">
</g>
<g
   id="g30"
   transform="translate(-89.404,-473.68707)">
</g>
<g
   id="g32"
   transform="translate(-89.404,-473.68707)">
</g>
<g
   id="g34"
   transform="translate(-89.404,-473.68707)">
</g>
<g
   id="g36"
   transform="translate(-89.404,-473.68707)">
</g>
<g
   id="g38"
   transform="translate(-89.404,-473.68707)">
</g>
<g
   id="g40"
   transform="translate(-89.404,-473.68707)">
</g>
<g
   id="g42"
   transform="translate(-89.404,-473.68707)">
</g>
</svg>
