<?xml version="1.0" encoding="UTF-8" standalone="no"?>
<svg
   xmlns:dc="http://purl.org/dc/elements/1.1/"
   xmlns:cc="http://creativecommons.org/ns#"
   xmlns:rdf="http://www.w3.org/1999/02/22-rdf-syntax-ns#"
   xmlns:svg="http://www.w3.org/2000/svg"
   xmlns="http://www.w3.org/2000/svg"
   xmlns:sodipodi="http://sodipodi.sourceforge.net/DTD/sodipodi-0.dtd"
   xmlns:inkscape="http://www.inkscape.org/namespaces/inkscape"
   version="1.1"
   id="Capa_1"
   x="0px"
   y="0px"
   viewBox="0 0 35.156288 50.000003"
   xml:space="preserve"
   sodipodi:docname="placeholder2.svg"
   width="35.156288"
   height="50"
   inkscape:export-filename="C:\Users\Korisnik\Documents\Geometrika\Karta_Tomislavgrad\webKarta\assets\icon\placeholder2.png"
   inkscape:export-xdpi="96.466255"
   inkscape:export-ydpi="96.466255"
   inkscape:version="1.0.2 (e86c870879, 2021-01-15, custom)"><metadata
   id="metadata41"><rdf:RDF><cc:Work
       rdf:about=""><dc:format>image/svg+xml</dc:format><dc:type
         rdf:resource="http://purl.org/dc/dcmitype/StillImage" /><dc:title></dc:title></cc:Work></rdf:RDF></metadata><defs
   id="defs39"><inkscape:path-effect
     effect="spiro"
     id="path-effect850"
     is_visible="true"
     lpeversion="1" /></defs><sodipodi:namedview
   pagecolor="#ffffff"
   bordercolor="#666666"
   borderopacity="1"
   objecttolerance="10"
   gridtolerance="10"
   guidetolerance="10"
   inkscape:pageopacity="0"
   inkscape:pageshadow="2"
   inkscape:window-width="1920"
   inkscape:window-height="1013"
   id="namedview37"
   showgrid="false"
   fit-margin-top="0"
   fit-margin-left="0"
   fit-margin-right="0"
   fit-margin-bottom="0"
   inkscape:zoom="3.6203867"
   inkscape:cx="108.10469"
   inkscape:cy="13.10386"
   inkscape:window-x="-9"
   inkscape:window-y="-9"
   inkscape:window-maximized="1"
   inkscape:current-layer="Capa_1"
   inkscape:document-rotation="0"
   inkscape:object-paths="true" />
<path
   style="fill:#fd003a;stroke-width:0.0976568"
   d="M 17.578146,0 C 7.880673,0 0,7.8808697 0,17.578142 c 0,3.281251 0.908403,6.474702 2.63682,9.228643 l 13.749723,22.501374 c 0.234575,0.380852 0.586133,0.615335 0.996385,0.673937 0.556448,0.08765 1.171975,-0.1465 1.494145,-0.703117 L 32.666152,26.5723 c 1.64043,-2.69522 2.490135,-5.829991 2.490135,-8.994158 C 35.156287,7.8808697 27.275619,0 17.578146,0 Z m 0,26.36723 c -4.921688,0 -8.789073,-3.984386 -8.789073,-8.789088 0,-4.834088 3.954987,-8.7890547 8.789073,-8.7890547 4.834088,0 8.78907,3.9549667 8.78907,8.7890547 0,4.775403 -3.808692,8.789088 -8.78907,8.789088 z"
   id="path2" />
<path
   style="fill:#e50027;stroke-width:0.0976568"
   d="m 17.578146,0 v 8.7890873 c 4.834088,0 8.78907,3.9549667 8.78907,8.7890547 0,4.775403 -3.808692,8.789088 -8.78907,8.789088 v 23.631949 c 0.499905,0.012 1.013967,-0.228025 1.298832,-0.7202 L 32.666054,26.5723 c 1.640528,-2.69522 2.490233,-5.829991 2.490233,-8.994158 C 35.156287,7.8808697 27.275619,0 17.578146,0 Z"
   id="path4" />
<g
   id="g6"
   transform="translate(-98.987754,-482.10528)">
</g>
<g
   id="g8"
   transform="translate(-98.987754,-482.10528)">
</g>
<g
   id="g10"
   transform="translate(-98.987754,-482.10528)">
</g>
<g
   id="g12"
   transform="translate(-98.987754,-482.10528)">
</g>
<g
   id="g14"
   transform="translate(-98.987754,-482.10528)">
</g>
<g
   id="g16"
   transform="translate(-98.987754,-482.10528)">
</g>
<g
   id="g18"
   transform="translate(-98.987754,-482.10528)">
</g>
<g
   id="g20"
   transform="translate(-98.987754,-482.10528)">
</g>
<g
   id="g22"
   transform="translate(-98.987754,-482.10528)">
</g>
<g
   id="g24"
   transform="translate(-98.987754,-482.10528)">
</g>
<g
   id="g26"
   transform="translate(-98.987754,-482.10528)">
</g>
<g
   id="g28"
   transform="translate(-98.987754,-482.10528)">
</g>
<g
   id="g30"
   transform="translate(-98.987754,-482.10528)">
</g>
<g
   id="g32"
   transform="translate(-98.987754,-482.10528)">
</g>
<g
   id="g34"
   transform="translate(-98.987754,-482.10528)">
</g>
</svg>
