<?xml version="1.0" encoding="UTF-8" standalone="no"?>
<svg
   width="469.25131"
   height="813.909"
   viewBox="0 0 124.15607 215.34674"
   version="1.1"
   id="svg8"
   inkscape:version="1.1 (c68e22c387, 2021-05-23)"
   sodipodi:docname="planinaIcon.svg"
   xmlns:inkscape="http://www.inkscape.org/namespaces/inkscape"
   xmlns:sodipodi="http://sodipodi.sourceforge.net/DTD/sodipodi-0.dtd"
   xmlns="http://www.w3.org/2000/svg"
   xmlns:svg="http://www.w3.org/2000/svg"
   xmlns:rdf="http://www.w3.org/1999/02/22-rdf-syntax-ns#"
   xmlns:cc="http://creativecommons.org/ns#"
   xmlns:dc="http://purl.org/dc/elements/1.1/">
  <defs
     id="defs2" />
  <sodipodi:namedview
     id="base"
     pagecolor="#0000ff"
     bordercolor="#666666"
     borderopacity="1.0"
     inkscape:pageopacity="0"
     inkscape:pageshadow="2"
     inkscape:zoom="1.4142136"
     inkscape:cx="154.50283"
     inkscape:cy="232.28458"
     inkscape:document-units="mm"
     inkscape:current-layer="layer1"
     inkscape:document-rotation="0"
     showgrid="false"
     inkscape:snap-midpoints="true"
     inkscape:snap-bbox="true"
     inkscape:snap-intersection-paths="true"
     inkscape:snap-object-midpoints="true"
     fit-margin-top="10"
     fit-margin-left="10"
     fit-margin-right="10"
     fit-margin-bottom="10"
     units="px"
     inkscape:window-width="1920"
     inkscape:window-height="1013"
     inkscape:window-x="1911"
     inkscape:window-y="-9"
     inkscape:window-maximized="1"
     inkscape:snap-global="true"
     inkscape:snap-others="true"
     inkscape:snap-nodes="true"
     inkscape:snap-smooth-nodes="false"
     inkscape:object-nodes="false"
     inkscape:snap-bbox-edge-midpoints="true"
     inkscape:bbox-paths="false"
     inkscape:bbox-nodes="true"
     inkscape:snap-center="false"
     inkscape:pagecheckerboard="0" />
  <metadata
     id="metadata5">
    <rdf:RDF>
      <cc:Work
         rdf:about="">
        <dc:format>image/svg+xml</dc:format>
        <dc:type
           rdf:resource="http://purl.org/dc/dcmitype/StillImage" />
        <dc:title />
      </cc:Work>
    </rdf:RDF>
  </metadata>
  <g
     inkscape:label="Sloj 1"
     inkscape:groupmode="layer"
     id="layer1"
     transform="translate(-26.387316,-18.973849)">
    <path
       style="fill:#000000;fill-opacity:0.40000001;fill-rule:evenodd;stroke:#ffffff;stroke-width:1.14406;stroke-miterlimit:4;stroke-dasharray:none;stroke-opacity:1"
       d="M 78.104571,139.25429 C 57.078985,135.45737 39.507499,120.27846 32.491373,99.851943 30.351963,93.623334 29.605179,88.782296 29.605179,81.142089 c 0,-12.599172 2.916,-22.310156 9.805361,-32.654198 8.931427,-13.410097 22.825986,-22.531981 38.824409,-25.488508 8.595303,-1.588424 20.251707,-0.76943 28.555101,2.006321 19.72818,6.594949 34.13162,22.305454 39.21246,42.77081 1.0998,4.429968 1.29508,6.331073 1.32205,12.870551 0.0442,10.705991 -1.39583,17.172667 -5.90677,26.526025 -7.98277,16.55224 -24.11118,28.66744 -42.74883,32.1117 -5.126346,0.94735 -15.232509,0.93237 -20.564389,-0.0305 z"
       id="path955" />
    <path
       id="path848-9-3"
       style="font-variation-settings:normal;vector-effect:none;fill:none;fill-opacity:0.521898;fill-rule:evenodd;stroke:#ffffff;stroke-width:3.01025;stroke-linecap:butt;stroke-linejoin:miter;stroke-miterlimit:4;stroke-dasharray:none;stroke-dashoffset:0;stroke-opacity:1;stop-color:#000000"
       d="M 133.32284,81.074227 A 44.857501,44.857501 0 0 1 88.486378,125.95231 44.857501,44.857501 0 0 1 43.607842,81.116312 44.857501,44.857501 0 0 1 88.443371,36.237313 44.857501,44.857501 0 0 1 133.32284,81.072384" />
    <path
       style="fill:none;stroke:#fffff7;stroke-width:2.91061;stroke-linecap:butt;stroke-linejoin:miter;stroke-miterlimit:4;stroke-dasharray:none;stroke-opacity:1"
       d="M 68.5526,104.43933 88.209282,56.183456 107.86594,104.43933"
       id="path842" />
    <path
       style="fill:none;stroke:#fffff7;stroke-width:2.92379;stroke-linecap:butt;stroke-linejoin:miter;stroke-miterlimit:4;stroke-dasharray:none;stroke-opacity:1"
       d="M 55.556967,101.40264 C 66.001,78.150207 66.001,78.150207 66.001,78.150207 l 4.242889,11.492596"
       id="path844"
       sodipodi:nodetypes="ccc" />
    <path
       style="fill:none;stroke:#fffff7;stroke-width:2.80396;stroke-linecap:butt;stroke-linejoin:miter;stroke-miterlimit:4;stroke-dasharray:none;stroke-opacity:1"
       d="m 102.49756,79.753827 5.40312,-14.432557 14.10808,35.54683"
       id="path846"
       sodipodi:nodetypes="ccc" />
    <path
       style="fill:none;fill-opacity:1;stroke:#000000;stroke-width:4.00331;stroke-linecap:butt;stroke-linejoin:miter;stroke-miterlimit:4;stroke-dasharray:none;stroke-opacity:0.5"
       d="m 88.477344,140.79973 c 0,89.59412 0.340799,89.02261 0.340799,89.02261"
       id="path1529" />
  </g>
</svg>
