<?xml version="1.0" encoding="UTF-8" standalone="no"?>
<!-- Generator: Adobe Illustrator 19.0.0, SVG Export Plug-In . SVG Version: 6.00 Build 0)  -->

<svg
   version="1.1"
   id="Layer_1"
   x="0px"
   y="0px"
   viewBox="0 0 31.483289 73.537606"
   xml:space="preserve"
   sodipodi:docname="routes-arrow.svg"
   width="31.483288"
   height="73.537605"
   inkscape:version="1.1 (c68e22c387, 2021-05-23)"
   xmlns:inkscape="http://www.inkscape.org/namespaces/inkscape"
   xmlns:sodipodi="http://sodipodi.sourceforge.net/DTD/sodipodi-0.dtd"
   xmlns="http://www.w3.org/2000/svg"
   xmlns:svg="http://www.w3.org/2000/svg"><defs
   id="defs36" /><sodipodi:namedview
   id="namedview34"
   pagecolor="#ffff00"
   bordercolor="#666666"
   borderopacity="1.0"
   inkscape:pageshadow="2"
   inkscape:pageopacity="0"
   inkscape:pagecheckerboard="0"
   showgrid="false"
   fit-margin-top="0"
   fit-margin-left="0"
   fit-margin-right="0"
   fit-margin-bottom="0"
   inkscape:zoom="3.0769859"
   inkscape:cx="-25.186986"
   inkscape:cy="48.911502"
   inkscape:window-width="1920"
   inkscape:window-height="991"
   inkscape:window-x="-9"
   inkscape:window-y="-9"
   inkscape:window-maximized="1"
   inkscape:current-layer="Layer_1"
   inkscape:snap-bbox="true"
   inkscape:snap-bbox-midpoints="true" />
<rect
   style="fill:#ffffff;fill-rule:evenodd;stroke-width:1.50646"
   id="rect2638"
   width="24.00844"
   height="73.537605"
   x="0"
   y="0"
   ry="8.618268"
   rx="8.2667971" /><path
   id="XMLID_224_"
   d="m 8.1016194,51.369382 9.0909056,-13.63672 c 0.170485,-0.255638 0.266242,-0.602546 0.266242,-0.964182 0,-0.361728 -0.09582,-0.708546 -0.266302,-0.964272 L 8.1015587,22.168211 c -0.35503,-0.532545 -0.9306059,-0.532545 -1.2856359,0 -0.3549693,0.532455 -0.35503,1.395909 0,1.928454 L 15.263981,36.76848 6.8159228,49.440928 c -0.1775146,0.266274 -0.266242,0.615273 -0.266242,0.964272 0,0.349001 0.088727,0.698001 0.2663027,0.964274 0.35503,0.532453 0.9306059,0.532453 1.2856359,-9.2e-5 z"
   style="stroke-width:0.0742271" />
<g
   id="g3"
   transform="translate(-10.654094,2.0682456)">
</g>
<g
   id="g5"
   transform="translate(-10.654094,2.0682456)">
</g>
<g
   id="g7"
   transform="translate(-10.654094,2.0682456)">
</g>
<g
   id="g9"
   transform="translate(-10.654094,2.0682456)">
</g>
<g
   id="g11"
   transform="translate(-10.654094,2.0682456)">
</g>
<g
   id="g13"
   transform="translate(-10.654094,2.0682456)">
</g>
<g
   id="g15"
   transform="translate(-10.654094,2.0682456)">
</g>
<g
   id="g17"
   transform="translate(-10.654094,2.0682456)">
</g>
<g
   id="g19"
   transform="translate(-10.654094,2.0682456)">
</g>
<g
   id="g21"
   transform="translate(-10.654094,2.0682456)">
</g>
<g
   id="g23"
   transform="translate(-10.654094,2.0682456)">
</g>
<g
   id="g25"
   transform="translate(-10.654094,2.0682456)">
</g>
<g
   id="g27"
   transform="translate(-10.654094,2.0682456)">
</g>
<g
   id="g29"
   transform="translate(-10.654094,2.0682456)">
</g>
<g
   id="g31"
   transform="translate(-10.654094,2.0682456)">
</g>
</svg>
