<?xml version="1.0" encoding="UTF-8" standalone="no"?>
<svg
   xmlns:dc="http://purl.org/dc/elements/1.1/"
   xmlns:cc="http://creativecommons.org/ns#"
   xmlns:rdf="http://www.w3.org/1999/02/22-rdf-syntax-ns#"
   xmlns:svg="http://www.w3.org/2000/svg"
   xmlns="http://www.w3.org/2000/svg"
   xmlns:sodipodi="http://sodipodi.sourceforge.net/DTD/sodipodi-0.dtd"
   xmlns:inkscape="http://www.inkscape.org/namespaces/inkscape"
   version="1.1"
   id="Capa_1"
   x="0px"
   y="0px"
   viewBox="0 0 59.709669 20"
   xml:space="preserve"
   sodipodi:docname="routesvg.svg"
   width="59.709675"
   height="20"
   inkscape:export-filename="C:\Users\Korisnik\Documents\Geometrika\Karta_Tomislavgrad\webKarta\assets\icon\route.png"
   inkscape:export-xdpi="96"
   inkscape:export-ydpi="96"
   inkscape:version="1.0.2 (e86c870879, 2021-01-15, custom)"><metadata
   id="metadata41"><rdf:RDF><cc:Work
       rdf:about=""><dc:format>image/svg+xml</dc:format><dc:type
         rdf:resource="http://purl.org/dc/dcmitype/StillImage" /><dc:title></dc:title></cc:Work></rdf:RDF></metadata><defs
   id="defs39"><inkscape:path-effect
     effect="spiro"
     id="path-effect850"
     is_visible="true"
     lpeversion="1" /></defs><sodipodi:namedview
   pagecolor="#ffffff"
   bordercolor="#666666"
   borderopacity="1"
   objecttolerance="10"
   gridtolerance="10"
   guidetolerance="10"
   inkscape:pageopacity="0"
   inkscape:pageshadow="2"
   inkscape:window-width="1920"
   inkscape:window-height="1013"
   id="namedview37"
   showgrid="false"
   fit-margin-top="0"
   fit-margin-left="0"
   fit-margin-right="0"
   fit-margin-bottom="0"
   inkscape:zoom="2.8710938"
   inkscape:cx="-37.16159"
   inkscape:cy="61.880315"
   inkscape:window-x="-9"
   inkscape:window-y="-9"
   inkscape:window-maximized="1"
   inkscape:current-layer="Capa_1"
   inkscape:document-rotation="0"
   inkscape:object-paths="true" />
<path
   style="fill:#fd003a;stroke-width:0.0306919"
   d="M 5.5245285,0 C 2.4767689,0 0,2.4768311 0,5.5245283 0,6.5557723 0.28549516,7.5594238 0.82871011,8.4249411 L 5.1500271,15.496764 c 0.073722,0.119694 0.1842124,0.193389 0.3131484,0.211806 0.1748824,0.02755 0.3683332,-0.04605 0.4695856,-0.220979 L 10.266446,8.3512465 C 10.782008,7.5041825 11.049058,6.518975 11.049058,5.5245283 11.049058,2.4768311 8.5722885,0 5.5245285,0 Z m 0,8.2867978 c -1.5468068,0 -2.762264,-1.2522293 -2.762264,-2.7622695 0,-1.5192759 1.2429885,-2.7622592 2.762264,-2.7622592 1.5192767,0 2.7622646,1.2429833 2.7622646,2.7622592 0,1.5008322 -1.1970113,2.7622695 -2.7622646,2.7622695 z"
   id="path2" />
<path
   style="fill:#e50027;stroke-width:0.0306919"
   d="m 5.5245285,0 v 2.7622691 c 1.5192767,0 2.7622646,1.2429833 2.7622646,2.7622592 0,1.5008322 -1.1970113,2.7622695 -2.7622646,2.7622695 v 7.4271402 c 0.1571123,0.0037 0.3186732,-0.07166 0.4082016,-0.226347 L 10.266416,8.3512465 C 10.782008,7.5041825 11.049058,6.518975 11.049058,5.5245283 11.049058,2.4768311 8.5722885,0 5.5245285,0 Z"
   id="path4" />
<g
   id="g6"
   transform="translate(-76,-489.98458)">
</g>
<g
   id="g8"
   transform="translate(-76,-489.98458)">
</g>
<g
   id="g10"
   transform="translate(-76,-489.98458)">
</g>
<g
   id="g12"
   transform="translate(-76,-489.98458)">
</g>
<g
   id="g14"
   transform="translate(-76,-489.98458)">
</g>
<g
   id="g16"
   transform="translate(-76,-489.98458)">
</g>
<g
   id="g18"
   transform="translate(-76,-489.98458)">
</g>
<g
   id="g20"
   transform="translate(-76,-489.98458)">
</g>
<g
   id="g22"
   transform="translate(-76,-489.98458)">
</g>
<g
   id="g24"
   transform="translate(-76,-489.98458)">
</g>
<g
   id="g26"
   transform="translate(-76,-489.98458)">
</g>
<g
   id="g28"
   transform="translate(-76,-489.98458)">
</g>
<g
   id="g30"
   transform="translate(-76,-489.98458)">
</g>
<g
   id="g32"
   transform="translate(-76,-489.98458)">
</g>
<g
   id="g34"
   transform="translate(-76,-489.98458)">
</g>
<path
   style="fill:none;stroke:#000000;stroke-width:0.523807px;stroke-linecap:butt;stroke-linejoin:miter;stroke-opacity:1"
   d="m 5.5245285,15.713938 c 1.6133633,1.428352 3.8219544,2.162007 5.9692895,1.982894 1.856574,-0.15486 3.610427,-0.95674 5.151025,-2.004311 1.540598,-1.047572 2.896075,-2.339632 4.269302,-3.598638 1.373227,-1.259006 2.784448,-2.5002069 4.403216,-3.4223973 1.618769,-0.9221904 3.475101,-1.5142356 5.332823,-1.3738232 1.977823,0.14949 3.820302,1.1170412 5.355854,2.3725129 1.535552,1.2554716 2.807643,2.7961026 4.10319,4.2979976 1.295547,1.501895 2.642231,2.990638 4.283302,4.104646 1.641072,1.114007 3.623421,1.833967 5.59646,1.630871 1.694644,-0.174439 3.306693,-1.047632 4.3786,-2.371741"
   id="path848"
   sodipodi:nodetypes="csssc"
   inkscape:export-xdpi="96"
   inkscape:export-ydpi="96"
   inkscape:original-d="m 5.5245285,15.713938 c 6.6729545,1.93858 -0.7026163,0.04536 5.9692895,1.982894 C 18.165726,19.634364 31.008798,8.0793678 30.650184,7.2976625 27.608967,0.66842838 54.489741,-1.398195 49.98899,19.70369 c -1.347454,6.317572 1.642498,5.24e-4 4.3786,-2.371741"
   inkscape:path-effect="#path-effect850" /><path
   style="fill:#fd003a;stroke-width:0.0306919"
   d="m 54.185148,1.8123044 c -3.047762,0 -5.524531,2.4768306 -5.524531,5.5245281 0,1.031244 0.285495,2.0348953 0.82871,2.9004125 l 4.32132,7.071823 c 0.07372,0.119694 0.184212,0.193389 0.313147,0.211806 0.174883,0.02755 0.368331,-0.04605 0.469583,-0.220979 l 4.333689,-7.136344 c 0.515557,-0.8470639 0.78261,-1.8322719 0.78261,-2.8267185 0,-3.0476975 -2.476769,-5.5245281 -5.524528,-5.5245281 z m 0,8.2867976 c -1.546807,0 -2.762267,-1.2522289 -2.762267,-2.7622695 0,-1.5192755 1.242991,-2.7622588 2.762267,-2.7622588 1.519275,0 2.762264,1.2429833 2.762264,2.7622588 0,1.500832 -1.197014,2.7622695 -2.762264,2.7622695 z"
   id="path2-7" /></svg>
