<?xml version="1.0" encoding="UTF-8" standalone="no"?>
<svg
   version="1.1"
   id="Capa_1"
   x="0px"
   y="0px"
   viewBox="0 0 70.285402 27.893089"
   xml:space="preserve"
   sodipodi:docname="route.svg"
   width="70.285408"
   height="27.893089"
   inkscape:export-filename="C:\Users\Korisnik\Documents\Geometrika\Karta_Tomislavgrad\webKarta\assets\icon\route.png"
   inkscape:export-xdpi="96"
   inkscape:export-ydpi="96"
   inkscape:version="1.1 (c68e22c387, 2021-05-23)"
   xmlns:inkscape="http://www.inkscape.org/namespaces/inkscape"
   xmlns:sodipodi="http://sodipodi.sourceforge.net/DTD/sodipodi-0.dtd"
   xmlns="http://www.w3.org/2000/svg"
   xmlns:svg="http://www.w3.org/2000/svg"
   xmlns:rdf="http://www.w3.org/1999/02/22-rdf-syntax-ns#"
   xmlns:cc="http://creativecommons.org/ns#"
   xmlns:dc="http://purl.org/dc/elements/1.1/"><metadata
   id="metadata41"><rdf:RDF><cc:Work
       rdf:about=""><dc:format>image/svg+xml</dc:format><dc:type
         rdf:resource="http://purl.org/dc/dcmitype/StillImage" /></cc:Work></rdf:RDF></metadata><defs
   id="defs39"><inkscape:path-effect
     effect="spiro"
     id="path-effect850"
     is_visible="true"
     lpeversion="1" /></defs><sodipodi:namedview
   pagecolor="#ff8484"
   bordercolor="#666666"
   borderopacity="1"
   objecttolerance="10"
   gridtolerance="10"
   guidetolerance="10"
   inkscape:pageopacity="0"
   inkscape:pageshadow="2"
   inkscape:window-width="1920"
   inkscape:window-height="1013"
   id="namedview37"
   showgrid="false"
   fit-margin-top="0"
   fit-margin-left="0"
   fit-margin-right="0"
   fit-margin-bottom="0"
   inkscape:zoom="5.7421875"
   inkscape:cx="1.6544218"
   inkscape:cy="-18.198639"
   inkscape:window-x="-9"
   inkscape:window-y="-9"
   inkscape:window-maximized="1"
   inkscape:current-layer="Capa_1"
   inkscape:document-rotation="0"
   inkscape:object-paths="true"
   inkscape:pagecheckerboard="0" />


<g
   id="g6"
   transform="translate(-91.519,-490.04876)">
</g>
<g
   id="g8"
   transform="translate(-91.519,-490.04876)">
</g>
<g
   id="g10"
   transform="translate(-91.519,-490.04876)">
</g>
<g
   id="g12"
   transform="translate(-91.519,-490.04876)">
</g>
<g
   id="g14"
   transform="translate(-91.519,-490.04876)">
</g>
<g
   id="g16"
   transform="translate(-91.519,-490.04876)">
</g>
<g
   id="g18"
   transform="translate(-91.519,-490.04876)">
</g>
<g
   id="g20"
   transform="translate(-91.519,-490.04876)">
</g>
<g
   id="g22"
   transform="translate(-91.519,-490.04876)">
</g>
<g
   id="g24"
   transform="translate(-91.519,-490.04876)">
</g>
<g
   id="g26"
   transform="translate(-91.519,-490.04876)">
</g>
<g
   id="g28"
   transform="translate(-91.519,-490.04876)">
</g>
<g
   id="g30"
   transform="translate(-91.519,-490.04876)">
</g>
<g
   id="g32"
   transform="translate(-91.519,-490.04876)">
</g>
<g
   id="g34"
   transform="translate(-91.519,-490.04876)">
</g>
<path
   style="fill:none;stroke:#c3c3c3;stroke-width:0.82454;stroke-linecap:butt;stroke-linejoin:miter;stroke-miterlimit:4;stroke-dasharray:none;stroke-opacity:1"
   d="m 9.658408,23.777961 c 2.081675,1.403661 4.671342,2.035608 7.165587,1.748591 2.494244,-0.287017 4.872688,-1.490652 6.581133,-3.330448 1.725924,-1.858619 2.725558,-4.256328 4.024325,-6.43497 0.649384,-1.089321 1.38523,-2.138431 2.304074,-3.012528 0.918844,-0.874097 2.032275,-1.569823 3.265453,-1.865783 0.957501,-0.229798 1.967603,-0.21321 2.92859,0.0015 0.960988,0.214752 1.873551,0.624548 2.6998,1.160205 1.652497,1.071315 2.940512,2.62257 4.028359,4.264231 1.087847,1.641661 2.000464,3.393516 3.071713,5.046056 1.07125,1.652539 2.324945,3.226665 3.944306,4.347438 1.6363,1.132497 3.616685,1.760581 5.606589,1.778144 1.989904,0.01756 3.981066,-0.575467 5.637101,-1.678904"
   id="path848"
   sodipodi:nodetypes="csssc"
   inkscape:export-xdpi="96"
   inkscape:export-ydpi="96"
   inkscape:original-d="M 9.658408,23.777961 C 368.94989,22.62611 12.906547,19.147296 23.405128,22.196104 33.903712,25.244913 33.563278,12.112876 32.99898,10.882823 28.213472,0.4513881 56.753908,-7.5025894 49.671748,25.702296 c -2.120287,9.94102 6.938295,3.832118 11.24369,0.09924"
   inkscape:path-effect="#path-effect850" /><path
   d="M 60.844104,2.1612085 A 9.4413039,9.4413039 0 0 0 51.4028,11.602512 c 0,6.30207 7.258003,14.161956 9.441304,14.161956 2.1833,0 9.441303,-7.859886 9.441303,-14.161956 A 9.4413039,9.4413039 0 0 0 60.844104,2.1612085 Z m 0,14.1619555 a 4.720652,4.720652 0 1 1 4.720651,-4.720652 4.720652,4.720652 0 0 1 -4.720651,4.720652 z"
   fill="#464646"
   id="path4-4"
   style="fill:#c3c3c3;fill-opacity:1;stroke-width:1.18016" /><path
   d="M 9.441304,0 A 9.4413039,9.4413039 0 0 0 0,9.4413039 C 0,15.743376 7.258002,23.60326 9.441304,23.60326 c 2.1833,0 9.441302,-7.859884 9.441302,-14.1619561 A 9.4413039,9.4413039 0 0 0 9.441304,0 Z m 0,14.161957 A 4.720652,4.720652 0 1 1 14.161955,9.4413039 4.720652,4.720652 0 0 1 9.441304,14.161957 Z"
   fill="#464646"
   id="path4-4-4"
   style="fill:#c3c3c3;fill-opacity:1;stroke-width:1.18016" /></svg>
