<?xml version="1.0" encoding="UTF-8" standalone="no"?>
<svg
   version="1.1"
   id="Capa_1"
   x="0px"
   y="0px"
   viewBox="0 0 55.285406 30"
   xml:space="preserve"
   sodipodi:docname="route.svg"
   width="55.285412"
   height="30"
   inkscape:export-filename="C:\Users\Korisnik\Documents\Geometrika\Karta_Tomislavgrad\webKarta\assets\icon\route.png"
   inkscape:export-xdpi="96"
   inkscape:export-ydpi="96"
   inkscape:version="1.1 (c68e22c387, 2021-05-23)"
   xmlns:inkscape="http://www.inkscape.org/namespaces/inkscape"
   xmlns:sodipodi="http://sodipodi.sourceforge.net/DTD/sodipodi-0.dtd"
   xmlns="http://www.w3.org/2000/svg"
   xmlns:svg="http://www.w3.org/2000/svg"
   xmlns:rdf="http://www.w3.org/1999/02/22-rdf-syntax-ns#"
   xmlns:cc="http://creativecommons.org/ns#"
   xmlns:dc="http://purl.org/dc/elements/1.1/"><metadata
   id="metadata41"><rdf:RDF><cc:Work
       rdf:about=""><dc:format>image/svg+xml</dc:format><dc:type
         rdf:resource="http://purl.org/dc/dcmitype/StillImage" /></cc:Work></rdf:RDF></metadata><defs
   id="defs39"><inkscape:path-effect
     effect="spiro"
     id="path-effect850"
     is_visible="true"
     lpeversion="1" /></defs><sodipodi:namedview
   pagecolor="#ff8484"
   bordercolor="#666666"
   borderopacity="1"
   objecttolerance="10"
   gridtolerance="10"
   guidetolerance="10"
   inkscape:pageopacity="0"
   inkscape:pageshadow="2"
   inkscape:window-width="1920"
   inkscape:window-height="1013"
   id="namedview37"
   showgrid="false"
   fit-margin-top="0"
   fit-margin-left="0"
   fit-margin-right="0"
   fit-margin-bottom="0"
   inkscape:zoom="5.6568543"
   inkscape:cx="15.114407"
   inkscape:cy="-0.61871843"
   inkscape:window-x="-9"
   inkscape:window-y="-9"
   inkscape:window-maximized="1"
   inkscape:current-layer="Capa_1"
   inkscape:document-rotation="0"
   inkscape:object-paths="true"
   inkscape:pagecheckerboard="0" />


<g
   id="g6"
   transform="translate(-91.519,-490.04876)">
</g>
<g
   id="g8"
   transform="translate(-91.519,-490.04876)">
</g>
<g
   id="g10"
   transform="translate(-91.519,-490.04876)">
</g>
<g
   id="g12"
   transform="translate(-91.519,-490.04876)">
</g>
<g
   id="g14"
   transform="translate(-91.519,-490.04876)">
</g>
<g
   id="g16"
   transform="translate(-91.519,-490.04876)">
</g>
<g
   id="g18"
   transform="translate(-91.519,-490.04876)">
</g>
<g
   id="g20"
   transform="translate(-91.519,-490.04876)">
</g>
<g
   id="g22"
   transform="translate(-91.519,-490.04876)">
</g>
<g
   id="g24"
   transform="translate(-91.519,-490.04876)">
</g>
<g
   id="g26"
   transform="translate(-91.519,-490.04876)">
</g>
<g
   id="g28"
   transform="translate(-91.519,-490.04876)">
</g>
<g
   id="g30"
   transform="translate(-91.519,-490.04876)">
</g>
<g
   id="g32"
   transform="translate(-91.519,-490.04876)">
</g>
<g
   id="g34"
   transform="translate(-91.519,-490.04876)">
</g>
<path
   style="fill:none;stroke:#c3c3c3;stroke-width:1.134;stroke-linecap:butt;stroke-linejoin:miter;stroke-miterlimit:4;stroke-dasharray:none;stroke-opacity:1"
   d="m 8.0498204,21.145012 c 0.988087,1.429823 2.5448746,2.454748 4.2488136,2.797244 1.703938,0.342496 3.535841,-0.0013 4.999662,-0.938277 1.1344,-0.726122 2.029258,-1.775033 2.775629,-2.896213 0.746371,-1.121181 1.359134,-2.324833 2.045854,-3.483509 0.68672,-1.158677 1.458906,-2.285701 2.465863,-3.180213 1.006958,-0.894512 2.273673,-1.546508 3.618519,-1.620706 0.864784,-0.04771 1.735306,0.144912 2.522801,0.505439 0.787495,0.360527 1.493858,0.885589 2.105406,1.498889 1.223097,1.226599 2.057122,2.781421 2.810335,4.341287 0.753213,1.559866 1.450618,3.161636 2.462097,4.567844 1.011479,1.406208 2.387902,2.625428 4.059315,3.08028 1.183597,0.3221 2.473892,0.237447 3.605261,-0.236532 1.131369,-0.473978 2.096701,-1.334303 2.697271,-2.403867"
   id="path848"
   sodipodi:nodetypes="csssc"
   inkscape:export-xdpi="96"
   inkscape:export-ydpi="96"
   inkscape:original-d="M 8.0498204,21.145012 C 291.35576,19.988557 18.752061,14.298467 17.298296,23.003979 0.67627385,122.54085 28.649117,13.058307 28.204161,11.823338 24.430723,1.3502138 47.748489,-7.5205151 42.164115,25.817077 c -1.671874,9.98075 2.907672,1.107394 6.302532,-2.640399"
   inkscape:path-effect="#path-effect850" /><path
   d="m 48.654845,8.4635156 a 6,6 0 0 0 -6,5.9999994 c 0,4.005 4.612501,9.000001 6,9.000001 1.3875,0 6,-4.995001 6,-9.000001 a 6,6 0 0 0 -6,-5.9999994 z m 0,9.0000004 a 3.0000001,3.0000001 0 1 1 3,-3.000001 3.0000001,3.0000001 0 0 1 -3,3.000001 z"
   fill="#464646"
   id="path4-4"
   style="fill:#c3c3c3;fill-opacity:1;stroke-width:0.749998" /><path
   d="M 8.0360405,3.0935922 A 7.3289337,7.3289337 0 0 0 0.70710675,10.422526 c 0,4.892065 5.63411745,10.993401 7.32893375,10.993401 1.6948152,0 7.3289325,-6.101336 7.3289325,-10.993401 A 7.3289337,7.3289337 0 0 0 8.0360405,3.0935922 Z m 0,10.9934018 a 3.6644669,3.6644669 0 1 1 3.6644665,-3.664468 3.6644669,3.6644669 0 0 1 -3.6644665,3.664468 z"
   fill="#464646"
   id="path4-4-4"
   style="fill:#c3c3c3;fill-opacity:1;stroke-width:0.916114" /></svg>
