<?xml version="1.0" encoding="UTF-8" standalone="no"?>
<svg
   version="1.1"
   id="Capa_1"
   x="0px"
   y="0px"
   viewBox="0 0 59.950792 24.99951"
   xml:space="preserve"
   sodipodi:docname="route.svg"
   width="59.950798"
   height="24.99951"
   inkscape:export-filename="C:\Users\Korisnik\Documents\Geometrika\Karta_Tomislavgrad\webKarta\assets\icon\route.png"
   inkscape:export-xdpi="96"
   inkscape:export-ydpi="96"
   inkscape:version="1.2 (dc2aedaf03, 2022-05-15)"
   xmlns:inkscape="http://www.inkscape.org/namespaces/inkscape"
   xmlns:sodipodi="http://sodipodi.sourceforge.net/DTD/sodipodi-0.dtd"
   xmlns="http://www.w3.org/2000/svg"
   xmlns:svg="http://www.w3.org/2000/svg"
   xmlns:rdf="http://www.w3.org/1999/02/22-rdf-syntax-ns#"
   xmlns:cc="http://creativecommons.org/ns#"
   xmlns:dc="http://purl.org/dc/elements/1.1/"><metadata
   id="metadata41"><rdf:RDF><cc:Work
       rdf:about=""><dc:format>image/svg+xml</dc:format><dc:type
         rdf:resource="http://purl.org/dc/dcmitype/StillImage" /></cc:Work></rdf:RDF></metadata><defs
   id="defs39"><inkscape:path-effect
     effect="spiro"
     id="path-effect850"
     is_visible="true"
     lpeversion="1" /></defs><sodipodi:namedview
   pagecolor="#ff8484"
   bordercolor="#666666"
   borderopacity="1"
   objecttolerance="10"
   gridtolerance="10"
   guidetolerance="10"
   inkscape:pageopacity="0"
   inkscape:pageshadow="2"
   inkscape:window-width="1536"
   inkscape:window-height="793"
   id="namedview37"
   showgrid="false"
   fit-margin-top="0"
   fit-margin-left="0"
   fit-margin-right="0"
   fit-margin-bottom="0"
   inkscape:zoom="8.0000001"
   inkscape:cx="-1.4375"
   inkscape:cy="3.625"
   inkscape:window-x="-8"
   inkscape:window-y="-8"
   inkscape:window-maximized="1"
   inkscape:current-layer="Capa_1"
   inkscape:document-rotation="0"
   inkscape:object-paths="true"
   inkscape:pagecheckerboard="0"
   inkscape:showpageshadow="0"
   inkscape:deskcolor="#ff8484" />


<g
   id="g6"
   transform="translate(-92.287371,-494.20541)">
</g>
<g
   id="g8"
   transform="translate(-92.287371,-494.20541)">
</g>
<g
   id="g10"
   transform="translate(-92.287371,-494.20541)">
</g>
<g
   id="g12"
   transform="translate(-92.287371,-494.20541)">
</g>
<g
   id="g14"
   transform="translate(-92.287371,-494.20541)">
</g>
<g
   id="g16"
   transform="translate(-92.287371,-494.20541)">
</g>
<g
   id="g18"
   transform="translate(-92.287371,-494.20541)">
</g>
<g
   id="g20"
   transform="translate(-92.287371,-494.20541)">
</g>
<g
   id="g22"
   transform="translate(-92.287371,-494.20541)">
</g>
<g
   id="g24"
   transform="translate(-92.287371,-494.20541)">
</g>
<g
   id="g26"
   transform="translate(-92.287371,-494.20541)">
</g>
<g
   id="g28"
   transform="translate(-92.287371,-494.20541)">
</g>
<g
   id="g30"
   transform="translate(-92.287371,-494.20541)">
</g>
<g
   id="g32"
   transform="translate(-92.287371,-494.20541)">
</g>
<g
   id="g34"
   transform="translate(-92.287371,-494.20541)">
</g>
<path
   style="fill:none;stroke:#c3c3c3;stroke-width:1.26444;stroke-linecap:butt;stroke-linejoin:miter;stroke-miterlimit:4;stroke-dasharray:none;stroke-opacity:1"
   d="m 8.1189924,18.942492 c 1.1017413,1.594287 2.8375976,2.737104 4.7375306,3.118995 1.899933,0.381891 3.94255,-0.0014 5.574746,-1.046202 1.264883,-0.809644 2.262672,-1.979205 3.094894,-3.229348 0.832222,-1.250144 1.515467,-2.592245 2.281176,-3.884198 0.76571,-1.291953 1.626716,-2.548611 2.749499,-3.546014 1.122782,-0.9974028 2.5352,-1.7243944 4.034736,-1.8071269 0.964255,-0.0532 1.934909,0.1615799 2.812984,0.5635767 0.878076,0.4019969 1.665689,0.9874532 2.34758,1.6712982 1.363782,1.367688 2.293741,3.101352 3.133591,4.84064 0.839851,1.739288 1.617474,3.525301 2.745298,5.093257 1.127823,1.567957 2.662569,2.927417 4.526235,3.434588 1.31974,0.359149 2.75845,0.264759 4.019954,-0.263738 1.261503,-0.528498 2.337872,-1.487781 3.007523,-2.680371"
   id="path848"
   sodipodi:nodetypes="csssc"
   inkscape:export-xdpi="96"
   inkscape:export-ydpi="96"
   inkscape:original-d="M 8.1189924,18.942492 C 324.01201,17.653016 20.052252,11.308427 18.431269,21.015285 -0.10269147,132.00132 31.08771,9.9256186 30.591574,8.5485981 26.384098,-3.1291903 52.383975,-13.020269 46.157262,24.151958 c -1.86418,11.128779 3.242125,1.234771 7.027477,-2.944109"
   inkscape:path-effect="#path-effect850" /><path
   d="m 15.335875,8.1171673 c 0,5.4126627 -7.2168826,10.8253247 -7.2168826,10.8253247 0,0 -7.21688242,-5.412662 -7.21688242,-10.8253247 a 7.2168825,7.2168825 0 0 1 14.43376502,0 z"
   id="path8159"
   style="fill:none;stroke:#c3c3c3;stroke-width:1.80422;stroke-opacity:1" /><circle
   cx="8.1189919"
   cy="8.1171684"
   r="2.7063308"
   id="circle8161"
   style="fill:none;stroke:#c3c3c3;stroke-width:1.80422;stroke-opacity:1" /><path
   d="m 59.199012,12.186439 c 0,4.510705 -6.014273,9.02141 -6.014273,9.02141 0,0 -6.014273,-4.510705 -6.014273,-9.02141 a 6.0142735,6.0142735 0 0 1 12.028546,0 z"
   id="path8159-7"
   style="fill:none;stroke:#c3c3c3;stroke-width:1.50357;stroke-opacity:1" /><circle
   cx="53.184738"
   cy="12.18644"
   r="2.2553523"
   id="circle8161-5"
   style="fill:none;stroke:#c3c3c3;stroke-width:1.50357;stroke-opacity:1" /></svg>
