<?xml version="1.0" encoding="UTF-8" standalone="no"?>
<svg
   height="64"
   width="64"
   version="1.1"
   id="svg9112"
   sodipodi:docname="sleeps.svg"
   inkscape:version="1.2 (dc2aedaf03, 2022-05-15)"
   xmlns:inkscape="http://www.inkscape.org/namespaces/inkscape"
   xmlns:sodipodi="http://sodipodi.sourceforge.net/DTD/sodipodi-0.dtd"
   xmlns="http://www.w3.org/2000/svg"
   xmlns:svg="http://www.w3.org/2000/svg">
  <defs
     id="defs9116" />
  <sodipodi:namedview
     id="namedview9114"
     pagecolor="#ffffff"
     bordercolor="#111111"
     borderopacity="1"
     inkscape:showpageshadow="0"
     inkscape:pageopacity="0"
     inkscape:pagecheckerboard="1"
     inkscape:deskcolor="#d1d1d1"
     showgrid="false"
     inkscape:zoom="4.9166667"
     inkscape:cx="23.898305"
     inkscape:cy="32.644068"
     inkscape:window-width="1920"
     inkscape:window-height="991"
     inkscape:window-x="-9"
     inkscape:window-y="-9"
     inkscape:window-maximized="1"
     inkscape:current-layer="svg9112" />
  <circle
     cx="32"
     cy="32"
     r="32"
     fill="#ff7262"
     id="circle295"
     style="fill:#4460a0;fill-opacity:1" />
  <path
     d="m 20.717949,39.5 v -15 h 1.538461 v 10.102564 h 9.051282 v -7.923077 h 8.256411 q 1.538461,0 2.628204,1.089743 1.089744,1.089744 1.089744,2.628206 V 39.5 H 41.74359 V 36.141026 H 22.25641 V 39.5 Z m 5.897436,-6.384615 q -1.153847,0 -1.935898,-0.782052 -0.782051,-0.78205 -0.782051,-1.935897 0,-1.153846 0.782051,-1.935898 0.782051,-0.78205 1.935898,-0.78205 1.153846,0 1.935897,0.78205 0.782052,0.782052 0.782052,1.935898 0,1.153847 -0.782052,1.935897 -0.782051,0.782052 -1.935897,0.782052 z m 6.230769,1.487179 h 8.897436 v -4.205128 q 0,-0.897436 -0.641026,-1.538461 -0.641026,-0.641026 -1.538461,-0.641026 h -6.717949 z m -6.230769,-3.025641 q 0.487179,0 0.833333,-0.346154 0.346154,-0.346154 0.346154,-0.833333 0,-0.48718 -0.346154,-0.833333 -0.346154,-0.346154 -0.833333,-0.346154 -0.48718,0 -0.833333,0.346154 -0.346155,0.346153 -0.346155,0.833333 0,0.487179 0.346155,0.833333 0.346153,0.346154 0.833333,0.346154 z m 0,0 q -0.48718,0 -0.833333,-0.346154 -0.346155,-0.346154 -0.346155,-0.833333 0,-0.48718 0.346155,-0.833333 0.346153,-0.346154 0.833333,-0.346154 0.487179,0 0.833333,0.346154 0.346154,0.346153 0.346154,0.833333 0,0.487179 -0.346154,0.833333 -0.346154,0.346154 -0.833333,0.346154 z m 6.230769,-3.358974 h 6.717949 q 0.897435,0 1.538461,0.641026 Q 41.74359,29.5 41.74359,30.397436 v 4.205128 h -8.897436 z"
     id="path9110"
     style="fill:#fefefe;fill-opacity:1;stroke-width:0.512821" />
</svg>
