<?xml version="1.0" encoding="UTF-8" standalone="no"?>
<svg
   xmlns:dc="http://purl.org/dc/elements/1.1/"
   xmlns:cc="http://creativecommons.org/ns#"
   xmlns:rdf="http://www.w3.org/1999/02/22-rdf-syntax-ns#"
   xmlns:svg="http://www.w3.org/2000/svg"
   xmlns="http://www.w3.org/2000/svg"
   xmlns:sodipodi="http://sodipodi.sourceforge.net/DTD/sodipodi-0.dtd"
   xmlns:inkscape="http://www.inkscape.org/namespaces/inkscape"
   width="16"
   height="33"
   fill="currentColor"
   class="bi bi-three-dots-vertical"
   viewBox="0 0 16 33"
   version="1.1"
   id="svg4"
   sodipodi:docname="three-dots-vertical.svg"
   inkscape:version="1.0.2 (e86c870879, 2021-01-15, custom)">
  <metadata
     id="metadata10">
    <rdf:RDF>
      <cc:Work
         rdf:about="">
        <dc:format>image/svg+xml</dc:format>
        <dc:type
           rdf:resource="http://purl.org/dc/dcmitype/StillImage" />
        <dc:title></dc:title>
      </cc:Work>
    </rdf:RDF>
  </metadata>
  <defs
     id="defs8" />
  <sodipodi:namedview
     pagecolor="#ffffff"
     bordercolor="#666666"
     borderopacity="1"
     objecttolerance="10"
     gridtolerance="10"
     guidetolerance="10"
     inkscape:pageopacity="0"
     inkscape:pageshadow="2"
     inkscape:window-width="1920"
     inkscape:window-height="1013"
     id="namedview6"
     showgrid="false"
     inkscape:zoom="11.484375"
     inkscape:cx="4.0871967"
     inkscape:cy="19.885107"
     inkscape:window-x="-9"
     inkscape:window-y="-9"
     inkscape:window-maximized="1"
     inkscape:current-layer="svg4" />
  <path
     d="m 9.5624627,13.865287 a 1.612864,1.612864 0 1 1 -3.225728,0 1.612864,1.612864 0 0 1 3.225728,0 z m 0,-5.3762142 a 1.612864,1.612864 0 1 1 -3.225728,0 1.612864,1.612864 0 0 1 3.225728,0 z m 0,-5.376213 a 1.612864,1.612864 0 1 1 -3.225728,0 1.612864,1.612864 0 0 1 3.225728,0 z"
     id="path2"
     style="stroke-width:1.07521" />
  <path
     d="m 9.5624627,29.887132 a 1.612864,1.612864 0 1 1 -3.225728,0 1.612864,1.612864 0 0 1 3.225728,0 z m 0,-5.376212 a 1.612864,1.612864 0 1 1 -3.225728,0 1.612864,1.612864 0 0 1 3.225728,0 z m 0,-5.376215 a 1.612864,1.612864 0 1 1 -3.225728,0 1.612864,1.612864 0 0 1 3.225728,0 z"
     id="path2-7"
     style="stroke-width:1.07521" />
</svg>
