<svg width="24" height="24" viewBox="0 0 24 24" fill="none" xmlns="http://www.w3.org/2000/svg">
<path d="M15 3C13.375 3 11.8711 3.40234 10.4883 4.20703C9.10547 5.01172 8.01172 6.10547 7.20703 7.48828C6.40234 8.87109 6 10.375 6 12C6 13.625 6.40234 15.1289 7.20703 16.5117C8.01172 17.8945 9.10547 18.9883 10.4883 19.793C11.8711 20.5977 13.375 21 15 21C16.4844 21 17.9141 20.6641 19.2891 19.9922C20.6641 19.3203 21.8203 18.4219 22.7578 17.2969C21.7578 19.3125 20.2969 20.9336 18.375 22.1602C16.4531 23.3867 14.3281 24 12 24C10.375 24 8.82031 23.6836 7.33594 23.0508C5.85156 22.418 4.57422 21.5664 3.50391 20.4961C2.43359 19.4258 1.58203 18.1484 0.949219 16.6641C0.316406 15.1797 0 13.625 0 12C0 10.375 0.316406 8.82031 0.949219 7.33594C1.58203 5.85156 2.43359 4.57422 3.50391 3.50391C4.57422 2.43359 5.85156 1.58203 7.33594 0.949219C8.82031 0.316406 10.375 0 12 0C14.3281 0 16.4531 0.613281 18.375 1.83984C20.2969 3.06641 21.7578 4.6875 22.7578 6.70312C21.8203 5.57812 20.6641 4.67969 19.2891 4.00781C17.9141 3.33594 16.4844 3 15 3ZM18.4219 10.5703L19.5 7.5L20.5781 10.5703L24 10.5469L21.2344 12.6328L22.1484 15.75L19.5 13.9219L16.8516 15.75L17.7656 12.6328L15 10.5469L18.4219 10.5703Z" fill="black"/>
</svg>
