<?xml version="1.0" encoding="UTF-8" standalone="no"?>
<svg
   xmlns:dc="http://purl.org/dc/elements/1.1/"
   xmlns:cc="http://creativecommons.org/ns#"
   xmlns:rdf="http://www.w3.org/1999/02/22-rdf-syntax-ns#"
   xmlns:svg="http://www.w3.org/2000/svg"
   xmlns="http://www.w3.org/2000/svg"
   xmlns:sodipodi="http://sodipodi.sourceforge.net/DTD/sodipodi-0.dtd"
   xmlns:inkscape="http://www.inkscape.org/namespaces/inkscape"
   version="1.1"
   id="Capa_1"
   x="0px"
   y="0px"
   viewBox="0 0 230 230.00001"
   xml:space="preserve"
   sodipodi:docname="virtual-reality.svg"
   width="230"
   height="230"
   inkscape:version="1.0.2 (e86c870879, 2021-01-15, custom)"><metadata
   id="metadata67"><rdf:RDF><cc:Work
       rdf:about=""><dc:format>image/svg+xml</dc:format><dc:type
         rdf:resource="http://purl.org/dc/dcmitype/StillImage" /><dc:title></dc:title></cc:Work></rdf:RDF></metadata><defs
   id="defs65" /><sodipodi:namedview
   pagecolor="#ffffff"
   bordercolor="#666666"
   borderopacity="1"
   objecttolerance="10"
   gridtolerance="10"
   guidetolerance="10"
   inkscape:pageopacity="0"
   inkscape:pageshadow="2"
   inkscape:window-width="1920"
   inkscape:window-height="1013"
   id="namedview63"
   showgrid="false"
   fit-margin-top="0"
   fit-margin-left="0"
   fit-margin-right="0"
   fit-margin-bottom="0"
   inkscape:zoom="1.5895329"
   inkscape:cx="-166.4896"
   inkscape:cy="142.80287"
   inkscape:window-x="-9"
   inkscape:window-y="-9"
   inkscape:window-maximized="1"
   inkscape:current-layer="Capa_1" />




<circle
   style="font-variation-settings:normal;vector-effect:none;fill:#ffffff;fill-opacity:1;fill-rule:evenodd;stroke-width:1.56907;stroke-linecap:butt;stroke-linejoin:miter;stroke-miterlimit:4;stroke-dasharray:none;stroke-dashoffset:0;stroke-opacity:1;stop-color:#000000"
   id="path894-5"
   cx="115"
   cy="115"
   r="115" /><circle
   style="font-variation-settings:normal;opacity:1;vector-effect:none;fill:#1794d3;fill-opacity:1;fill-rule:evenodd;stroke-width:1.50085;stroke-linecap:butt;stroke-linejoin:miter;stroke-miterlimit:4;stroke-dasharray:none;stroke-dashoffset:0;stroke-opacity:1;stop-color:#000000;stop-opacity:1"
   id="path894"
   cx="115"
   cy="115"
   r="110" /><g
   id="g913"
   transform="translate(124.23601,-9.0503429)"><g
     id="g6"
     transform="matrix(0.43080014,0,0,0.43080014,-108.83701,24.44935)"
     style="fill:#ffffff;fill-opacity:1">
	<g
   id="g4"
   style="fill:#ffffff;fill-opacity:1">
		<path
   d="m 462.4,231 c 0,-49.6 -46,-93.2 -114.4,-116.4 -4,-11.2 -8,-22 -13.2,-32 C 309.6,30.2 271.6,0.2 231.2,0.2 156.8,0.2 96,103.8 96,231 c 0,35.6 4.8,70 13.6,101.2 -58,-22 -96.4,-59.2 -96.4,-101.2 0,-37.2 30,-72 82.4,-95.2 3.2,-1.6 4.8,-5.2 3.2,-8.8 -1.6,-3.2 -5.6,-4.8 -8.8,-3.2 C 33.2,149.4 0,188.6 0,231 c 0,49.6 46,93.2 114.4,116.8 5.6,16.4 12,31.6 20,45.2 25.6,44.4 60,69.2 96.8,69.2 42.8,0 82,-33.2 107.6,-90.8 1.6,-3.2 0,-7.2 -3.2,-8.8 -3.2,-1.6 -7.2,0 -8.8,3.2 -23.6,52.8 -58.4,83.2 -95.6,83.2 -32,0 -62,-22 -85.2,-62.4 -6,-10.4 -11.2,-21.6 -16,-34 30.4,8.8 64.8,13.6 101.2,13.6 127.2,0 231.2,-60.8 231.2,-135.2 z M 124.8,337.4 C 114.4,305.4 109.2,269 109.2,231 c 0,-120 54.8,-218 122,-218 35.2,0 68.8,27.6 92,75.2 3.2,6.8 6,13.6 8.8,21.2 -30.4,-8.8 -64.8,-13.6 -100.8,-13.6 -31.6,0 -62.4,3.6 -90.8,10.8 -3.6,0.8 -5.6,4.4 -4.8,8 0.8,3.6 4.4,5.6 8,4.8 27.6,-6.8 57.2,-10.4 87.6,-10.4 38.4,0 74.8,5.6 106.4,15.6 2.8,9.2 5.6,18.8 7.6,28.4 5.6,24.8 8,51.2 8,78 0,30.4 -3.6,59.6 -10.4,86.8 -0.8,3.6 1.2,7.2 4.8,8 3.6,0.8 7.2,-1.2 8,-4.8 7.2,-28.4 10.4,-58.8 10.4,-90 0,-28 -2.8,-54.8 -8.4,-80.8 -1.6,-6.8 -3.2,-13.6 -5.2,-20.4 58,22 96,59.2 96,101.2 0.8,67.2 -97.2,122 -217.2,122 -38.4,0 -74.8,-5.6 -106.4,-15.6 z"
   id="path2"
   style="fill:#ffffff;fill-opacity:1" />
	</g>
</g><g
     id="g12"
     transform="matrix(0.43080014,0,0,0.43080014,-108.83701,24.44935)"
     style="fill:#ffffff;fill-opacity:1">
	<g
   id="g10"
   style="fill:#ffffff;fill-opacity:1">
		<path
   d="m 165.2,242.6 c 8.8,-3.2 13.2,-9.2 13.2,-16.8 0,-9.6 -8.4,-17.6 -23.6,-17.6 -9.2,0 -17.6,2.8 -22,5.2 l 3.6,12 c 2.8,-1.6 9.2,-4.4 14.8,-4.4 7.2,0 10.4,3.2 10.4,7.6 0,6 -7.2,8 -12.8,8.4 h -6.4 v 12 h 6.8 c 7.2,0 14.4,3.2 14.4,10.4 0,5.2 -4.4,9.6 -13.2,9.6 -6.8,0 -13.6,-2.8 -16.4,-4.4 l -3.6,12.4 c 4,2.8 12,5.2 21.2,5.2 18,0 29.2,-9.2 29.2,-22 0,-9.6 -7.2,-16 -15.6,-17.6 z"
   id="path8"
   style="fill:#ffffff;fill-opacity:1" />
	</g>
</g><g
     id="g18"
     transform="matrix(0.43080014,0,0,0.43080014,-108.83701,24.44935)"
     style="fill:#ffffff;fill-opacity:1">
	<g
   id="g16"
   style="fill:#ffffff;fill-opacity:1">
		<path
   d="m 222.8,232.6 c -6.8,0 -11.6,2 -15.2,5.6 h -0.4 c 2,-8.4 8.4,-16 23.2,-17.2 2.8,-0.4 4.8,-0.4 6.4,-0.4 v -12.8 c -1.6,0 -3.6,0 -6.8,0 -11.2,0.4 -20.4,4 -27.6,10.4 -7.6,7.2 -12.8,18.4 -12.8,31.6 0,17.2 9.2,31.2 28.4,31.2 15.6,0 26.4,-11.6 26.4,-26 0.4,-14 -9.6,-22.4 -21.6,-22.4 z m -4.4,36.8 c -7.6,0 -11.2,-6.8 -11.6,-14.4 0,-2 0.4,-3.2 0.8,-4 1.6,-3.6 5.2,-6.4 10,-6.4 7.2,0 10.8,5.6 10.8,12.4 -0.4,7.2 -4,12.4 -10,12.4 z"
   id="path14"
   style="fill:#ffffff;fill-opacity:1" />
	</g>
</g><g
     id="g24"
     transform="matrix(0.43080014,0,0,0.43080014,-108.83701,24.44935)"
     style="fill:#ffffff;fill-opacity:1">
	<g
   id="g22"
   style="fill:#ffffff;fill-opacity:1">
		<path
   d="m 278.8,207.8 c -18.4,0 -27.2,16.4 -27.2,37.2 0,20.4 8.4,36.8 26.8,36.8 18.4,0 27.2,-15.2 27.2,-37.2 -0.4,-19.6 -8,-36.8 -26.8,-36.8 z m -0.4,61.2 c -6.4,0 -10.4,-8 -10.4,-24 0,-16.4 4,-24.4 10.4,-24.4 6.8,0 10,8.4 10,24 0,16.4 -3.2,24.4 -10,24.4 z"
   id="path20"
   style="fill:#ffffff;fill-opacity:1" />
	</g>
</g><g
     id="g30"
     transform="matrix(0.43080014,0,0,0.43080014,-108.83701,24.44935)"
     style="fill:#ffffff;fill-opacity:1">
	<g
   id="g28"
   style="fill:#ffffff;fill-opacity:1">
		<path
   d="m 321.6,165.8 c -13.2,0 -24,10.8 -24,24 0,13.2 10.8,24 24,24 13.2,0 24,-10.8 24,-24 0.4,-13.2 -10.8,-24 -24,-24 z m 0,35.2 c -6,0 -10.8,-4.8 -10.8,-10.8 0,-6 4.8,-10.8 10.8,-10.8 6,0 10.8,4.8 10.8,10.8 0.4,6 -4.8,10.8 -10.8,10.8 z"
   id="path26"
   style="fill:#ffffff;fill-opacity:1" />
	</g>
</g></g>
<g
   id="g32"
   transform="translate(-314.02396,-226.77688)">
</g>
<g
   id="g34"
   transform="translate(-314.02396,-226.77688)">
</g>
<g
   id="g36"
   transform="translate(-314.02396,-226.77688)">
</g>
<g
   id="g38"
   transform="translate(-314.02396,-226.77688)">
</g>
<g
   id="g40"
   transform="translate(-314.02396,-226.77688)">
</g>
<g
   id="g42"
   transform="translate(-314.02396,-226.77688)">
</g>
<g
   id="g44"
   transform="translate(-314.02396,-226.77688)">
</g>
<g
   id="g46"
   transform="translate(-314.02396,-226.77688)">
</g>
<g
   id="g48"
   transform="translate(-314.02396,-226.77688)">
</g>
<g
   id="g50"
   transform="translate(-314.02396,-226.77688)">
</g>
<g
   id="g52"
   transform="translate(-314.02396,-226.77688)">
</g>
<g
   id="g54"
   transform="translate(-314.02396,-226.77688)">
</g>
<g
   id="g56"
   transform="translate(-314.02396,-226.77688)">
</g>
<g
   id="g58"
   transform="translate(-314.02396,-226.77688)">
</g>
<g
   id="g60"
   transform="translate(-314.02396,-226.77688)">
</g>
</svg>
