<?xml version="1.0" encoding="UTF-8" standalone="no"?>
<svg
   id="Layer_1"
   version="1.1"
   viewBox="0 0 54.036242 54.036242"
   xml:space="preserve"
   sodipodi:docname="zoomToExtents.svg"
   width="54.036243"
   height="54.036243"
   inkscape:version="1.1 (c68e22c387, 2021-05-23)"
   xmlns:inkscape="http://www.inkscape.org/namespaces/inkscape"
   xmlns:sodipodi="http://sodipodi.sourceforge.net/DTD/sodipodi-0.dtd"
   xmlns="http://www.w3.org/2000/svg"
   xmlns:svg="http://www.w3.org/2000/svg"><defs
     id="defs12" /><sodipodi:namedview
     id="namedview10"
     pagecolor="#ffffff"
     bordercolor="#666666"
     borderopacity="1.0"
     inkscape:pageshadow="2"
     inkscape:pageopacity="0.0"
     inkscape:pagecheckerboard="0"
     showgrid="false"
     fit-margin-top="0"
     fit-margin-left="0"
     fit-margin-right="0"
     fit-margin-bottom="0"
     inkscape:zoom="8.1759221"
     inkscape:cx="20.486986"
     inkscape:cy="28.070228"
     inkscape:window-width="1920"
     inkscape:window-height="1013"
     inkscape:window-x="-9"
     inkscape:window-y="-9"
     inkscape:window-maximized="1"
     inkscape:current-layer="Layer_1" /><style
     type="text/css"
     id="style2">
	.st0{fill:#48CFAD;}
	.st1{fill:none;stroke:#FFFFFF;stroke-width:20;stroke-miterlimit:10;}
	.st2{fill:#FFFFFF;stroke:#FFFFFF;stroke-width:20;stroke-miterlimit:10;}
</style><circle
     class="st0"
     cx="27.018122"
     cy="27.018122"
     r="27.018122"
     id="circle4"
     style="stroke-width:0.108072" /><g
     id="XMLID_1163_"
     transform="translate(-13.032842,11.918467)" /><g
     id="g1039"
     transform="matrix(0.40765747,0,0,0.40765747,16.020226,16.217177)"
     style="fill:#ffffff"><g
       id="g1305"
       transform="matrix(1.2244155,0,0,1.2244155,-6.0543494,-5.9459255)"><polyline
         class="st0"
         points="26.1,11.9 30.1,16 26.1,20.1 "
         id="polyline6"
         style="fill:#ffffff"
         transform="matrix(1.4889195,0,0,1.4889195,-14.716476,-7.822712)" /><circle
         class="st1"
         cx="218.3"
         cy="231.8"
         id="XMLID_1130_"
         r="80.400002"
         transform="matrix(0.245304,0,0,0.245304,-37.129907,-40.946097)" /><line
         class="st2"
         id="XMLID_1131_"
         x1="275"
         x2="387.70001"
         y1="288.29999"
         y2="401.39999"
         transform="matrix(0.245304,0,0,0.245304,-37.129907,-40.946097)" /><polyline
         class="st0"
         points="6.1,20.1 2,16 6.1,11.9 "
         id="polyline4"
         style="fill:#ffffff"
         transform="matrix(1.4915782,0,0,1.4915782,-0.98315636,-7.8652509)" /><polyline
         class="st0"
         points="20.1,26 16.1,30.1 12,26 "
         id="polyline8"
         style="fill:#ffffff"
         transform="matrix(1.4979899,0,0,1.4979899,-7.9927381,-14.989496)" /><polyline
         class="st0"
         points="12,6 16.1,1.9 20.1,6 "
         id="polyline10"
         style="fill:#ffffff"
         transform="matrix(1.5089852,0,0,1.5089852,-8.1692128,-0.96707192)" /></g></g></svg>
