<?xml version="1.0" encoding="UTF-8" standalone="no"?>
<svg
   height="45"
   viewBox="0 0 45 45"
   width="45"
   fill="#000000"
   version="1.1"
   id="svg6"
   sodipodi:docname="zoomOut.svg"
   inkscape:version="1.1 (c68e22c387, 2021-05-23)"
   xmlns:inkscape="http://www.inkscape.org/namespaces/inkscape"
   xmlns:sodipodi="http://sodipodi.sourceforge.net/DTD/sodipodi-0.dtd"
   xmlns="http://www.w3.org/2000/svg"
   xmlns:svg="http://www.w3.org/2000/svg">
  <defs
     id="defs10" />
  <sodipodi:namedview
     id="namedview8"
     pagecolor="#ffffff"
     bordercolor="#666666"
     borderopacity="1.0"
     inkscape:pageshadow="2"
     inkscape:pageopacity="0.0"
     inkscape:pagecheckerboard="true"
     showgrid="false"
     fit-margin-top="0"
     fit-margin-left="0"
     fit-margin-right="0"
     fit-margin-bottom="0"
     inkscape:zoom="7.7083333"
     inkscape:cx="33.794595"
     inkscape:cy="25.362162"
     inkscape:window-width="1920"
     inkscape:window-height="1013"
     inkscape:window-x="-9"
     inkscape:window-y="-9"
     inkscape:window-maximized="1"
     inkscape:current-layer="svg6" />
  <circle
     style="font-variation-settings:normal;vector-effect:none;fill:#ffffff;fill-opacity:1;fill-rule:evenodd;stroke-width:2.90272;stroke-linecap:butt;stroke-linejoin:miter;stroke-miterlimit:4;stroke-dasharray:none;stroke-dashoffset:0;stroke-opacity:1;stop-color:#000000"
     id="path849"
     cx="22.5"
     cy="22.5"
     r="22.5" />
  <path
     d="m 10.5,10.5 h 24 v 24 h -24 z"
     fill="none"
     id="path2" />
  <path
     d="m 25.5,13.5 2.3,2.3 -2.89,2.87 1.42,1.42 2.87,-2.89 2.3,2.3 v -6 z m -12,6 2.3,-2.3 2.87,2.89 1.42,-1.42 -2.89,-2.87 2.3,-2.3 h -6 z m 6,12 -2.3,-2.3 2.89,-2.87 -1.42,-1.42 -2.87,2.89 -2.3,-2.3 v 6 z m 12,-6 -2.3,2.3 -2.87,-2.89 -1.42,1.42 2.89,2.87 -2.3,2.3 h 6 z"
     id="path4"
     style="fill:#000000;fill-opacity:1" />
</svg>
