<svg xmlns="http://www.w3.org/2000/svg" height="40" width="40"><path d="M26.958 27.25q2 0 3.375 1.375t1.375 3.333q0 2-1.375 3.375t-3.375 1.375q-1.5 0-2.729-.916-1.229-.917-1.687-2.375H10.875l-1.708 2.625q-.334.5-.875.625-.542.125-1-.209-.5-.333-.646-.875-.146-.541.146-1.041l7.25-11.042q-3.084-1.25-5-3.917-1.917-2.666-2.167-6.125h22.958q-.208 3.459-2.187 6.104-1.979 2.646-4.979 3.896l1.916 3q-.666.334-1.208.73-.542.395-1 .937l-2.542-3.917q-.25.084-.666.084h-1.584q-.416 0-.708-.084l-4.167 6.417h9.834q.458-1.5 1.666-2.437 1.209-.938 2.75-.938Zm0 6.667q.834 0 1.396-.563.563-.562.563-1.396 0-.791-.563-1.354-.562-.562-1.396-.562-.791 0-1.354.562-.562.563-.562 1.354 0 .834.562 1.396.563.563 1.354.563ZM14.792 11.875q.208-1.208-.063-2.062-.271-.855-1.187-2.063-.875-1.167-1.146-2.125-.271-.958-.063-2.292h1.417q-.167 1.334.083 2.146.25.813 1.125 1.938t1.146 2.104q.271.979.104 2.354Zm3.541 0q.167-1.417-.083-2.229-.25-.813-1.125-1.896-.917-1.125-1.187-2.104-.271-.979-.063-2.313h1.375q-.208 1.125.062 1.98.271.854 1.188 2.104.833 1.083 1.104 2.083.271 1 .104 2.375Zm3.5 0Q22 10.5 21.75 9.667q-.25-.834-1.125-1.917-.917-1.167-1.187-2.125-.271-.958-.063-2.292h1.375q-.208 1.125.062 1.98.271.854 1.23 2.104.833 1.083 1.104 2.062.271.979.062 2.396Z"/></svg>