<?xml version="1.0" encoding="UTF-8" standalone="no"?>
<!-- Generator: Adobe Illustrator 19.0.0, SVG Export Plug-In . SVG Version: 6.00 Build 0)  -->

<svg
   version="1.1"
   id="Layer_1"
   x="0px"
   y="0px"
   viewBox="0 0 512.001 512.001"
   style="enable-background:new 0 0 512.001 512.001;"
   xml:space="preserve"
   sodipodi:docname="bocce.svg"
   inkscape:version="1.2 (dc2aedaf03, 2022-05-15)"
   xmlns:inkscape="http://www.inkscape.org/namespaces/inkscape"
   xmlns:sodipodi="http://sodipodi.sourceforge.net/DTD/sodipodi-0.dtd"
   xmlns="http://www.w3.org/2000/svg"
   xmlns:svg="http://www.w3.org/2000/svg"><defs
   id="defs55" /><sodipodi:namedview
   id="namedview53"
   pagecolor="#ffffff"
   bordercolor="#111111"
   borderopacity="1"
   inkscape:showpageshadow="0"
   inkscape:pageopacity="0"
   inkscape:pagecheckerboard="1"
   inkscape:deskcolor="#d1d1d1"
   showgrid="false"
   inkscape:zoom="0.46093662"
   inkscape:cx="257.08524"
   inkscape:cy="257.08524"
   inkscape:window-width="1920"
   inkscape:window-height="991"
   inkscape:window-x="-9"
   inkscape:window-y="-9"
   inkscape:window-maximized="1"
   inkscape:current-layer="Layer_1" />
<circle
   style="fill:#000000;fill-opacity:1"
   cx="462.635"
   cy="449.392"
   r="49.366"
   id="circle2" />
<path
   style="fill:#000000;fill-opacity:1"
   d="M140.984,122.572c-31.103,0.517-59.059,13.15-80.845,36.531c-4.956,5.32-4.661,13.649,0.658,18.605  c5.321,4.958,13.65,4.661,18.605-0.658c16.792-18.022,38.239-27.758,62.02-28.155c29.331-0.483,60.174,13.341,84.676,37.941  l18.655-18.579C215.231,138.618,177.379,121.973,140.984,122.572z"
   id="path4" />
<g
   id="g10"
   style="fill:#000000;fill-opacity:1">
	<path
   style="fill:#000000;fill-opacity:1"
   d="M186.822,329.391C185.835,329.423,187.754,329.568,186.822,329.391L186.822,329.391z"
   id="path6" />
	<path
   style="fill:#000000;fill-opacity:1"
   d="M155.287,281.061l-26.08,3.614c0.043,0.317,4.257,32.162-8.2,66.566   c-16.433,45.384-53.395,72.829-109.857,81.572C4.734,433.806,0,439.328,0,445.822v39.773c0,7.271,5.894,13.164,13.164,13.164   s13.164-5.894,13.164-13.164v-28.758c74.988-15.251,106.343-60.482,119.434-96.633   C160.414,319.743,155.504,282.621,155.287,281.061z"
   id="path8" />
</g>
<path
   style="fill:#000000;fill-opacity:1"
   d="M351.164,472.434c7.267,0,13.164,5.884,13.164,13.164c0,7.267-5.898,13.164-13.164,13.164h-39.77  c-3.673,0-7.175-1.527-9.663-4.226s-3.752-6.306-3.462-9.965c3.989-51.407-9.399-97.298-36.715-125.904  c-19.075-19.957-43.074-30.594-73.418-30.594c-11.15,0-23.749-5.424-36.241-15.231c-34.135-26.803-34.951-52.934-5.384-96.429  l74.805,11.833l25.547,67.166c-4.844,5.358-9.518,10.071-14.046,14.152c17.864,6.095,33.99,16.495,47.773,30.923  c29.857,31.239,45.786,78.762,44.64,131.946L351.164,472.434L351.164,472.434z"
   id="path12" />
<path
   style="fill:#000000;fill-opacity:1"
   d="M277.918,152.751c48.748,38.374,30.568,65.756-14.125,122.481  c-5.911,7.517-11.532,14.244-16.929,20.181l-100.352-78.999c4.502-6.635,9.728-13.678,15.652-21.195  C206.778,138.494,229.17,114.337,277.918,152.751z"
   id="path14" />
<g
   id="g20"
   style="fill:#000000;fill-opacity:1">
	<path
   style="fill:#000000;fill-opacity:1"
   d="M390.246,108.253c-17.569,30.275-56.236,40.54-86.495,22.978   c-30.204-17.528-40.536-56.226-22.967-86.502c17.488-30.135,56.282-40.483,86.487-22.953   C397.531,39.336,407.733,78.118,390.246,108.253z"
   id="path16" />
	<path
   style="fill:#000000;fill-opacity:1"
   d="M364.199,327.783c-30.131,0-57.183-10.808-78.489-31.413   c-26.185-25.328-41.156-63.847-41.071-105.682c0.014-7.261,5.906-13.138,13.164-13.138c7.297,0.014,13.18,5.921,13.164,13.191   c-0.07,34.721,11.976,66.323,33.048,86.704c17.095,16.536,39.144,24.803,63.763,23.946c7.277-0.247,13.363,5.425,13.621,12.692   c0.257,7.265-5.425,13.364-12.692,13.621C367.199,327.755,365.693,327.783,364.199,327.783z"
   id="path18" />
</g>
<g
   id="g22">
</g>
<g
   id="g24">
</g>
<g
   id="g26">
</g>
<g
   id="g28">
</g>
<g
   id="g30">
</g>
<g
   id="g32">
</g>
<g
   id="g34">
</g>
<g
   id="g36">
</g>
<g
   id="g38">
</g>
<g
   id="g40">
</g>
<g
   id="g42">
</g>
<g
   id="g44">
</g>
<g
   id="g46">
</g>
<g
   id="g48">
</g>
<g
   id="g50">
</g>
</svg>
