<svg xmlns="http://www.w3.org/2000/svg" height="40" width="40"><path d="M5 19.708v12.5q0 1.125.833 1.959.834.833 1.959.833h24.416q1.125 0 1.959-.833.833-.834.833-1.959v-12.5h-6.958v8.334H11.958v-8.334Zm9.708 5.584h10.584v-5.584H14.708ZM5 16.958h30V7.792q0-1.125-.833-1.959Q33.333 5 32.208 5H7.792q-1.125 0-1.959.833Q5 6.667 5 7.792Zm8.333-3.916q-.583 0-.979-.396t-.396-.979q0-.584.396-.979.396-.396.979-.396.584 0 .979.396.396.395.396.979 0 .583-.396.979-.395.396-.979.396Zm6.667 0q-.583 0-.979-.396t-.396-.979q0-.584.396-.979.396-.396.979-.396t.979.396q.396.395.396.979 0 .583-.396.979t-.979.396Zm6.667 0q-.584 0-.979-.396-.396-.396-.396-.979 0-.584.396-.979.395-.396.979-.396.583 0 .979.396.396.395.396.979 0 .583-.396.979t-.979.396Z"/></svg>